%TF.GenerationSoftware,KiCad,Pcbnew,7.0.6*%
%TF.CreationDate,2025-01-04T15:57:42+10:30*%
%TF.ProjectId,Security System SMPS,53656375-7269-4747-9920-53797374656d,rev?*%
%TF.SameCoordinates,Original*%
%TF.FileFunction,Legend,Top*%
%TF.FilePolarity,Positive*%
%FSLAX46Y46*%
G04 Gerber Fmt 4.6, Leading zero omitted, Abs format (unit mm)*
G04 Created by KiCad (PCBNEW 7.0.6) date 2025-01-04 15:57:42*
%MOMM*%
%LPD*%
G01*
G04 APERTURE LIST*
%ADD10C,0.150000*%
%ADD11C,0.254000*%
%ADD12C,0.152400*%
%ADD13C,0.508000*%
%ADD14C,0.200000*%
%ADD15C,0.120000*%
%ADD16C,0.050000*%
G04 APERTURE END LIST*
D10*
X131863180Y-75438095D02*
X131053657Y-75438095D01*
X131053657Y-75438095D02*
X130958419Y-75485714D01*
X130958419Y-75485714D02*
X130910800Y-75533333D01*
X130910800Y-75533333D02*
X130863180Y-75628571D01*
X130863180Y-75628571D02*
X130863180Y-75819047D01*
X130863180Y-75819047D02*
X130910800Y-75914285D01*
X130910800Y-75914285D02*
X130958419Y-75961904D01*
X130958419Y-75961904D02*
X131053657Y-76009523D01*
X131053657Y-76009523D02*
X131863180Y-76009523D01*
X131767942Y-76438095D02*
X131815561Y-76485714D01*
X131815561Y-76485714D02*
X131863180Y-76580952D01*
X131863180Y-76580952D02*
X131863180Y-76819047D01*
X131863180Y-76819047D02*
X131815561Y-76914285D01*
X131815561Y-76914285D02*
X131767942Y-76961904D01*
X131767942Y-76961904D02*
X131672704Y-77009523D01*
X131672704Y-77009523D02*
X131577466Y-77009523D01*
X131577466Y-77009523D02*
X131434609Y-76961904D01*
X131434609Y-76961904D02*
X130863180Y-76390476D01*
X130863180Y-76390476D02*
X130863180Y-77009523D01*
X125918619Y-71310499D02*
X126156714Y-71310499D01*
X126061476Y-71548594D02*
X126156714Y-71310499D01*
X126156714Y-71310499D02*
X126061476Y-71072404D01*
X126347190Y-71453356D02*
X126156714Y-71310499D01*
X126156714Y-71310499D02*
X126347190Y-71167642D01*
X127008980Y-71310500D02*
X126770885Y-71310500D01*
X126866123Y-71072405D02*
X126770885Y-71310500D01*
X126770885Y-71310500D02*
X126866123Y-71548595D01*
X126580409Y-71167643D02*
X126770885Y-71310500D01*
X126770885Y-71310500D02*
X126580409Y-71453357D01*
X109944819Y-103631904D02*
X110754342Y-103631904D01*
X110754342Y-103631904D02*
X110849580Y-103584285D01*
X110849580Y-103584285D02*
X110897200Y-103536666D01*
X110897200Y-103536666D02*
X110944819Y-103441428D01*
X110944819Y-103441428D02*
X110944819Y-103250952D01*
X110944819Y-103250952D02*
X110897200Y-103155714D01*
X110897200Y-103155714D02*
X110849580Y-103108095D01*
X110849580Y-103108095D02*
X110754342Y-103060476D01*
X110754342Y-103060476D02*
X109944819Y-103060476D01*
X110944819Y-102060476D02*
X110944819Y-102631904D01*
X110944819Y-102346190D02*
X109944819Y-102346190D01*
X109944819Y-102346190D02*
X110087676Y-102441428D01*
X110087676Y-102441428D02*
X110182914Y-102536666D01*
X110182914Y-102536666D02*
X110230533Y-102631904D01*
X108420819Y-103885999D02*
X108658914Y-103885999D01*
X108563676Y-104124094D02*
X108658914Y-103885999D01*
X108658914Y-103885999D02*
X108563676Y-103647904D01*
X108849390Y-104028856D02*
X108658914Y-103885999D01*
X108658914Y-103885999D02*
X108849390Y-103743142D01*
X133804066Y-112638118D02*
X133804066Y-113352403D01*
X133804066Y-113352403D02*
X133756447Y-113495260D01*
X133756447Y-113495260D02*
X133661209Y-113590499D01*
X133661209Y-113590499D02*
X133518352Y-113638118D01*
X133518352Y-113638118D02*
X133423114Y-113638118D01*
X134232638Y-112733356D02*
X134280257Y-112685737D01*
X134280257Y-112685737D02*
X134375495Y-112638118D01*
X134375495Y-112638118D02*
X134613590Y-112638118D01*
X134613590Y-112638118D02*
X134708828Y-112685737D01*
X134708828Y-112685737D02*
X134756447Y-112733356D01*
X134756447Y-112733356D02*
X134804066Y-112828594D01*
X134804066Y-112828594D02*
X134804066Y-112923832D01*
X134804066Y-112923832D02*
X134756447Y-113066689D01*
X134756447Y-113066689D02*
X134185019Y-113638118D01*
X134185019Y-113638118D02*
X134804066Y-113638118D01*
X112188666Y-112484819D02*
X112188666Y-113199104D01*
X112188666Y-113199104D02*
X112141047Y-113341961D01*
X112141047Y-113341961D02*
X112045809Y-113437200D01*
X112045809Y-113437200D02*
X111902952Y-113484819D01*
X111902952Y-113484819D02*
X111807714Y-113484819D01*
X113188666Y-113484819D02*
X112617238Y-113484819D01*
X112902952Y-113484819D02*
X112902952Y-112484819D01*
X112902952Y-112484819D02*
X112807714Y-112627676D01*
X112807714Y-112627676D02*
X112712476Y-112722914D01*
X112712476Y-112722914D02*
X112617238Y-112770533D01*
D11*
X130852333Y-101412318D02*
X130247571Y-101412318D01*
X130247571Y-101412318D02*
X130247571Y-100142318D01*
X131940905Y-101412318D02*
X131215190Y-101412318D01*
X131578047Y-101412318D02*
X131578047Y-100142318D01*
X131578047Y-100142318D02*
X131457095Y-100323746D01*
X131457095Y-100323746D02*
X131336143Y-100444699D01*
X131336143Y-100444699D02*
X131215190Y-100505175D01*
D10*
X128547905Y-63410819D02*
X128547905Y-62410819D01*
X128547905Y-62410819D02*
X128786000Y-62410819D01*
X128786000Y-62410819D02*
X128928857Y-62458438D01*
X128928857Y-62458438D02*
X129024095Y-62553676D01*
X129024095Y-62553676D02*
X129071714Y-62648914D01*
X129071714Y-62648914D02*
X129119333Y-62839390D01*
X129119333Y-62839390D02*
X129119333Y-62982247D01*
X129119333Y-62982247D02*
X129071714Y-63172723D01*
X129071714Y-63172723D02*
X129024095Y-63267961D01*
X129024095Y-63267961D02*
X128928857Y-63363200D01*
X128928857Y-63363200D02*
X128786000Y-63410819D01*
X128786000Y-63410819D02*
X128547905Y-63410819D01*
X130071714Y-63410819D02*
X129500286Y-63410819D01*
X129786000Y-63410819D02*
X129786000Y-62410819D01*
X129786000Y-62410819D02*
X129690762Y-62553676D01*
X129690762Y-62553676D02*
X129595524Y-62648914D01*
X129595524Y-62648914D02*
X129500286Y-62696533D01*
D11*
X131289333Y-88591365D02*
X131228857Y-88651842D01*
X131228857Y-88651842D02*
X131047428Y-88712318D01*
X131047428Y-88712318D02*
X130926476Y-88712318D01*
X130926476Y-88712318D02*
X130745047Y-88651842D01*
X130745047Y-88651842D02*
X130624095Y-88530889D01*
X130624095Y-88530889D02*
X130563618Y-88409937D01*
X130563618Y-88409937D02*
X130503142Y-88168032D01*
X130503142Y-88168032D02*
X130503142Y-87986603D01*
X130503142Y-87986603D02*
X130563618Y-87744699D01*
X130563618Y-87744699D02*
X130624095Y-87623746D01*
X130624095Y-87623746D02*
X130745047Y-87502794D01*
X130745047Y-87502794D02*
X130926476Y-87442318D01*
X130926476Y-87442318D02*
X131047428Y-87442318D01*
X131047428Y-87442318D02*
X131228857Y-87502794D01*
X131228857Y-87502794D02*
X131289333Y-87563270D01*
X132377904Y-87865651D02*
X132377904Y-88712318D01*
X132075523Y-87381842D02*
X131773142Y-88288984D01*
X131773142Y-88288984D02*
X132559333Y-88288984D01*
X114868333Y-69795365D02*
X114807857Y-69855842D01*
X114807857Y-69855842D02*
X114626428Y-69916318D01*
X114626428Y-69916318D02*
X114505476Y-69916318D01*
X114505476Y-69916318D02*
X114324047Y-69855842D01*
X114324047Y-69855842D02*
X114203095Y-69734889D01*
X114203095Y-69734889D02*
X114142618Y-69613937D01*
X114142618Y-69613937D02*
X114082142Y-69372032D01*
X114082142Y-69372032D02*
X114082142Y-69190603D01*
X114082142Y-69190603D02*
X114142618Y-68948699D01*
X114142618Y-68948699D02*
X114203095Y-68827746D01*
X114203095Y-68827746D02*
X114324047Y-68706794D01*
X114324047Y-68706794D02*
X114505476Y-68646318D01*
X114505476Y-68646318D02*
X114626428Y-68646318D01*
X114626428Y-68646318D02*
X114807857Y-68706794D01*
X114807857Y-68706794D02*
X114868333Y-68767270D01*
X115291666Y-68646318D02*
X116077857Y-68646318D01*
X116077857Y-68646318D02*
X115654523Y-69130127D01*
X115654523Y-69130127D02*
X115835952Y-69130127D01*
X115835952Y-69130127D02*
X115956904Y-69190603D01*
X115956904Y-69190603D02*
X116017380Y-69251080D01*
X116017380Y-69251080D02*
X116077857Y-69372032D01*
X116077857Y-69372032D02*
X116077857Y-69674413D01*
X116077857Y-69674413D02*
X116017380Y-69795365D01*
X116017380Y-69795365D02*
X115956904Y-69855842D01*
X115956904Y-69855842D02*
X115835952Y-69916318D01*
X115835952Y-69916318D02*
X115473095Y-69916318D01*
X115473095Y-69916318D02*
X115352142Y-69855842D01*
X115352142Y-69855842D02*
X115291666Y-69795365D01*
X114850333Y-81421365D02*
X114789857Y-81481842D01*
X114789857Y-81481842D02*
X114608428Y-81542318D01*
X114608428Y-81542318D02*
X114487476Y-81542318D01*
X114487476Y-81542318D02*
X114306047Y-81481842D01*
X114306047Y-81481842D02*
X114185095Y-81360889D01*
X114185095Y-81360889D02*
X114124618Y-81239937D01*
X114124618Y-81239937D02*
X114064142Y-80998032D01*
X114064142Y-80998032D02*
X114064142Y-80816603D01*
X114064142Y-80816603D02*
X114124618Y-80574699D01*
X114124618Y-80574699D02*
X114185095Y-80453746D01*
X114185095Y-80453746D02*
X114306047Y-80332794D01*
X114306047Y-80332794D02*
X114487476Y-80272318D01*
X114487476Y-80272318D02*
X114608428Y-80272318D01*
X114608428Y-80272318D02*
X114789857Y-80332794D01*
X114789857Y-80332794D02*
X114850333Y-80393270D01*
X115334142Y-80393270D02*
X115394618Y-80332794D01*
X115394618Y-80332794D02*
X115515571Y-80272318D01*
X115515571Y-80272318D02*
X115817952Y-80272318D01*
X115817952Y-80272318D02*
X115938904Y-80332794D01*
X115938904Y-80332794D02*
X115999380Y-80393270D01*
X115999380Y-80393270D02*
X116059857Y-80514222D01*
X116059857Y-80514222D02*
X116059857Y-80635175D01*
X116059857Y-80635175D02*
X115999380Y-80816603D01*
X115999380Y-80816603D02*
X115273666Y-81542318D01*
X115273666Y-81542318D02*
X116059857Y-81542318D01*
X114868333Y-93163365D02*
X114807857Y-93223842D01*
X114807857Y-93223842D02*
X114626428Y-93284318D01*
X114626428Y-93284318D02*
X114505476Y-93284318D01*
X114505476Y-93284318D02*
X114324047Y-93223842D01*
X114324047Y-93223842D02*
X114203095Y-93102889D01*
X114203095Y-93102889D02*
X114142618Y-92981937D01*
X114142618Y-92981937D02*
X114082142Y-92740032D01*
X114082142Y-92740032D02*
X114082142Y-92558603D01*
X114082142Y-92558603D02*
X114142618Y-92316699D01*
X114142618Y-92316699D02*
X114203095Y-92195746D01*
X114203095Y-92195746D02*
X114324047Y-92074794D01*
X114324047Y-92074794D02*
X114505476Y-92014318D01*
X114505476Y-92014318D02*
X114626428Y-92014318D01*
X114626428Y-92014318D02*
X114807857Y-92074794D01*
X114807857Y-92074794D02*
X114868333Y-92135270D01*
X116077857Y-93284318D02*
X115352142Y-93284318D01*
X115714999Y-93284318D02*
X115714999Y-92014318D01*
X115714999Y-92014318D02*
X115594047Y-92195746D01*
X115594047Y-92195746D02*
X115473095Y-92316699D01*
X115473095Y-92316699D02*
X115352142Y-92377175D01*
D12*
%TO.C,U2*%
X129486400Y-72339200D02*
X128566399Y-72339200D01*
X129486400Y-74041000D02*
X128566399Y-74041000D01*
X129486400Y-75742800D02*
X128566399Y-75742800D01*
X129486400Y-77444600D02*
X128566399Y-77444600D01*
X129486400Y-79146400D02*
X128566399Y-79146400D01*
X129486400Y-73253600D02*
X128566399Y-73253600D01*
X129486400Y-74955400D02*
X128566399Y-74955400D01*
X129486400Y-76657200D02*
X128566399Y-76657200D01*
X129486400Y-78359000D02*
X128566399Y-78359000D01*
X129486400Y-80060800D02*
X128566399Y-80060800D01*
X129969000Y-70739000D02*
X129969000Y-81661000D01*
X129969000Y-81661000D02*
X132700151Y-81661000D01*
X132700151Y-70739000D02*
X129969000Y-70739000D01*
%TO.C,U1*%
X113271300Y-105295700D02*
X113271300Y-100444300D01*
X111776661Y-100444300D02*
X109203339Y-100444300D01*
X107708700Y-100444300D02*
X107708700Y-105295700D01*
X109203339Y-105295700D02*
X111776661Y-105295700D01*
D13*
%TO.C,J2*%
X128676400Y-113183299D02*
G75*
G03*
X128676400Y-113183299I-381000J0D01*
G01*
D12*
X128930400Y-119011700D02*
X139344400Y-119011700D01*
X139344400Y-119011700D02*
X139344400Y-107556300D01*
X139344400Y-107556300D02*
X128930400Y-107556300D01*
X128930400Y-107556300D02*
X128930400Y-119011700D01*
D13*
%TO.C,J1*%
X107061000Y-113030000D02*
G75*
G03*
X107061000Y-113030000I-381000J0D01*
G01*
D12*
X107315000Y-118858401D02*
X117729000Y-118858401D01*
X117729000Y-118858401D02*
X117729000Y-107403001D01*
X117729000Y-107403001D02*
X107315000Y-107403001D01*
X107315000Y-107403001D02*
X107315000Y-118858401D01*
D14*
%TO.C,L1*%
X124914000Y-106988000D02*
X137214000Y-106988000D01*
X137214000Y-94688000D02*
X124914000Y-94688000D01*
D15*
%TO.C,D1*%
X124376000Y-70306000D02*
X124376000Y-63806000D01*
X124376000Y-63806000D02*
X132886000Y-63806000D01*
X124376000Y-70306000D02*
X132886000Y-70306000D01*
D16*
%TO.C,C4*%
X124851000Y-88138000D02*
X124851000Y-88138000D01*
X124901000Y-88138000D02*
X124901000Y-88138000D01*
D14*
X126676000Y-85638000D02*
X129326000Y-82988000D01*
X129326000Y-82988000D02*
X136976000Y-82988000D01*
X136976000Y-82988000D02*
X136976000Y-85638000D01*
X126676000Y-90638000D02*
X129326000Y-93288000D01*
X129326000Y-93288000D02*
X136976000Y-93288000D01*
X136976000Y-93288000D02*
X136976000Y-90638000D01*
D16*
X124851000Y-88138000D02*
G75*
G03*
X124901000Y-88138000I25000J0D01*
G01*
X124901000Y-88138000D02*
G75*
G03*
X124851000Y-88138000I-25000J0D01*
G01*
D14*
%TO.C,C3*%
X121930000Y-74592000D02*
X109830000Y-74592000D01*
X117705000Y-64092000D02*
X109830000Y-64092000D01*
%TO.C,C2*%
X121912000Y-86218000D02*
X109812000Y-86218000D01*
X117687000Y-75718000D02*
X109812000Y-75718000D01*
%TO.C,C1*%
X121930000Y-97960000D02*
X109830000Y-97960000D01*
X117705000Y-87460000D02*
X109830000Y-87460000D01*
%TD*%
M02*
