M48
; DRILL file {KiCad 7.0.6} date Fri Jan  3 17:06:06 2025
; FORMAT={-:-/ absolute / metric / decimal}
; #@! TF.CreationDate,2025-01-03T17:06:06+10:30
; #@! TF.GenerationSoftware,Kicad,Pcbnew,7.0.6
; #@! TF.FileFunction,Plated,1,4,PTH
FMAT,2
METRIC
; #@! TA.AperFunction,Plated,PTH,ViaDrill
T1C0.200
; #@! TA.AperFunction,Plated,PTH,ViaDrill
T2C0.300
; #@! TA.AperFunction,Plated,PTH,ViaDrill
T3C0.500
; #@! TA.AperFunction,Plated,PTH,ComponentDrill
T4C0.965
; #@! TA.AperFunction,Plated,PTH,ComponentDrill
T5C1.000
; #@! TA.AperFunction,Plated,PTH,ComponentDrill
T6C1.300
; #@! TA.AperFunction,Plated,PTH,ComponentDrill
T7C1.320
%
G90
G05
T1
X106.197Y-141.935
X108.56Y-127.508
X108.585Y-129.108
X108.585Y-130.683
X108.61Y-128.295
X112.878Y-126.086
X114.173Y-113.411
X114.173Y-113.919
X114.173Y-114.427
X116.078Y-126.111
X116.408Y-141.935
X116.713Y-118.745
X116.713Y-119.253
X116.713Y-119.761
X116.967Y-133.096
X116.992Y-129.896
X116.992Y-130.708
X116.992Y-131.496
X116.992Y-132.309
X121.488Y-141.935
X131.648Y-141.935
X133.629Y-134.163
X134.29Y-128.27
X134.29Y-134.163
X134.925Y-129.083
X134.925Y-134.163
X135.585Y-134.163
X136.246Y-129.083
X136.246Y-134.163
X136.728Y-141.935
X136.881Y-129.083
X136.881Y-134.163
X137.541Y-134.163
X146.888Y-141.935
X151.968Y-141.935
X162.128Y-141.91
X167.132Y-140.335
X182.372Y-140.335
X187.452Y-140.335
X192.532Y-140.335
X197.612Y-140.335
T2
X106.147Y-139.979
X116.383Y-139.979
X121.463Y-139.954
X131.572Y-139.979
X136.652Y-139.954
X146.812Y-139.979
X151.917Y-139.954
X161.976Y-139.979
T3
X111.252Y-130.302
X116.84Y-122.428
X119.38Y-124.968
X123.444Y-106.68
X123.444Y-107.696
X123.444Y-108.712
X123.444Y-109.728
X124.46Y-106.68
X124.46Y-107.696
X124.46Y-108.712
X124.46Y-109.728
X128.524Y-127.0
X130.556Y-132.08
X132.334Y-129.286
X134.874Y-123.444
X135.636Y-131.318
T4
X71.653Y-150.775
X76.733Y-150.775
T5
X121.925Y-126.985
X121.925Y-129.525
X121.925Y-132.065
X124.465Y-126.985
X124.465Y-129.525
X124.465Y-132.065
T6
X86.868Y-150.876
X91.948Y-150.876
X97.028Y-150.876
X102.108Y-150.876
X107.188Y-150.876
T7
X112.268Y-150.876
X117.348Y-150.876
X122.428Y-150.876
X127.508Y-150.876
X132.588Y-150.876
X137.668Y-150.876
X142.748Y-150.876
X147.828Y-150.876
X152.908Y-150.876
X157.988Y-150.876
X163.068Y-150.876
X168.148Y-150.876
X173.228Y-150.876
X178.308Y-150.876
X183.388Y-150.876
X188.468Y-150.876
X193.548Y-150.876
X198.628Y-150.876
T0
M30
