M48
; DRILL file {KiCad 7.0.6} date Sat Jan  4 20:54:13 2025
; FORMAT={-:-/ absolute / metric / decimal}
; #@! TF.CreationDate,2025-01-04T20:54:13+10:30
; #@! TF.GenerationSoftware,Kicad,Pcbnew,7.0.6
; #@! TF.FileFunction,Plated,1,4,PTH
FMAT,2
METRIC
; #@! TA.AperFunction,Plated,PTH,ViaDrill
T1C0.300
; #@! TA.AperFunction,Plated,PTH,ViaDrill
T2C0.500
; #@! TA.AperFunction,Plated,PTH,ComponentDrill
T3C0.965
; #@! TA.AperFunction,Plated,PTH,ComponentDrill
T4C1.000
; #@! TA.AperFunction,Plated,PTH,ComponentDrill
T5C1.300
; #@! TA.AperFunction,Plated,PTH,ComponentDrill
T6C1.320
%
G90
G05
T1
X106.147Y-139.979
X106.197Y-141.935
X108.56Y-127.508
X108.585Y-129.108
X108.585Y-130.683
X108.61Y-128.295
X112.878Y-126.086
X114.173Y-113.919
X116.078Y-126.111
X116.383Y-139.979
X116.408Y-141.935
X116.713Y-119.253
X116.967Y-133.096
X116.992Y-129.896
X116.992Y-130.708
X116.992Y-131.496
X116.992Y-132.309
X121.463Y-139.954
X121.488Y-141.935
X131.572Y-139.979
X131.648Y-141.935
X133.096Y-135.89
X133.858Y-136.398
X134.112Y-130.048
X134.508Y-136.657
X134.925Y-130.302
X135.207Y-136.651
X135.907Y-136.652
X136.246Y-130.302
X136.606Y-136.652
X136.652Y-139.954
X136.728Y-141.935
X137.16Y-130.302
X137.414Y-136.652
X146.812Y-139.979
X146.888Y-141.935
X151.917Y-139.954
X151.968Y-141.935
X161.976Y-139.979
X162.128Y-141.91
X167.132Y-140.335
X182.372Y-140.335
X187.452Y-140.335
X192.532Y-140.335
X197.612Y-140.335
T2
X116.84Y-122.428
X119.38Y-124.968
X133.858Y-123.444
X135.636Y-131.318
T3
X191.415Y-119.101
X191.415Y-124.181
T4
X121.925Y-126.985
X121.925Y-129.525
X121.925Y-132.065
X124.465Y-126.985
X124.465Y-129.525
X124.465Y-132.065
T5
X86.868Y-150.876
X91.948Y-150.876
X97.028Y-150.876
X102.108Y-150.876
X107.188Y-150.876
T6
X112.268Y-150.876
X117.348Y-150.876
X122.428Y-150.876
X127.508Y-150.876
X132.588Y-150.876
X137.668Y-150.876
X142.748Y-150.876
X147.828Y-150.876
X152.908Y-150.876
X157.988Y-150.876
X163.068Y-150.876
X168.148Y-150.876
X173.228Y-150.876
X178.308Y-150.876
X183.388Y-150.876
X188.468Y-150.876
X193.548Y-150.876
X198.628Y-150.876
T0
M30
