%TF.GenerationSoftware,KiCad,Pcbnew,7.0.6*%
%TF.CreationDate,2025-01-04T20:54:09+10:30*%
%TF.ProjectId,Security Panel Mainboard,53656375-7269-4747-9920-50616e656c20,rev?*%
%TF.SameCoordinates,Original*%
%TF.FileFunction,Soldermask,Top*%
%TF.FilePolarity,Negative*%
%FSLAX46Y46*%
G04 Gerber Fmt 4.6, Leading zero omitted, Abs format (unit mm)*
G04 Created by KiCad (PCBNEW 7.0.6) date 2025-01-04 20:54:09*
%MOMM*%
%LPD*%
G01*
G04 APERTURE LIST*
G04 Aperture macros list*
%AMRoundRect*
0 Rectangle with rounded corners*
0 $1 Rounding radius*
0 $2 $3 $4 $5 $6 $7 $8 $9 X,Y pos of 4 corners*
0 Add a 4 corners polygon primitive as box body*
4,1,4,$2,$3,$4,$5,$6,$7,$8,$9,$2,$3,0*
0 Add four circle primitives for the rounded corners*
1,1,$1+$1,$2,$3*
1,1,$1+$1,$4,$5*
1,1,$1+$1,$6,$7*
1,1,$1+$1,$8,$9*
0 Add four rect primitives between the rounded corners*
20,1,$1+$1,$2,$3,$4,$5,0*
20,1,$1+$1,$4,$5,$6,$7,0*
20,1,$1+$1,$6,$7,$8,$9,0*
20,1,$1+$1,$8,$9,$2,$3,0*%
G04 Aperture macros list end*
%ADD10C,1.524000*%
%ADD11R,0.650000X1.525000*%
%ADD12R,2.150000X5.100000*%
%ADD13R,0.600000X1.300000*%
%ADD14RoundRect,0.250000X-0.350000X-0.450000X0.350000X-0.450000X0.350000X0.450000X-0.350000X0.450000X0*%
%ADD15R,1.092200X1.193800*%
%ADD16RoundRect,0.250000X0.350000X0.450000X-0.350000X0.450000X-0.350000X-0.450000X0.350000X-0.450000X0*%
%ADD17RoundRect,0.250000X-0.450000X0.350000X-0.450000X-0.350000X0.450000X-0.350000X0.450000X0.350000X0*%
%ADD18R,1.980000X1.980000*%
%ADD19C,1.980000*%
%ADD20R,1.400000X1.500000*%
%ADD21R,1.454899X0.532600*%
%ADD22R,3.300000X5.050000*%
%ADD23R,1.700000X1.700000*%
%ADD24O,1.700000X1.700000*%
%ADD25R,0.550000X1.500000*%
%ADD26R,1.500000X0.550000*%
%ADD27RoundRect,0.250000X1.000000X-1.400000X1.000000X1.400000X-1.000000X1.400000X-1.000000X-1.400000X0*%
%ADD28RoundRect,0.250000X0.450000X-0.350000X0.450000X0.350000X-0.450000X0.350000X-0.450000X-0.350000X0*%
%ADD29R,2.000000X4.100000*%
%ADD30R,0.939000X3.493999*%
%ADD31R,10.464800X11.379200*%
%ADD32R,0.354800X1.402099*%
%ADD33RoundRect,0.250000X0.337500X0.475000X-0.337500X0.475000X-0.337500X-0.475000X0.337500X-0.475000X0*%
%ADD34C,1.950000*%
G04 APERTURE END LIST*
D10*
%TO.C,J8*%
X191415299Y-124180600D03*
X191415299Y-119100600D03*
%TD*%
D11*
%TO.C,IC1*%
X116713000Y-113874000D03*
X115443000Y-113874000D03*
X114173000Y-113874000D03*
X112903000Y-113874000D03*
X112903000Y-119298000D03*
X114173000Y-119298000D03*
X115443000Y-119298000D03*
X116713000Y-119298000D03*
%TD*%
D12*
%TO.C,C9*%
X178308000Y-123934000D03*
X178308000Y-115334000D03*
%TD*%
D13*
%TO.C,Q9*%
X164018000Y-141918000D03*
X162118000Y-141918000D03*
X163068000Y-144018000D03*
%TD*%
D14*
%TO.C,R5*%
X121428000Y-139954000D03*
X123428000Y-139954000D03*
%TD*%
D13*
%TO.C,Q7*%
X148778000Y-141918000D03*
X146878000Y-141918000D03*
X147828000Y-144018000D03*
%TD*%
D15*
%TO.C,Y1*%
X130663800Y-129654300D03*
X128263800Y-129654300D03*
X128263800Y-134454900D03*
X130663800Y-134454900D03*
%TD*%
D16*
%TO.C,R13*%
X189468000Y-139954000D03*
X187468000Y-139954000D03*
%TD*%
D13*
%TO.C,Q3*%
X118298000Y-141918000D03*
X116398000Y-141918000D03*
X117348000Y-144018000D03*
%TD*%
D14*
%TO.C,R8*%
X146828000Y-139954000D03*
X148828000Y-139954000D03*
%TD*%
D17*
%TO.C,R17*%
X105156000Y-134890000D03*
X105156000Y-136890000D03*
%TD*%
D18*
%TO.C,J5*%
X183388000Y-150876000D03*
D19*
X178308000Y-150876000D03*
X173228000Y-150876000D03*
%TD*%
D20*
%TO.C,LED1*%
X131143000Y-122936000D03*
X128143000Y-122936000D03*
%TD*%
D21*
%TO.C,U11*%
X103051348Y-135255000D03*
X103051348Y-133985000D03*
X103051348Y-132715000D03*
X103051348Y-131445000D03*
X97608652Y-131445000D03*
X97608652Y-132715000D03*
X97608652Y-133985000D03*
X97608652Y-135255000D03*
%TD*%
D22*
%TO.C,L1*%
X146324000Y-118872000D03*
X136124000Y-118872000D03*
%TD*%
D14*
%TO.C,R2*%
X106188000Y-139954000D03*
X108188000Y-139954000D03*
%TD*%
D23*
%TO.C,J9*%
X124465000Y-132065000D03*
D24*
X121925000Y-132065000D03*
X124465000Y-129525000D03*
X121925000Y-129525000D03*
X124465000Y-126985000D03*
X121925000Y-126985000D03*
%TD*%
D13*
%TO.C,Q6*%
X138618000Y-141918000D03*
X136718000Y-141918000D03*
X137668000Y-144018000D03*
%TD*%
D25*
%TO.C,U1*%
X110484000Y-134502000D03*
X111284000Y-134502000D03*
X112084000Y-134502000D03*
X112884000Y-134502000D03*
X113684000Y-134502000D03*
X114484000Y-134502000D03*
X115284000Y-134502000D03*
X116084000Y-134502000D03*
D26*
X117484000Y-133102000D03*
X117484000Y-132302000D03*
X117484000Y-131502000D03*
X117484000Y-130702000D03*
X117484000Y-129902000D03*
X117484000Y-129102000D03*
X117484000Y-128302000D03*
X117484000Y-127502000D03*
D25*
X116084000Y-126102000D03*
X115284000Y-126102000D03*
X114484000Y-126102000D03*
X113684000Y-126102000D03*
X112884000Y-126102000D03*
X112084000Y-126102000D03*
X111284000Y-126102000D03*
X110484000Y-126102000D03*
D26*
X109084000Y-127502000D03*
X109084000Y-128302000D03*
X109084000Y-129102000D03*
X109084000Y-129902000D03*
X109084000Y-130702000D03*
X109084000Y-131502000D03*
X109084000Y-132302000D03*
X109084000Y-133102000D03*
%TD*%
D27*
%TO.C,D1*%
X165002000Y-133096000D03*
X171802000Y-133096000D03*
%TD*%
D14*
%TO.C,R7*%
X151908000Y-139954000D03*
X153908000Y-139954000D03*
%TD*%
D18*
%TO.C,J3*%
X152908000Y-150876000D03*
D19*
X147828000Y-150876000D03*
X142748000Y-150876000D03*
%TD*%
D16*
%TO.C,R23*%
X97520000Y-140716000D03*
X95520000Y-140716000D03*
%TD*%
D18*
%TO.C,J2*%
X137668000Y-150876000D03*
D19*
X132588000Y-150876000D03*
X127508000Y-150876000D03*
%TD*%
D17*
%TO.C,R20*%
X105156000Y-129302000D03*
X105156000Y-131302000D03*
%TD*%
D28*
%TO.C,R18*%
X103124000Y-129270000D03*
X103124000Y-127270000D03*
%TD*%
D14*
%TO.C,R10*%
X192548000Y-139954000D03*
X194548000Y-139954000D03*
%TD*%
%TO.C,R3*%
X116348000Y-139954000D03*
X118348000Y-139954000D03*
%TD*%
D29*
%TO.C,C8*%
X154686000Y-115792000D03*
X154686000Y-124492000D03*
%TD*%
D14*
%TO.C,R4*%
X131588000Y-139954000D03*
X133588000Y-139954000D03*
%TD*%
D13*
%TO.C,Q4*%
X123378000Y-141918000D03*
X121478000Y-141918000D03*
X122428000Y-144018000D03*
%TD*%
%TO.C,Q2*%
X108104000Y-141918000D03*
X106204000Y-141918000D03*
X107154000Y-144018000D03*
%TD*%
D14*
%TO.C,R9*%
X136668000Y-139954000D03*
X138668000Y-139954000D03*
%TD*%
%TO.C,R21*%
X96536000Y-143002000D03*
X98536000Y-143002000D03*
%TD*%
D17*
%TO.C,R19*%
X101092000Y-127270000D03*
X101092000Y-129270000D03*
%TD*%
D30*
%TO.C,U2*%
X163220400Y-127508000D03*
X164922200Y-127508000D03*
X166624000Y-127508000D03*
X168325800Y-127508000D03*
X170027600Y-127508000D03*
D31*
X166624000Y-118364000D03*
%TD*%
D18*
%TO.C,J1*%
X122428000Y-150876000D03*
D19*
X117348000Y-150876000D03*
X112268000Y-150876000D03*
%TD*%
D16*
%TO.C,R15*%
X120634000Y-113792000D03*
X118634000Y-113792000D03*
%TD*%
%TO.C,R14*%
X184388000Y-139954000D03*
X182388000Y-139954000D03*
%TD*%
D18*
%TO.C,J4*%
X168148000Y-150876000D03*
D19*
X163068000Y-150876000D03*
X157988000Y-150876000D03*
%TD*%
D13*
%TO.C,Q10*%
X184338000Y-141918000D03*
X182438000Y-141918000D03*
X183388000Y-144018000D03*
%TD*%
D32*
%TO.C,U5*%
X133640401Y-134482848D03*
X134290399Y-134482848D03*
X134940401Y-134482848D03*
X135590399Y-134482848D03*
X136240398Y-134482848D03*
X136890399Y-134482848D03*
X137540398Y-134482848D03*
X138190399Y-134482848D03*
X138190399Y-128584952D03*
X137540401Y-128584952D03*
X136890399Y-128584952D03*
X136240401Y-128584952D03*
X135590402Y-128584952D03*
X134940401Y-128584952D03*
X134290402Y-128584952D03*
X133640401Y-128584952D03*
%TD*%
D13*
%TO.C,Q12*%
X194498000Y-141918000D03*
X192598000Y-141918000D03*
X193548000Y-144018000D03*
%TD*%
%TO.C,Q8*%
X153858000Y-141918000D03*
X151958000Y-141918000D03*
X152908000Y-144018000D03*
%TD*%
%TO.C,Q13*%
X199578000Y-141918000D03*
X197678000Y-141918000D03*
X198628000Y-144018000D03*
%TD*%
D33*
%TO.C,C1*%
X130653700Y-136575800D03*
X128578700Y-136575800D03*
%TD*%
%TO.C,C2*%
X132355500Y-126746000D03*
X130280500Y-126746000D03*
%TD*%
D16*
%TO.C,R11*%
X199628000Y-139954000D03*
X197628000Y-139954000D03*
%TD*%
D18*
%TO.C,J6*%
X198628000Y-150876000D03*
D19*
X193548000Y-150876000D03*
X188468000Y-150876000D03*
%TD*%
D14*
%TO.C,R12*%
X167148000Y-139954000D03*
X169148000Y-139954000D03*
%TD*%
D16*
%TO.C,R16*%
X120634000Y-115824000D03*
X118634000Y-115824000D03*
%TD*%
D34*
%TO.C,J7*%
X107188000Y-150876000D03*
X102108000Y-150876000D03*
X97028000Y-150876000D03*
X91948000Y-150876000D03*
X86868000Y-150876000D03*
%TD*%
D14*
%TO.C,R6*%
X162068000Y-139954000D03*
X164068000Y-139954000D03*
%TD*%
D16*
%TO.C,R1*%
X125333000Y-122936000D03*
X123333000Y-122936000D03*
%TD*%
%TO.C,R22*%
X97520000Y-138176000D03*
X95520000Y-138176000D03*
%TD*%
D13*
%TO.C,Q1*%
X169098000Y-141918000D03*
X167198000Y-141918000D03*
X168148000Y-144018000D03*
%TD*%
%TO.C,Q5*%
X133538000Y-141918000D03*
X131638000Y-141918000D03*
X132588000Y-144018000D03*
%TD*%
%TO.C,Q11*%
X189418000Y-141918000D03*
X187518000Y-141918000D03*
X188468000Y-144018000D03*
%TD*%
M02*
