%TF.GenerationSoftware,KiCad,Pcbnew,7.0.6*%
%TF.CreationDate,2025-01-04T20:54:14+10:30*%
%TF.ProjectId,Security Panel Mainboard,53656375-7269-4747-9920-50616e656c20,rev?*%
%TF.SameCoordinates,Original*%
%TF.FileFunction,Drillmap*%
%TF.FilePolarity,Positive*%
%FSLAX45Y45*%
G04 Gerber Fmt 4.5, Leading zero omitted, Abs format (unit mm)*
G04 Created by KiCad (PCBNEW 7.0.6) date 2025-01-04 20:54:14*
%MOMM*%
%LPD*%
G01*
G04 APERTURE LIST*
%ADD10C,0.100000*%
%ADD11C,0.200000*%
G04 APERTURE END LIST*
D10*
X17780000Y-14376400D02*
G75*
G03*
X17780000Y-14376400I-152400J0D01*
G01*
X20243800Y-11430000D02*
G75*
G03*
X20243800Y-11430000I-152400J0D01*
G01*
X13106400Y-11430000D02*
G75*
G03*
X13106400Y-11430000I-152400J0D01*
G01*
X8788400Y-11430000D02*
G75*
G03*
X8788400Y-11430000I-152400J0D01*
G01*
X8788400Y-14325600D02*
G75*
G03*
X8788400Y-14325600I-152400J0D01*
G01*
X13462000Y-11176000D02*
X20320000Y-11176000D01*
X20320000Y-11176000D02*
X20320000Y-16002000D01*
X8305800Y-11176000D02*
X13462000Y-11176000D01*
X8305800Y-16002000D02*
X8305800Y-11176000D01*
X20320000Y-16002000D02*
X8305800Y-16002000D01*
D11*
X8561577Y-16318484D02*
X8561577Y-16118484D01*
X8561577Y-16118484D02*
X8609196Y-16118484D01*
X8609196Y-16118484D02*
X8637767Y-16128008D01*
X8637767Y-16128008D02*
X8656815Y-16147055D01*
X8656815Y-16147055D02*
X8666339Y-16166103D01*
X8666339Y-16166103D02*
X8675863Y-16204198D01*
X8675863Y-16204198D02*
X8675863Y-16232769D01*
X8675863Y-16232769D02*
X8666339Y-16270865D01*
X8666339Y-16270865D02*
X8656815Y-16289912D01*
X8656815Y-16289912D02*
X8637767Y-16308960D01*
X8637767Y-16308960D02*
X8609196Y-16318484D01*
X8609196Y-16318484D02*
X8561577Y-16318484D01*
X8761577Y-16318484D02*
X8761577Y-16185150D01*
X8761577Y-16223246D02*
X8771101Y-16204198D01*
X8771101Y-16204198D02*
X8780624Y-16194674D01*
X8780624Y-16194674D02*
X8799672Y-16185150D01*
X8799672Y-16185150D02*
X8818720Y-16185150D01*
X8885386Y-16318484D02*
X8885386Y-16185150D01*
X8885386Y-16118484D02*
X8875863Y-16128008D01*
X8875863Y-16128008D02*
X8885386Y-16137531D01*
X8885386Y-16137531D02*
X8894910Y-16128008D01*
X8894910Y-16128008D02*
X8885386Y-16118484D01*
X8885386Y-16118484D02*
X8885386Y-16137531D01*
X9009196Y-16318484D02*
X8990148Y-16308960D01*
X8990148Y-16308960D02*
X8980624Y-16289912D01*
X8980624Y-16289912D02*
X8980624Y-16118484D01*
X9113958Y-16318484D02*
X9094910Y-16308960D01*
X9094910Y-16308960D02*
X9085386Y-16289912D01*
X9085386Y-16289912D02*
X9085386Y-16118484D01*
X9342529Y-16318484D02*
X9342529Y-16118484D01*
X9342529Y-16118484D02*
X9409196Y-16261341D01*
X9409196Y-16261341D02*
X9475863Y-16118484D01*
X9475863Y-16118484D02*
X9475863Y-16318484D01*
X9656815Y-16318484D02*
X9656815Y-16213722D01*
X9656815Y-16213722D02*
X9647291Y-16194674D01*
X9647291Y-16194674D02*
X9628244Y-16185150D01*
X9628244Y-16185150D02*
X9590148Y-16185150D01*
X9590148Y-16185150D02*
X9571101Y-16194674D01*
X9656815Y-16308960D02*
X9637767Y-16318484D01*
X9637767Y-16318484D02*
X9590148Y-16318484D01*
X9590148Y-16318484D02*
X9571101Y-16308960D01*
X9571101Y-16308960D02*
X9561577Y-16289912D01*
X9561577Y-16289912D02*
X9561577Y-16270865D01*
X9561577Y-16270865D02*
X9571101Y-16251817D01*
X9571101Y-16251817D02*
X9590148Y-16242293D01*
X9590148Y-16242293D02*
X9637767Y-16242293D01*
X9637767Y-16242293D02*
X9656815Y-16232769D01*
X9752053Y-16185150D02*
X9752053Y-16385150D01*
X9752053Y-16194674D02*
X9771101Y-16185150D01*
X9771101Y-16185150D02*
X9809196Y-16185150D01*
X9809196Y-16185150D02*
X9828244Y-16194674D01*
X9828244Y-16194674D02*
X9837767Y-16204198D01*
X9837767Y-16204198D02*
X9847291Y-16223246D01*
X9847291Y-16223246D02*
X9847291Y-16280388D01*
X9847291Y-16280388D02*
X9837767Y-16299436D01*
X9837767Y-16299436D02*
X9828244Y-16308960D01*
X9828244Y-16308960D02*
X9809196Y-16318484D01*
X9809196Y-16318484D02*
X9771101Y-16318484D01*
X9771101Y-16318484D02*
X9752053Y-16308960D01*
X9933005Y-16299436D02*
X9942529Y-16308960D01*
X9942529Y-16308960D02*
X9933005Y-16318484D01*
X9933005Y-16318484D02*
X9923482Y-16308960D01*
X9923482Y-16308960D02*
X9933005Y-16299436D01*
X9933005Y-16299436D02*
X9933005Y-16318484D01*
X9933005Y-16194674D02*
X9942529Y-16204198D01*
X9942529Y-16204198D02*
X9933005Y-16213722D01*
X9933005Y-16213722D02*
X9923482Y-16204198D01*
X9923482Y-16204198D02*
X9933005Y-16194674D01*
X9933005Y-16194674D02*
X9933005Y-16213722D01*
M02*
