%TF.GenerationSoftware,KiCad,Pcbnew,7.0.6*%
%TF.CreationDate,2025-01-04T20:54:09+10:30*%
%TF.ProjectId,Security Panel Mainboard,53656375-7269-4747-9920-50616e656c20,rev?*%
%TF.SameCoordinates,Original*%
%TF.FileFunction,Copper,L4,Bot*%
%TF.FilePolarity,Positive*%
%FSLAX46Y46*%
G04 Gerber Fmt 4.6, Leading zero omitted, Abs format (unit mm)*
G04 Created by KiCad (PCBNEW 7.0.6) date 2025-01-04 20:54:09*
%MOMM*%
%LPD*%
G01*
G04 APERTURE LIST*
%TA.AperFunction,ComponentPad*%
%ADD10C,1.524000*%
%TD*%
%TA.AperFunction,ComponentPad*%
%ADD11R,1.980000X1.980000*%
%TD*%
%TA.AperFunction,ComponentPad*%
%ADD12C,1.980000*%
%TD*%
%TA.AperFunction,ComponentPad*%
%ADD13R,1.700000X1.700000*%
%TD*%
%TA.AperFunction,ComponentPad*%
%ADD14O,1.700000X1.700000*%
%TD*%
%TA.AperFunction,ComponentPad*%
%ADD15C,1.950000*%
%TD*%
%TA.AperFunction,ViaPad*%
%ADD16C,1.000000*%
%TD*%
%TA.AperFunction,ViaPad*%
%ADD17C,0.500000*%
%TD*%
%TA.AperFunction,ViaPad*%
%ADD18C,0.750000*%
%TD*%
%TA.AperFunction,Conductor*%
%ADD19C,0.500000*%
%TD*%
%TA.AperFunction,Conductor*%
%ADD20C,2.000000*%
%TD*%
%TA.AperFunction,Conductor*%
%ADD21C,0.250000*%
%TD*%
G04 APERTURE END LIST*
D10*
%TO.P,J8,1,1*%
%TO.N,+12V*%
X191415299Y-124180600D03*
%TO.P,J8,2,2*%
%TO.N,GND*%
X191415299Y-119100600D03*
%TD*%
D11*
%TO.P,J5,1,1*%
%TO.N,O1H*%
X183388000Y-150876000D03*
D12*
%TO.P,J5,2,2*%
%TO.N,+12V*%
X178308000Y-150876000D03*
%TO.P,J5,3,3*%
X173228000Y-150876000D03*
%TD*%
D13*
%TO.P,J9,1,Pin_1*%
%TO.N,GND*%
X124465000Y-132065000D03*
D14*
%TO.P,J9,2,Pin_2*%
%TO.N,RESET*%
X121925000Y-132065000D03*
%TO.P,J9,3,Pin_3*%
%TO.N,MOSI*%
X124465000Y-129525000D03*
%TO.P,J9,4,Pin_4*%
%TO.N,SCK*%
X121925000Y-129525000D03*
%TO.P,J9,5,Pin_5*%
%TO.N,+5V*%
X124465000Y-126985000D03*
%TO.P,J9,6,Pin_6*%
%TO.N,MISO*%
X121925000Y-126985000D03*
%TD*%
D11*
%TO.P,J3,1,1*%
%TO.N,Z7H*%
X152908000Y-150876000D03*
D12*
%TO.P,J3,2,2*%
%TO.N,Z6H*%
X147828000Y-150876000D03*
%TO.P,J3,3,3*%
%TO.N,+12V*%
X142748000Y-150876000D03*
%TD*%
D11*
%TO.P,J2,1,1*%
%TO.N,Z5H*%
X137668000Y-150876000D03*
D12*
%TO.P,J2,2,2*%
%TO.N,Z4H*%
X132588000Y-150876000D03*
%TO.P,J2,3,3*%
%TO.N,+12V*%
X127508000Y-150876000D03*
%TD*%
D11*
%TO.P,J1,1,1*%
%TO.N,Z3H*%
X122428000Y-150876000D03*
D12*
%TO.P,J1,2,2*%
%TO.N,Z2H*%
X117348000Y-150876000D03*
%TO.P,J1,3,3*%
%TO.N,+12V*%
X112268000Y-150876000D03*
%TD*%
D11*
%TO.P,J4,1,1*%
%TO.N,SIREN H*%
X168148000Y-150876000D03*
D12*
%TO.P,J4,2,2*%
%TO.N,Z8H*%
X163068000Y-150876000D03*
%TO.P,J4,3,3*%
%TO.N,+12V*%
X157988000Y-150876000D03*
%TD*%
D11*
%TO.P,J6,1,1*%
%TO.N,O4H*%
X198628000Y-150876000D03*
D12*
%TO.P,J6,2,2*%
%TO.N,O3H*%
X193548000Y-150876000D03*
%TO.P,J6,3,3*%
%TO.N,O2H*%
X188468000Y-150876000D03*
%TD*%
D15*
%TO.P,J7,1,1*%
%TO.N,Z1H*%
X107188000Y-150876000D03*
%TO.P,J7,2,2*%
%TO.N,B*%
X102108000Y-150876000D03*
%TO.P,J7,3,3*%
%TO.N,A*%
X97028000Y-150876000D03*
%TO.P,J7,4,4*%
%TO.N,GND*%
X91948000Y-150876000D03*
%TO.P,J7,5,5*%
%TO.N,+12V*%
X86868000Y-150876000D03*
%TD*%
D16*
%TO.N,GND*%
X119380000Y-124968000D03*
X116840000Y-122428000D03*
D17*
X112877600Y-126085600D03*
D16*
X135636000Y-131318000D03*
X133858000Y-123444000D03*
D17*
%TO.N,+12V*%
X116713000Y-119253000D03*
%TO.N,RESET*%
X108585000Y-130683000D03*
%TO.N,SCK*%
X116078000Y-126111000D03*
%TO.N,ZONE 1*%
X134112000Y-130048000D03*
D18*
X106146600Y-139979400D03*
%TO.N,ZONE 2*%
X116382800Y-139979400D03*
D17*
X133096000Y-135890000D03*
D18*
%TO.N,ZONE 4*%
X131572000Y-139979400D03*
D17*
X134507754Y-136657083D03*
D18*
%TO.N,ZONE 3*%
X121462800Y-139954000D03*
D17*
X133858000Y-136398000D03*
D18*
%TO.N,ZONE 8*%
X161975800Y-139979400D03*
D17*
X137414000Y-136652000D03*
D18*
%TO.N,ZONE 7*%
X151917400Y-139954000D03*
D17*
X136606237Y-136652000D03*
%TO.N,ZONE 6*%
X135906735Y-136652016D03*
D18*
X146812000Y-139979400D03*
%TO.N,ZONE 5*%
X136652000Y-139954000D03*
D17*
X135207233Y-136651350D03*
%TO.N,OUTPUT 3*%
X116992400Y-130708400D03*
X192532000Y-140335000D03*
%TO.N,OUTPUT 4*%
X116992400Y-129895600D03*
X197612000Y-140335000D03*
%TO.N,SIREN OUT*%
X116967000Y-133096000D03*
X167132000Y-140335000D03*
%TO.N,OUTPUT 2*%
X187452000Y-140335000D03*
X116992400Y-131495800D03*
%TO.N,OUTPUT 1*%
X182372000Y-140335000D03*
X116992400Y-132308600D03*
%TO.N,CLOCK*%
X108559600Y-127508000D03*
X137160000Y-130302000D03*
%TO.N,LATCH*%
X108610400Y-128295400D03*
X136245600Y-130302000D03*
%TO.N,DATA*%
X108585000Y-129108200D03*
X134924800Y-130302000D03*
%TO.N,ADC IN B*%
X114173000Y-113919000D03*
X121488200Y-141935200D03*
X162128200Y-141909800D03*
X116408200Y-141935200D03*
X131648200Y-141935200D03*
X151968200Y-141935200D03*
X146888200Y-141935200D03*
X136728200Y-141935200D03*
X106197400Y-141935200D03*
%TD*%
D19*
%TO.N,ADC IN B*%
X114173000Y-113919000D02*
X114173000Y-141224000D01*
%TO.N,+12V*%
X189484000Y-115570000D02*
X189484000Y-122249301D01*
X186433137Y-112519137D02*
X189484000Y-115570000D01*
X119128863Y-112519137D02*
X186433137Y-112519137D01*
X116713000Y-114935000D02*
X119128863Y-112519137D01*
X189484000Y-122249301D02*
X191415299Y-124180600D01*
D20*
X178808693Y-150375307D02*
X178308000Y-150876000D01*
X178808693Y-128023307D02*
X178808693Y-150375307D01*
X182651400Y-124180600D02*
X178808693Y-128023307D01*
X191415299Y-124180600D02*
X182651400Y-124180600D01*
D19*
X116713000Y-119253000D02*
X116713000Y-114935000D01*
D20*
X156464000Y-155194000D02*
X144780000Y-155194000D01*
X88646000Y-155194000D02*
X110236000Y-155194000D01*
X112268000Y-153162000D02*
X112268000Y-150876000D01*
X129540000Y-155194000D02*
X127508000Y-153162000D01*
X173228000Y-150876000D02*
X178308000Y-150876000D01*
X173228000Y-150876000D02*
X173228000Y-152908000D01*
X157988000Y-150876000D02*
X157988000Y-153670000D01*
X170942000Y-155194000D02*
X159512000Y-155194000D01*
X125476000Y-155194000D02*
X127508000Y-153162000D01*
X86868000Y-150876000D02*
X86868000Y-153416000D01*
X127508000Y-153162000D02*
X127508000Y-150876000D01*
X144780000Y-155194000D02*
X142748000Y-153162000D01*
X142748000Y-153162000D02*
X140716000Y-155194000D01*
X140716000Y-155194000D02*
X129540000Y-155194000D01*
X114300000Y-155194000D02*
X125476000Y-155194000D01*
X110236000Y-155194000D02*
X112268000Y-153162000D01*
X112268000Y-153162000D02*
X114300000Y-155194000D01*
X157988000Y-153670000D02*
X156464000Y-155194000D01*
X159512000Y-155194000D02*
X157988000Y-153670000D01*
X142748000Y-150876000D02*
X142748000Y-153162000D01*
X86868000Y-153416000D02*
X88646000Y-155194000D01*
X173228000Y-152908000D02*
X170942000Y-155194000D01*
D21*
%TO.N,SCK*%
X116078000Y-128778000D02*
X116408200Y-129108200D01*
X116408200Y-129108200D02*
X121508200Y-129108200D01*
X121508200Y-129108200D02*
X121925000Y-129525000D01*
X116078000Y-128778000D02*
X116078000Y-126111000D01*
D19*
%TO.N,ADC IN B*%
X106248200Y-141986000D02*
X106197400Y-141935200D01*
X146888200Y-141935200D02*
X151968200Y-141935200D01*
X121488200Y-141935200D02*
X131648200Y-141935200D01*
X151968200Y-141935200D02*
X162102800Y-141935200D01*
X113411000Y-141986000D02*
X106248200Y-141986000D01*
X131648200Y-141935200D02*
X136728200Y-141935200D01*
X116408200Y-141935200D02*
X121488200Y-141935200D01*
X116408200Y-141935200D02*
X114884200Y-141935200D01*
X162102800Y-141935200D02*
X162128200Y-141909800D01*
X114173000Y-141224000D02*
X113411000Y-141986000D01*
X114884200Y-141935200D02*
X114173000Y-141224000D01*
X136728200Y-141935200D02*
X146888200Y-141935200D01*
%TD*%
%TA.AperFunction,Conductor*%
%TO.N,GND*%
G36*
X118592381Y-111780185D02*
G01*
X118638136Y-111832989D01*
X118648080Y-111902147D01*
X118619055Y-111965703D01*
X118615543Y-111969585D01*
X118590477Y-111996154D01*
X117815845Y-112770786D01*
X116227358Y-114359272D01*
X116213729Y-114371051D01*
X116194468Y-114385390D01*
X116160898Y-114425397D01*
X116157253Y-114429376D01*
X116151409Y-114435222D01*
X116131059Y-114460959D01*
X116081695Y-114519789D01*
X116077729Y-114525819D01*
X116077682Y-114525788D01*
X116073630Y-114532147D01*
X116073679Y-114532177D01*
X116069889Y-114538321D01*
X116037424Y-114607941D01*
X116002960Y-114676566D01*
X116000488Y-114683357D01*
X116000432Y-114683336D01*
X115997960Y-114690450D01*
X115998015Y-114690469D01*
X115995742Y-114697327D01*
X115987975Y-114734945D01*
X115980207Y-114772565D01*
X115967001Y-114828284D01*
X115962498Y-114847286D01*
X115961661Y-114854454D01*
X115961601Y-114854447D01*
X115960835Y-114861945D01*
X115960895Y-114861951D01*
X115960265Y-114869140D01*
X115962500Y-114945916D01*
X115962500Y-119207369D01*
X115962110Y-119214317D01*
X115957751Y-119252998D01*
X115957751Y-119253002D01*
X115962123Y-119291804D01*
X115962408Y-119295131D01*
X115962499Y-119296696D01*
X115962500Y-119296704D01*
X115962500Y-119296709D01*
X115962725Y-119298633D01*
X115967382Y-119338478D01*
X115976702Y-119421200D01*
X115977704Y-119427024D01*
X115977758Y-119427254D01*
X116006148Y-119505256D01*
X116032542Y-119580687D01*
X116035541Y-119586913D01*
X116037580Y-119591752D01*
X116037766Y-119592122D01*
X116081682Y-119658892D01*
X116122523Y-119723890D01*
X116126864Y-119729333D01*
X116126540Y-119729590D01*
X116129487Y-119733207D01*
X116129533Y-119733169D01*
X116134174Y-119738701D01*
X116190035Y-119791402D01*
X116242108Y-119843476D01*
X116247553Y-119847818D01*
X116247548Y-119847823D01*
X116260293Y-119857687D01*
X116261784Y-119859094D01*
X116325589Y-119895929D01*
X116325589Y-119895930D01*
X116385310Y-119933456D01*
X116387728Y-119934302D01*
X116408773Y-119943956D01*
X116413719Y-119946812D01*
X116479969Y-119966646D01*
X116482642Y-119967514D01*
X116507619Y-119976253D01*
X116544940Y-119989313D01*
X116546789Y-119989521D01*
X116551114Y-119990008D01*
X116572800Y-119994438D01*
X116581790Y-119997130D01*
X116647461Y-120000954D01*
X116650771Y-120001236D01*
X116713000Y-120008249D01*
X116713005Y-120008249D01*
X116722815Y-120007143D01*
X116743914Y-120006572D01*
X116756935Y-120007331D01*
X116818402Y-119996491D01*
X116822191Y-119995945D01*
X116881059Y-119989313D01*
X116893841Y-119984839D01*
X116913264Y-119979765D01*
X116917782Y-119978968D01*
X116929711Y-119976865D01*
X116983918Y-119953481D01*
X116987935Y-119951914D01*
X117040690Y-119933456D01*
X117055260Y-119924300D01*
X117072105Y-119915442D01*
X117090804Y-119907377D01*
X117135426Y-119874156D01*
X117139468Y-119871388D01*
X117183882Y-119843482D01*
X117183881Y-119843482D01*
X117183890Y-119843477D01*
X117198643Y-119828722D01*
X117212262Y-119816953D01*
X117231530Y-119802610D01*
X117265129Y-119762566D01*
X117268747Y-119758618D01*
X117303477Y-119723890D01*
X117318778Y-119699536D01*
X117323779Y-119692669D01*
X117344302Y-119668214D01*
X117366238Y-119624531D01*
X117369130Y-119619402D01*
X117393456Y-119580690D01*
X117404076Y-119550336D01*
X117407187Y-119542996D01*
X117423040Y-119511433D01*
X117433528Y-119467176D01*
X117435332Y-119461011D01*
X117449313Y-119421059D01*
X117453292Y-119385737D01*
X117454574Y-119378378D01*
X117463500Y-119340721D01*
X117463499Y-119298631D01*
X117463889Y-119291683D01*
X117468249Y-119253000D01*
X117463888Y-119214311D01*
X117463499Y-119207366D01*
X117463499Y-117833779D01*
X117463499Y-115297225D01*
X117483184Y-115230190D01*
X117499813Y-115209553D01*
X119403411Y-113305955D01*
X119464734Y-113272471D01*
X119491092Y-113269637D01*
X128162013Y-113269637D01*
X128229052Y-113289322D01*
X128274807Y-113342126D01*
X128284751Y-113411284D01*
X128267740Y-113458427D01*
X128177459Y-113605751D01*
X128177457Y-113605754D01*
X128085630Y-113827445D01*
X128085630Y-113827446D01*
X128029612Y-114060780D01*
X128010786Y-114300000D01*
X128029612Y-114539219D01*
X128085630Y-114772553D01*
X128085630Y-114772554D01*
X128177457Y-114994245D01*
X128177459Y-114994248D01*
X128302837Y-115198846D01*
X128302841Y-115198851D01*
X128370965Y-115278614D01*
X128458682Y-115381318D01*
X128575481Y-115481073D01*
X128641148Y-115537158D01*
X128641153Y-115537162D01*
X128845744Y-115662536D01*
X128845751Y-115662540D01*
X128883380Y-115678126D01*
X128885319Y-115678988D01*
X128886975Y-115679616D01*
X128981877Y-115718925D01*
X129067447Y-115754369D01*
X129108913Y-115764324D01*
X129116430Y-115766642D01*
X129152514Y-115780330D01*
X129182150Y-115781906D01*
X129300778Y-115810387D01*
X129347303Y-115814048D01*
X129354833Y-115815110D01*
X129356003Y-115815349D01*
X129356005Y-115815349D01*
X129358532Y-115815865D01*
X129358552Y-115815869D01*
X129392673Y-115822835D01*
X129421000Y-115819848D01*
X129540000Y-115829214D01*
X129590523Y-115825237D01*
X129597881Y-115825097D01*
X129636413Y-115826650D01*
X129662774Y-115819551D01*
X129779222Y-115810387D01*
X129832484Y-115797599D01*
X129839467Y-115796342D01*
X129845335Y-115795630D01*
X129845335Y-115795629D01*
X129877615Y-115791711D01*
X129901413Y-115781051D01*
X130012553Y-115754369D01*
X130066991Y-115731819D01*
X130073429Y-115729561D01*
X130081297Y-115727283D01*
X130081301Y-115727280D01*
X130085873Y-115725957D01*
X130086088Y-115725895D01*
X130086094Y-115725893D01*
X130110148Y-115718925D01*
X130130920Y-115705339D01*
X130234249Y-115662540D01*
X130288082Y-115629550D01*
X130293867Y-115626417D01*
X130303240Y-115621970D01*
X130303246Y-115621965D01*
X130307741Y-115619833D01*
X130307767Y-115619819D01*
X130328105Y-115610168D01*
X130345525Y-115594349D01*
X130438849Y-115537160D01*
X130490125Y-115493366D01*
X130495149Y-115489504D01*
X130525955Y-115468240D01*
X130539849Y-115450898D01*
X130621318Y-115381318D01*
X130667952Y-115326716D01*
X130672123Y-115322292D01*
X130682586Y-115312243D01*
X130682590Y-115312237D01*
X130698709Y-115296755D01*
X130709029Y-115278620D01*
X130777160Y-115198849D01*
X130817024Y-115133797D01*
X130820297Y-115128982D01*
X130830165Y-115115851D01*
X130830166Y-115115847D01*
X130832654Y-115112538D01*
X130833154Y-115111872D01*
X130833156Y-115111870D01*
X130833170Y-115111852D01*
X130833175Y-115111856D01*
X130834064Y-115111191D01*
X130836185Y-115107838D01*
X130842000Y-115100099D01*
X130848851Y-115081860D01*
X130879653Y-115031597D01*
X130902540Y-114994249D01*
X130933504Y-114919493D01*
X130935862Y-114914461D01*
X130944042Y-114898874D01*
X130945702Y-114897159D01*
X130948990Y-114889441D01*
X130952219Y-114883286D01*
X130955824Y-114865608D01*
X130994369Y-114772553D01*
X131014361Y-114689280D01*
X131015815Y-114684201D01*
X131020202Y-114671058D01*
X131022260Y-114668101D01*
X131025288Y-114655819D01*
X131025461Y-114655300D01*
X131025522Y-114644383D01*
X131025956Y-114641715D01*
X131026856Y-114637232D01*
X131050387Y-114539222D01*
X131057485Y-114449027D01*
X131058096Y-114443954D01*
X131063170Y-114412735D01*
X131061907Y-114404033D01*
X131062173Y-114390804D01*
X131062349Y-114387217D01*
X131069214Y-114300000D01*
X131062350Y-114212785D01*
X131062173Y-114209187D01*
X131061907Y-114195967D01*
X131063583Y-114189801D01*
X131058096Y-114156042D01*
X131057484Y-114150957D01*
X131050387Y-114060781D01*
X131050387Y-114060780D01*
X131050387Y-114060778D01*
X131026871Y-113962827D01*
X131025980Y-113958408D01*
X131025689Y-113956642D01*
X131025559Y-113955842D01*
X131026537Y-113947924D01*
X131025289Y-113944184D01*
X131022757Y-113933911D01*
X131020199Y-113928930D01*
X131015831Y-113915846D01*
X131014352Y-113910682D01*
X130994371Y-113827456D01*
X130994369Y-113827447D01*
X130962679Y-113750941D01*
X130955826Y-113734395D01*
X130954363Y-113720794D01*
X130948988Y-113710552D01*
X130946249Y-113704123D01*
X130944039Y-113701119D01*
X130935865Y-113685544D01*
X130933489Y-113680469D01*
X130902539Y-113605749D01*
X130848848Y-113518134D01*
X130844992Y-113503880D01*
X130836182Y-113492157D01*
X130834461Y-113489435D01*
X130833221Y-113488217D01*
X130830166Y-113484151D01*
X130830165Y-113484149D01*
X130821385Y-113472465D01*
X130820314Y-113471039D01*
X130817014Y-113466185D01*
X130812259Y-113458425D01*
X130794015Y-113390979D01*
X130815132Y-113324377D01*
X130868905Y-113279764D01*
X130917987Y-113269637D01*
X186070907Y-113269637D01*
X186137946Y-113289322D01*
X186158588Y-113305956D01*
X188697180Y-115844548D01*
X188730665Y-115905871D01*
X188733499Y-115932229D01*
X188733500Y-122185595D01*
X188732191Y-122203564D01*
X188728710Y-122227326D01*
X188733264Y-122279365D01*
X188733500Y-122284771D01*
X188733500Y-122293010D01*
X188737306Y-122325575D01*
X188744000Y-122402092D01*
X188745461Y-122409168D01*
X188745403Y-122409179D01*
X188747034Y-122416538D01*
X188747092Y-122416525D01*
X188748757Y-122423551D01*
X188775025Y-122495725D01*
X188782106Y-122517094D01*
X188784509Y-122586923D01*
X188748778Y-122646965D01*
X188686258Y-122678158D01*
X188664401Y-122680100D01*
X182748418Y-122680100D01*
X182740742Y-122679623D01*
X182717707Y-122676752D01*
X182713621Y-122676243D01*
X182713620Y-122676243D01*
X182620374Y-122680100D01*
X182589333Y-122680100D01*
X182564581Y-122682150D01*
X182558393Y-122682663D01*
X182465165Y-122686519D01*
X182438420Y-122692127D01*
X182430812Y-122693235D01*
X182403579Y-122695491D01*
X182331384Y-122713773D01*
X182313102Y-122718403D01*
X182292981Y-122722622D01*
X182221792Y-122737549D01*
X182221780Y-122737553D01*
X182196335Y-122747481D01*
X182189016Y-122749826D01*
X182162520Y-122756536D01*
X182162515Y-122756537D01*
X182077051Y-122794025D01*
X182005774Y-122821838D01*
X181990126Y-122827945D01*
X181990124Y-122827945D01*
X181990124Y-122827946D01*
X181990117Y-122827949D01*
X181966648Y-122841932D01*
X181959817Y-122845448D01*
X181934795Y-122856426D01*
X181856672Y-122907465D01*
X181776503Y-122955235D01*
X181755650Y-122972897D01*
X181749487Y-122977492D01*
X181726615Y-122992435D01*
X181726612Y-122992438D01*
X181657952Y-123055644D01*
X181634270Y-123075702D01*
X181612334Y-123097638D01*
X181543661Y-123160857D01*
X181543656Y-123160862D01*
X181526872Y-123182426D01*
X181521783Y-123188189D01*
X177816281Y-126893689D01*
X177810520Y-126898778D01*
X177788949Y-126915569D01*
X177725742Y-126984229D01*
X177703795Y-127006176D01*
X177703791Y-127006181D01*
X177683726Y-127029871D01*
X177677058Y-127037115D01*
X177620527Y-127098523D01*
X177605585Y-127121394D01*
X177600990Y-127127557D01*
X177583328Y-127148411D01*
X177535553Y-127228585D01*
X177484521Y-127306697D01*
X177484517Y-127306704D01*
X177473546Y-127331716D01*
X177470028Y-127338551D01*
X177456041Y-127362024D01*
X177456036Y-127362033D01*
X177422113Y-127448970D01*
X177384628Y-127534430D01*
X177377919Y-127560923D01*
X177375574Y-127568242D01*
X177365646Y-127593686D01*
X177365641Y-127593702D01*
X177346494Y-127685018D01*
X177323585Y-127775482D01*
X177323583Y-127775492D01*
X177321328Y-127802715D01*
X177320219Y-127810323D01*
X177314613Y-127837057D01*
X177314612Y-127837070D01*
X177310755Y-127930316D01*
X177308193Y-127961243D01*
X177308193Y-127992271D01*
X177304335Y-128085526D01*
X177304335Y-128085527D01*
X177307716Y-128112649D01*
X177308193Y-128120325D01*
X177308193Y-142387135D01*
X177288508Y-142454174D01*
X177235704Y-142499929D01*
X177166546Y-142509873D01*
X177119404Y-142492863D01*
X177095194Y-142478027D01*
X177081524Y-142469649D01*
X177069545Y-142456410D01*
X177040530Y-142442642D01*
X177029877Y-142437586D01*
X177024059Y-142434435D01*
X176970249Y-142401459D01*
X176866921Y-142358660D01*
X176852253Y-142346840D01*
X176809442Y-142334440D01*
X176802961Y-142332166D01*
X176748557Y-142309631D01*
X176748555Y-142309630D01*
X176637412Y-142282948D01*
X176620248Y-142273093D01*
X176575470Y-142267656D01*
X176568465Y-142266394D01*
X176528562Y-142256815D01*
X176515222Y-142253613D01*
X176515221Y-142253612D01*
X176398766Y-142244447D01*
X176379401Y-142237066D01*
X176333882Y-142238901D01*
X176326516Y-142238760D01*
X176276002Y-142234786D01*
X176276000Y-142234786D01*
X176156987Y-142244151D01*
X176135822Y-142239704D01*
X176090833Y-142248889D01*
X176083291Y-142249952D01*
X176063745Y-142251490D01*
X176036778Y-142253613D01*
X176036774Y-142253613D01*
X176036772Y-142253614D01*
X175918113Y-142282101D01*
X175895612Y-142280975D01*
X175852431Y-142297356D01*
X175844908Y-142299676D01*
X175803444Y-142309631D01*
X175622977Y-142384383D01*
X175621315Y-142385014D01*
X175619375Y-142385875D01*
X175581749Y-142401460D01*
X175581744Y-142401463D01*
X175377153Y-142526837D01*
X175377148Y-142526841D01*
X175194682Y-142682682D01*
X175038841Y-142865148D01*
X175038837Y-142865153D01*
X174913459Y-143069751D01*
X174913457Y-143069754D01*
X174821630Y-143291445D01*
X174821630Y-143291446D01*
X174765612Y-143524780D01*
X174746786Y-143764000D01*
X174765612Y-144003219D01*
X174821630Y-144236553D01*
X174821630Y-144236554D01*
X174913457Y-144458245D01*
X174913459Y-144458248D01*
X175038837Y-144662846D01*
X175038841Y-144662851D01*
X175101598Y-144736330D01*
X175194682Y-144845318D01*
X175243807Y-144887274D01*
X175377148Y-145001158D01*
X175377153Y-145001162D01*
X175581744Y-145126536D01*
X175581751Y-145126540D01*
X175619380Y-145142126D01*
X175621319Y-145142988D01*
X175622975Y-145143616D01*
X175717877Y-145182925D01*
X175803447Y-145218369D01*
X175844913Y-145228324D01*
X175852430Y-145230642D01*
X175888514Y-145244330D01*
X175918150Y-145245906D01*
X176036778Y-145274387D01*
X176083303Y-145278048D01*
X176090833Y-145279110D01*
X176092003Y-145279349D01*
X176092005Y-145279349D01*
X176094532Y-145279865D01*
X176094552Y-145279869D01*
X176128673Y-145286835D01*
X176157000Y-145283848D01*
X176276000Y-145293214D01*
X176326523Y-145289237D01*
X176333881Y-145289097D01*
X176372413Y-145290650D01*
X176398774Y-145283551D01*
X176515222Y-145274387D01*
X176568484Y-145261599D01*
X176575467Y-145260342D01*
X176581335Y-145259630D01*
X176581335Y-145259629D01*
X176613615Y-145255711D01*
X176637413Y-145245051D01*
X176748553Y-145218369D01*
X176802991Y-145195819D01*
X176809429Y-145193561D01*
X176817297Y-145191283D01*
X176817301Y-145191280D01*
X176821873Y-145189957D01*
X176822088Y-145189895D01*
X176822094Y-145189893D01*
X176846148Y-145182925D01*
X176866920Y-145169339D01*
X176970249Y-145126540D01*
X177024082Y-145093550D01*
X177029867Y-145090417D01*
X177039240Y-145085970D01*
X177039246Y-145085965D01*
X177043741Y-145083833D01*
X177043767Y-145083819D01*
X177064105Y-145074168D01*
X177081525Y-145058349D01*
X177119406Y-145035135D01*
X177186851Y-145016892D01*
X177253453Y-145038009D01*
X177298066Y-145091782D01*
X177308193Y-145140864D01*
X177308193Y-149251500D01*
X177288508Y-149318539D01*
X177235704Y-149364294D01*
X177184193Y-149375500D01*
X173103663Y-149375500D01*
X173044765Y-149385327D01*
X173039681Y-149385961D01*
X172980184Y-149390891D01*
X172980176Y-149390892D01*
X172922304Y-149405547D01*
X172917289Y-149406598D01*
X172858383Y-149416429D01*
X172801896Y-149435821D01*
X172796984Y-149437283D01*
X172739122Y-149451936D01*
X172739108Y-149451941D01*
X172684442Y-149475920D01*
X172679667Y-149477783D01*
X172623197Y-149497169D01*
X172623183Y-149497175D01*
X172570674Y-149525592D01*
X172566069Y-149527843D01*
X172511394Y-149551826D01*
X172511390Y-149551828D01*
X172461418Y-149584476D01*
X172457016Y-149587099D01*
X172404486Y-149615528D01*
X172357374Y-149652197D01*
X172353204Y-149655175D01*
X172303217Y-149687834D01*
X172303215Y-149687835D01*
X172259291Y-149728270D01*
X172255380Y-149731582D01*
X172208260Y-149768258D01*
X172208257Y-149768260D01*
X172191262Y-149786722D01*
X172167805Y-149812201D01*
X172164201Y-149815805D01*
X172143382Y-149834971D01*
X172120260Y-149856257D01*
X172120258Y-149856260D01*
X172083582Y-149903380D01*
X172080270Y-149907291D01*
X172039835Y-149951215D01*
X172039834Y-149951217D01*
X172007175Y-150001204D01*
X172004197Y-150005374D01*
X171967528Y-150052486D01*
X171939099Y-150105016D01*
X171936476Y-150109418D01*
X171903828Y-150159390D01*
X171903826Y-150159394D01*
X171879843Y-150214069D01*
X171877592Y-150218674D01*
X171849175Y-150271183D01*
X171849169Y-150271197D01*
X171829783Y-150327667D01*
X171827920Y-150332442D01*
X171803941Y-150387108D01*
X171803936Y-150387122D01*
X171789283Y-150444984D01*
X171787821Y-150449896D01*
X171768429Y-150506383D01*
X171758598Y-150565289D01*
X171757547Y-150570304D01*
X171742892Y-150628176D01*
X171742891Y-150628184D01*
X171737961Y-150687681D01*
X171737327Y-150692765D01*
X171727500Y-150751662D01*
X171727500Y-150813933D01*
X171727499Y-152235110D01*
X171707814Y-152302150D01*
X171691180Y-152322791D01*
X170356791Y-153657181D01*
X170295468Y-153690666D01*
X170269110Y-153693500D01*
X160184889Y-153693500D01*
X160117850Y-153673815D01*
X160097208Y-153657181D01*
X159524819Y-153084791D01*
X159491334Y-153023468D01*
X159488500Y-152997110D01*
X159488500Y-150876005D01*
X161572392Y-150876005D01*
X161592789Y-151122165D01*
X161653428Y-151361623D01*
X161749509Y-151580667D01*
X161752652Y-151587831D01*
X161835513Y-151714658D01*
X161881715Y-151785377D01*
X161887755Y-151794621D01*
X162055052Y-151976355D01*
X162055055Y-151976357D01*
X162055058Y-151976360D01*
X162249971Y-152128067D01*
X162249977Y-152128071D01*
X162249980Y-152128073D01*
X162467221Y-152245638D01*
X162586166Y-152286472D01*
X162700846Y-152325842D01*
X162700848Y-152325842D01*
X162700850Y-152325843D01*
X162944494Y-152366500D01*
X162944495Y-152366500D01*
X163191505Y-152366500D01*
X163191506Y-152366500D01*
X163435150Y-152325843D01*
X163668779Y-152245638D01*
X163886020Y-152128073D01*
X163902213Y-152115470D01*
X164049326Y-152000967D01*
X164080948Y-151976355D01*
X164138469Y-151913870D01*
X166657500Y-151913870D01*
X166657501Y-151913876D01*
X166663908Y-151973483D01*
X166714202Y-152108328D01*
X166714206Y-152108335D01*
X166800452Y-152223544D01*
X166800455Y-152223547D01*
X166915664Y-152309793D01*
X166915671Y-152309797D01*
X167050517Y-152360091D01*
X167050516Y-152360091D01*
X167057444Y-152360835D01*
X167110127Y-152366500D01*
X169185872Y-152366499D01*
X169245483Y-152360091D01*
X169380331Y-152309796D01*
X169495546Y-152223546D01*
X169581796Y-152108331D01*
X169632091Y-151973483D01*
X169638500Y-151913873D01*
X169638499Y-149838128D01*
X169632091Y-149778517D01*
X169628266Y-149768262D01*
X169581797Y-149643671D01*
X169581793Y-149643664D01*
X169495547Y-149528455D01*
X169495544Y-149528452D01*
X169380335Y-149442206D01*
X169380328Y-149442202D01*
X169245482Y-149391908D01*
X169245483Y-149391908D01*
X169185883Y-149385501D01*
X169185881Y-149385500D01*
X169185873Y-149385500D01*
X169185864Y-149385500D01*
X167110129Y-149385500D01*
X167110123Y-149385501D01*
X167050516Y-149391908D01*
X166915671Y-149442202D01*
X166915664Y-149442206D01*
X166800455Y-149528452D01*
X166800452Y-149528455D01*
X166714206Y-149643664D01*
X166714202Y-149643671D01*
X166663908Y-149778517D01*
X166657501Y-149838116D01*
X166657501Y-149838123D01*
X166657500Y-149838135D01*
X166657500Y-151913870D01*
X164138469Y-151913870D01*
X164248245Y-151794621D01*
X164383348Y-151587831D01*
X164482572Y-151361623D01*
X164543210Y-151122169D01*
X164553435Y-150998766D01*
X164563608Y-150876005D01*
X164563608Y-150875994D01*
X164548216Y-150690243D01*
X164543210Y-150629831D01*
X164482572Y-150390377D01*
X164383348Y-150164169D01*
X164248245Y-149957379D01*
X164080948Y-149775645D01*
X164080943Y-149775641D01*
X164080941Y-149775639D01*
X163886028Y-149623932D01*
X163886022Y-149623928D01*
X163668780Y-149506362D01*
X163668771Y-149506359D01*
X163435153Y-149426157D01*
X163223812Y-149390891D01*
X163191506Y-149385500D01*
X162944494Y-149385500D01*
X162912188Y-149390891D01*
X162700846Y-149426157D01*
X162467228Y-149506359D01*
X162467219Y-149506362D01*
X162249977Y-149623928D01*
X162249971Y-149623932D01*
X162055058Y-149775639D01*
X162055055Y-149775642D01*
X161887752Y-149957382D01*
X161752650Y-150164172D01*
X161653428Y-150390376D01*
X161592789Y-150629834D01*
X161572392Y-150875994D01*
X161572392Y-150876005D01*
X159488500Y-150876005D01*
X159488500Y-150813935D01*
X159473109Y-150628186D01*
X159473107Y-150628175D01*
X159412063Y-150387118D01*
X159312173Y-150159393D01*
X159176166Y-149951217D01*
X159132129Y-149903380D01*
X159007744Y-149768262D01*
X158811509Y-149615526D01*
X158811507Y-149615525D01*
X158811506Y-149615524D01*
X158592811Y-149497172D01*
X158592802Y-149497169D01*
X158357616Y-149416429D01*
X158112335Y-149375500D01*
X157863665Y-149375500D01*
X157618383Y-149416429D01*
X157383197Y-149497169D01*
X157383188Y-149497172D01*
X157164493Y-149615524D01*
X156968257Y-149768261D01*
X156968256Y-149768262D01*
X156958817Y-149778516D01*
X156799833Y-149951217D01*
X156663826Y-150159393D01*
X156563936Y-150387118D01*
X156502892Y-150628175D01*
X156502890Y-150628186D01*
X156487500Y-150813935D01*
X156487500Y-152997110D01*
X156467815Y-153064149D01*
X156451181Y-153084791D01*
X155878791Y-153657181D01*
X155817468Y-153690666D01*
X155791110Y-153693500D01*
X145452890Y-153693500D01*
X145385851Y-153673815D01*
X145365209Y-153657181D01*
X144284819Y-152576791D01*
X144251334Y-152515468D01*
X144248500Y-152489110D01*
X144248500Y-150876005D01*
X146332392Y-150876005D01*
X146352789Y-151122165D01*
X146413428Y-151361623D01*
X146509509Y-151580667D01*
X146512652Y-151587831D01*
X146595513Y-151714659D01*
X146641715Y-151785377D01*
X146647755Y-151794621D01*
X146815052Y-151976355D01*
X146815055Y-151976357D01*
X146815058Y-151976360D01*
X147009971Y-152128067D01*
X147009977Y-152128071D01*
X147009980Y-152128073D01*
X147227221Y-152245638D01*
X147346166Y-152286472D01*
X147460846Y-152325842D01*
X147460848Y-152325842D01*
X147460850Y-152325843D01*
X147704494Y-152366500D01*
X147704495Y-152366500D01*
X147951505Y-152366500D01*
X147951506Y-152366500D01*
X148195150Y-152325843D01*
X148428779Y-152245638D01*
X148646020Y-152128073D01*
X148662213Y-152115470D01*
X148809326Y-152000967D01*
X148840948Y-151976355D01*
X148898469Y-151913870D01*
X151417500Y-151913870D01*
X151417501Y-151913876D01*
X151423908Y-151973483D01*
X151474202Y-152108328D01*
X151474206Y-152108335D01*
X151560452Y-152223544D01*
X151560455Y-152223547D01*
X151675664Y-152309793D01*
X151675671Y-152309797D01*
X151810517Y-152360091D01*
X151810516Y-152360091D01*
X151817444Y-152360835D01*
X151870127Y-152366500D01*
X153945872Y-152366499D01*
X154005483Y-152360091D01*
X154140331Y-152309796D01*
X154255546Y-152223546D01*
X154341796Y-152108331D01*
X154392091Y-151973483D01*
X154398500Y-151913873D01*
X154398499Y-149838128D01*
X154392091Y-149778517D01*
X154388266Y-149768262D01*
X154341797Y-149643671D01*
X154341793Y-149643664D01*
X154255547Y-149528455D01*
X154255544Y-149528452D01*
X154140335Y-149442206D01*
X154140328Y-149442202D01*
X154005482Y-149391908D01*
X154005483Y-149391908D01*
X153945883Y-149385501D01*
X153945881Y-149385500D01*
X153945873Y-149385500D01*
X153945864Y-149385500D01*
X151870129Y-149385500D01*
X151870123Y-149385501D01*
X151810516Y-149391908D01*
X151675671Y-149442202D01*
X151675664Y-149442206D01*
X151560455Y-149528452D01*
X151560452Y-149528455D01*
X151474206Y-149643664D01*
X151474202Y-149643671D01*
X151423908Y-149778517D01*
X151417501Y-149838116D01*
X151417501Y-149838123D01*
X151417500Y-149838135D01*
X151417500Y-151913870D01*
X148898469Y-151913870D01*
X149008245Y-151794621D01*
X149143348Y-151587831D01*
X149242572Y-151361623D01*
X149303210Y-151122169D01*
X149313435Y-150998766D01*
X149323608Y-150876005D01*
X149323608Y-150875994D01*
X149308216Y-150690243D01*
X149303210Y-150629831D01*
X149242572Y-150390377D01*
X149143348Y-150164169D01*
X149008245Y-149957379D01*
X148840948Y-149775645D01*
X148840943Y-149775641D01*
X148840941Y-149775639D01*
X148646028Y-149623932D01*
X148646022Y-149623928D01*
X148428780Y-149506362D01*
X148428771Y-149506359D01*
X148195153Y-149426157D01*
X147983812Y-149390891D01*
X147951506Y-149385500D01*
X147704494Y-149385500D01*
X147672188Y-149390891D01*
X147460846Y-149426157D01*
X147227228Y-149506359D01*
X147227219Y-149506362D01*
X147009977Y-149623928D01*
X147009971Y-149623932D01*
X146815058Y-149775639D01*
X146815055Y-149775642D01*
X146647752Y-149957382D01*
X146512650Y-150164172D01*
X146413428Y-150390376D01*
X146352789Y-150629834D01*
X146332392Y-150875994D01*
X146332392Y-150876005D01*
X144248500Y-150876005D01*
X144248500Y-150813935D01*
X144233109Y-150628186D01*
X144233107Y-150628175D01*
X144172063Y-150387118D01*
X144072173Y-150159393D01*
X143936166Y-149951217D01*
X143892129Y-149903380D01*
X143767744Y-149768262D01*
X143571509Y-149615526D01*
X143571507Y-149615525D01*
X143571506Y-149615524D01*
X143352811Y-149497172D01*
X143352802Y-149497169D01*
X143117616Y-149416429D01*
X142872335Y-149375500D01*
X142623665Y-149375500D01*
X142378383Y-149416429D01*
X142143197Y-149497169D01*
X142143188Y-149497172D01*
X141924493Y-149615524D01*
X141728257Y-149768261D01*
X141728256Y-149768262D01*
X141718817Y-149778516D01*
X141559833Y-149951217D01*
X141423826Y-150159393D01*
X141323936Y-150387118D01*
X141262892Y-150628175D01*
X141262890Y-150628186D01*
X141247500Y-150813935D01*
X141247500Y-152489110D01*
X141227815Y-152556149D01*
X141211181Y-152576791D01*
X140130791Y-153657181D01*
X140069468Y-153690666D01*
X140043110Y-153693500D01*
X130212890Y-153693500D01*
X130145851Y-153673815D01*
X130125209Y-153657181D01*
X129044819Y-152576791D01*
X129011334Y-152515468D01*
X129008500Y-152489110D01*
X129008500Y-150876005D01*
X131092392Y-150876005D01*
X131112789Y-151122165D01*
X131173428Y-151361623D01*
X131269509Y-151580667D01*
X131272652Y-151587831D01*
X131355513Y-151714659D01*
X131401715Y-151785377D01*
X131407755Y-151794621D01*
X131575052Y-151976355D01*
X131575055Y-151976357D01*
X131575058Y-151976360D01*
X131769971Y-152128067D01*
X131769977Y-152128071D01*
X131769980Y-152128073D01*
X131987221Y-152245638D01*
X132106166Y-152286472D01*
X132220846Y-152325842D01*
X132220848Y-152325842D01*
X132220850Y-152325843D01*
X132464494Y-152366500D01*
X132464495Y-152366500D01*
X132711505Y-152366500D01*
X132711506Y-152366500D01*
X132955150Y-152325843D01*
X133188779Y-152245638D01*
X133406020Y-152128073D01*
X133422213Y-152115470D01*
X133569326Y-152000967D01*
X133600948Y-151976355D01*
X133658469Y-151913870D01*
X136177500Y-151913870D01*
X136177501Y-151913876D01*
X136183908Y-151973483D01*
X136234202Y-152108328D01*
X136234206Y-152108335D01*
X136320452Y-152223544D01*
X136320455Y-152223547D01*
X136435664Y-152309793D01*
X136435671Y-152309797D01*
X136570517Y-152360091D01*
X136570516Y-152360091D01*
X136577444Y-152360835D01*
X136630127Y-152366500D01*
X138705872Y-152366499D01*
X138765483Y-152360091D01*
X138900331Y-152309796D01*
X139015546Y-152223546D01*
X139101796Y-152108331D01*
X139152091Y-151973483D01*
X139158500Y-151913873D01*
X139158499Y-149838128D01*
X139152091Y-149778517D01*
X139148266Y-149768262D01*
X139101797Y-149643671D01*
X139101793Y-149643664D01*
X139015547Y-149528455D01*
X139015544Y-149528452D01*
X138900335Y-149442206D01*
X138900328Y-149442202D01*
X138765482Y-149391908D01*
X138765483Y-149391908D01*
X138705883Y-149385501D01*
X138705881Y-149385500D01*
X138705873Y-149385500D01*
X138705864Y-149385500D01*
X136630129Y-149385500D01*
X136630123Y-149385501D01*
X136570516Y-149391908D01*
X136435671Y-149442202D01*
X136435664Y-149442206D01*
X136320455Y-149528452D01*
X136320452Y-149528455D01*
X136234206Y-149643664D01*
X136234202Y-149643671D01*
X136183908Y-149778517D01*
X136177501Y-149838116D01*
X136177501Y-149838123D01*
X136177500Y-149838135D01*
X136177500Y-151913870D01*
X133658469Y-151913870D01*
X133768245Y-151794621D01*
X133903348Y-151587831D01*
X134002572Y-151361623D01*
X134063210Y-151122169D01*
X134073435Y-150998766D01*
X134083608Y-150876005D01*
X134083608Y-150875994D01*
X134068216Y-150690243D01*
X134063210Y-150629831D01*
X134002572Y-150390377D01*
X133903348Y-150164169D01*
X133768245Y-149957379D01*
X133600948Y-149775645D01*
X133600943Y-149775641D01*
X133600941Y-149775639D01*
X133406028Y-149623932D01*
X133406022Y-149623928D01*
X133188780Y-149506362D01*
X133188771Y-149506359D01*
X132955153Y-149426157D01*
X132743812Y-149390891D01*
X132711506Y-149385500D01*
X132464494Y-149385500D01*
X132432188Y-149390891D01*
X132220846Y-149426157D01*
X131987228Y-149506359D01*
X131987219Y-149506362D01*
X131769977Y-149623928D01*
X131769971Y-149623932D01*
X131575058Y-149775639D01*
X131575055Y-149775642D01*
X131407752Y-149957382D01*
X131272650Y-150164172D01*
X131173428Y-150390376D01*
X131112789Y-150629834D01*
X131092392Y-150875994D01*
X131092392Y-150876005D01*
X129008500Y-150876005D01*
X129008500Y-150813935D01*
X128993109Y-150628186D01*
X128993107Y-150628175D01*
X128932063Y-150387118D01*
X128832173Y-150159393D01*
X128696166Y-149951217D01*
X128652129Y-149903380D01*
X128527744Y-149768262D01*
X128331509Y-149615526D01*
X128331507Y-149615525D01*
X128331506Y-149615524D01*
X128112811Y-149497172D01*
X128112802Y-149497169D01*
X127877616Y-149416429D01*
X127632335Y-149375500D01*
X127383665Y-149375500D01*
X127138383Y-149416429D01*
X126903197Y-149497169D01*
X126903188Y-149497172D01*
X126684493Y-149615524D01*
X126488257Y-149768261D01*
X126488256Y-149768262D01*
X126478817Y-149778516D01*
X126319833Y-149951217D01*
X126183826Y-150159393D01*
X126083936Y-150387118D01*
X126022892Y-150628175D01*
X126022890Y-150628186D01*
X126007500Y-150813935D01*
X126007500Y-152489110D01*
X125987815Y-152556149D01*
X125971181Y-152576791D01*
X124890791Y-153657181D01*
X124829468Y-153690666D01*
X124803110Y-153693500D01*
X114972890Y-153693500D01*
X114905851Y-153673815D01*
X114885209Y-153657181D01*
X113804819Y-152576791D01*
X113771334Y-152515468D01*
X113768500Y-152489110D01*
X113768500Y-150876005D01*
X115852392Y-150876005D01*
X115872789Y-151122165D01*
X115933428Y-151361623D01*
X116029509Y-151580667D01*
X116032652Y-151587831D01*
X116115513Y-151714659D01*
X116161715Y-151785377D01*
X116167755Y-151794621D01*
X116335052Y-151976355D01*
X116335055Y-151976357D01*
X116335058Y-151976360D01*
X116529971Y-152128067D01*
X116529977Y-152128071D01*
X116529980Y-152128073D01*
X116747221Y-152245638D01*
X116866166Y-152286472D01*
X116980846Y-152325842D01*
X116980848Y-152325842D01*
X116980850Y-152325843D01*
X117224494Y-152366500D01*
X117224495Y-152366500D01*
X117471505Y-152366500D01*
X117471506Y-152366500D01*
X117715150Y-152325843D01*
X117948779Y-152245638D01*
X118166020Y-152128073D01*
X118182213Y-152115470D01*
X118329326Y-152000967D01*
X118360948Y-151976355D01*
X118418469Y-151913870D01*
X120937500Y-151913870D01*
X120937501Y-151913876D01*
X120943908Y-151973483D01*
X120994202Y-152108328D01*
X120994206Y-152108335D01*
X121080452Y-152223544D01*
X121080455Y-152223547D01*
X121195664Y-152309793D01*
X121195671Y-152309797D01*
X121330517Y-152360091D01*
X121330516Y-152360091D01*
X121337444Y-152360835D01*
X121390127Y-152366500D01*
X123465872Y-152366499D01*
X123525483Y-152360091D01*
X123660331Y-152309796D01*
X123775546Y-152223546D01*
X123861796Y-152108331D01*
X123912091Y-151973483D01*
X123918500Y-151913873D01*
X123918499Y-149838128D01*
X123912091Y-149778517D01*
X123908266Y-149768262D01*
X123861797Y-149643671D01*
X123861793Y-149643664D01*
X123775547Y-149528455D01*
X123775544Y-149528452D01*
X123660335Y-149442206D01*
X123660328Y-149442202D01*
X123525482Y-149391908D01*
X123525483Y-149391908D01*
X123465883Y-149385501D01*
X123465881Y-149385500D01*
X123465873Y-149385500D01*
X123465864Y-149385500D01*
X121390129Y-149385500D01*
X121390123Y-149385501D01*
X121330516Y-149391908D01*
X121195671Y-149442202D01*
X121195664Y-149442206D01*
X121080455Y-149528452D01*
X121080452Y-149528455D01*
X120994206Y-149643664D01*
X120994202Y-149643671D01*
X120943908Y-149778517D01*
X120937501Y-149838116D01*
X120937501Y-149838123D01*
X120937500Y-149838135D01*
X120937500Y-151913870D01*
X118418469Y-151913870D01*
X118528245Y-151794621D01*
X118663348Y-151587831D01*
X118762572Y-151361623D01*
X118823210Y-151122169D01*
X118833435Y-150998766D01*
X118843608Y-150876005D01*
X118843608Y-150875994D01*
X118828216Y-150690243D01*
X118823210Y-150629831D01*
X118762572Y-150390377D01*
X118663348Y-150164169D01*
X118528245Y-149957379D01*
X118360948Y-149775645D01*
X118360943Y-149775641D01*
X118360941Y-149775639D01*
X118166028Y-149623932D01*
X118166022Y-149623928D01*
X117948780Y-149506362D01*
X117948771Y-149506359D01*
X117715153Y-149426157D01*
X117503812Y-149390891D01*
X117471506Y-149385500D01*
X117224494Y-149385500D01*
X117192188Y-149390891D01*
X116980846Y-149426157D01*
X116747228Y-149506359D01*
X116747219Y-149506362D01*
X116529977Y-149623928D01*
X116529971Y-149623932D01*
X116335058Y-149775639D01*
X116335055Y-149775642D01*
X116167752Y-149957382D01*
X116032650Y-150164172D01*
X115933428Y-150390376D01*
X115872789Y-150629834D01*
X115852392Y-150875994D01*
X115852392Y-150876005D01*
X113768500Y-150876005D01*
X113768500Y-150813935D01*
X113753109Y-150628186D01*
X113753107Y-150628175D01*
X113692063Y-150387118D01*
X113592173Y-150159393D01*
X113456166Y-149951217D01*
X113412129Y-149903380D01*
X113287744Y-149768262D01*
X113091509Y-149615526D01*
X113091507Y-149615525D01*
X113091506Y-149615524D01*
X112872811Y-149497172D01*
X112872802Y-149497169D01*
X112637616Y-149416429D01*
X112392335Y-149375500D01*
X112143665Y-149375500D01*
X111898383Y-149416429D01*
X111663197Y-149497169D01*
X111663188Y-149497172D01*
X111444493Y-149615524D01*
X111248257Y-149768261D01*
X111248256Y-149768262D01*
X111238817Y-149778516D01*
X111079833Y-149951217D01*
X110943826Y-150159393D01*
X110843936Y-150387118D01*
X110782892Y-150628175D01*
X110782890Y-150628186D01*
X110767500Y-150813935D01*
X110767500Y-152489110D01*
X110747815Y-152556149D01*
X110731181Y-152576791D01*
X109650791Y-153657181D01*
X109589468Y-153690666D01*
X109563110Y-153693500D01*
X89318890Y-153693500D01*
X89251851Y-153673815D01*
X89231209Y-153657181D01*
X88404819Y-152830791D01*
X88371334Y-152769468D01*
X88368500Y-152743110D01*
X88368500Y-150876005D01*
X90467944Y-150876005D01*
X90488130Y-151119605D01*
X90548138Y-151356573D01*
X90646328Y-151580424D01*
X90742626Y-151727820D01*
X91345452Y-151124993D01*
X91355188Y-151154956D01*
X91443186Y-151293619D01*
X91562903Y-151406040D01*
X91697510Y-151480041D01*
X91095757Y-152081793D01*
X91095758Y-152081794D01*
X91138485Y-152115050D01*
X91138485Y-152115051D01*
X91353468Y-152231394D01*
X91353476Y-152231397D01*
X91584664Y-152310765D01*
X91825779Y-152351000D01*
X92070221Y-152351000D01*
X92311335Y-152310765D01*
X92542523Y-152231397D01*
X92542531Y-152231394D01*
X92757515Y-152115050D01*
X92757516Y-152115048D01*
X92800240Y-152081794D01*
X92800241Y-152081793D01*
X92195534Y-151477086D01*
X92263629Y-151450126D01*
X92396492Y-151353595D01*
X92501175Y-151227055D01*
X92549631Y-151124079D01*
X93153372Y-151727820D01*
X93249669Y-151580429D01*
X93347861Y-151356573D01*
X93407869Y-151119605D01*
X93428055Y-150876005D01*
X95547443Y-150876005D01*
X95567634Y-151119683D01*
X95567636Y-151119695D01*
X95627663Y-151356734D01*
X95725888Y-151580666D01*
X95859632Y-151785378D01*
X96025242Y-151965277D01*
X96025252Y-151965286D01*
X96218208Y-152115470D01*
X96218212Y-152115473D01*
X96427357Y-152228657D01*
X96433267Y-152231855D01*
X96433270Y-152231856D01*
X96664541Y-152311251D01*
X96664543Y-152311251D01*
X96664545Y-152311252D01*
X96905737Y-152351500D01*
X96905738Y-152351500D01*
X97150262Y-152351500D01*
X97150263Y-152351500D01*
X97391455Y-152311252D01*
X97622733Y-152231855D01*
X97837788Y-152115473D01*
X98030754Y-151965281D01*
X98196368Y-151785377D01*
X98330111Y-151580667D01*
X98428336Y-151356736D01*
X98488364Y-151119692D01*
X98491781Y-151078457D01*
X98508557Y-150876005D01*
X100627443Y-150876005D01*
X100647634Y-151119683D01*
X100647636Y-151119695D01*
X100707663Y-151356734D01*
X100805888Y-151580666D01*
X100939632Y-151785378D01*
X101105242Y-151965277D01*
X101105252Y-151965286D01*
X101298208Y-152115470D01*
X101298212Y-152115473D01*
X101507357Y-152228657D01*
X101513267Y-152231855D01*
X101513270Y-152231856D01*
X101744541Y-152311251D01*
X101744543Y-152311251D01*
X101744545Y-152311252D01*
X101985737Y-152351500D01*
X101985738Y-152351500D01*
X102230262Y-152351500D01*
X102230263Y-152351500D01*
X102471455Y-152311252D01*
X102702733Y-152231855D01*
X102917788Y-152115473D01*
X103110754Y-151965281D01*
X103276368Y-151785377D01*
X103410111Y-151580667D01*
X103508336Y-151356736D01*
X103568364Y-151119692D01*
X103571781Y-151078457D01*
X103588557Y-150876005D01*
X105707443Y-150876005D01*
X105727634Y-151119683D01*
X105727636Y-151119695D01*
X105787663Y-151356734D01*
X105885888Y-151580666D01*
X106019632Y-151785378D01*
X106185242Y-151965277D01*
X106185252Y-151965286D01*
X106378208Y-152115470D01*
X106378212Y-152115473D01*
X106587357Y-152228657D01*
X106593267Y-152231855D01*
X106593270Y-152231856D01*
X106824541Y-152311251D01*
X106824543Y-152311251D01*
X106824545Y-152311252D01*
X107065737Y-152351500D01*
X107065738Y-152351500D01*
X107310262Y-152351500D01*
X107310263Y-152351500D01*
X107551455Y-152311252D01*
X107782733Y-152231855D01*
X107997788Y-152115473D01*
X108190754Y-151965281D01*
X108356368Y-151785377D01*
X108490111Y-151580667D01*
X108588336Y-151356736D01*
X108648364Y-151119692D01*
X108651781Y-151078457D01*
X108668557Y-150876005D01*
X108668557Y-150875994D01*
X108648365Y-150632316D01*
X108648363Y-150632304D01*
X108639143Y-150595894D01*
X108588336Y-150395264D01*
X108490111Y-150171333D01*
X108412465Y-150052486D01*
X108356367Y-149966621D01*
X108190757Y-149786722D01*
X108190747Y-149786713D01*
X107997791Y-149636529D01*
X107997787Y-149636526D01*
X107782734Y-149520145D01*
X107782729Y-149520143D01*
X107551458Y-149440748D01*
X107344289Y-149406178D01*
X107310263Y-149400500D01*
X107065737Y-149400500D01*
X107035492Y-149405547D01*
X106824541Y-149440748D01*
X106593270Y-149520143D01*
X106593265Y-149520145D01*
X106378212Y-149636526D01*
X106378208Y-149636529D01*
X106185252Y-149786713D01*
X106185242Y-149786722D01*
X106019632Y-149966621D01*
X105885888Y-150171333D01*
X105787663Y-150395265D01*
X105727636Y-150632304D01*
X105727634Y-150632316D01*
X105707443Y-150875994D01*
X105707443Y-150876005D01*
X103588557Y-150876005D01*
X103588557Y-150875994D01*
X103568365Y-150632316D01*
X103568363Y-150632304D01*
X103559143Y-150595894D01*
X103508336Y-150395264D01*
X103410111Y-150171333D01*
X103332465Y-150052486D01*
X103276367Y-149966621D01*
X103110757Y-149786722D01*
X103110747Y-149786713D01*
X102917791Y-149636529D01*
X102917787Y-149636526D01*
X102702734Y-149520145D01*
X102702729Y-149520143D01*
X102471458Y-149440748D01*
X102264289Y-149406178D01*
X102230263Y-149400500D01*
X101985737Y-149400500D01*
X101955492Y-149405547D01*
X101744541Y-149440748D01*
X101513270Y-149520143D01*
X101513265Y-149520145D01*
X101298212Y-149636526D01*
X101298208Y-149636529D01*
X101105252Y-149786713D01*
X101105242Y-149786722D01*
X100939632Y-149966621D01*
X100805888Y-150171333D01*
X100707663Y-150395265D01*
X100647636Y-150632304D01*
X100647634Y-150632316D01*
X100627443Y-150875994D01*
X100627443Y-150876005D01*
X98508557Y-150876005D01*
X98508557Y-150875994D01*
X98488365Y-150632316D01*
X98488363Y-150632304D01*
X98479143Y-150595894D01*
X98428336Y-150395264D01*
X98330111Y-150171333D01*
X98252465Y-150052486D01*
X98196367Y-149966621D01*
X98030757Y-149786722D01*
X98030747Y-149786713D01*
X97837791Y-149636529D01*
X97837787Y-149636526D01*
X97622734Y-149520145D01*
X97622729Y-149520143D01*
X97391458Y-149440748D01*
X97184289Y-149406178D01*
X97150263Y-149400500D01*
X96905737Y-149400500D01*
X96875492Y-149405547D01*
X96664541Y-149440748D01*
X96433270Y-149520143D01*
X96433265Y-149520145D01*
X96218212Y-149636526D01*
X96218208Y-149636529D01*
X96025252Y-149786713D01*
X96025242Y-149786722D01*
X95859632Y-149966621D01*
X95725888Y-150171333D01*
X95627663Y-150395265D01*
X95567636Y-150632304D01*
X95567634Y-150632316D01*
X95547443Y-150875994D01*
X95547443Y-150876005D01*
X93428055Y-150876005D01*
X93428055Y-150875994D01*
X93407869Y-150632394D01*
X93347861Y-150395426D01*
X93249671Y-150171575D01*
X93153372Y-150024178D01*
X92550546Y-150627004D01*
X92540812Y-150597044D01*
X92452814Y-150458381D01*
X92333097Y-150345960D01*
X92198489Y-150271958D01*
X92800240Y-149670205D01*
X92800240Y-149670204D01*
X92757514Y-149636949D01*
X92757514Y-149636948D01*
X92542531Y-149520605D01*
X92542523Y-149520602D01*
X92311335Y-149441234D01*
X92070221Y-149401000D01*
X91825779Y-149401000D01*
X91584664Y-149441234D01*
X91353476Y-149520602D01*
X91353468Y-149520605D01*
X91138484Y-149636949D01*
X91138478Y-149636953D01*
X91095758Y-149670203D01*
X91095758Y-149670205D01*
X91700466Y-150274913D01*
X91632371Y-150301874D01*
X91499508Y-150398405D01*
X91394825Y-150524945D01*
X91346368Y-150627921D01*
X90742625Y-150024178D01*
X90646329Y-150171572D01*
X90548138Y-150395426D01*
X90488130Y-150632394D01*
X90467944Y-150875994D01*
X90467944Y-150876005D01*
X88368500Y-150876005D01*
X88368500Y-150813935D01*
X88353109Y-150628186D01*
X88353107Y-150628175D01*
X88292063Y-150387118D01*
X88192173Y-150159393D01*
X88056166Y-149951217D01*
X88012129Y-149903380D01*
X87887744Y-149768262D01*
X87691509Y-149615526D01*
X87691507Y-149615525D01*
X87691506Y-149615524D01*
X87472811Y-149497172D01*
X87472802Y-149497169D01*
X87237616Y-149416429D01*
X86992335Y-149375500D01*
X86743665Y-149375500D01*
X86498383Y-149416429D01*
X86263197Y-149497169D01*
X86263188Y-149497172D01*
X86044493Y-149615524D01*
X85848257Y-149768261D01*
X85848256Y-149768262D01*
X85838817Y-149778516D01*
X85679833Y-149951217D01*
X85543826Y-150159393D01*
X85443936Y-150387118D01*
X85382892Y-150628175D01*
X85382890Y-150628186D01*
X85367500Y-150813935D01*
X85367500Y-153318981D01*
X85367024Y-153326656D01*
X85363643Y-153353779D01*
X85367500Y-153447035D01*
X85367500Y-153478064D01*
X85370062Y-153508990D01*
X85373918Y-153602233D01*
X85379526Y-153628983D01*
X85380635Y-153636590D01*
X85382891Y-153663818D01*
X85382891Y-153663819D01*
X85392742Y-153702720D01*
X85405801Y-153754288D01*
X85424951Y-153845614D01*
X85424952Y-153845616D01*
X85434882Y-153871067D01*
X85437227Y-153878387D01*
X85443937Y-153904881D01*
X85452820Y-153925132D01*
X85481420Y-153990335D01*
X85515344Y-154077275D01*
X85529332Y-154100750D01*
X85532852Y-154107588D01*
X85543825Y-154132604D01*
X85543827Y-154132607D01*
X85594860Y-154210720D01*
X85642634Y-154290894D01*
X85660296Y-154311747D01*
X85664887Y-154317904D01*
X85679836Y-154340785D01*
X85679837Y-154340786D01*
X85743033Y-154409435D01*
X85763100Y-154433129D01*
X85785049Y-154455078D01*
X85848257Y-154523739D01*
X85869822Y-154540524D01*
X85875587Y-154545615D01*
X87516384Y-156186412D01*
X87521473Y-156192174D01*
X87538262Y-156213744D01*
X87538264Y-156213746D01*
X87538265Y-156213747D01*
X87606921Y-156276950D01*
X87628866Y-156298894D01*
X87628874Y-156298902D01*
X87652564Y-156318966D01*
X87721215Y-156382164D01*
X87721217Y-156382165D01*
X87721218Y-156382166D01*
X87744086Y-156397106D01*
X87750250Y-156401702D01*
X87771106Y-156419366D01*
X87815037Y-156445543D01*
X87851275Y-156467137D01*
X87923600Y-156514388D01*
X87929393Y-156518173D01*
X87954402Y-156529143D01*
X87954418Y-156529150D01*
X87961248Y-156532665D01*
X87984727Y-156546656D01*
X88071667Y-156580580D01*
X88157119Y-156618063D01*
X88183623Y-156624774D01*
X88190920Y-156627112D01*
X88216386Y-156637050D01*
X88307725Y-156656202D01*
X88398179Y-156679108D01*
X88398183Y-156679108D01*
X88398187Y-156679109D01*
X88425406Y-156681364D01*
X88433016Y-156682473D01*
X88445727Y-156685138D01*
X88459763Y-156688081D01*
X88553009Y-156691937D01*
X88583933Y-156694500D01*
X88583934Y-156694500D01*
X88614965Y-156694500D01*
X88708221Y-156698357D01*
X88735347Y-156694975D01*
X88743019Y-156694500D01*
X110138981Y-156694500D01*
X110146652Y-156694975D01*
X110173779Y-156698357D01*
X110267035Y-156694500D01*
X110298067Y-156694500D01*
X110328990Y-156691937D01*
X110422237Y-156688081D01*
X110448982Y-156682472D01*
X110456582Y-156681364D01*
X110483821Y-156679108D01*
X110483824Y-156679107D01*
X110483826Y-156679107D01*
X110483829Y-156679106D01*
X110574288Y-156656198D01*
X110574298Y-156656196D01*
X110665614Y-156637049D01*
X110691077Y-156627112D01*
X110698374Y-156624774D01*
X110724881Y-156618063D01*
X110810335Y-156580579D01*
X110897274Y-156546656D01*
X110920761Y-156532659D01*
X110927581Y-156529149D01*
X110952607Y-156518173D01*
X111030720Y-156467139D01*
X111110894Y-156419366D01*
X111131754Y-156401697D01*
X111137894Y-156397117D01*
X111160785Y-156382164D01*
X111229435Y-156318966D01*
X111253126Y-156298902D01*
X111275078Y-156276949D01*
X111343738Y-156213744D01*
X111360530Y-156192167D01*
X111365604Y-156186422D01*
X112180322Y-155371705D01*
X112241641Y-155338223D01*
X112311333Y-155343207D01*
X112355680Y-155371708D01*
X113170384Y-156186412D01*
X113175473Y-156192174D01*
X113192262Y-156213744D01*
X113192264Y-156213746D01*
X113192265Y-156213747D01*
X113260921Y-156276950D01*
X113282866Y-156298894D01*
X113282874Y-156298902D01*
X113306564Y-156318966D01*
X113375215Y-156382164D01*
X113375217Y-156382165D01*
X113375218Y-156382166D01*
X113398086Y-156397106D01*
X113404250Y-156401702D01*
X113425106Y-156419366D01*
X113425113Y-156419370D01*
X113505278Y-156467139D01*
X113556312Y-156500480D01*
X113583393Y-156518173D01*
X113608412Y-156529147D01*
X113615243Y-156532663D01*
X113628657Y-156540656D01*
X113638720Y-156546653D01*
X113638730Y-156546658D01*
X113725663Y-156580579D01*
X113763146Y-156597020D01*
X113811119Y-156618063D01*
X113835908Y-156624340D01*
X113837609Y-156624771D01*
X113844932Y-156627116D01*
X113870386Y-156637049D01*
X113961711Y-156656198D01*
X114052179Y-156679108D01*
X114052184Y-156679108D01*
X114052187Y-156679109D01*
X114079406Y-156681364D01*
X114087016Y-156682473D01*
X114101880Y-156685589D01*
X114113763Y-156688081D01*
X114207009Y-156691937D01*
X114237933Y-156694500D01*
X114237934Y-156694500D01*
X114268965Y-156694500D01*
X114362221Y-156698357D01*
X114389347Y-156694975D01*
X114397019Y-156694500D01*
X125378981Y-156694500D01*
X125386652Y-156694975D01*
X125413779Y-156698357D01*
X125507035Y-156694500D01*
X125538067Y-156694500D01*
X125568990Y-156691937D01*
X125662237Y-156688081D01*
X125688982Y-156682472D01*
X125696582Y-156681364D01*
X125723821Y-156679108D01*
X125723824Y-156679107D01*
X125723826Y-156679107D01*
X125723829Y-156679106D01*
X125814288Y-156656198D01*
X125814298Y-156656196D01*
X125905614Y-156637049D01*
X125931077Y-156627112D01*
X125938374Y-156624774D01*
X125964881Y-156618063D01*
X126050335Y-156580579D01*
X126137274Y-156546656D01*
X126160761Y-156532659D01*
X126167581Y-156529149D01*
X126192607Y-156518173D01*
X126270720Y-156467139D01*
X126350894Y-156419366D01*
X126371754Y-156401697D01*
X126377894Y-156397117D01*
X126400785Y-156382164D01*
X126469435Y-156318966D01*
X126493126Y-156298902D01*
X126515078Y-156276949D01*
X126583738Y-156213744D01*
X126600530Y-156192167D01*
X126605604Y-156186422D01*
X127420322Y-155371705D01*
X127481641Y-155338223D01*
X127551333Y-155343207D01*
X127595680Y-155371708D01*
X128410384Y-156186412D01*
X128415473Y-156192174D01*
X128432262Y-156213744D01*
X128432264Y-156213746D01*
X128432265Y-156213747D01*
X128500921Y-156276950D01*
X128522866Y-156298894D01*
X128522874Y-156298902D01*
X128546564Y-156318966D01*
X128615215Y-156382164D01*
X128615217Y-156382165D01*
X128615218Y-156382166D01*
X128638086Y-156397106D01*
X128644250Y-156401702D01*
X128665106Y-156419366D01*
X128665113Y-156419370D01*
X128745278Y-156467139D01*
X128796312Y-156500480D01*
X128823393Y-156518173D01*
X128848412Y-156529147D01*
X128855243Y-156532663D01*
X128868657Y-156540656D01*
X128878720Y-156546653D01*
X128878730Y-156546658D01*
X128965663Y-156580579D01*
X129003147Y-156597020D01*
X129051119Y-156618063D01*
X129075908Y-156624340D01*
X129077609Y-156624771D01*
X129084932Y-156627116D01*
X129110386Y-156637049D01*
X129201711Y-156656198D01*
X129292179Y-156679108D01*
X129292184Y-156679108D01*
X129292187Y-156679109D01*
X129319406Y-156681364D01*
X129327016Y-156682473D01*
X129341880Y-156685589D01*
X129353763Y-156688081D01*
X129447009Y-156691937D01*
X129477933Y-156694500D01*
X129477934Y-156694500D01*
X129508965Y-156694500D01*
X129602221Y-156698357D01*
X129629347Y-156694975D01*
X129637019Y-156694500D01*
X140618981Y-156694500D01*
X140626652Y-156694975D01*
X140653779Y-156698357D01*
X140747035Y-156694500D01*
X140778067Y-156694500D01*
X140808990Y-156691937D01*
X140902237Y-156688081D01*
X140928982Y-156682472D01*
X140936582Y-156681364D01*
X140963821Y-156679108D01*
X140963824Y-156679107D01*
X140963826Y-156679107D01*
X140963829Y-156679106D01*
X141054288Y-156656198D01*
X141054298Y-156656196D01*
X141145614Y-156637049D01*
X141171077Y-156627112D01*
X141178374Y-156624774D01*
X141204881Y-156618063D01*
X141290335Y-156580579D01*
X141377274Y-156546656D01*
X141400761Y-156532659D01*
X141407581Y-156529149D01*
X141432607Y-156518173D01*
X141510720Y-156467139D01*
X141590894Y-156419366D01*
X141611754Y-156401697D01*
X141617894Y-156397117D01*
X141640785Y-156382164D01*
X141709435Y-156318966D01*
X141733126Y-156298902D01*
X141755078Y-156276949D01*
X141823738Y-156213744D01*
X141840530Y-156192167D01*
X141845604Y-156186422D01*
X142660320Y-155371706D01*
X142721641Y-155338223D01*
X142791333Y-155343207D01*
X142835677Y-155371706D01*
X143255999Y-155792027D01*
X143650384Y-156186412D01*
X143655473Y-156192174D01*
X143672262Y-156213744D01*
X143672264Y-156213746D01*
X143672265Y-156213747D01*
X143740921Y-156276950D01*
X143762866Y-156298894D01*
X143762874Y-156298902D01*
X143786564Y-156318966D01*
X143855215Y-156382164D01*
X143855217Y-156382165D01*
X143855218Y-156382166D01*
X143878086Y-156397106D01*
X143884250Y-156401702D01*
X143905106Y-156419366D01*
X143905113Y-156419370D01*
X143985278Y-156467139D01*
X144036312Y-156500480D01*
X144063393Y-156518173D01*
X144088412Y-156529147D01*
X144095243Y-156532663D01*
X144108657Y-156540656D01*
X144118720Y-156546653D01*
X144118730Y-156546658D01*
X144205663Y-156580579D01*
X144243146Y-156597020D01*
X144291119Y-156618063D01*
X144315908Y-156624340D01*
X144317609Y-156624771D01*
X144324932Y-156627116D01*
X144350386Y-156637049D01*
X144441711Y-156656198D01*
X144532179Y-156679108D01*
X144532184Y-156679108D01*
X144532187Y-156679109D01*
X144559406Y-156681364D01*
X144567016Y-156682473D01*
X144581880Y-156685589D01*
X144593763Y-156688081D01*
X144687009Y-156691937D01*
X144717933Y-156694500D01*
X144717934Y-156694500D01*
X144748965Y-156694500D01*
X144842221Y-156698357D01*
X144869347Y-156694975D01*
X144877019Y-156694500D01*
X156366981Y-156694500D01*
X156374652Y-156694975D01*
X156401779Y-156698357D01*
X156495035Y-156694500D01*
X156526067Y-156694500D01*
X156556990Y-156691937D01*
X156650237Y-156688081D01*
X156676982Y-156682472D01*
X156684582Y-156681364D01*
X156711821Y-156679108D01*
X156711824Y-156679107D01*
X156711826Y-156679107D01*
X156711829Y-156679106D01*
X156802288Y-156656198D01*
X156802298Y-156656196D01*
X156893614Y-156637049D01*
X156919077Y-156627112D01*
X156926374Y-156624774D01*
X156952881Y-156618063D01*
X157038335Y-156580579D01*
X157125274Y-156546656D01*
X157148761Y-156532659D01*
X157155581Y-156529149D01*
X157180607Y-156518173D01*
X157258720Y-156467139D01*
X157338894Y-156419366D01*
X157359754Y-156401697D01*
X157365894Y-156397117D01*
X157388785Y-156382164D01*
X157457435Y-156318966D01*
X157481126Y-156298902D01*
X157503078Y-156276949D01*
X157571738Y-156213744D01*
X157588530Y-156192167D01*
X157593604Y-156186422D01*
X157900318Y-155879708D01*
X157961642Y-155846223D01*
X158031334Y-155851207D01*
X158075681Y-155879708D01*
X158382392Y-156186419D01*
X158387473Y-156192174D01*
X158404260Y-156213742D01*
X158404265Y-156213747D01*
X158472933Y-156276961D01*
X158494871Y-156298899D01*
X158494875Y-156298902D01*
X158518552Y-156318955D01*
X158587215Y-156382164D01*
X158587217Y-156382165D01*
X158587218Y-156382166D01*
X158610086Y-156397106D01*
X158616250Y-156401702D01*
X158637106Y-156419366D01*
X158717272Y-156467134D01*
X158795393Y-156518173D01*
X158820414Y-156529148D01*
X158827245Y-156532664D01*
X158850726Y-156546655D01*
X158875124Y-156556175D01*
X158937651Y-156580574D01*
X159000116Y-156607973D01*
X159023119Y-156618063D01*
X159023123Y-156618064D01*
X159049609Y-156624771D01*
X159056932Y-156627116D01*
X159082386Y-156637049D01*
X159173702Y-156656196D01*
X159264179Y-156679108D01*
X159291415Y-156681364D01*
X159299018Y-156682471D01*
X159325763Y-156688080D01*
X159418994Y-156691936D01*
X159449933Y-156694500D01*
X159449935Y-156694500D01*
X159480974Y-156694500D01*
X159574221Y-156698357D01*
X159590914Y-156696276D01*
X159601342Y-156694977D01*
X159609018Y-156694500D01*
X170844981Y-156694500D01*
X170852652Y-156694975D01*
X170879779Y-156698357D01*
X170973035Y-156694500D01*
X171004067Y-156694500D01*
X171034990Y-156691937D01*
X171128237Y-156688081D01*
X171154982Y-156682472D01*
X171162582Y-156681364D01*
X171189821Y-156679108D01*
X171189824Y-156679107D01*
X171189826Y-156679107D01*
X171189829Y-156679106D01*
X171280288Y-156656198D01*
X171280298Y-156656196D01*
X171371614Y-156637049D01*
X171397077Y-156627112D01*
X171404374Y-156624774D01*
X171430881Y-156618063D01*
X171516335Y-156580579D01*
X171603274Y-156546656D01*
X171626761Y-156532659D01*
X171633581Y-156529149D01*
X171658607Y-156518173D01*
X171736720Y-156467139D01*
X171816894Y-156419366D01*
X171837754Y-156401697D01*
X171843894Y-156397117D01*
X171866785Y-156382164D01*
X171935435Y-156318966D01*
X171959126Y-156298902D01*
X171981078Y-156276949D01*
X172049738Y-156213744D01*
X172066530Y-156192167D01*
X172071604Y-156186422D01*
X174220422Y-154037604D01*
X174226167Y-154032530D01*
X174247744Y-154015738D01*
X174310949Y-153947078D01*
X174332902Y-153925126D01*
X174352966Y-153901435D01*
X174416164Y-153832785D01*
X174431117Y-153809894D01*
X174435697Y-153803754D01*
X174453366Y-153782894D01*
X174501139Y-153702720D01*
X174552173Y-153624607D01*
X174563149Y-153599581D01*
X174566659Y-153592761D01*
X174580656Y-153569274D01*
X174614579Y-153482335D01*
X174652063Y-153396881D01*
X174658774Y-153370374D01*
X174661112Y-153363077D01*
X174671049Y-153337614D01*
X174690196Y-153246297D01*
X174713108Y-153155821D01*
X174715364Y-153128583D01*
X174716471Y-153120980D01*
X174722080Y-153094237D01*
X174725936Y-153001005D01*
X174728500Y-152970067D01*
X174728500Y-152939026D01*
X174732357Y-152845779D01*
X174728975Y-152818653D01*
X174728500Y-152810981D01*
X174728500Y-152500500D01*
X174748185Y-152433461D01*
X174800989Y-152387706D01*
X174852500Y-152376500D01*
X178210981Y-152376500D01*
X178218652Y-152376975D01*
X178245779Y-152380357D01*
X178339035Y-152376500D01*
X178370067Y-152376500D01*
X178400990Y-152373937D01*
X178494237Y-152370081D01*
X178520982Y-152364472D01*
X178528582Y-152363364D01*
X178555821Y-152361108D01*
X178555824Y-152361107D01*
X178555826Y-152361107D01*
X178555829Y-152361106D01*
X178646288Y-152338198D01*
X178646287Y-152338197D01*
X178737614Y-152319049D01*
X178763077Y-152309112D01*
X178770374Y-152306774D01*
X178796881Y-152300063D01*
X178882335Y-152262579D01*
X178969274Y-152228656D01*
X178992761Y-152214659D01*
X178999581Y-152211149D01*
X179024607Y-152200173D01*
X179102720Y-152149139D01*
X179182894Y-152101366D01*
X179203754Y-152083697D01*
X179209894Y-152079117D01*
X179232785Y-152064164D01*
X179301435Y-152000966D01*
X179325126Y-151980902D01*
X179347078Y-151958949D01*
X179396048Y-151913870D01*
X181897500Y-151913870D01*
X181897501Y-151913876D01*
X181903908Y-151973483D01*
X181954202Y-152108328D01*
X181954206Y-152108335D01*
X182040452Y-152223544D01*
X182040455Y-152223547D01*
X182155664Y-152309793D01*
X182155671Y-152309797D01*
X182290517Y-152360091D01*
X182290516Y-152360091D01*
X182297444Y-152360835D01*
X182350127Y-152366500D01*
X184425872Y-152366499D01*
X184485483Y-152360091D01*
X184620331Y-152309796D01*
X184735546Y-152223546D01*
X184821796Y-152108331D01*
X184872091Y-151973483D01*
X184878500Y-151913873D01*
X184878500Y-150876005D01*
X186972392Y-150876005D01*
X186992789Y-151122165D01*
X187053428Y-151361623D01*
X187149509Y-151580667D01*
X187152652Y-151587831D01*
X187235513Y-151714659D01*
X187281715Y-151785377D01*
X187287755Y-151794621D01*
X187455052Y-151976355D01*
X187455055Y-151976357D01*
X187455058Y-151976360D01*
X187649971Y-152128067D01*
X187649977Y-152128071D01*
X187649980Y-152128073D01*
X187867221Y-152245638D01*
X187986166Y-152286472D01*
X188100846Y-152325842D01*
X188100848Y-152325842D01*
X188100850Y-152325843D01*
X188344494Y-152366500D01*
X188344495Y-152366500D01*
X188591505Y-152366500D01*
X188591506Y-152366500D01*
X188835150Y-152325843D01*
X189068779Y-152245638D01*
X189286020Y-152128073D01*
X189302213Y-152115470D01*
X189449326Y-152000967D01*
X189480948Y-151976355D01*
X189648245Y-151794621D01*
X189783348Y-151587831D01*
X189882572Y-151361623D01*
X189943210Y-151122169D01*
X189953435Y-150998766D01*
X189963608Y-150876005D01*
X192052392Y-150876005D01*
X192072789Y-151122165D01*
X192133428Y-151361623D01*
X192229509Y-151580667D01*
X192232652Y-151587831D01*
X192315513Y-151714658D01*
X192361715Y-151785377D01*
X192367755Y-151794621D01*
X192535052Y-151976355D01*
X192535055Y-151976357D01*
X192535058Y-151976360D01*
X192729971Y-152128067D01*
X192729977Y-152128071D01*
X192729980Y-152128073D01*
X192947221Y-152245638D01*
X193066166Y-152286472D01*
X193180846Y-152325842D01*
X193180848Y-152325842D01*
X193180850Y-152325843D01*
X193424494Y-152366500D01*
X193424495Y-152366500D01*
X193671505Y-152366500D01*
X193671506Y-152366500D01*
X193915150Y-152325843D01*
X194148779Y-152245638D01*
X194366020Y-152128073D01*
X194382213Y-152115470D01*
X194529326Y-152000967D01*
X194560948Y-151976355D01*
X194618469Y-151913870D01*
X197137500Y-151913870D01*
X197137501Y-151913876D01*
X197143908Y-151973483D01*
X197194202Y-152108328D01*
X197194206Y-152108335D01*
X197280452Y-152223544D01*
X197280455Y-152223547D01*
X197395664Y-152309793D01*
X197395671Y-152309797D01*
X197530517Y-152360091D01*
X197530516Y-152360091D01*
X197537444Y-152360835D01*
X197590127Y-152366500D01*
X199665872Y-152366499D01*
X199725483Y-152360091D01*
X199860331Y-152309796D01*
X199975546Y-152223546D01*
X200061796Y-152108331D01*
X200112091Y-151973483D01*
X200118500Y-151913873D01*
X200118499Y-149838128D01*
X200112091Y-149778517D01*
X200108266Y-149768262D01*
X200061797Y-149643671D01*
X200061793Y-149643664D01*
X199975547Y-149528455D01*
X199975544Y-149528452D01*
X199860335Y-149442206D01*
X199860328Y-149442202D01*
X199725482Y-149391908D01*
X199725483Y-149391908D01*
X199665883Y-149385501D01*
X199665881Y-149385500D01*
X199665873Y-149385500D01*
X199665864Y-149385500D01*
X197590129Y-149385500D01*
X197590123Y-149385501D01*
X197530516Y-149391908D01*
X197395671Y-149442202D01*
X197395664Y-149442206D01*
X197280455Y-149528452D01*
X197280452Y-149528455D01*
X197194206Y-149643664D01*
X197194202Y-149643671D01*
X197143908Y-149778517D01*
X197137501Y-149838116D01*
X197137501Y-149838123D01*
X197137500Y-149838135D01*
X197137500Y-151913870D01*
X194618469Y-151913870D01*
X194728245Y-151794621D01*
X194863348Y-151587831D01*
X194962572Y-151361623D01*
X195023210Y-151122169D01*
X195033435Y-150998766D01*
X195043608Y-150876005D01*
X195043608Y-150875994D01*
X195028216Y-150690243D01*
X195023210Y-150629831D01*
X194962572Y-150390377D01*
X194863348Y-150164169D01*
X194728245Y-149957379D01*
X194560948Y-149775645D01*
X194560943Y-149775641D01*
X194560941Y-149775639D01*
X194366028Y-149623932D01*
X194366022Y-149623928D01*
X194148780Y-149506362D01*
X194148771Y-149506359D01*
X193915153Y-149426157D01*
X193703812Y-149390891D01*
X193671506Y-149385500D01*
X193424494Y-149385500D01*
X193392188Y-149390891D01*
X193180846Y-149426157D01*
X192947228Y-149506359D01*
X192947219Y-149506362D01*
X192729977Y-149623928D01*
X192729971Y-149623932D01*
X192535058Y-149775639D01*
X192535055Y-149775642D01*
X192367752Y-149957382D01*
X192232650Y-150164172D01*
X192133428Y-150390376D01*
X192072789Y-150629834D01*
X192052392Y-150875994D01*
X192052392Y-150876005D01*
X189963608Y-150876005D01*
X189963608Y-150875994D01*
X189948216Y-150690243D01*
X189943210Y-150629831D01*
X189882572Y-150390377D01*
X189783348Y-150164169D01*
X189648245Y-149957379D01*
X189480948Y-149775645D01*
X189480943Y-149775641D01*
X189480941Y-149775639D01*
X189286028Y-149623932D01*
X189286022Y-149623928D01*
X189068780Y-149506362D01*
X189068771Y-149506359D01*
X188835153Y-149426157D01*
X188623812Y-149390891D01*
X188591506Y-149385500D01*
X188344494Y-149385500D01*
X188312188Y-149390891D01*
X188100846Y-149426157D01*
X187867228Y-149506359D01*
X187867219Y-149506362D01*
X187649977Y-149623928D01*
X187649971Y-149623932D01*
X187455058Y-149775639D01*
X187455055Y-149775642D01*
X187287752Y-149957382D01*
X187152650Y-150164172D01*
X187053428Y-150390376D01*
X186992789Y-150629834D01*
X186972392Y-150875994D01*
X186972392Y-150876005D01*
X184878500Y-150876005D01*
X184878499Y-149838128D01*
X184872091Y-149778517D01*
X184868266Y-149768262D01*
X184821797Y-149643671D01*
X184821793Y-149643664D01*
X184735547Y-149528455D01*
X184735544Y-149528452D01*
X184620335Y-149442206D01*
X184620328Y-149442202D01*
X184485482Y-149391908D01*
X184485483Y-149391908D01*
X184425883Y-149385501D01*
X184425881Y-149385500D01*
X184425873Y-149385500D01*
X184425864Y-149385500D01*
X182350129Y-149385500D01*
X182350123Y-149385501D01*
X182290516Y-149391908D01*
X182155671Y-149442202D01*
X182155664Y-149442206D01*
X182040455Y-149528452D01*
X182040452Y-149528455D01*
X181954206Y-149643664D01*
X181954202Y-149643671D01*
X181903908Y-149778517D01*
X181897501Y-149838116D01*
X181897501Y-149838123D01*
X181897500Y-149838135D01*
X181897500Y-151913870D01*
X179396048Y-151913870D01*
X179415738Y-151895744D01*
X179432530Y-151874167D01*
X179437604Y-151868422D01*
X179801115Y-151504911D01*
X179806860Y-151499837D01*
X179828437Y-151483045D01*
X179891642Y-151414385D01*
X179913595Y-151392433D01*
X179933659Y-151368742D01*
X179996857Y-151300092D01*
X180011810Y-151277201D01*
X180016390Y-151271061D01*
X180034059Y-151250201D01*
X180081829Y-151170031D01*
X180132866Y-151091914D01*
X180143847Y-151066878D01*
X180147350Y-151060071D01*
X180161349Y-151036580D01*
X180181077Y-150986017D01*
X180195270Y-150949647D01*
X180232752Y-150864198D01*
X180232752Y-150864195D01*
X180232756Y-150864188D01*
X180239467Y-150837681D01*
X180241805Y-150830384D01*
X180251742Y-150804921D01*
X180270891Y-150713595D01*
X180293801Y-150623128D01*
X180296057Y-150595889D01*
X180297165Y-150588289D01*
X180302774Y-150561544D01*
X180306630Y-150468297D01*
X180309193Y-150437374D01*
X180309193Y-150406342D01*
X180313050Y-150313086D01*
X180309668Y-150285958D01*
X180309193Y-150278288D01*
X180309193Y-140335002D01*
X181616751Y-140335002D01*
X181635685Y-140503056D01*
X181691545Y-140662694D01*
X181691547Y-140662697D01*
X181781518Y-140805884D01*
X181781523Y-140805890D01*
X181901109Y-140925476D01*
X181901115Y-140925481D01*
X182044302Y-141015452D01*
X182044305Y-141015454D01*
X182044309Y-141015455D01*
X182044310Y-141015456D01*
X182116913Y-141040860D01*
X182203943Y-141071314D01*
X182371997Y-141090249D01*
X182372000Y-141090249D01*
X182372003Y-141090249D01*
X182540056Y-141071314D01*
X182540059Y-141071313D01*
X182699690Y-141015456D01*
X182699692Y-141015454D01*
X182699694Y-141015454D01*
X182699697Y-141015452D01*
X182842884Y-140925481D01*
X182842885Y-140925480D01*
X182842890Y-140925477D01*
X182962477Y-140805890D01*
X183002760Y-140741781D01*
X183052452Y-140662697D01*
X183052454Y-140662694D01*
X183052454Y-140662692D01*
X183052456Y-140662690D01*
X183108313Y-140503059D01*
X183108313Y-140503058D01*
X183108314Y-140503056D01*
X183127249Y-140335002D01*
X186696751Y-140335002D01*
X186715685Y-140503056D01*
X186771545Y-140662694D01*
X186771547Y-140662697D01*
X186861518Y-140805884D01*
X186861523Y-140805890D01*
X186981109Y-140925476D01*
X186981115Y-140925481D01*
X187124302Y-141015452D01*
X187124305Y-141015454D01*
X187124309Y-141015455D01*
X187124310Y-141015456D01*
X187196913Y-141040860D01*
X187283943Y-141071314D01*
X187451997Y-141090249D01*
X187452000Y-141090249D01*
X187452003Y-141090249D01*
X187620056Y-141071314D01*
X187620059Y-141071313D01*
X187779690Y-141015456D01*
X187779692Y-141015454D01*
X187779694Y-141015454D01*
X187779697Y-141015452D01*
X187922884Y-140925481D01*
X187922885Y-140925480D01*
X187922890Y-140925477D01*
X188042477Y-140805890D01*
X188082760Y-140741781D01*
X188132452Y-140662697D01*
X188132454Y-140662694D01*
X188132454Y-140662692D01*
X188132456Y-140662690D01*
X188188313Y-140503059D01*
X188188313Y-140503058D01*
X188188314Y-140503056D01*
X188207249Y-140335002D01*
X191776751Y-140335002D01*
X191795685Y-140503056D01*
X191851545Y-140662694D01*
X191851547Y-140662697D01*
X191941518Y-140805884D01*
X191941523Y-140805890D01*
X192061109Y-140925476D01*
X192061115Y-140925481D01*
X192204302Y-141015452D01*
X192204305Y-141015454D01*
X192204309Y-141015455D01*
X192204310Y-141015456D01*
X192276913Y-141040860D01*
X192363943Y-141071314D01*
X192531997Y-141090249D01*
X192532000Y-141090249D01*
X192532003Y-141090249D01*
X192700056Y-141071314D01*
X192700059Y-141071313D01*
X192859690Y-141015456D01*
X192859692Y-141015454D01*
X192859694Y-141015454D01*
X192859697Y-141015452D01*
X193002884Y-140925481D01*
X193002885Y-140925480D01*
X193002890Y-140925477D01*
X193122477Y-140805890D01*
X193162760Y-140741781D01*
X193212452Y-140662697D01*
X193212454Y-140662694D01*
X193212454Y-140662692D01*
X193212456Y-140662690D01*
X193268313Y-140503059D01*
X193268313Y-140503058D01*
X193268314Y-140503056D01*
X193287249Y-140335002D01*
X196856751Y-140335002D01*
X196875685Y-140503056D01*
X196931545Y-140662694D01*
X196931547Y-140662697D01*
X197021518Y-140805884D01*
X197021523Y-140805890D01*
X197141109Y-140925476D01*
X197141115Y-140925481D01*
X197284302Y-141015452D01*
X197284305Y-141015454D01*
X197284309Y-141015455D01*
X197284310Y-141015456D01*
X197356913Y-141040860D01*
X197443943Y-141071314D01*
X197611997Y-141090249D01*
X197612000Y-141090249D01*
X197612003Y-141090249D01*
X197780056Y-141071314D01*
X197780059Y-141071313D01*
X197939690Y-141015456D01*
X197939692Y-141015454D01*
X197939694Y-141015454D01*
X197939697Y-141015452D01*
X198082884Y-140925481D01*
X198082885Y-140925480D01*
X198082890Y-140925477D01*
X198202477Y-140805890D01*
X198242760Y-140741781D01*
X198292452Y-140662697D01*
X198292454Y-140662694D01*
X198292454Y-140662692D01*
X198292456Y-140662690D01*
X198348313Y-140503059D01*
X198348313Y-140503058D01*
X198348314Y-140503056D01*
X198367249Y-140335002D01*
X198367249Y-140334997D01*
X198348314Y-140166943D01*
X198292454Y-140007305D01*
X198292452Y-140007302D01*
X198202481Y-139864115D01*
X198202476Y-139864109D01*
X198082890Y-139744523D01*
X198082884Y-139744518D01*
X197939697Y-139654547D01*
X197939694Y-139654545D01*
X197780056Y-139598685D01*
X197612003Y-139579751D01*
X197611997Y-139579751D01*
X197443943Y-139598685D01*
X197284305Y-139654545D01*
X197284302Y-139654547D01*
X197141115Y-139744518D01*
X197141109Y-139744523D01*
X197021523Y-139864109D01*
X197021518Y-139864115D01*
X196931547Y-140007302D01*
X196931545Y-140007305D01*
X196875685Y-140166943D01*
X196856751Y-140334997D01*
X196856751Y-140335002D01*
X193287249Y-140335002D01*
X193287249Y-140334997D01*
X193268314Y-140166943D01*
X193212454Y-140007305D01*
X193212452Y-140007302D01*
X193122481Y-139864115D01*
X193122476Y-139864109D01*
X193002890Y-139744523D01*
X193002884Y-139744518D01*
X192859697Y-139654547D01*
X192859694Y-139654545D01*
X192700056Y-139598685D01*
X192532003Y-139579751D01*
X192531997Y-139579751D01*
X192363943Y-139598685D01*
X192204305Y-139654545D01*
X192204302Y-139654547D01*
X192061115Y-139744518D01*
X192061109Y-139744523D01*
X191941523Y-139864109D01*
X191941518Y-139864115D01*
X191851547Y-140007302D01*
X191851545Y-140007305D01*
X191795685Y-140166943D01*
X191776751Y-140334997D01*
X191776751Y-140335002D01*
X188207249Y-140335002D01*
X188207249Y-140334997D01*
X188188314Y-140166943D01*
X188132454Y-140007305D01*
X188132452Y-140007302D01*
X188042481Y-139864115D01*
X188042476Y-139864109D01*
X187922890Y-139744523D01*
X187922884Y-139744518D01*
X187779697Y-139654547D01*
X187779694Y-139654545D01*
X187620056Y-139598685D01*
X187452003Y-139579751D01*
X187451997Y-139579751D01*
X187283943Y-139598685D01*
X187124305Y-139654545D01*
X187124302Y-139654547D01*
X186981115Y-139744518D01*
X186981109Y-139744523D01*
X186861523Y-139864109D01*
X186861518Y-139864115D01*
X186771547Y-140007302D01*
X186771545Y-140007305D01*
X186715685Y-140166943D01*
X186696751Y-140334997D01*
X186696751Y-140335002D01*
X183127249Y-140335002D01*
X183127249Y-140334997D01*
X183108314Y-140166943D01*
X183052454Y-140007305D01*
X183052452Y-140007302D01*
X182962481Y-139864115D01*
X182962476Y-139864109D01*
X182842890Y-139744523D01*
X182842884Y-139744518D01*
X182699697Y-139654547D01*
X182699694Y-139654545D01*
X182540056Y-139598685D01*
X182372003Y-139579751D01*
X182371997Y-139579751D01*
X182203943Y-139598685D01*
X182044305Y-139654545D01*
X182044302Y-139654547D01*
X181901115Y-139744518D01*
X181901109Y-139744523D01*
X181781523Y-139864109D01*
X181781518Y-139864115D01*
X181691547Y-140007302D01*
X181691545Y-140007305D01*
X181635685Y-140166943D01*
X181616751Y-140334997D01*
X181616751Y-140335002D01*
X180309193Y-140335002D01*
X180309193Y-128696196D01*
X180328878Y-128629157D01*
X180345512Y-128608515D01*
X183236608Y-125717419D01*
X183297931Y-125683934D01*
X183324289Y-125681100D01*
X191477364Y-125681100D01*
X191477366Y-125681100D01*
X191538583Y-125676027D01*
X191663112Y-125665709D01*
X191663115Y-125665708D01*
X191663120Y-125665708D01*
X191904180Y-125604663D01*
X192131906Y-125504773D01*
X192340084Y-125368764D01*
X192523037Y-125200344D01*
X192675773Y-125004109D01*
X192794127Y-124785410D01*
X192874870Y-124550214D01*
X192915799Y-124304935D01*
X192915799Y-124056265D01*
X192874870Y-123810986D01*
X192794127Y-123575790D01*
X192675773Y-123357091D01*
X192523037Y-123160856D01*
X192340084Y-122992436D01*
X192340081Y-122992433D01*
X192131905Y-122856426D01*
X191904180Y-122756536D01*
X191663123Y-122695492D01*
X191663112Y-122695490D01*
X191497847Y-122681797D01*
X191477366Y-122680100D01*
X191477364Y-122680100D01*
X191027529Y-122680100D01*
X190960490Y-122660415D01*
X190939848Y-122643781D01*
X190270819Y-121974751D01*
X190237334Y-121913428D01*
X190234500Y-121887070D01*
X190234500Y-119922818D01*
X190254185Y-119855779D01*
X190306989Y-119810024D01*
X190361753Y-119800591D01*
X190946240Y-119216104D01*
X190971796Y-119303141D01*
X191046823Y-119419886D01*
X191151703Y-119510764D01*
X191277937Y-119568413D01*
X191298134Y-119571317D01*
X190717110Y-120152341D01*
X190781881Y-120197694D01*
X190781891Y-120197700D01*
X190982014Y-120291019D01*
X190982028Y-120291024D01*
X191195312Y-120348173D01*
X191195322Y-120348175D01*
X191415298Y-120367421D01*
X191415300Y-120367421D01*
X191635275Y-120348175D01*
X191635285Y-120348173D01*
X191848569Y-120291024D01*
X191848583Y-120291019D01*
X192048707Y-120197700D01*
X192048719Y-120197693D01*
X192113485Y-120152342D01*
X192113486Y-120152340D01*
X191532463Y-119571316D01*
X191552661Y-119568413D01*
X191678895Y-119510764D01*
X191783775Y-119419886D01*
X191858802Y-119303141D01*
X191884357Y-119216105D01*
X192467039Y-119798787D01*
X192467041Y-119798786D01*
X192512392Y-119734020D01*
X192512399Y-119734008D01*
X192605718Y-119533884D01*
X192605723Y-119533870D01*
X192662872Y-119320586D01*
X192662874Y-119320576D01*
X192682120Y-119100600D01*
X192682120Y-119100599D01*
X192662874Y-118880623D01*
X192662872Y-118880613D01*
X192605723Y-118667329D01*
X192605719Y-118667320D01*
X192512397Y-118467190D01*
X192467039Y-118402411D01*
X191884357Y-118985093D01*
X191858802Y-118898059D01*
X191783775Y-118781314D01*
X191678895Y-118690436D01*
X191552661Y-118632787D01*
X191532462Y-118629882D01*
X192113486Y-118048858D01*
X192048708Y-118003500D01*
X192048706Y-118003499D01*
X191848583Y-117910180D01*
X191848569Y-117910175D01*
X191635285Y-117853026D01*
X191635275Y-117853024D01*
X191415300Y-117833779D01*
X191415298Y-117833779D01*
X191195322Y-117853024D01*
X191195312Y-117853026D01*
X190982028Y-117910175D01*
X190982019Y-117910179D01*
X190781885Y-118003503D01*
X190717111Y-118048857D01*
X190717110Y-118048858D01*
X191298135Y-118629882D01*
X191277937Y-118632787D01*
X191151703Y-118690436D01*
X191046823Y-118781314D01*
X190971796Y-118898059D01*
X190946240Y-118985094D01*
X190361481Y-118400335D01*
X190300806Y-118388141D01*
X190250624Y-118339525D01*
X190234500Y-118278380D01*
X190234500Y-115633705D01*
X190235809Y-115615735D01*
X190238942Y-115594345D01*
X190239289Y-115591977D01*
X190234735Y-115539931D01*
X190234500Y-115534528D01*
X190234500Y-115526297D01*
X190234500Y-115526291D01*
X190230693Y-115493724D01*
X190223999Y-115417203D01*
X190223999Y-115417201D01*
X190222539Y-115410129D01*
X190222597Y-115410116D01*
X190220965Y-115402757D01*
X190220906Y-115402772D01*
X190219242Y-115395753D01*
X190219241Y-115395745D01*
X190192974Y-115323576D01*
X190168814Y-115250666D01*
X190168809Y-115250659D01*
X190165760Y-115244118D01*
X190165815Y-115244091D01*
X190162533Y-115237313D01*
X190162480Y-115237340D01*
X190159235Y-115230880D01*
X190117028Y-115166708D01*
X190117027Y-115166708D01*
X190076712Y-115101345D01*
X190076711Y-115101344D01*
X190076710Y-115101342D01*
X190072234Y-115095682D01*
X190072281Y-115095644D01*
X190067519Y-115089799D01*
X190067474Y-115089838D01*
X190062834Y-115084308D01*
X190060239Y-115081860D01*
X190052528Y-115074584D01*
X190006964Y-115031596D01*
X189275367Y-114299999D01*
X199384786Y-114299999D01*
X199403612Y-114539219D01*
X199459630Y-114772553D01*
X199459630Y-114772554D01*
X199551457Y-114994245D01*
X199551459Y-114994248D01*
X199676837Y-115198846D01*
X199676841Y-115198851D01*
X199744965Y-115278614D01*
X199832682Y-115381318D01*
X199949481Y-115481073D01*
X200015148Y-115537158D01*
X200015153Y-115537162D01*
X200219744Y-115662536D01*
X200219751Y-115662540D01*
X200257380Y-115678126D01*
X200259319Y-115678988D01*
X200260975Y-115679616D01*
X200355877Y-115718925D01*
X200441447Y-115754369D01*
X200482913Y-115764324D01*
X200490430Y-115766642D01*
X200526514Y-115780330D01*
X200556150Y-115781906D01*
X200674778Y-115810387D01*
X200721303Y-115814048D01*
X200728833Y-115815110D01*
X200730003Y-115815349D01*
X200730005Y-115815349D01*
X200732532Y-115815865D01*
X200732552Y-115815869D01*
X200766673Y-115822835D01*
X200795000Y-115819848D01*
X200914000Y-115829214D01*
X200964523Y-115825237D01*
X200971881Y-115825097D01*
X201010413Y-115826650D01*
X201036774Y-115819551D01*
X201153222Y-115810387D01*
X201206484Y-115797599D01*
X201213467Y-115796342D01*
X201219335Y-115795630D01*
X201219335Y-115795629D01*
X201251615Y-115791711D01*
X201275413Y-115781051D01*
X201386553Y-115754369D01*
X201440991Y-115731819D01*
X201447429Y-115729561D01*
X201455297Y-115727283D01*
X201455301Y-115727280D01*
X201459873Y-115725957D01*
X201460088Y-115725895D01*
X201460094Y-115725893D01*
X201484148Y-115718925D01*
X201504920Y-115705339D01*
X201608249Y-115662540D01*
X201662082Y-115629550D01*
X201667867Y-115626417D01*
X201677240Y-115621970D01*
X201677246Y-115621965D01*
X201681741Y-115619833D01*
X201681767Y-115619819D01*
X201702105Y-115610168D01*
X201719525Y-115594349D01*
X201812849Y-115537160D01*
X201864125Y-115493366D01*
X201869149Y-115489504D01*
X201899955Y-115468240D01*
X201913849Y-115450898D01*
X201995318Y-115381318D01*
X202041952Y-115326716D01*
X202046123Y-115322292D01*
X202056586Y-115312243D01*
X202056590Y-115312237D01*
X202072709Y-115296755D01*
X202083029Y-115278620D01*
X202151160Y-115198849D01*
X202191024Y-115133797D01*
X202194297Y-115128982D01*
X202204165Y-115115851D01*
X202204166Y-115115847D01*
X202206654Y-115112538D01*
X202207154Y-115111872D01*
X202207156Y-115111870D01*
X202207170Y-115111852D01*
X202207175Y-115111856D01*
X202208064Y-115111191D01*
X202210185Y-115107838D01*
X202216000Y-115100099D01*
X202222851Y-115081860D01*
X202253653Y-115031597D01*
X202276540Y-114994249D01*
X202307504Y-114919493D01*
X202309862Y-114914461D01*
X202318042Y-114898874D01*
X202319702Y-114897159D01*
X202322990Y-114889441D01*
X202326219Y-114883286D01*
X202329824Y-114865608D01*
X202368369Y-114772553D01*
X202388361Y-114689280D01*
X202389815Y-114684201D01*
X202394202Y-114671058D01*
X202396260Y-114668101D01*
X202399288Y-114655819D01*
X202399461Y-114655300D01*
X202399522Y-114644383D01*
X202399956Y-114641715D01*
X202400856Y-114637232D01*
X202424387Y-114539222D01*
X202431485Y-114449027D01*
X202432096Y-114443954D01*
X202437170Y-114412735D01*
X202435907Y-114404033D01*
X202436173Y-114390804D01*
X202436349Y-114387217D01*
X202443214Y-114300000D01*
X202436350Y-114212785D01*
X202436173Y-114209187D01*
X202435907Y-114195967D01*
X202437583Y-114189801D01*
X202432096Y-114156042D01*
X202431484Y-114150957D01*
X202424387Y-114060781D01*
X202424387Y-114060780D01*
X202424387Y-114060778D01*
X202400871Y-113962827D01*
X202399980Y-113958408D01*
X202399689Y-113956642D01*
X202399559Y-113955842D01*
X202400537Y-113947924D01*
X202399289Y-113944184D01*
X202396757Y-113933911D01*
X202394199Y-113928930D01*
X202389831Y-113915846D01*
X202388352Y-113910682D01*
X202368371Y-113827456D01*
X202368369Y-113827447D01*
X202336679Y-113750941D01*
X202329826Y-113734395D01*
X202328363Y-113720794D01*
X202322988Y-113710552D01*
X202320249Y-113704123D01*
X202318039Y-113701119D01*
X202309865Y-113685544D01*
X202307489Y-113680469D01*
X202276539Y-113605749D01*
X202222849Y-113518135D01*
X202218992Y-113503879D01*
X202210181Y-113492153D01*
X202208462Y-113489435D01*
X202207220Y-113488215D01*
X202194312Y-113471036D01*
X202191014Y-113466185D01*
X202168339Y-113429185D01*
X202151160Y-113401151D01*
X202083029Y-113321379D01*
X202076558Y-113306939D01*
X202046136Y-113277718D01*
X202041944Y-113273274D01*
X201995318Y-113218682D01*
X201932298Y-113164858D01*
X201913848Y-113149100D01*
X201904635Y-113134987D01*
X201869147Y-113110493D01*
X201864097Y-113106610D01*
X201812851Y-113062841D01*
X201812846Y-113062838D01*
X201719524Y-113005650D01*
X201707545Y-112992410D01*
X201678530Y-112978642D01*
X201667877Y-112973586D01*
X201662059Y-112970435D01*
X201608249Y-112937459D01*
X201504921Y-112894660D01*
X201490253Y-112882840D01*
X201447442Y-112870440D01*
X201440961Y-112868166D01*
X201386557Y-112845631D01*
X201386555Y-112845630D01*
X201275412Y-112818948D01*
X201258248Y-112809093D01*
X201213470Y-112803656D01*
X201206465Y-112802394D01*
X201166562Y-112792815D01*
X201153222Y-112789613D01*
X201153221Y-112789612D01*
X201036766Y-112780447D01*
X201017401Y-112773066D01*
X200971882Y-112774901D01*
X200964516Y-112774760D01*
X200914002Y-112770786D01*
X200914000Y-112770786D01*
X200794987Y-112780151D01*
X200773822Y-112775704D01*
X200728833Y-112784889D01*
X200721291Y-112785952D01*
X200701745Y-112787490D01*
X200674778Y-112789613D01*
X200674774Y-112789613D01*
X200674772Y-112789614D01*
X200556113Y-112818101D01*
X200533612Y-112816975D01*
X200490431Y-112833356D01*
X200482908Y-112835676D01*
X200441444Y-112845631D01*
X200260977Y-112920383D01*
X200259315Y-112921014D01*
X200257375Y-112921875D01*
X200219749Y-112937460D01*
X200219744Y-112937463D01*
X200015153Y-113062837D01*
X200015148Y-113062841D01*
X199832682Y-113218682D01*
X199676841Y-113401148D01*
X199676837Y-113401153D01*
X199551459Y-113605751D01*
X199551457Y-113605754D01*
X199459630Y-113827445D01*
X199459630Y-113827446D01*
X199403612Y-114060780D01*
X199384786Y-114299999D01*
X189275367Y-114299999D01*
X187008866Y-112033498D01*
X186997086Y-112019867D01*
X186982747Y-112000607D01*
X186957578Y-111979487D01*
X186918878Y-111921317D01*
X186917770Y-111851456D01*
X186954607Y-111792086D01*
X187017695Y-111762057D01*
X187037286Y-111760500D01*
X203075500Y-111760500D01*
X203142539Y-111780185D01*
X203188294Y-111832989D01*
X203199500Y-111884500D01*
X203199500Y-159895500D01*
X203179815Y-159962539D01*
X203127011Y-160008294D01*
X203075500Y-160019500D01*
X83182500Y-160019500D01*
X83115461Y-159999815D01*
X83069706Y-159947011D01*
X83058500Y-159895500D01*
X83058500Y-143256000D01*
X84830786Y-143256000D01*
X84849612Y-143495219D01*
X84905630Y-143728553D01*
X84905630Y-143728554D01*
X84997457Y-143950245D01*
X84997459Y-143950248D01*
X85122837Y-144154846D01*
X85122841Y-144154851D01*
X85190965Y-144234614D01*
X85278682Y-144337318D01*
X85395481Y-144437073D01*
X85461148Y-144493158D01*
X85461153Y-144493162D01*
X85665744Y-144618536D01*
X85665751Y-144618540D01*
X85703380Y-144634126D01*
X85705319Y-144634988D01*
X85706975Y-144635616D01*
X85801877Y-144674925D01*
X85887447Y-144710369D01*
X85928913Y-144720324D01*
X85936430Y-144722642D01*
X85972514Y-144736330D01*
X86002150Y-144737906D01*
X86120778Y-144766387D01*
X86167303Y-144770048D01*
X86174833Y-144771110D01*
X86176003Y-144771349D01*
X86176005Y-144771349D01*
X86178532Y-144771865D01*
X86178552Y-144771869D01*
X86212673Y-144778835D01*
X86241000Y-144775848D01*
X86360000Y-144785214D01*
X86410523Y-144781237D01*
X86417881Y-144781097D01*
X86456413Y-144782650D01*
X86482774Y-144775551D01*
X86599222Y-144766387D01*
X86652484Y-144753599D01*
X86659467Y-144752342D01*
X86665335Y-144751630D01*
X86665335Y-144751629D01*
X86697615Y-144747711D01*
X86721413Y-144737051D01*
X86832553Y-144710369D01*
X86886991Y-144687819D01*
X86893429Y-144685561D01*
X86901297Y-144683283D01*
X86901301Y-144683280D01*
X86905873Y-144681957D01*
X86906088Y-144681895D01*
X86906094Y-144681893D01*
X86930148Y-144674925D01*
X86950920Y-144661339D01*
X87054249Y-144618540D01*
X87108082Y-144585550D01*
X87113867Y-144582417D01*
X87123240Y-144577970D01*
X87123246Y-144577965D01*
X87127741Y-144575833D01*
X87127767Y-144575819D01*
X87148105Y-144566168D01*
X87165525Y-144550349D01*
X87258849Y-144493160D01*
X87310125Y-144449366D01*
X87315149Y-144445504D01*
X87345955Y-144424240D01*
X87359849Y-144406898D01*
X87441318Y-144337318D01*
X87487952Y-144282716D01*
X87492123Y-144278292D01*
X87502586Y-144268243D01*
X87502590Y-144268237D01*
X87518709Y-144252755D01*
X87529029Y-144234620D01*
X87597160Y-144154849D01*
X87637024Y-144089797D01*
X87640297Y-144084982D01*
X87650165Y-144071851D01*
X87650166Y-144071847D01*
X87652654Y-144068538D01*
X87653154Y-144067872D01*
X87653156Y-144067870D01*
X87653170Y-144067852D01*
X87653175Y-144067856D01*
X87654064Y-144067191D01*
X87656185Y-144063838D01*
X87662000Y-144056099D01*
X87668851Y-144037860D01*
X87690078Y-144003222D01*
X87722540Y-143950249D01*
X87753504Y-143875493D01*
X87755862Y-143870461D01*
X87764042Y-143854874D01*
X87765702Y-143853159D01*
X87768990Y-143845441D01*
X87772219Y-143839286D01*
X87775824Y-143821608D01*
X87814369Y-143728553D01*
X87834361Y-143645280D01*
X87835815Y-143640201D01*
X87840202Y-143627058D01*
X87842260Y-143624101D01*
X87845288Y-143611819D01*
X87845461Y-143611300D01*
X87845522Y-143600383D01*
X87845956Y-143597715D01*
X87846856Y-143593232D01*
X87870387Y-143495222D01*
X87877485Y-143405027D01*
X87878096Y-143399954D01*
X87878302Y-143398690D01*
X87881529Y-143378831D01*
X87881528Y-143378831D01*
X87883170Y-143368735D01*
X87881907Y-143360033D01*
X87882173Y-143346804D01*
X87882349Y-143343217D01*
X87889214Y-143256000D01*
X87882350Y-143168785D01*
X87882173Y-143165187D01*
X87881907Y-143151967D01*
X87883583Y-143145801D01*
X87878096Y-143112042D01*
X87877484Y-143106957D01*
X87870387Y-143016781D01*
X87870387Y-143016780D01*
X87870387Y-143016778D01*
X87846871Y-142918827D01*
X87845980Y-142914408D01*
X87845689Y-142912642D01*
X87845559Y-142911842D01*
X87846537Y-142903924D01*
X87845289Y-142900184D01*
X87842757Y-142889911D01*
X87840199Y-142884930D01*
X87835831Y-142871846D01*
X87834352Y-142866682D01*
X87814371Y-142783456D01*
X87814369Y-142783447D01*
X87796906Y-142741288D01*
X87775826Y-142690395D01*
X87774363Y-142676794D01*
X87768988Y-142666552D01*
X87766249Y-142660123D01*
X87764039Y-142657119D01*
X87755865Y-142641544D01*
X87753489Y-142636469D01*
X87750441Y-142629111D01*
X87722540Y-142561751D01*
X87710293Y-142541766D01*
X87668849Y-142474135D01*
X87664992Y-142459879D01*
X87656181Y-142448153D01*
X87654462Y-142445435D01*
X87653220Y-142444215D01*
X87640312Y-142427036D01*
X87637014Y-142422185D01*
X87606902Y-142373048D01*
X87597160Y-142357151D01*
X87529029Y-142277379D01*
X87522558Y-142262939D01*
X87492136Y-142233718D01*
X87487944Y-142229274D01*
X87441318Y-142174682D01*
X87393597Y-142133925D01*
X87359848Y-142105100D01*
X87350635Y-142090987D01*
X87315147Y-142066493D01*
X87310097Y-142062610D01*
X87258851Y-142018841D01*
X87258846Y-142018838D01*
X87165524Y-141961650D01*
X87153545Y-141948410D01*
X87124530Y-141934642D01*
X87113877Y-141929586D01*
X87111399Y-141928244D01*
X105441946Y-141928244D01*
X105442151Y-141928244D01*
X105442151Y-141935204D01*
X105450571Y-142009936D01*
X105457400Y-142087996D01*
X105458860Y-142095064D01*
X105458611Y-142095115D01*
X105458942Y-142096614D01*
X105459539Y-142096478D01*
X105461085Y-142103253D01*
X105461086Y-142103258D01*
X105461087Y-142103259D01*
X105486961Y-142177203D01*
X105512586Y-142254534D01*
X105512587Y-142254536D01*
X105512589Y-142254541D01*
X105512698Y-142254774D01*
X105515507Y-142259907D01*
X105516943Y-142262891D01*
X105548206Y-142312644D01*
X105560271Y-142331844D01*
X105575881Y-142357152D01*
X105604687Y-142403855D01*
X105672470Y-142471638D01*
X105684251Y-142485270D01*
X105698588Y-142504528D01*
X105738609Y-142538111D01*
X105742597Y-142541766D01*
X105748416Y-142547585D01*
X105748420Y-142547588D01*
X105748423Y-142547591D01*
X105774159Y-142567940D01*
X105832986Y-142617302D01*
X105832987Y-142617302D01*
X105832989Y-142617304D01*
X105839018Y-142621270D01*
X105838985Y-142621319D01*
X105845347Y-142625372D01*
X105845379Y-142625321D01*
X105851519Y-142629108D01*
X105851523Y-142629111D01*
X105876429Y-142640725D01*
X105921141Y-142661575D01*
X105978527Y-142690395D01*
X105989767Y-142696040D01*
X105989769Y-142696040D01*
X105996557Y-142698511D01*
X105996536Y-142698567D01*
X106003657Y-142701043D01*
X106003676Y-142700986D01*
X106010522Y-142703254D01*
X106010527Y-142703257D01*
X106010532Y-142703258D01*
X106010535Y-142703259D01*
X106085764Y-142718792D01*
X106085765Y-142718792D01*
X106160479Y-142736500D01*
X106160482Y-142736500D01*
X106160486Y-142736501D01*
X106167653Y-142737339D01*
X106167646Y-142737398D01*
X106175144Y-142738164D01*
X106175150Y-142738105D01*
X106182339Y-142738734D01*
X106182343Y-142738733D01*
X106182344Y-142738734D01*
X106259117Y-142736500D01*
X113347295Y-142736500D01*
X113365265Y-142737809D01*
X113389023Y-142741289D01*
X113441068Y-142736735D01*
X113446470Y-142736500D01*
X113454704Y-142736500D01*
X113454709Y-142736500D01*
X113466327Y-142735141D01*
X113487276Y-142732693D01*
X113500028Y-142731577D01*
X113563797Y-142725999D01*
X113563805Y-142725996D01*
X113570866Y-142724539D01*
X113570878Y-142724598D01*
X113578243Y-142722965D01*
X113578229Y-142722906D01*
X113585246Y-142721241D01*
X113585255Y-142721241D01*
X113657423Y-142694974D01*
X113730334Y-142670814D01*
X113730343Y-142670807D01*
X113736882Y-142667760D01*
X113736908Y-142667816D01*
X113743690Y-142664532D01*
X113743663Y-142664478D01*
X113750106Y-142661240D01*
X113750117Y-142661237D01*
X113814283Y-142619034D01*
X113879656Y-142578712D01*
X113879662Y-142578705D01*
X113885325Y-142574229D01*
X113885363Y-142574277D01*
X113891200Y-142569522D01*
X113891161Y-142569475D01*
X113896696Y-142564830D01*
X113949385Y-142508983D01*
X114048795Y-142409572D01*
X114085320Y-142373046D01*
X114146641Y-142339563D01*
X114216333Y-142344547D01*
X114260681Y-142373048D01*
X114308468Y-142420835D01*
X114320250Y-142434468D01*
X114328414Y-142445435D01*
X114334590Y-142453730D01*
X114374620Y-142487319D01*
X114378592Y-142490959D01*
X114384424Y-142496791D01*
X114384427Y-142496794D01*
X114410147Y-142517131D01*
X114468988Y-142566504D01*
X114475018Y-142570470D01*
X114474985Y-142570519D01*
X114481347Y-142574572D01*
X114481379Y-142574521D01*
X114487519Y-142578308D01*
X114487523Y-142578311D01*
X114522332Y-142594542D01*
X114557141Y-142610775D01*
X114616777Y-142640725D01*
X114625767Y-142645240D01*
X114625769Y-142645240D01*
X114632557Y-142647711D01*
X114632536Y-142647767D01*
X114639655Y-142650242D01*
X114639674Y-142650186D01*
X114646529Y-142652458D01*
X114720643Y-142667760D01*
X114721762Y-142667991D01*
X114796479Y-142685700D01*
X114796489Y-142685700D01*
X114803652Y-142686538D01*
X114803644Y-142686597D01*
X114811145Y-142687364D01*
X114811151Y-142687305D01*
X114818340Y-142687934D01*
X114818344Y-142687933D01*
X114818345Y-142687934D01*
X114895118Y-142685700D01*
X116320479Y-142685700D01*
X116362569Y-142685700D01*
X116369509Y-142686089D01*
X116394622Y-142688919D01*
X116408198Y-142690449D01*
X116408200Y-142690449D01*
X116408202Y-142690449D01*
X116421777Y-142688919D01*
X116446890Y-142686089D01*
X116453831Y-142685700D01*
X121400479Y-142685700D01*
X121442569Y-142685700D01*
X121449509Y-142686089D01*
X121474622Y-142688919D01*
X121488198Y-142690449D01*
X121488200Y-142690449D01*
X121488202Y-142690449D01*
X121501777Y-142688919D01*
X121526890Y-142686089D01*
X121533831Y-142685700D01*
X131560479Y-142685700D01*
X131602569Y-142685700D01*
X131609509Y-142686089D01*
X131634622Y-142688919D01*
X131648198Y-142690449D01*
X131648200Y-142690449D01*
X131648202Y-142690449D01*
X131661777Y-142688919D01*
X131686890Y-142686089D01*
X131693831Y-142685700D01*
X136640479Y-142685700D01*
X136682569Y-142685700D01*
X136689509Y-142686089D01*
X136714622Y-142688919D01*
X136728198Y-142690449D01*
X136728200Y-142690449D01*
X136728202Y-142690449D01*
X136741777Y-142688919D01*
X136766890Y-142686089D01*
X136773831Y-142685700D01*
X146800479Y-142685700D01*
X146842569Y-142685700D01*
X146849509Y-142686089D01*
X146874622Y-142688919D01*
X146888198Y-142690449D01*
X146888200Y-142690449D01*
X146888202Y-142690449D01*
X146901777Y-142688919D01*
X146926890Y-142686089D01*
X146933831Y-142685700D01*
X151880479Y-142685700D01*
X151922569Y-142685700D01*
X151929509Y-142686089D01*
X151954622Y-142688919D01*
X151968198Y-142690449D01*
X151968200Y-142690449D01*
X151968202Y-142690449D01*
X151981777Y-142688919D01*
X152006890Y-142686089D01*
X152013831Y-142685700D01*
X162039095Y-142685700D01*
X162057065Y-142687009D01*
X162080823Y-142690489D01*
X162132868Y-142685935D01*
X162138270Y-142685700D01*
X162146504Y-142685700D01*
X162146509Y-142685700D01*
X162172326Y-142682682D01*
X162179076Y-142681893D01*
X162191828Y-142680777D01*
X162255597Y-142675199D01*
X162255605Y-142675196D01*
X162262666Y-142673739D01*
X162262678Y-142673798D01*
X162270043Y-142672165D01*
X162270029Y-142672106D01*
X162277046Y-142670441D01*
X162277055Y-142670441D01*
X162349223Y-142644174D01*
X162422134Y-142620014D01*
X162422143Y-142620007D01*
X162428682Y-142616960D01*
X162428708Y-142617016D01*
X162435490Y-142613732D01*
X162435463Y-142613678D01*
X162441906Y-142610440D01*
X162441917Y-142610437D01*
X162506083Y-142568234D01*
X162571456Y-142527912D01*
X162571462Y-142527905D01*
X162577125Y-142523429D01*
X162577163Y-142523477D01*
X162583000Y-142518722D01*
X162582961Y-142518675D01*
X162588496Y-142514030D01*
X162641185Y-142458182D01*
X162695167Y-142404201D01*
X162695172Y-142404194D01*
X162718675Y-142380692D01*
X162718675Y-142380691D01*
X162718677Y-142380690D01*
X162740291Y-142346288D01*
X162744156Y-142340819D01*
X162750998Y-142332166D01*
X162771311Y-142306477D01*
X162786953Y-142272930D01*
X162790638Y-142266163D01*
X162808656Y-142237490D01*
X162823199Y-142195926D01*
X162825510Y-142190245D01*
X162845457Y-142147473D01*
X162852256Y-142114537D01*
X162854457Y-142106594D01*
X162855626Y-142103253D01*
X162864513Y-142077859D01*
X162864712Y-142076088D01*
X162869819Y-142030764D01*
X162870711Y-142025164D01*
X162873855Y-142009936D01*
X162880934Y-141975656D01*
X162880055Y-141945443D01*
X162880418Y-141936692D01*
X162883449Y-141909800D01*
X162877762Y-141859336D01*
X162877399Y-141854203D01*
X162876952Y-141838840D01*
X162875831Y-141800288D01*
X162870089Y-141778862D01*
X162866642Y-141760645D01*
X162866531Y-141759656D01*
X162864513Y-141741741D01*
X162846623Y-141690616D01*
X162845255Y-141686182D01*
X162830424Y-141630829D01*
X162830423Y-141630824D01*
X162821623Y-141614505D01*
X162813736Y-141596629D01*
X162808656Y-141582110D01*
X162778042Y-141533390D01*
X162775969Y-141529833D01*
X162747159Y-141476400D01*
X162737269Y-141465287D01*
X162724906Y-141448823D01*
X162718677Y-141438910D01*
X162675593Y-141395826D01*
X162673135Y-141393220D01*
X162630527Y-141345342D01*
X162629632Y-141344715D01*
X162621333Y-141338904D01*
X162604781Y-141325014D01*
X162599092Y-141319325D01*
X162599090Y-141319323D01*
X162544630Y-141285102D01*
X162542072Y-141283405D01*
X162486816Y-141244714D01*
X162486813Y-141244712D01*
X162486812Y-141244712D01*
X162479790Y-141241922D01*
X162459608Y-141231680D01*
X162455893Y-141229346D01*
X162455890Y-141229344D01*
X162390789Y-141206564D01*
X162332663Y-141183472D01*
X162323765Y-141179937D01*
X162323761Y-141179936D01*
X162319922Y-141179374D01*
X162296951Y-141173729D01*
X162296259Y-141173487D01*
X162296252Y-141173485D01*
X162254906Y-141168827D01*
X162224616Y-141165414D01*
X162157680Y-141155610D01*
X162150171Y-141154510D01*
X162149951Y-141154530D01*
X162135157Y-141154345D01*
X162135157Y-141154551D01*
X162128195Y-141154551D01*
X162053463Y-141162971D01*
X161975401Y-141169800D01*
X161968334Y-141171260D01*
X161968283Y-141171013D01*
X161966787Y-141171343D01*
X161966923Y-141171939D01*
X161960137Y-141173487D01*
X161947979Y-141177742D01*
X161907026Y-141184700D01*
X152013831Y-141184700D01*
X152006890Y-141184310D01*
X151981777Y-141181480D01*
X151968202Y-141179951D01*
X151968198Y-141179951D01*
X151954622Y-141181480D01*
X151929509Y-141184310D01*
X151922569Y-141184700D01*
X146933831Y-141184700D01*
X146926890Y-141184310D01*
X146901777Y-141181480D01*
X146888202Y-141179951D01*
X146888198Y-141179951D01*
X146874622Y-141181480D01*
X146849509Y-141184310D01*
X146842569Y-141184700D01*
X136773831Y-141184700D01*
X136766890Y-141184310D01*
X136741777Y-141181480D01*
X136728202Y-141179951D01*
X136728198Y-141179951D01*
X136714622Y-141181480D01*
X136689509Y-141184310D01*
X136682569Y-141184700D01*
X131693831Y-141184700D01*
X131686890Y-141184310D01*
X131661777Y-141181480D01*
X131648202Y-141179951D01*
X131648198Y-141179951D01*
X131634622Y-141181480D01*
X131609509Y-141184310D01*
X131602569Y-141184700D01*
X121533831Y-141184700D01*
X121526890Y-141184310D01*
X121501777Y-141181480D01*
X121488202Y-141179951D01*
X121488198Y-141179951D01*
X121474622Y-141181480D01*
X121449509Y-141184310D01*
X121442569Y-141184700D01*
X116453831Y-141184700D01*
X116446890Y-141184310D01*
X116421777Y-141181480D01*
X116408202Y-141179951D01*
X116408198Y-141179951D01*
X116394622Y-141181480D01*
X116369509Y-141184310D01*
X116362569Y-141184700D01*
X115246429Y-141184700D01*
X115179390Y-141165015D01*
X115158748Y-141148381D01*
X114959819Y-140949451D01*
X114926334Y-140888128D01*
X114923500Y-140861770D01*
X114923500Y-139979400D01*
X115502478Y-139979400D01*
X115521715Y-140162429D01*
X115521716Y-140162432D01*
X115578583Y-140337453D01*
X115578586Y-140337459D01*
X115670605Y-140496840D01*
X115676205Y-140503059D01*
X115793749Y-140633606D01*
X115793751Y-140633608D01*
X115942634Y-140741778D01*
X115942635Y-140741778D01*
X115942639Y-140741781D01*
X116053717Y-140791236D01*
X116110761Y-140816634D01*
X116110766Y-140816636D01*
X116290781Y-140854900D01*
X116474819Y-140854900D01*
X116654834Y-140816636D01*
X116822961Y-140741781D01*
X116971850Y-140633607D01*
X117094995Y-140496840D01*
X117187014Y-140337459D01*
X117243885Y-140162429D01*
X117263122Y-139979400D01*
X117260452Y-139954000D01*
X120582478Y-139954000D01*
X120601715Y-140137029D01*
X120601716Y-140137032D01*
X120658583Y-140312053D01*
X120658586Y-140312059D01*
X120750605Y-140471440D01*
X120779075Y-140503059D01*
X120873749Y-140608206D01*
X120873751Y-140608208D01*
X121022634Y-140716378D01*
X121022635Y-140716378D01*
X121022639Y-140716381D01*
X121159753Y-140777428D01*
X121190761Y-140791234D01*
X121190766Y-140791236D01*
X121370781Y-140829500D01*
X121554819Y-140829500D01*
X121734834Y-140791236D01*
X121902961Y-140716381D01*
X122051850Y-140608207D01*
X122174995Y-140471440D01*
X122267014Y-140312059D01*
X122323885Y-140137029D01*
X122340452Y-139979400D01*
X130691678Y-139979400D01*
X130710915Y-140162429D01*
X130710916Y-140162432D01*
X130767783Y-140337453D01*
X130767786Y-140337459D01*
X130859805Y-140496840D01*
X130865405Y-140503059D01*
X130982949Y-140633606D01*
X130982951Y-140633608D01*
X131131834Y-140741778D01*
X131131835Y-140741778D01*
X131131839Y-140741781D01*
X131242917Y-140791236D01*
X131299961Y-140816634D01*
X131299966Y-140816636D01*
X131479981Y-140854900D01*
X131664019Y-140854900D01*
X131844034Y-140816636D01*
X132012161Y-140741781D01*
X132161050Y-140633607D01*
X132284195Y-140496840D01*
X132376214Y-140337459D01*
X132433085Y-140162429D01*
X132452322Y-139979400D01*
X132449652Y-139954000D01*
X135771678Y-139954000D01*
X135790915Y-140137029D01*
X135790916Y-140137032D01*
X135847783Y-140312053D01*
X135847786Y-140312059D01*
X135939805Y-140471440D01*
X135968275Y-140503059D01*
X136062949Y-140608206D01*
X136062951Y-140608208D01*
X136211834Y-140716378D01*
X136211835Y-140716378D01*
X136211839Y-140716381D01*
X136348953Y-140777428D01*
X136379961Y-140791234D01*
X136379966Y-140791236D01*
X136559981Y-140829500D01*
X136744019Y-140829500D01*
X136924034Y-140791236D01*
X137092161Y-140716381D01*
X137241050Y-140608207D01*
X137364195Y-140471440D01*
X137456214Y-140312059D01*
X137513085Y-140137029D01*
X137529652Y-139979400D01*
X145931678Y-139979400D01*
X145950915Y-140162429D01*
X145950916Y-140162432D01*
X146007783Y-140337453D01*
X146007786Y-140337459D01*
X146099805Y-140496840D01*
X146105405Y-140503059D01*
X146222949Y-140633606D01*
X146222951Y-140633608D01*
X146371834Y-140741778D01*
X146371835Y-140741778D01*
X146371839Y-140741781D01*
X146482917Y-140791236D01*
X146539961Y-140816634D01*
X146539966Y-140816636D01*
X146719981Y-140854900D01*
X146904019Y-140854900D01*
X147084034Y-140816636D01*
X147252161Y-140741781D01*
X147401050Y-140633607D01*
X147524195Y-140496840D01*
X147616214Y-140337459D01*
X147673085Y-140162429D01*
X147692322Y-139979400D01*
X147689652Y-139954000D01*
X151037078Y-139954000D01*
X151056315Y-140137029D01*
X151056316Y-140137032D01*
X151113183Y-140312053D01*
X151113186Y-140312059D01*
X151205205Y-140471440D01*
X151233675Y-140503059D01*
X151328349Y-140608206D01*
X151328351Y-140608208D01*
X151477234Y-140716378D01*
X151477235Y-140716378D01*
X151477239Y-140716381D01*
X151614353Y-140777428D01*
X151645361Y-140791234D01*
X151645366Y-140791236D01*
X151825381Y-140829500D01*
X152009419Y-140829500D01*
X152189434Y-140791236D01*
X152357561Y-140716381D01*
X152506450Y-140608207D01*
X152629595Y-140471440D01*
X152721614Y-140312059D01*
X152778485Y-140137029D01*
X152795052Y-139979400D01*
X161095478Y-139979400D01*
X161114715Y-140162429D01*
X161114716Y-140162432D01*
X161171583Y-140337453D01*
X161171586Y-140337459D01*
X161263605Y-140496840D01*
X161269205Y-140503059D01*
X161386749Y-140633606D01*
X161386751Y-140633608D01*
X161535634Y-140741778D01*
X161535635Y-140741778D01*
X161535639Y-140741781D01*
X161646717Y-140791236D01*
X161703761Y-140816634D01*
X161703766Y-140816636D01*
X161883781Y-140854900D01*
X162067819Y-140854900D01*
X162247834Y-140816636D01*
X162415961Y-140741781D01*
X162564850Y-140633607D01*
X162687995Y-140496840D01*
X162780014Y-140337459D01*
X162780812Y-140335002D01*
X166376751Y-140335002D01*
X166395685Y-140503056D01*
X166451545Y-140662694D01*
X166451547Y-140662697D01*
X166541518Y-140805884D01*
X166541523Y-140805890D01*
X166661109Y-140925476D01*
X166661115Y-140925481D01*
X166804302Y-141015452D01*
X166804305Y-141015454D01*
X166804309Y-141015455D01*
X166804310Y-141015456D01*
X166876913Y-141040860D01*
X166963943Y-141071314D01*
X167131997Y-141090249D01*
X167132000Y-141090249D01*
X167132003Y-141090249D01*
X167300056Y-141071314D01*
X167300059Y-141071313D01*
X167459690Y-141015456D01*
X167459692Y-141015454D01*
X167459694Y-141015454D01*
X167459697Y-141015452D01*
X167602884Y-140925481D01*
X167602885Y-140925480D01*
X167602890Y-140925477D01*
X167722477Y-140805890D01*
X167762760Y-140741781D01*
X167812452Y-140662697D01*
X167812454Y-140662694D01*
X167812454Y-140662692D01*
X167812456Y-140662690D01*
X167868313Y-140503059D01*
X167868313Y-140503058D01*
X167868314Y-140503056D01*
X167887249Y-140335002D01*
X167887249Y-140334997D01*
X167868314Y-140166943D01*
X167812454Y-140007305D01*
X167812452Y-140007302D01*
X167722481Y-139864115D01*
X167722476Y-139864109D01*
X167602890Y-139744523D01*
X167602884Y-139744518D01*
X167459697Y-139654547D01*
X167459694Y-139654545D01*
X167300056Y-139598685D01*
X167132003Y-139579751D01*
X167131997Y-139579751D01*
X166963943Y-139598685D01*
X166804305Y-139654545D01*
X166804302Y-139654547D01*
X166661115Y-139744518D01*
X166661109Y-139744523D01*
X166541523Y-139864109D01*
X166541518Y-139864115D01*
X166451547Y-140007302D01*
X166451545Y-140007305D01*
X166395685Y-140166943D01*
X166376751Y-140334997D01*
X166376751Y-140335002D01*
X162780812Y-140335002D01*
X162836885Y-140162429D01*
X162856122Y-139979400D01*
X162836885Y-139796371D01*
X162799861Y-139682423D01*
X162780016Y-139621346D01*
X162780013Y-139621340D01*
X162687995Y-139461960D01*
X162564850Y-139325193D01*
X162564848Y-139325191D01*
X162415965Y-139217021D01*
X162415962Y-139217019D01*
X162415961Y-139217019D01*
X162354912Y-139189838D01*
X162247838Y-139142165D01*
X162247833Y-139142163D01*
X162067819Y-139103900D01*
X161883781Y-139103900D01*
X161703766Y-139142163D01*
X161703761Y-139142165D01*
X161535639Y-139217019D01*
X161535634Y-139217021D01*
X161386751Y-139325191D01*
X161386749Y-139325193D01*
X161263604Y-139461961D01*
X161171586Y-139621340D01*
X161171583Y-139621346D01*
X161122969Y-139770967D01*
X161114715Y-139796371D01*
X161095478Y-139979400D01*
X152795052Y-139979400D01*
X152797722Y-139954000D01*
X152778485Y-139770971D01*
X152729867Y-139621340D01*
X152721616Y-139595946D01*
X152721613Y-139595940D01*
X152629595Y-139436560D01*
X152506450Y-139299793D01*
X152506448Y-139299791D01*
X152357565Y-139191621D01*
X152357562Y-139191619D01*
X152357561Y-139191619D01*
X152246486Y-139142165D01*
X152189438Y-139116765D01*
X152189433Y-139116763D01*
X152009419Y-139078500D01*
X151825381Y-139078500D01*
X151645366Y-139116763D01*
X151645361Y-139116765D01*
X151477239Y-139191619D01*
X151477234Y-139191621D01*
X151328351Y-139299791D01*
X151328349Y-139299793D01*
X151205204Y-139436561D01*
X151113186Y-139595940D01*
X151113183Y-139595946D01*
X151056316Y-139770967D01*
X151056315Y-139770971D01*
X151037078Y-139954000D01*
X147689652Y-139954000D01*
X147673085Y-139796371D01*
X147636061Y-139682423D01*
X147616216Y-139621346D01*
X147616213Y-139621340D01*
X147524195Y-139461960D01*
X147401050Y-139325193D01*
X147401048Y-139325191D01*
X147252165Y-139217021D01*
X147252162Y-139217019D01*
X147252161Y-139217019D01*
X147191112Y-139189838D01*
X147084038Y-139142165D01*
X147084033Y-139142163D01*
X146904019Y-139103900D01*
X146719981Y-139103900D01*
X146539966Y-139142163D01*
X146539961Y-139142165D01*
X146371839Y-139217019D01*
X146371834Y-139217021D01*
X146222951Y-139325191D01*
X146222949Y-139325193D01*
X146099804Y-139461961D01*
X146007786Y-139621340D01*
X146007783Y-139621346D01*
X145959169Y-139770967D01*
X145950915Y-139796371D01*
X145931678Y-139979400D01*
X137529652Y-139979400D01*
X137532322Y-139954000D01*
X137513085Y-139770971D01*
X137464467Y-139621340D01*
X137456216Y-139595946D01*
X137456213Y-139595940D01*
X137364195Y-139436560D01*
X137241050Y-139299793D01*
X137241048Y-139299791D01*
X137092165Y-139191621D01*
X137092162Y-139191619D01*
X137092161Y-139191619D01*
X136981086Y-139142165D01*
X136924038Y-139116765D01*
X136924033Y-139116763D01*
X136744019Y-139078500D01*
X136559981Y-139078500D01*
X136379966Y-139116763D01*
X136379961Y-139116765D01*
X136211839Y-139191619D01*
X136211834Y-139191621D01*
X136062951Y-139299791D01*
X136062949Y-139299793D01*
X135939804Y-139436561D01*
X135847786Y-139595940D01*
X135847783Y-139595946D01*
X135790916Y-139770967D01*
X135790915Y-139770971D01*
X135771678Y-139954000D01*
X132449652Y-139954000D01*
X132433085Y-139796371D01*
X132396061Y-139682423D01*
X132376216Y-139621346D01*
X132376213Y-139621340D01*
X132284195Y-139461960D01*
X132161050Y-139325193D01*
X132161048Y-139325191D01*
X132012165Y-139217021D01*
X132012162Y-139217019D01*
X132012161Y-139217019D01*
X131951112Y-139189838D01*
X131844038Y-139142165D01*
X131844033Y-139142163D01*
X131664019Y-139103900D01*
X131479981Y-139103900D01*
X131299966Y-139142163D01*
X131299961Y-139142165D01*
X131131839Y-139217019D01*
X131131834Y-139217021D01*
X130982951Y-139325191D01*
X130982949Y-139325193D01*
X130859804Y-139461961D01*
X130767786Y-139621340D01*
X130767783Y-139621346D01*
X130719169Y-139770967D01*
X130710915Y-139796371D01*
X130691678Y-139979400D01*
X122340452Y-139979400D01*
X122343122Y-139954000D01*
X122323885Y-139770971D01*
X122275267Y-139621340D01*
X122267016Y-139595946D01*
X122267013Y-139595940D01*
X122174995Y-139436560D01*
X122051850Y-139299793D01*
X122051848Y-139299791D01*
X121902965Y-139191621D01*
X121902962Y-139191619D01*
X121902961Y-139191619D01*
X121791886Y-139142165D01*
X121734838Y-139116765D01*
X121734833Y-139116763D01*
X121554819Y-139078500D01*
X121370781Y-139078500D01*
X121190766Y-139116763D01*
X121190761Y-139116765D01*
X121022639Y-139191619D01*
X121022634Y-139191621D01*
X120873751Y-139299791D01*
X120873749Y-139299793D01*
X120750604Y-139436561D01*
X120658586Y-139595940D01*
X120658583Y-139595946D01*
X120601716Y-139770967D01*
X120601715Y-139770971D01*
X120582478Y-139954000D01*
X117260452Y-139954000D01*
X117243885Y-139796371D01*
X117206861Y-139682423D01*
X117187016Y-139621346D01*
X117187013Y-139621340D01*
X117094995Y-139461960D01*
X116971850Y-139325193D01*
X116971848Y-139325191D01*
X116822965Y-139217021D01*
X116822962Y-139217019D01*
X116822961Y-139217019D01*
X116761912Y-139189838D01*
X116654838Y-139142165D01*
X116654833Y-139142163D01*
X116474819Y-139103900D01*
X116290781Y-139103900D01*
X116110766Y-139142163D01*
X116110761Y-139142165D01*
X115942639Y-139217019D01*
X115942634Y-139217021D01*
X115793751Y-139325191D01*
X115793749Y-139325193D01*
X115670604Y-139461961D01*
X115578586Y-139621340D01*
X115578583Y-139621346D01*
X115529969Y-139770967D01*
X115521715Y-139796371D01*
X115502478Y-139979400D01*
X114923500Y-139979400D01*
X114923500Y-135890002D01*
X132340751Y-135890002D01*
X132359685Y-136058056D01*
X132415545Y-136217694D01*
X132415547Y-136217697D01*
X132505518Y-136360884D01*
X132505523Y-136360890D01*
X132625109Y-136480476D01*
X132625115Y-136480481D01*
X132768302Y-136570452D01*
X132768305Y-136570454D01*
X132768309Y-136570455D01*
X132768310Y-136570456D01*
X132927941Y-136626313D01*
X132927944Y-136626314D01*
X133018274Y-136636491D01*
X133074163Y-136642788D01*
X133138576Y-136669854D01*
X133173658Y-136719833D01*
X133174523Y-136719417D01*
X133177050Y-136724666D01*
X133177318Y-136725047D01*
X133177541Y-136725684D01*
X133177547Y-136725697D01*
X133267518Y-136868884D01*
X133267523Y-136868890D01*
X133387109Y-136988476D01*
X133387115Y-136988481D01*
X133530302Y-137078452D01*
X133530305Y-137078454D01*
X133530309Y-137078455D01*
X133530310Y-137078456D01*
X133657279Y-137122884D01*
X133689944Y-137134314D01*
X133857997Y-137153249D01*
X133858000Y-137153249D01*
X133858002Y-137153249D01*
X133862723Y-137152716D01*
X133874644Y-137151373D01*
X133943466Y-137163423D01*
X133976215Y-137186911D01*
X134036863Y-137247559D01*
X134036869Y-137247564D01*
X134180056Y-137337535D01*
X134180059Y-137337537D01*
X134180063Y-137337538D01*
X134180064Y-137337539D01*
X134252667Y-137362943D01*
X134339697Y-137393397D01*
X134507751Y-137412332D01*
X134507754Y-137412332D01*
X134507757Y-137412332D01*
X134633798Y-137398130D01*
X134675813Y-137393396D01*
X134824733Y-137341286D01*
X134894508Y-137337724D01*
X134906624Y-137341282D01*
X135039174Y-137387663D01*
X135039173Y-137387663D01*
X135207230Y-137406599D01*
X135207233Y-137406599D01*
X135207236Y-137406599D01*
X135375289Y-137387664D01*
X135375292Y-137387663D01*
X135515078Y-137338749D01*
X135584856Y-137335189D01*
X135596984Y-137338749D01*
X135604237Y-137341287D01*
X135738678Y-137388330D01*
X135906732Y-137407265D01*
X135906735Y-137407265D01*
X135906738Y-137407265D01*
X136032779Y-137393063D01*
X136074794Y-137388329D01*
X136215555Y-137339074D01*
X136285331Y-137335512D01*
X136297463Y-137339075D01*
X136438176Y-137388313D01*
X136606234Y-137407249D01*
X136606237Y-137407249D01*
X136606240Y-137407249D01*
X136707072Y-137395887D01*
X136774296Y-137388313D01*
X136933927Y-137332456D01*
X136944143Y-137326036D01*
X137011377Y-137307034D01*
X137076089Y-137326034D01*
X137076094Y-137326037D01*
X137086310Y-137332456D01*
X137207621Y-137374904D01*
X137245943Y-137388314D01*
X137413997Y-137407249D01*
X137414000Y-137407249D01*
X137414003Y-137407249D01*
X137582056Y-137388314D01*
X137583914Y-137387664D01*
X137741690Y-137332456D01*
X137741692Y-137332454D01*
X137741694Y-137332454D01*
X137741697Y-137332452D01*
X137884884Y-137242481D01*
X137884885Y-137242480D01*
X137884890Y-137242477D01*
X138004477Y-137122890D01*
X138032398Y-137078454D01*
X138094452Y-136979697D01*
X138094454Y-136979694D01*
X138094454Y-136979692D01*
X138094456Y-136979690D01*
X138150313Y-136820059D01*
X138150313Y-136820058D01*
X138150314Y-136820056D01*
X138169249Y-136652002D01*
X138169249Y-136651997D01*
X138150314Y-136483943D01*
X138094454Y-136324305D01*
X138094452Y-136324302D01*
X138004481Y-136181115D01*
X138004476Y-136181109D01*
X137884890Y-136061523D01*
X137884884Y-136061518D01*
X137741697Y-135971547D01*
X137741694Y-135971545D01*
X137582056Y-135915685D01*
X137414003Y-135896751D01*
X137413997Y-135896751D01*
X137245943Y-135915685D01*
X137116250Y-135961067D01*
X137086310Y-135971544D01*
X137086308Y-135971544D01*
X137086308Y-135971545D01*
X137076085Y-135977968D01*
X137008848Y-135996964D01*
X136944145Y-135977964D01*
X136933930Y-135971545D01*
X136774293Y-135915685D01*
X136606240Y-135896751D01*
X136606234Y-135896751D01*
X136438180Y-135915685D01*
X136317208Y-135958015D01*
X136297417Y-135964941D01*
X136227639Y-135968502D01*
X136215513Y-135964942D01*
X136181002Y-135952866D01*
X136074791Y-135915701D01*
X135906738Y-135896767D01*
X135906732Y-135896767D01*
X135738678Y-135915701D01*
X135630384Y-135953595D01*
X135598889Y-135964616D01*
X135529112Y-135968177D01*
X135516981Y-135964616D01*
X135375289Y-135915035D01*
X135207236Y-135896101D01*
X135207230Y-135896101D01*
X135039175Y-135915036D01*
X134890255Y-135967145D01*
X134820476Y-135970706D01*
X134808347Y-135967145D01*
X134675811Y-135920769D01*
X134507757Y-135901834D01*
X134507752Y-135901834D01*
X134491096Y-135903710D01*
X134422275Y-135891652D01*
X134389537Y-135868170D01*
X134328890Y-135807523D01*
X134328884Y-135807518D01*
X134185697Y-135717547D01*
X134185694Y-135717545D01*
X134026056Y-135661685D01*
X133879836Y-135645211D01*
X133815422Y-135618145D01*
X133780343Y-135568165D01*
X133779477Y-135568583D01*
X133776942Y-135563319D01*
X133776678Y-135562943D01*
X133776457Y-135562312D01*
X133776452Y-135562302D01*
X133686481Y-135419115D01*
X133686476Y-135419109D01*
X133566890Y-135299523D01*
X133566884Y-135299518D01*
X133423697Y-135209547D01*
X133423694Y-135209545D01*
X133264056Y-135153685D01*
X133096003Y-135134751D01*
X133095997Y-135134751D01*
X132927943Y-135153685D01*
X132768305Y-135209545D01*
X132768302Y-135209547D01*
X132625115Y-135299518D01*
X132625109Y-135299523D01*
X132505523Y-135419109D01*
X132505518Y-135419115D01*
X132415547Y-135562302D01*
X132415545Y-135562305D01*
X132359685Y-135721943D01*
X132340751Y-135889997D01*
X132340751Y-135890002D01*
X114923500Y-135890002D01*
X114923500Y-126111002D01*
X115322751Y-126111002D01*
X115341686Y-126279057D01*
X115397543Y-126438690D01*
X115433493Y-126495902D01*
X115452500Y-126561875D01*
X115452500Y-128695255D01*
X115450775Y-128710872D01*
X115451061Y-128710899D01*
X115450326Y-128718665D01*
X115452500Y-128787814D01*
X115452500Y-128817343D01*
X115452501Y-128817360D01*
X115453368Y-128824231D01*
X115453826Y-128830050D01*
X115455290Y-128876624D01*
X115455291Y-128876627D01*
X115460880Y-128895867D01*
X115464824Y-128914911D01*
X115467336Y-128934792D01*
X115469455Y-128940143D01*
X115484490Y-128978119D01*
X115486382Y-128983647D01*
X115499381Y-129028388D01*
X115509580Y-129045634D01*
X115518136Y-129063100D01*
X115525514Y-129081732D01*
X115544745Y-129108202D01*
X115552898Y-129119423D01*
X115556106Y-129124307D01*
X115579827Y-129164416D01*
X115579833Y-129164424D01*
X115593990Y-129178580D01*
X115606627Y-129193375D01*
X115618406Y-129209587D01*
X115654308Y-129239288D01*
X115658619Y-129243209D01*
X115851300Y-129435890D01*
X115907394Y-129491984D01*
X115917217Y-129504245D01*
X115917439Y-129504063D01*
X115922412Y-129510075D01*
X115972837Y-129557428D01*
X115993723Y-129578315D01*
X115993727Y-129578318D01*
X115993729Y-129578320D01*
X115999211Y-129582573D01*
X116003643Y-129586357D01*
X116037618Y-129618262D01*
X116055176Y-129627914D01*
X116071435Y-129638595D01*
X116087264Y-129650873D01*
X116130038Y-129669382D01*
X116135264Y-129671942D01*
X116150770Y-129680467D01*
X116182158Y-129697723D01*
X116231421Y-129747271D01*
X116246076Y-129815586D01*
X116245638Y-129820267D01*
X116237151Y-129895595D01*
X116237151Y-129895602D01*
X116256085Y-130063656D01*
X116311945Y-130223293D01*
X116319948Y-130236030D01*
X116338947Y-130303267D01*
X116319948Y-130367970D01*
X116311945Y-130380706D01*
X116256085Y-130540343D01*
X116237151Y-130708397D01*
X116237151Y-130708402D01*
X116256086Y-130876457D01*
X116311942Y-131036087D01*
X116311967Y-131036126D01*
X116311975Y-131036155D01*
X116314962Y-131042356D01*
X116313875Y-131042879D01*
X116330968Y-131103363D01*
X116313944Y-131161347D01*
X116314964Y-131161838D01*
X116311984Y-131168025D01*
X116311974Y-131168060D01*
X116311946Y-131168103D01*
X116256085Y-131327743D01*
X116237151Y-131495797D01*
X116237151Y-131495802D01*
X116256085Y-131663856D01*
X116311945Y-131823493D01*
X116319948Y-131836230D01*
X116338947Y-131903467D01*
X116319948Y-131968170D01*
X116311945Y-131980906D01*
X116256085Y-132140543D01*
X116237151Y-132308597D01*
X116237151Y-132308602D01*
X116256086Y-132476657D01*
X116312807Y-132638759D01*
X116316368Y-132708538D01*
X116300760Y-132745683D01*
X116286545Y-132768306D01*
X116230685Y-132927943D01*
X116211751Y-133095997D01*
X116211751Y-133096002D01*
X116230685Y-133264056D01*
X116286545Y-133423694D01*
X116286547Y-133423697D01*
X116376518Y-133566884D01*
X116376523Y-133566890D01*
X116496109Y-133686476D01*
X116496115Y-133686481D01*
X116639302Y-133776452D01*
X116639305Y-133776454D01*
X116639309Y-133776455D01*
X116639310Y-133776456D01*
X116711913Y-133801860D01*
X116798943Y-133832314D01*
X116966997Y-133851249D01*
X116967000Y-133851249D01*
X116967003Y-133851249D01*
X117135056Y-133832314D01*
X117135059Y-133832313D01*
X117294690Y-133776456D01*
X117294692Y-133776454D01*
X117294694Y-133776454D01*
X117294697Y-133776452D01*
X117437884Y-133686481D01*
X117437885Y-133686480D01*
X117437890Y-133686477D01*
X117557477Y-133566890D01*
X117647452Y-133423697D01*
X117647454Y-133423694D01*
X117647454Y-133423692D01*
X117647456Y-133423690D01*
X117703313Y-133264059D01*
X117703313Y-133264058D01*
X117703314Y-133264056D01*
X117722249Y-133096002D01*
X117722249Y-133095997D01*
X117703313Y-132927940D01*
X117703313Y-132927938D01*
X117646592Y-132765840D01*
X117643030Y-132696061D01*
X117658638Y-132658916D01*
X117672856Y-132636290D01*
X117724062Y-132489952D01*
X117728713Y-132476661D01*
X117728713Y-132476659D01*
X117747649Y-132308602D01*
X117747649Y-132308597D01*
X117728713Y-132140542D01*
X117672857Y-131980913D01*
X117672856Y-131980910D01*
X117664851Y-131968170D01*
X117645851Y-131900937D01*
X117664855Y-131836223D01*
X117672856Y-131823490D01*
X117728713Y-131663859D01*
X117747649Y-131495800D01*
X117741164Y-131438249D01*
X117728713Y-131327742D01*
X117709726Y-131273481D01*
X117672856Y-131168110D01*
X117672839Y-131168084D01*
X117672834Y-131168065D01*
X117669836Y-131161840D01*
X117670925Y-131161315D01*
X117653831Y-131100851D01*
X117670861Y-131042853D01*
X117669836Y-131042360D01*
X117672834Y-131036135D01*
X117672840Y-131036115D01*
X117672856Y-131036090D01*
X117728713Y-130876459D01*
X117745389Y-130728456D01*
X117747649Y-130708402D01*
X117747649Y-130708397D01*
X117728713Y-130540342D01*
X117672857Y-130380713D01*
X117672855Y-130380708D01*
X117664854Y-130367976D01*
X117645851Y-130300741D01*
X117664854Y-130236024D01*
X117672855Y-130223291D01*
X117672856Y-130223290D01*
X117728713Y-130063659D01*
X117742377Y-129942391D01*
X117747649Y-129895602D01*
X117747649Y-129895599D01*
X117744943Y-129871585D01*
X117756997Y-129802763D01*
X117804345Y-129751383D01*
X117868163Y-129733700D01*
X120487632Y-129733700D01*
X120554671Y-129753385D01*
X120600426Y-129806189D01*
X120607407Y-129825607D01*
X120651094Y-129988655D01*
X120651096Y-129988659D01*
X120651097Y-129988663D01*
X120731004Y-130160023D01*
X120750965Y-130202830D01*
X120750967Y-130202834D01*
X120820406Y-130302002D01*
X120886501Y-130396396D01*
X120886506Y-130396402D01*
X121053597Y-130563493D01*
X121053603Y-130563498D01*
X121239158Y-130693425D01*
X121282783Y-130748002D01*
X121289977Y-130817500D01*
X121258454Y-130879855D01*
X121239158Y-130896575D01*
X121053597Y-131026505D01*
X120886505Y-131193597D01*
X120750965Y-131387169D01*
X120750964Y-131387171D01*
X120651098Y-131601335D01*
X120651094Y-131601344D01*
X120589938Y-131829586D01*
X120589936Y-131829596D01*
X120569341Y-132064999D01*
X120569341Y-132065000D01*
X120589936Y-132300403D01*
X120589938Y-132300413D01*
X120651094Y-132528655D01*
X120651096Y-132528659D01*
X120651097Y-132528663D01*
X120729156Y-132696061D01*
X120750965Y-132742830D01*
X120750967Y-132742834D01*
X120768806Y-132768310D01*
X120886505Y-132936401D01*
X121053599Y-133103495D01*
X121130135Y-133157086D01*
X121247165Y-133239032D01*
X121247167Y-133239033D01*
X121247170Y-133239035D01*
X121461337Y-133338903D01*
X121689592Y-133400063D01*
X121860319Y-133415000D01*
X121924999Y-133420659D01*
X121925000Y-133420659D01*
X121925001Y-133420659D01*
X121989681Y-133415000D01*
X122160408Y-133400063D01*
X122388663Y-133338903D01*
X122602830Y-133239035D01*
X122796401Y-133103495D01*
X122918717Y-132981178D01*
X122980036Y-132947696D01*
X123049728Y-132952680D01*
X123105662Y-132994551D01*
X123122577Y-133025528D01*
X123171646Y-133157088D01*
X123171649Y-133157093D01*
X123257809Y-133272187D01*
X123257812Y-133272190D01*
X123372906Y-133358350D01*
X123372913Y-133358354D01*
X123507620Y-133408596D01*
X123507627Y-133408598D01*
X123567155Y-133414999D01*
X123567172Y-133415000D01*
X124215000Y-133415000D01*
X124215000Y-132500501D01*
X124322685Y-132549680D01*
X124429237Y-132565000D01*
X124500763Y-132565000D01*
X124607315Y-132549680D01*
X124715000Y-132500501D01*
X124715000Y-133415000D01*
X125362828Y-133415000D01*
X125362844Y-133414999D01*
X125422372Y-133408598D01*
X125422379Y-133408596D01*
X125557086Y-133358354D01*
X125557093Y-133358350D01*
X125672187Y-133272190D01*
X125672190Y-133272187D01*
X125758350Y-133157093D01*
X125758354Y-133157086D01*
X125808596Y-133022379D01*
X125808598Y-133022372D01*
X125814999Y-132962844D01*
X125815000Y-132962827D01*
X125815000Y-132315000D01*
X124898686Y-132315000D01*
X124924493Y-132274844D01*
X124965000Y-132136889D01*
X124965000Y-131993111D01*
X124924493Y-131855156D01*
X124898686Y-131815000D01*
X125815000Y-131815000D01*
X125815000Y-131167172D01*
X125814999Y-131167155D01*
X125808598Y-131107627D01*
X125808596Y-131107620D01*
X125758354Y-130972913D01*
X125758350Y-130972906D01*
X125672190Y-130857812D01*
X125672187Y-130857809D01*
X125557093Y-130771649D01*
X125557088Y-130771646D01*
X125425528Y-130722577D01*
X125369595Y-130680705D01*
X125345178Y-130615241D01*
X125360030Y-130546968D01*
X125381175Y-130518720D01*
X125503495Y-130396401D01*
X125639035Y-130202830D01*
X125711233Y-130048002D01*
X133356751Y-130048002D01*
X133375685Y-130216056D01*
X133431545Y-130375694D01*
X133431547Y-130375697D01*
X133521518Y-130518884D01*
X133521523Y-130518890D01*
X133641109Y-130638476D01*
X133641115Y-130638481D01*
X133784302Y-130728452D01*
X133784305Y-130728454D01*
X133784309Y-130728455D01*
X133784310Y-130728456D01*
X133840170Y-130748002D01*
X133943943Y-130784314D01*
X134111997Y-130803249D01*
X134112000Y-130803249D01*
X134112002Y-130803249D01*
X134175951Y-130796043D01*
X134279755Y-130784347D01*
X134348576Y-130796401D01*
X134381319Y-130819886D01*
X134453909Y-130892476D01*
X134453915Y-130892481D01*
X134597102Y-130982452D01*
X134597105Y-130982454D01*
X134597109Y-130982455D01*
X134597110Y-130982456D01*
X134669713Y-131007860D01*
X134756743Y-131038314D01*
X134924797Y-131057249D01*
X134924800Y-131057249D01*
X134924803Y-131057249D01*
X135092856Y-131038314D01*
X135099109Y-131036126D01*
X135252490Y-130982456D01*
X135252492Y-130982454D01*
X135252494Y-130982454D01*
X135252497Y-130982452D01*
X135395684Y-130892481D01*
X135395684Y-130892480D01*
X135395690Y-130892477D01*
X135497522Y-130790644D01*
X135558841Y-130757162D01*
X135628533Y-130762146D01*
X135672876Y-130790643D01*
X135774710Y-130892477D01*
X135774712Y-130892478D01*
X135774714Y-130892480D01*
X135774715Y-130892481D01*
X135917902Y-130982452D01*
X135917905Y-130982454D01*
X135917909Y-130982455D01*
X135917910Y-130982456D01*
X135990513Y-131007860D01*
X136077543Y-131038314D01*
X136245597Y-131057249D01*
X136245600Y-131057249D01*
X136245603Y-131057249D01*
X136413656Y-131038314D01*
X136419909Y-131036126D01*
X136573290Y-130982456D01*
X136636826Y-130942533D01*
X136704064Y-130923532D01*
X136768773Y-130942533D01*
X136817122Y-130972913D01*
X136832307Y-130982454D01*
X136832305Y-130982454D01*
X136832309Y-130982455D01*
X136832310Y-130982456D01*
X136904913Y-131007860D01*
X136991943Y-131038314D01*
X137159997Y-131057249D01*
X137160000Y-131057249D01*
X137160003Y-131057249D01*
X137328056Y-131038314D01*
X137334309Y-131036126D01*
X137487690Y-130982456D01*
X137487692Y-130982454D01*
X137487694Y-130982454D01*
X137487697Y-130982452D01*
X137630884Y-130892481D01*
X137630885Y-130892480D01*
X137630890Y-130892477D01*
X137750477Y-130772890D01*
X137760360Y-130757162D01*
X137840452Y-130629697D01*
X137840454Y-130629694D01*
X137840454Y-130629692D01*
X137840456Y-130629690D01*
X137896313Y-130470059D01*
X137896313Y-130470058D01*
X137896314Y-130470056D01*
X137915249Y-130302002D01*
X137915249Y-130301997D01*
X137896314Y-130133943D01*
X137848407Y-129997032D01*
X137840456Y-129974310D01*
X137840455Y-129974309D01*
X137840454Y-129974305D01*
X137840452Y-129974302D01*
X137750481Y-129831115D01*
X137750476Y-129831109D01*
X137630890Y-129711523D01*
X137630884Y-129711518D01*
X137487697Y-129621547D01*
X137487694Y-129621545D01*
X137328056Y-129565685D01*
X137160003Y-129546751D01*
X137159997Y-129546751D01*
X136991943Y-129565685D01*
X136832307Y-129621545D01*
X136768771Y-129661467D01*
X136701534Y-129680467D01*
X136636829Y-129661467D01*
X136573292Y-129621545D01*
X136573291Y-129621544D01*
X136573290Y-129621544D01*
X136534970Y-129608135D01*
X136413656Y-129565685D01*
X136245603Y-129546751D01*
X136245597Y-129546751D01*
X136077543Y-129565685D01*
X135917905Y-129621545D01*
X135917902Y-129621547D01*
X135774715Y-129711518D01*
X135672881Y-129813352D01*
X135611558Y-129846836D01*
X135541866Y-129841852D01*
X135497519Y-129813352D01*
X135472823Y-129788656D01*
X135395690Y-129711523D01*
X135395687Y-129711521D01*
X135395686Y-129711520D01*
X135395684Y-129711518D01*
X135252497Y-129621547D01*
X135252494Y-129621545D01*
X135092856Y-129565685D01*
X134924803Y-129546751D01*
X134924796Y-129546751D01*
X134757044Y-129565652D01*
X134688223Y-129553598D01*
X134655480Y-129530113D01*
X134582890Y-129457523D01*
X134582884Y-129457518D01*
X134439697Y-129367547D01*
X134439694Y-129367545D01*
X134280056Y-129311685D01*
X134112003Y-129292751D01*
X134111997Y-129292751D01*
X133943943Y-129311685D01*
X133784305Y-129367545D01*
X133784302Y-129367547D01*
X133641115Y-129457518D01*
X133641109Y-129457523D01*
X133521523Y-129577109D01*
X133521518Y-129577115D01*
X133431547Y-129720302D01*
X133431545Y-129720305D01*
X133375685Y-129879943D01*
X133356751Y-130047997D01*
X133356751Y-130048002D01*
X125711233Y-130048002D01*
X125738903Y-129988663D01*
X125800063Y-129760408D01*
X125820659Y-129525000D01*
X125800063Y-129289592D01*
X125738903Y-129061337D01*
X125639035Y-128847171D01*
X125625003Y-128827130D01*
X125503494Y-128653597D01*
X125336402Y-128486506D01*
X125336396Y-128486501D01*
X125150842Y-128356575D01*
X125107217Y-128301998D01*
X125100023Y-128232500D01*
X125131546Y-128170145D01*
X125150842Y-128153425D01*
X125188094Y-128127341D01*
X125336401Y-128023495D01*
X125503495Y-127856401D01*
X125639035Y-127662830D01*
X125738903Y-127448663D01*
X125800063Y-127220408D01*
X125820659Y-126985000D01*
X125820591Y-126984228D01*
X125800063Y-126749596D01*
X125800063Y-126749592D01*
X125738903Y-126521337D01*
X125639035Y-126307171D01*
X125619350Y-126279057D01*
X125503494Y-126113597D01*
X125336402Y-125946506D01*
X125336395Y-125946501D01*
X125142834Y-125810967D01*
X125142830Y-125810965D01*
X125083513Y-125783305D01*
X124928663Y-125711097D01*
X124928659Y-125711096D01*
X124928655Y-125711094D01*
X124700413Y-125649938D01*
X124700403Y-125649936D01*
X124465001Y-125629341D01*
X124464999Y-125629341D01*
X124229596Y-125649936D01*
X124229586Y-125649938D01*
X124001344Y-125711094D01*
X124001335Y-125711098D01*
X123787171Y-125810964D01*
X123787169Y-125810965D01*
X123593597Y-125946505D01*
X123426508Y-126113594D01*
X123296574Y-126299160D01*
X123241997Y-126342784D01*
X123172498Y-126349977D01*
X123110144Y-126318455D01*
X123093429Y-126299164D01*
X122963495Y-126113599D01*
X122963493Y-126113596D01*
X122796402Y-125946506D01*
X122796395Y-125946501D01*
X122602834Y-125810967D01*
X122602830Y-125810965D01*
X122543513Y-125783305D01*
X122388663Y-125711097D01*
X122388659Y-125711096D01*
X122388655Y-125711094D01*
X122160413Y-125649938D01*
X122160403Y-125649936D01*
X121925001Y-125629341D01*
X121924999Y-125629341D01*
X121689596Y-125649936D01*
X121689586Y-125649938D01*
X121461344Y-125711094D01*
X121461335Y-125711098D01*
X121247171Y-125810964D01*
X121247169Y-125810965D01*
X121053597Y-125946505D01*
X120886505Y-126113597D01*
X120750965Y-126307169D01*
X120750964Y-126307171D01*
X120651098Y-126521335D01*
X120651094Y-126521344D01*
X120589938Y-126749586D01*
X120589936Y-126749596D01*
X120569341Y-126984999D01*
X120569341Y-126985000D01*
X120589936Y-127220403D01*
X120589938Y-127220413D01*
X120651094Y-127448655D01*
X120651096Y-127448659D01*
X120651097Y-127448663D01*
X120691089Y-127534426D01*
X120750965Y-127662830D01*
X120750967Y-127662834D01*
X120829852Y-127775492D01*
X120886501Y-127856396D01*
X120886506Y-127856402D01*
X121053597Y-128023493D01*
X121053603Y-128023498D01*
X121239158Y-128153425D01*
X121282783Y-128208002D01*
X121289977Y-128277500D01*
X121258454Y-128339855D01*
X121239158Y-128356575D01*
X121091059Y-128460275D01*
X121024853Y-128482602D01*
X121019936Y-128482700D01*
X116827500Y-128482700D01*
X116760461Y-128463015D01*
X116714706Y-128410211D01*
X116703500Y-128358700D01*
X116703500Y-126561875D01*
X116722507Y-126495902D01*
X116758456Y-126438690D01*
X116758456Y-126438689D01*
X116814313Y-126279059D01*
X116832956Y-126113599D01*
X116833249Y-126111002D01*
X116833249Y-126110997D01*
X116814314Y-125942943D01*
X116783860Y-125855913D01*
X116758456Y-125783310D01*
X116758455Y-125783309D01*
X116758454Y-125783305D01*
X116758452Y-125783302D01*
X116668481Y-125640115D01*
X116668476Y-125640109D01*
X116548890Y-125520523D01*
X116548884Y-125520518D01*
X116405697Y-125430547D01*
X116405694Y-125430545D01*
X116246056Y-125374685D01*
X116078003Y-125355751D01*
X116077997Y-125355751D01*
X115909943Y-125374685D01*
X115750305Y-125430545D01*
X115750302Y-125430547D01*
X115607115Y-125520518D01*
X115607109Y-125520523D01*
X115487523Y-125640109D01*
X115487518Y-125640115D01*
X115397547Y-125783302D01*
X115397545Y-125783305D01*
X115341685Y-125942943D01*
X115322751Y-126110997D01*
X115322751Y-126111002D01*
X114923500Y-126111002D01*
X114923500Y-113964629D01*
X114923889Y-113957690D01*
X114928249Y-113919000D01*
X114923872Y-113880158D01*
X114923589Y-113876841D01*
X114923500Y-113875310D01*
X114923500Y-113875291D01*
X114918617Y-113833522D01*
X114909313Y-113750941D01*
X114909312Y-113750939D01*
X114909295Y-113750785D01*
X114908294Y-113744969D01*
X114908241Y-113744747D01*
X114908241Y-113744745D01*
X114879851Y-113666743D01*
X114853456Y-113591310D01*
X114853453Y-113591306D01*
X114850460Y-113585090D01*
X114848415Y-113580240D01*
X114848239Y-113579890D01*
X114848237Y-113579883D01*
X114804317Y-113513107D01*
X114798460Y-113503786D01*
X114763479Y-113448112D01*
X114759136Y-113442667D01*
X114759459Y-113442408D01*
X114756519Y-113438799D01*
X114756474Y-113438838D01*
X114751834Y-113433309D01*
X114751832Y-113433307D01*
X114751830Y-113433304D01*
X114695964Y-113380597D01*
X114643890Y-113328523D01*
X114643887Y-113328521D01*
X114638446Y-113324182D01*
X114638450Y-113324176D01*
X114625708Y-113314313D01*
X114624220Y-113312909D01*
X114560409Y-113276068D01*
X114500699Y-113238548D01*
X114500685Y-113238542D01*
X114498259Y-113237693D01*
X114477236Y-113228048D01*
X114472285Y-113225190D01*
X114472282Y-113225189D01*
X114472281Y-113225188D01*
X114464048Y-113222723D01*
X114406048Y-113205358D01*
X114403354Y-113204484D01*
X114341062Y-113182688D01*
X114341059Y-113182687D01*
X114334870Y-113181989D01*
X114313203Y-113177562D01*
X114304211Y-113174870D01*
X114238544Y-113171045D01*
X114235208Y-113170760D01*
X114173003Y-113163751D01*
X114173001Y-113163751D01*
X114173000Y-113163751D01*
X114163173Y-113164858D01*
X114142088Y-113165427D01*
X114129068Y-113164668D01*
X114067623Y-113175502D01*
X114063801Y-113176054D01*
X114004936Y-113182687D01*
X113992148Y-113187162D01*
X113972738Y-113192233D01*
X113956295Y-113195132D01*
X113902109Y-113218505D01*
X113898029Y-113220096D01*
X113845318Y-113238540D01*
X113845306Y-113238546D01*
X113830739Y-113247698D01*
X113813896Y-113256555D01*
X113795198Y-113264621D01*
X113795189Y-113264626D01*
X113750572Y-113297843D01*
X113746534Y-113300609D01*
X113702106Y-113328525D01*
X113702104Y-113328526D01*
X113687360Y-113343271D01*
X113673733Y-113355048D01*
X113654468Y-113369391D01*
X113654466Y-113369393D01*
X113620887Y-113409411D01*
X113617232Y-113413399D01*
X113582527Y-113448104D01*
X113582520Y-113448112D01*
X113567218Y-113472465D01*
X113562214Y-113479335D01*
X113541698Y-113503786D01*
X113541695Y-113503790D01*
X113519771Y-113547445D01*
X113516861Y-113552608D01*
X113492544Y-113591307D01*
X113481922Y-113621661D01*
X113478806Y-113629012D01*
X113462959Y-113660567D01*
X113452472Y-113704813D01*
X113450664Y-113710994D01*
X113436687Y-113750936D01*
X113432706Y-113786258D01*
X113431425Y-113793616D01*
X113424494Y-113822864D01*
X113423409Y-113827446D01*
X113422500Y-113831280D01*
X113422500Y-113873369D01*
X113422110Y-113880309D01*
X113417751Y-113919000D01*
X113422110Y-113957690D01*
X113422500Y-113964629D01*
X113422500Y-140861769D01*
X113402815Y-140928808D01*
X113386181Y-140949450D01*
X113136451Y-141199181D01*
X113075128Y-141232666D01*
X113048770Y-141235500D01*
X106500214Y-141235500D01*
X106447809Y-141223882D01*
X106435071Y-141217942D01*
X106418503Y-141214521D01*
X106402138Y-141211142D01*
X106394207Y-141208946D01*
X106365459Y-141198887D01*
X106365457Y-141198886D01*
X106365452Y-141198885D01*
X106318364Y-141193580D01*
X106312766Y-141192688D01*
X106263265Y-141182467D01*
X106263257Y-141182466D01*
X106263256Y-141182466D01*
X106261413Y-141182519D01*
X106233043Y-141183344D01*
X106224293Y-141182980D01*
X106202292Y-141180502D01*
X106197400Y-141179951D01*
X106197399Y-141179951D01*
X106197395Y-141179951D01*
X106146949Y-141185635D01*
X106141811Y-141185998D01*
X106087890Y-141187568D01*
X106087885Y-141187569D01*
X106066451Y-141193312D01*
X106048251Y-141196756D01*
X106029338Y-141198887D01*
X106029335Y-141198888D01*
X105978217Y-141216775D01*
X105973787Y-141218141D01*
X105918428Y-141232975D01*
X105918424Y-141232976D01*
X105918424Y-141232977D01*
X105909613Y-141237728D01*
X105902114Y-141241771D01*
X105884229Y-141249662D01*
X105869712Y-141254742D01*
X105820991Y-141285355D01*
X105817430Y-141287430D01*
X105764007Y-141316236D01*
X105763996Y-141316243D01*
X105752883Y-141326133D01*
X105736434Y-141338485D01*
X105726519Y-141344715D01*
X105726507Y-141344725D01*
X105683443Y-141387789D01*
X105680820Y-141390264D01*
X105632943Y-141432871D01*
X105632935Y-141432880D01*
X105626502Y-141442067D01*
X105612622Y-141458609D01*
X105606925Y-141464306D01*
X105572707Y-141518761D01*
X105570999Y-141521334D01*
X105532310Y-141576591D01*
X105532307Y-141576597D01*
X105529518Y-141583616D01*
X105519286Y-141603781D01*
X105516949Y-141607501D01*
X105516940Y-141607518D01*
X105508784Y-141630829D01*
X105494164Y-141672610D01*
X105487011Y-141690616D01*
X105467539Y-141739628D01*
X105467538Y-141739632D01*
X105467538Y-141739633D01*
X105467199Y-141741952D01*
X105466975Y-141743479D01*
X105461330Y-141766443D01*
X105461086Y-141767137D01*
X105461086Y-141767138D01*
X105457200Y-141801631D01*
X105453014Y-141838783D01*
X105445303Y-141891425D01*
X105442110Y-141913227D01*
X105442130Y-141913447D01*
X105441946Y-141928244D01*
X87111399Y-141928244D01*
X87108059Y-141926435D01*
X87054249Y-141893459D01*
X86950921Y-141850660D01*
X86936253Y-141838840D01*
X86893442Y-141826440D01*
X86886961Y-141824166D01*
X86832557Y-141801631D01*
X86832555Y-141801630D01*
X86721412Y-141774948D01*
X86704248Y-141765093D01*
X86659470Y-141759656D01*
X86652465Y-141758394D01*
X86612562Y-141748815D01*
X86599222Y-141745613D01*
X86482766Y-141736447D01*
X86463401Y-141729066D01*
X86417882Y-141730901D01*
X86410516Y-141730760D01*
X86360002Y-141726786D01*
X86360000Y-141726786D01*
X86240987Y-141736151D01*
X86219822Y-141731704D01*
X86174833Y-141740889D01*
X86167291Y-141741952D01*
X86147893Y-141743479D01*
X86120778Y-141745613D01*
X86120774Y-141745613D01*
X86120772Y-141745614D01*
X86002113Y-141774101D01*
X85979612Y-141772975D01*
X85936431Y-141789356D01*
X85928908Y-141791676D01*
X85887444Y-141801631D01*
X85706977Y-141876383D01*
X85705315Y-141877014D01*
X85703375Y-141877875D01*
X85665749Y-141893460D01*
X85665744Y-141893463D01*
X85461153Y-142018837D01*
X85461148Y-142018841D01*
X85278682Y-142174682D01*
X85122841Y-142357148D01*
X85122837Y-142357153D01*
X84997459Y-142561751D01*
X84997457Y-142561754D01*
X84905630Y-142783445D01*
X84905630Y-142783446D01*
X84849612Y-143016780D01*
X84830786Y-143256000D01*
X83058500Y-143256000D01*
X83058500Y-139979400D01*
X105266278Y-139979400D01*
X105285515Y-140162429D01*
X105285516Y-140162432D01*
X105342383Y-140337453D01*
X105342386Y-140337459D01*
X105434405Y-140496840D01*
X105440005Y-140503059D01*
X105557549Y-140633606D01*
X105557551Y-140633608D01*
X105706434Y-140741778D01*
X105706435Y-140741778D01*
X105706439Y-140741781D01*
X105817517Y-140791236D01*
X105874561Y-140816634D01*
X105874566Y-140816636D01*
X106054581Y-140854900D01*
X106238619Y-140854900D01*
X106418634Y-140816636D01*
X106586761Y-140741781D01*
X106735650Y-140633607D01*
X106858795Y-140496840D01*
X106950814Y-140337459D01*
X107007685Y-140162429D01*
X107026922Y-139979400D01*
X107007685Y-139796371D01*
X106970661Y-139682423D01*
X106950816Y-139621346D01*
X106950813Y-139621340D01*
X106858795Y-139461960D01*
X106735650Y-139325193D01*
X106735648Y-139325191D01*
X106586765Y-139217021D01*
X106586762Y-139217019D01*
X106586761Y-139217019D01*
X106525712Y-139189838D01*
X106418638Y-139142165D01*
X106418633Y-139142163D01*
X106238619Y-139103900D01*
X106054581Y-139103900D01*
X105874566Y-139142163D01*
X105874561Y-139142165D01*
X105706439Y-139217019D01*
X105706434Y-139217021D01*
X105557551Y-139325191D01*
X105557549Y-139325193D01*
X105434404Y-139461961D01*
X105342386Y-139621340D01*
X105342383Y-139621346D01*
X105293769Y-139770967D01*
X105285515Y-139796371D01*
X105266278Y-139979400D01*
X83058500Y-139979400D01*
X83058500Y-127508002D01*
X107804351Y-127508002D01*
X107823286Y-127676057D01*
X107879144Y-127835691D01*
X107909673Y-127884277D01*
X107928674Y-127951514D01*
X107921722Y-127991204D01*
X107874086Y-128127342D01*
X107855151Y-128295397D01*
X107855151Y-128295402D01*
X107874085Y-128463456D01*
X107929946Y-128623095D01*
X107932107Y-128627583D01*
X107943455Y-128696525D01*
X107925379Y-128747349D01*
X107904545Y-128780506D01*
X107848685Y-128940143D01*
X107829751Y-129108197D01*
X107829751Y-129108202D01*
X107848685Y-129276256D01*
X107904545Y-129435894D01*
X107904547Y-129435897D01*
X107994518Y-129579084D01*
X107994523Y-129579090D01*
X108114111Y-129698678D01*
X108260413Y-129790607D01*
X108306704Y-129842942D01*
X108317351Y-129911995D01*
X108288976Y-129975843D01*
X108260413Y-130000593D01*
X108114111Y-130092521D01*
X107994523Y-130212109D01*
X107994518Y-130212115D01*
X107904547Y-130355302D01*
X107904545Y-130355305D01*
X107848685Y-130514943D01*
X107829751Y-130682997D01*
X107829751Y-130683002D01*
X107848685Y-130851056D01*
X107904545Y-131010694D01*
X107904547Y-131010697D01*
X107994518Y-131153884D01*
X107994523Y-131153890D01*
X108114109Y-131273476D01*
X108114115Y-131273481D01*
X108257302Y-131363452D01*
X108257305Y-131363454D01*
X108257309Y-131363455D01*
X108257310Y-131363456D01*
X108325078Y-131387169D01*
X108416943Y-131419314D01*
X108584997Y-131438249D01*
X108585000Y-131438249D01*
X108585003Y-131438249D01*
X108753056Y-131419314D01*
X108753059Y-131419313D01*
X108912690Y-131363456D01*
X108912692Y-131363454D01*
X108912694Y-131363454D01*
X108912697Y-131363452D01*
X109055884Y-131273481D01*
X109055885Y-131273480D01*
X109055890Y-131273477D01*
X109175477Y-131153890D01*
X109175481Y-131153884D01*
X109265452Y-131010697D01*
X109265454Y-131010694D01*
X109265454Y-131010692D01*
X109265456Y-131010690D01*
X109321313Y-130851059D01*
X109321313Y-130851058D01*
X109321314Y-130851056D01*
X109340249Y-130683002D01*
X109340249Y-130682997D01*
X109321314Y-130514943D01*
X109279834Y-130396401D01*
X109265456Y-130355310D01*
X109265455Y-130355309D01*
X109265454Y-130355305D01*
X109265452Y-130355302D01*
X109175481Y-130212115D01*
X109175476Y-130212109D01*
X109055890Y-130092523D01*
X109055884Y-130092518D01*
X108909587Y-130000593D01*
X108863296Y-129948259D01*
X108852648Y-129879205D01*
X108881023Y-129815357D01*
X108909587Y-129790607D01*
X109055884Y-129698681D01*
X109055888Y-129698678D01*
X109055890Y-129698677D01*
X109175477Y-129579090D01*
X109195797Y-129546751D01*
X109265452Y-129435897D01*
X109265454Y-129435894D01*
X109265454Y-129435892D01*
X109265456Y-129435890D01*
X109321313Y-129276259D01*
X109321313Y-129276258D01*
X109321314Y-129276256D01*
X109340249Y-129108202D01*
X109340249Y-129108197D01*
X109321313Y-128940142D01*
X109299087Y-128876624D01*
X109278347Y-128817350D01*
X109265457Y-128780512D01*
X109263299Y-128776032D01*
X109251940Y-128707092D01*
X109270021Y-128656247D01*
X109290856Y-128623090D01*
X109338649Y-128486505D01*
X109346713Y-128463461D01*
X109346713Y-128463459D01*
X109365649Y-128295402D01*
X109365649Y-128295397D01*
X109346713Y-128127342D01*
X109290857Y-127967712D01*
X109286792Y-127961243D01*
X109260324Y-127919120D01*
X109241324Y-127851886D01*
X109248276Y-127812198D01*
X109295913Y-127676059D01*
X109311871Y-127534430D01*
X109314849Y-127508002D01*
X109314849Y-127507997D01*
X109295914Y-127339943D01*
X109256948Y-127228585D01*
X109240056Y-127180310D01*
X109240055Y-127180309D01*
X109240054Y-127180305D01*
X109240052Y-127180302D01*
X109150081Y-127037115D01*
X109150076Y-127037109D01*
X109030490Y-126917523D01*
X109030484Y-126917518D01*
X108887297Y-126827547D01*
X108887294Y-126827545D01*
X108727656Y-126771685D01*
X108559603Y-126752751D01*
X108559597Y-126752751D01*
X108391543Y-126771685D01*
X108231905Y-126827545D01*
X108231902Y-126827547D01*
X108088715Y-126917518D01*
X108088709Y-126917523D01*
X107969123Y-127037109D01*
X107969118Y-127037115D01*
X107879147Y-127180302D01*
X107879145Y-127180305D01*
X107823285Y-127339943D01*
X107804351Y-127507997D01*
X107804351Y-127508002D01*
X83058500Y-127508002D01*
X83058500Y-114300000D01*
X84830786Y-114300000D01*
X84849612Y-114539219D01*
X84905630Y-114772553D01*
X84905630Y-114772554D01*
X84997457Y-114994245D01*
X84997459Y-114994248D01*
X85122837Y-115198846D01*
X85122841Y-115198851D01*
X85190965Y-115278614D01*
X85278682Y-115381318D01*
X85395481Y-115481073D01*
X85461148Y-115537158D01*
X85461153Y-115537162D01*
X85665744Y-115662536D01*
X85665751Y-115662540D01*
X85703380Y-115678126D01*
X85705319Y-115678988D01*
X85706975Y-115679616D01*
X85801877Y-115718925D01*
X85887447Y-115754369D01*
X85928913Y-115764324D01*
X85936430Y-115766642D01*
X85972514Y-115780330D01*
X86002150Y-115781906D01*
X86120778Y-115810387D01*
X86167303Y-115814048D01*
X86174833Y-115815110D01*
X86176003Y-115815349D01*
X86176005Y-115815349D01*
X86178532Y-115815865D01*
X86178552Y-115815869D01*
X86212673Y-115822835D01*
X86241000Y-115819848D01*
X86360000Y-115829214D01*
X86410523Y-115825237D01*
X86417881Y-115825097D01*
X86456413Y-115826650D01*
X86482774Y-115819551D01*
X86599222Y-115810387D01*
X86652484Y-115797599D01*
X86659467Y-115796342D01*
X86665335Y-115795630D01*
X86665335Y-115795629D01*
X86697615Y-115791711D01*
X86721413Y-115781051D01*
X86832553Y-115754369D01*
X86886991Y-115731819D01*
X86893429Y-115729561D01*
X86901297Y-115727283D01*
X86901301Y-115727280D01*
X86905873Y-115725957D01*
X86906088Y-115725895D01*
X86906094Y-115725893D01*
X86930148Y-115718925D01*
X86950920Y-115705339D01*
X87054249Y-115662540D01*
X87108082Y-115629550D01*
X87113867Y-115626417D01*
X87123240Y-115621970D01*
X87123246Y-115621965D01*
X87127741Y-115619833D01*
X87127767Y-115619819D01*
X87148105Y-115610168D01*
X87165525Y-115594349D01*
X87258849Y-115537160D01*
X87310125Y-115493366D01*
X87315149Y-115489504D01*
X87345955Y-115468240D01*
X87359849Y-115450898D01*
X87441318Y-115381318D01*
X87487952Y-115326716D01*
X87492123Y-115322292D01*
X87502586Y-115312243D01*
X87502590Y-115312237D01*
X87518709Y-115296755D01*
X87529029Y-115278620D01*
X87597160Y-115198849D01*
X87637024Y-115133797D01*
X87640297Y-115128982D01*
X87650165Y-115115851D01*
X87650166Y-115115847D01*
X87652654Y-115112538D01*
X87653154Y-115111872D01*
X87653156Y-115111870D01*
X87653170Y-115111852D01*
X87653175Y-115111856D01*
X87654064Y-115111191D01*
X87656185Y-115107838D01*
X87662000Y-115100099D01*
X87668851Y-115081860D01*
X87699653Y-115031597D01*
X87722540Y-114994249D01*
X87753504Y-114919493D01*
X87755862Y-114914461D01*
X87764042Y-114898874D01*
X87765702Y-114897159D01*
X87768990Y-114889441D01*
X87772219Y-114883286D01*
X87775824Y-114865608D01*
X87814369Y-114772553D01*
X87834361Y-114689280D01*
X87835815Y-114684201D01*
X87840202Y-114671058D01*
X87842260Y-114668101D01*
X87845288Y-114655819D01*
X87845461Y-114655300D01*
X87845522Y-114644383D01*
X87845956Y-114641715D01*
X87846856Y-114637232D01*
X87870387Y-114539222D01*
X87877485Y-114449027D01*
X87878096Y-114443954D01*
X87883170Y-114412735D01*
X87881907Y-114404033D01*
X87882173Y-114390804D01*
X87882349Y-114387217D01*
X87889214Y-114300000D01*
X87882350Y-114212785D01*
X87882173Y-114209187D01*
X87881907Y-114195967D01*
X87883583Y-114189801D01*
X87878096Y-114156042D01*
X87877484Y-114150957D01*
X87870387Y-114060781D01*
X87870387Y-114060780D01*
X87870387Y-114060778D01*
X87846871Y-113962827D01*
X87845980Y-113958408D01*
X87845689Y-113956642D01*
X87845559Y-113955842D01*
X87846537Y-113947924D01*
X87845289Y-113944184D01*
X87842757Y-113933911D01*
X87840199Y-113928930D01*
X87835831Y-113915846D01*
X87834352Y-113910682D01*
X87814371Y-113827456D01*
X87814369Y-113827447D01*
X87782679Y-113750941D01*
X87775826Y-113734395D01*
X87774363Y-113720794D01*
X87768988Y-113710552D01*
X87766249Y-113704123D01*
X87764039Y-113701119D01*
X87755865Y-113685544D01*
X87753489Y-113680469D01*
X87722539Y-113605749D01*
X87668849Y-113518135D01*
X87664992Y-113503879D01*
X87656181Y-113492153D01*
X87654462Y-113489435D01*
X87653220Y-113488215D01*
X87640312Y-113471036D01*
X87637014Y-113466185D01*
X87614339Y-113429185D01*
X87597160Y-113401151D01*
X87529029Y-113321379D01*
X87522558Y-113306939D01*
X87492136Y-113277718D01*
X87487944Y-113273274D01*
X87441318Y-113218682D01*
X87378298Y-113164858D01*
X87359848Y-113149100D01*
X87350635Y-113134987D01*
X87315147Y-113110493D01*
X87310097Y-113106610D01*
X87258851Y-113062841D01*
X87258846Y-113062838D01*
X87165524Y-113005650D01*
X87153545Y-112992410D01*
X87124530Y-112978642D01*
X87113877Y-112973586D01*
X87108059Y-112970435D01*
X87054249Y-112937459D01*
X86950921Y-112894660D01*
X86936253Y-112882840D01*
X86893442Y-112870440D01*
X86886961Y-112868166D01*
X86832557Y-112845631D01*
X86832555Y-112845630D01*
X86721412Y-112818948D01*
X86704248Y-112809093D01*
X86659470Y-112803656D01*
X86652465Y-112802394D01*
X86612562Y-112792815D01*
X86599222Y-112789613D01*
X86599222Y-112789612D01*
X86482766Y-112780447D01*
X86463401Y-112773066D01*
X86417882Y-112774901D01*
X86410516Y-112774760D01*
X86360002Y-112770786D01*
X86360000Y-112770786D01*
X86240987Y-112780151D01*
X86219822Y-112775704D01*
X86174833Y-112784889D01*
X86167291Y-112785952D01*
X86147745Y-112787490D01*
X86120778Y-112789613D01*
X86120774Y-112789613D01*
X86120772Y-112789614D01*
X86002113Y-112818101D01*
X85979612Y-112816975D01*
X85936431Y-112833356D01*
X85928908Y-112835676D01*
X85887444Y-112845631D01*
X85706977Y-112920383D01*
X85705315Y-112921014D01*
X85703375Y-112921875D01*
X85665749Y-112937460D01*
X85665744Y-112937463D01*
X85461153Y-113062837D01*
X85461148Y-113062841D01*
X85278682Y-113218682D01*
X85122841Y-113401148D01*
X85122837Y-113401153D01*
X84997459Y-113605751D01*
X84997457Y-113605754D01*
X84905630Y-113827445D01*
X84905630Y-113827446D01*
X84849612Y-114060780D01*
X84830786Y-114300000D01*
X83058500Y-114300000D01*
X83058500Y-111884500D01*
X83078185Y-111817461D01*
X83130989Y-111771706D01*
X83182500Y-111760500D01*
X118525342Y-111760500D01*
X118592381Y-111780185D01*
G37*
%TD.AperFunction*%
%TD*%
M02*
