%TF.GenerationSoftware,KiCad,Pcbnew,7.0.6*%
%TF.CreationDate,2025-01-03T16:41:25+10:30*%
%TF.ProjectId,Security Panel Mainboard,53656375-7269-4747-9920-50616e656c20,rev?*%
%TF.SameCoordinates,Original*%
%TF.FileFunction,Legend,Top*%
%TF.FilePolarity,Positive*%
%FSLAX46Y46*%
G04 Gerber Fmt 4.6, Leading zero omitted, Abs format (unit mm)*
G04 Created by KiCad (PCBNEW 7.0.6) date 2025-01-03 16:41:25*
%MOMM*%
%LPD*%
G01*
G04 APERTURE LIST*
G04 Aperture macros list*
%AMRoundRect*
0 Rectangle with rounded corners*
0 $1 Rounding radius*
0 $2 $3 $4 $5 $6 $7 $8 $9 X,Y pos of 4 corners*
0 Add a 4 corners polygon primitive as box body*
4,1,4,$2,$3,$4,$5,$6,$7,$8,$9,$2,$3,0*
0 Add four circle primitives for the rounded corners*
1,1,$1+$1,$2,$3*
1,1,$1+$1,$4,$5*
1,1,$1+$1,$6,$7*
1,1,$1+$1,$8,$9*
0 Add four rect primitives between the rounded corners*
20,1,$1+$1,$2,$3,$4,$5,0*
20,1,$1+$1,$4,$5,$6,$7,0*
20,1,$1+$1,$6,$7,$8,$9,0*
20,1,$1+$1,$8,$9,$2,$3,0*%
G04 Aperture macros list end*
%ADD10C,0.250000*%
%ADD11C,0.150000*%
%ADD12C,0.254000*%
%ADD13C,0.200000*%
%ADD14C,0.120000*%
%ADD15C,0.152400*%
%ADD16C,0.100000*%
%ADD17C,0.508000*%
%ADD18C,0.050000*%
%ADD19R,0.650000X1.525000*%
%ADD20RoundRect,0.250000X0.450000X-0.350000X0.450000X0.350000X-0.450000X0.350000X-0.450000X-0.350000X0*%
%ADD21R,0.600000X1.300000*%
%ADD22RoundRect,0.250000X-0.350000X-0.450000X0.350000X-0.450000X0.350000X0.450000X-0.350000X0.450000X0*%
%ADD23R,1.092200X1.193800*%
%ADD24RoundRect,0.250000X0.350000X0.450000X-0.350000X0.450000X-0.350000X-0.450000X0.350000X-0.450000X0*%
%ADD25RoundRect,0.250000X-0.450000X0.350000X-0.450000X-0.350000X0.450000X-0.350000X0.450000X0.350000X0*%
%ADD26R,1.980000X1.980000*%
%ADD27C,1.980000*%
%ADD28R,5.100000X2.150000*%
%ADD29R,1.400000X1.500000*%
%ADD30R,1.454899X0.532600*%
%ADD31R,3.300000X5.050000*%
%ADD32R,1.700000X1.700000*%
%ADD33O,1.700000X1.700000*%
%ADD34R,0.550000X1.500000*%
%ADD35R,1.500000X0.550000*%
%ADD36RoundRect,0.250000X-1.400000X-1.000000X1.400000X-1.000000X1.400000X1.000000X-1.400000X1.000000X0*%
%ADD37C,1.524000*%
%ADD38R,2.000000X4.100000*%
%ADD39R,0.939000X3.493999*%
%ADD40R,10.464800X11.379200*%
%ADD41R,0.354800X1.402099*%
%ADD42R,0.964400X3.493999*%
%ADD43R,10.718800X8.458200*%
%ADD44RoundRect,0.250000X0.337500X0.475000X-0.337500X0.475000X-0.337500X-0.475000X0.337500X-0.475000X0*%
%ADD45C,1.950000*%
%ADD46R,0.761200X1.454899*%
G04 APERTURE END LIST*
D10*
X148877998Y-118624809D02*
X149830379Y-118624809D01*
X148687522Y-119196238D02*
X149354188Y-117196238D01*
X149354188Y-117196238D02*
X150020855Y-119196238D01*
X150687522Y-119196238D02*
X150687522Y-117862904D01*
X150687522Y-118243857D02*
X150782760Y-118053380D01*
X150782760Y-118053380D02*
X150877998Y-117958142D01*
X150877998Y-117958142D02*
X151068474Y-117862904D01*
X151068474Y-117862904D02*
X151258951Y-117862904D01*
X152782760Y-119196238D02*
X152782760Y-117196238D01*
X152782760Y-119101000D02*
X152592284Y-119196238D01*
X152592284Y-119196238D02*
X152211331Y-119196238D01*
X152211331Y-119196238D02*
X152020855Y-119101000D01*
X152020855Y-119101000D02*
X151925617Y-119005761D01*
X151925617Y-119005761D02*
X151830379Y-118815285D01*
X151830379Y-118815285D02*
X151830379Y-118243857D01*
X151830379Y-118243857D02*
X151925617Y-118053380D01*
X151925617Y-118053380D02*
X152020855Y-117958142D01*
X152020855Y-117958142D02*
X152211331Y-117862904D01*
X152211331Y-117862904D02*
X152592284Y-117862904D01*
X152592284Y-117862904D02*
X152782760Y-117958142D01*
X154592284Y-117862904D02*
X154592284Y-119196238D01*
X153735141Y-117862904D02*
X153735141Y-118910523D01*
X153735141Y-118910523D02*
X153830379Y-119101000D01*
X153830379Y-119101000D02*
X154020855Y-119196238D01*
X154020855Y-119196238D02*
X154306570Y-119196238D01*
X154306570Y-119196238D02*
X154497046Y-119101000D01*
X154497046Y-119101000D02*
X154592284Y-119005761D01*
X155544665Y-119196238D02*
X155544665Y-117862904D01*
X155544665Y-117196238D02*
X155449427Y-117291476D01*
X155449427Y-117291476D02*
X155544665Y-117386714D01*
X155544665Y-117386714D02*
X155639903Y-117291476D01*
X155639903Y-117291476D02*
X155544665Y-117196238D01*
X155544665Y-117196238D02*
X155544665Y-117386714D01*
X156497046Y-117862904D02*
X156497046Y-119196238D01*
X156497046Y-118053380D02*
X156592284Y-117958142D01*
X156592284Y-117958142D02*
X156782760Y-117862904D01*
X156782760Y-117862904D02*
X157068475Y-117862904D01*
X157068475Y-117862904D02*
X157258951Y-117958142D01*
X157258951Y-117958142D02*
X157354189Y-118148619D01*
X157354189Y-118148619D02*
X157354189Y-119196238D01*
X158592284Y-119196238D02*
X158401808Y-119101000D01*
X158401808Y-119101000D02*
X158306570Y-119005761D01*
X158306570Y-119005761D02*
X158211332Y-118815285D01*
X158211332Y-118815285D02*
X158211332Y-118243857D01*
X158211332Y-118243857D02*
X158306570Y-118053380D01*
X158306570Y-118053380D02*
X158401808Y-117958142D01*
X158401808Y-117958142D02*
X158592284Y-117862904D01*
X158592284Y-117862904D02*
X158877999Y-117862904D01*
X158877999Y-117862904D02*
X159068475Y-117958142D01*
X159068475Y-117958142D02*
X159163713Y-118053380D01*
X159163713Y-118053380D02*
X159258951Y-118243857D01*
X159258951Y-118243857D02*
X159258951Y-118815285D01*
X159258951Y-118815285D02*
X159163713Y-119005761D01*
X159163713Y-119005761D02*
X159068475Y-119101000D01*
X159068475Y-119101000D02*
X158877999Y-119196238D01*
X158877999Y-119196238D02*
X158592284Y-119196238D01*
X161544666Y-119101000D02*
X161830380Y-119196238D01*
X161830380Y-119196238D02*
X162306571Y-119196238D01*
X162306571Y-119196238D02*
X162497047Y-119101000D01*
X162497047Y-119101000D02*
X162592285Y-119005761D01*
X162592285Y-119005761D02*
X162687523Y-118815285D01*
X162687523Y-118815285D02*
X162687523Y-118624809D01*
X162687523Y-118624809D02*
X162592285Y-118434333D01*
X162592285Y-118434333D02*
X162497047Y-118339095D01*
X162497047Y-118339095D02*
X162306571Y-118243857D01*
X162306571Y-118243857D02*
X161925618Y-118148619D01*
X161925618Y-118148619D02*
X161735142Y-118053380D01*
X161735142Y-118053380D02*
X161639904Y-117958142D01*
X161639904Y-117958142D02*
X161544666Y-117767666D01*
X161544666Y-117767666D02*
X161544666Y-117577190D01*
X161544666Y-117577190D02*
X161639904Y-117386714D01*
X161639904Y-117386714D02*
X161735142Y-117291476D01*
X161735142Y-117291476D02*
X161925618Y-117196238D01*
X161925618Y-117196238D02*
X162401809Y-117196238D01*
X162401809Y-117196238D02*
X162687523Y-117291476D01*
X164306571Y-119101000D02*
X164116095Y-119196238D01*
X164116095Y-119196238D02*
X163735142Y-119196238D01*
X163735142Y-119196238D02*
X163544666Y-119101000D01*
X163544666Y-119101000D02*
X163449428Y-118910523D01*
X163449428Y-118910523D02*
X163449428Y-118148619D01*
X163449428Y-118148619D02*
X163544666Y-117958142D01*
X163544666Y-117958142D02*
X163735142Y-117862904D01*
X163735142Y-117862904D02*
X164116095Y-117862904D01*
X164116095Y-117862904D02*
X164306571Y-117958142D01*
X164306571Y-117958142D02*
X164401809Y-118148619D01*
X164401809Y-118148619D02*
X164401809Y-118339095D01*
X164401809Y-118339095D02*
X163449428Y-118529571D01*
X166116095Y-119101000D02*
X165925619Y-119196238D01*
X165925619Y-119196238D02*
X165544666Y-119196238D01*
X165544666Y-119196238D02*
X165354190Y-119101000D01*
X165354190Y-119101000D02*
X165258952Y-119005761D01*
X165258952Y-119005761D02*
X165163714Y-118815285D01*
X165163714Y-118815285D02*
X165163714Y-118243857D01*
X165163714Y-118243857D02*
X165258952Y-118053380D01*
X165258952Y-118053380D02*
X165354190Y-117958142D01*
X165354190Y-117958142D02*
X165544666Y-117862904D01*
X165544666Y-117862904D02*
X165925619Y-117862904D01*
X165925619Y-117862904D02*
X166116095Y-117958142D01*
X167830381Y-117862904D02*
X167830381Y-119196238D01*
X166973238Y-117862904D02*
X166973238Y-118910523D01*
X166973238Y-118910523D02*
X167068476Y-119101000D01*
X167068476Y-119101000D02*
X167258952Y-119196238D01*
X167258952Y-119196238D02*
X167544667Y-119196238D01*
X167544667Y-119196238D02*
X167735143Y-119101000D01*
X167735143Y-119101000D02*
X167830381Y-119005761D01*
X168782762Y-119196238D02*
X168782762Y-117862904D01*
X168782762Y-118243857D02*
X168878000Y-118053380D01*
X168878000Y-118053380D02*
X168973238Y-117958142D01*
X168973238Y-117958142D02*
X169163714Y-117862904D01*
X169163714Y-117862904D02*
X169354191Y-117862904D01*
X170020857Y-119196238D02*
X170020857Y-117862904D01*
X170020857Y-117196238D02*
X169925619Y-117291476D01*
X169925619Y-117291476D02*
X170020857Y-117386714D01*
X170020857Y-117386714D02*
X170116095Y-117291476D01*
X170116095Y-117291476D02*
X170020857Y-117196238D01*
X170020857Y-117196238D02*
X170020857Y-117386714D01*
X170687524Y-117862904D02*
X171449428Y-117862904D01*
X170973238Y-117196238D02*
X170973238Y-118910523D01*
X170973238Y-118910523D02*
X171068476Y-119101000D01*
X171068476Y-119101000D02*
X171258952Y-119196238D01*
X171258952Y-119196238D02*
X171449428Y-119196238D01*
X171925619Y-117862904D02*
X172401809Y-119196238D01*
X172878000Y-117862904D02*
X172401809Y-119196238D01*
X172401809Y-119196238D02*
X172211333Y-119672428D01*
X172211333Y-119672428D02*
X172116095Y-119767666D01*
X172116095Y-119767666D02*
X171925619Y-119862904D01*
X175068477Y-119101000D02*
X175354191Y-119196238D01*
X175354191Y-119196238D02*
X175830382Y-119196238D01*
X175830382Y-119196238D02*
X176020858Y-119101000D01*
X176020858Y-119101000D02*
X176116096Y-119005761D01*
X176116096Y-119005761D02*
X176211334Y-118815285D01*
X176211334Y-118815285D02*
X176211334Y-118624809D01*
X176211334Y-118624809D02*
X176116096Y-118434333D01*
X176116096Y-118434333D02*
X176020858Y-118339095D01*
X176020858Y-118339095D02*
X175830382Y-118243857D01*
X175830382Y-118243857D02*
X175449429Y-118148619D01*
X175449429Y-118148619D02*
X175258953Y-118053380D01*
X175258953Y-118053380D02*
X175163715Y-117958142D01*
X175163715Y-117958142D02*
X175068477Y-117767666D01*
X175068477Y-117767666D02*
X175068477Y-117577190D01*
X175068477Y-117577190D02*
X175163715Y-117386714D01*
X175163715Y-117386714D02*
X175258953Y-117291476D01*
X175258953Y-117291476D02*
X175449429Y-117196238D01*
X175449429Y-117196238D02*
X175925620Y-117196238D01*
X175925620Y-117196238D02*
X176211334Y-117291476D01*
X176878001Y-117862904D02*
X177354191Y-119196238D01*
X177830382Y-117862904D02*
X177354191Y-119196238D01*
X177354191Y-119196238D02*
X177163715Y-119672428D01*
X177163715Y-119672428D02*
X177068477Y-119767666D01*
X177068477Y-119767666D02*
X176878001Y-119862904D01*
X178497049Y-119101000D02*
X178687525Y-119196238D01*
X178687525Y-119196238D02*
X179068477Y-119196238D01*
X179068477Y-119196238D02*
X179258954Y-119101000D01*
X179258954Y-119101000D02*
X179354192Y-118910523D01*
X179354192Y-118910523D02*
X179354192Y-118815285D01*
X179354192Y-118815285D02*
X179258954Y-118624809D01*
X179258954Y-118624809D02*
X179068477Y-118529571D01*
X179068477Y-118529571D02*
X178782763Y-118529571D01*
X178782763Y-118529571D02*
X178592287Y-118434333D01*
X178592287Y-118434333D02*
X178497049Y-118243857D01*
X178497049Y-118243857D02*
X178497049Y-118148619D01*
X178497049Y-118148619D02*
X178592287Y-117958142D01*
X178592287Y-117958142D02*
X178782763Y-117862904D01*
X178782763Y-117862904D02*
X179068477Y-117862904D01*
X179068477Y-117862904D02*
X179258954Y-117958142D01*
X179925621Y-117862904D02*
X180687525Y-117862904D01*
X180211335Y-117196238D02*
X180211335Y-118910523D01*
X180211335Y-118910523D02*
X180306573Y-119101000D01*
X180306573Y-119101000D02*
X180497049Y-119196238D01*
X180497049Y-119196238D02*
X180687525Y-119196238D01*
X182116097Y-119101000D02*
X181925621Y-119196238D01*
X181925621Y-119196238D02*
X181544668Y-119196238D01*
X181544668Y-119196238D02*
X181354192Y-119101000D01*
X181354192Y-119101000D02*
X181258954Y-118910523D01*
X181258954Y-118910523D02*
X181258954Y-118148619D01*
X181258954Y-118148619D02*
X181354192Y-117958142D01*
X181354192Y-117958142D02*
X181544668Y-117862904D01*
X181544668Y-117862904D02*
X181925621Y-117862904D01*
X181925621Y-117862904D02*
X182116097Y-117958142D01*
X182116097Y-117958142D02*
X182211335Y-118148619D01*
X182211335Y-118148619D02*
X182211335Y-118339095D01*
X182211335Y-118339095D02*
X181258954Y-118529571D01*
X183068478Y-119196238D02*
X183068478Y-117862904D01*
X183068478Y-118053380D02*
X183163716Y-117958142D01*
X183163716Y-117958142D02*
X183354192Y-117862904D01*
X183354192Y-117862904D02*
X183639907Y-117862904D01*
X183639907Y-117862904D02*
X183830383Y-117958142D01*
X183830383Y-117958142D02*
X183925621Y-118148619D01*
X183925621Y-118148619D02*
X183925621Y-119196238D01*
X183925621Y-118148619D02*
X184020859Y-117958142D01*
X184020859Y-117958142D02*
X184211335Y-117862904D01*
X184211335Y-117862904D02*
X184497049Y-117862904D01*
X184497049Y-117862904D02*
X184687526Y-117958142D01*
X184687526Y-117958142D02*
X184782764Y-118148619D01*
X184782764Y-118148619D02*
X184782764Y-119196238D01*
X157116094Y-122416238D02*
X157116094Y-120416238D01*
X157116094Y-120416238D02*
X157782761Y-121844809D01*
X157782761Y-121844809D02*
X158449427Y-120416238D01*
X158449427Y-120416238D02*
X158449427Y-122416238D01*
X160258951Y-122416238D02*
X160258951Y-121368619D01*
X160258951Y-121368619D02*
X160163713Y-121178142D01*
X160163713Y-121178142D02*
X159973237Y-121082904D01*
X159973237Y-121082904D02*
X159592284Y-121082904D01*
X159592284Y-121082904D02*
X159401808Y-121178142D01*
X160258951Y-122321000D02*
X160068475Y-122416238D01*
X160068475Y-122416238D02*
X159592284Y-122416238D01*
X159592284Y-122416238D02*
X159401808Y-122321000D01*
X159401808Y-122321000D02*
X159306570Y-122130523D01*
X159306570Y-122130523D02*
X159306570Y-121940047D01*
X159306570Y-121940047D02*
X159401808Y-121749571D01*
X159401808Y-121749571D02*
X159592284Y-121654333D01*
X159592284Y-121654333D02*
X160068475Y-121654333D01*
X160068475Y-121654333D02*
X160258951Y-121559095D01*
X161211332Y-122416238D02*
X161211332Y-121082904D01*
X161211332Y-120416238D02*
X161116094Y-120511476D01*
X161116094Y-120511476D02*
X161211332Y-120606714D01*
X161211332Y-120606714D02*
X161306570Y-120511476D01*
X161306570Y-120511476D02*
X161211332Y-120416238D01*
X161211332Y-120416238D02*
X161211332Y-120606714D01*
X162163713Y-121082904D02*
X162163713Y-122416238D01*
X162163713Y-121273380D02*
X162258951Y-121178142D01*
X162258951Y-121178142D02*
X162449427Y-121082904D01*
X162449427Y-121082904D02*
X162735142Y-121082904D01*
X162735142Y-121082904D02*
X162925618Y-121178142D01*
X162925618Y-121178142D02*
X163020856Y-121368619D01*
X163020856Y-121368619D02*
X163020856Y-122416238D01*
X163973237Y-122416238D02*
X163973237Y-120416238D01*
X163973237Y-121178142D02*
X164163713Y-121082904D01*
X164163713Y-121082904D02*
X164544666Y-121082904D01*
X164544666Y-121082904D02*
X164735142Y-121178142D01*
X164735142Y-121178142D02*
X164830380Y-121273380D01*
X164830380Y-121273380D02*
X164925618Y-121463857D01*
X164925618Y-121463857D02*
X164925618Y-122035285D01*
X164925618Y-122035285D02*
X164830380Y-122225761D01*
X164830380Y-122225761D02*
X164735142Y-122321000D01*
X164735142Y-122321000D02*
X164544666Y-122416238D01*
X164544666Y-122416238D02*
X164163713Y-122416238D01*
X164163713Y-122416238D02*
X163973237Y-122321000D01*
X166068475Y-122416238D02*
X165877999Y-122321000D01*
X165877999Y-122321000D02*
X165782761Y-122225761D01*
X165782761Y-122225761D02*
X165687523Y-122035285D01*
X165687523Y-122035285D02*
X165687523Y-121463857D01*
X165687523Y-121463857D02*
X165782761Y-121273380D01*
X165782761Y-121273380D02*
X165877999Y-121178142D01*
X165877999Y-121178142D02*
X166068475Y-121082904D01*
X166068475Y-121082904D02*
X166354190Y-121082904D01*
X166354190Y-121082904D02*
X166544666Y-121178142D01*
X166544666Y-121178142D02*
X166639904Y-121273380D01*
X166639904Y-121273380D02*
X166735142Y-121463857D01*
X166735142Y-121463857D02*
X166735142Y-122035285D01*
X166735142Y-122035285D02*
X166639904Y-122225761D01*
X166639904Y-122225761D02*
X166544666Y-122321000D01*
X166544666Y-122321000D02*
X166354190Y-122416238D01*
X166354190Y-122416238D02*
X166068475Y-122416238D01*
X168449428Y-122416238D02*
X168449428Y-121368619D01*
X168449428Y-121368619D02*
X168354190Y-121178142D01*
X168354190Y-121178142D02*
X168163714Y-121082904D01*
X168163714Y-121082904D02*
X167782761Y-121082904D01*
X167782761Y-121082904D02*
X167592285Y-121178142D01*
X168449428Y-122321000D02*
X168258952Y-122416238D01*
X168258952Y-122416238D02*
X167782761Y-122416238D01*
X167782761Y-122416238D02*
X167592285Y-122321000D01*
X167592285Y-122321000D02*
X167497047Y-122130523D01*
X167497047Y-122130523D02*
X167497047Y-121940047D01*
X167497047Y-121940047D02*
X167592285Y-121749571D01*
X167592285Y-121749571D02*
X167782761Y-121654333D01*
X167782761Y-121654333D02*
X168258952Y-121654333D01*
X168258952Y-121654333D02*
X168449428Y-121559095D01*
X169401809Y-122416238D02*
X169401809Y-121082904D01*
X169401809Y-121463857D02*
X169497047Y-121273380D01*
X169497047Y-121273380D02*
X169592285Y-121178142D01*
X169592285Y-121178142D02*
X169782761Y-121082904D01*
X169782761Y-121082904D02*
X169973238Y-121082904D01*
X171497047Y-122416238D02*
X171497047Y-120416238D01*
X171497047Y-122321000D02*
X171306571Y-122416238D01*
X171306571Y-122416238D02*
X170925618Y-122416238D01*
X170925618Y-122416238D02*
X170735142Y-122321000D01*
X170735142Y-122321000D02*
X170639904Y-122225761D01*
X170639904Y-122225761D02*
X170544666Y-122035285D01*
X170544666Y-122035285D02*
X170544666Y-121463857D01*
X170544666Y-121463857D02*
X170639904Y-121273380D01*
X170639904Y-121273380D02*
X170735142Y-121178142D01*
X170735142Y-121178142D02*
X170925618Y-121082904D01*
X170925618Y-121082904D02*
X171306571Y-121082904D01*
X171306571Y-121082904D02*
X171497047Y-121178142D01*
X173687524Y-120416238D02*
X174354190Y-122416238D01*
X174354190Y-122416238D02*
X175020857Y-120416238D01*
X176735143Y-122416238D02*
X175592286Y-122416238D01*
X176163714Y-122416238D02*
X176163714Y-120416238D01*
X176163714Y-120416238D02*
X175973238Y-120701952D01*
X175973238Y-120701952D02*
X175782762Y-120892428D01*
X175782762Y-120892428D02*
X175592286Y-120987666D01*
X151068474Y-128856238D02*
X151068474Y-126856238D01*
X151068474Y-126856238D02*
X151544664Y-126856238D01*
X151544664Y-126856238D02*
X151830379Y-126951476D01*
X151830379Y-126951476D02*
X152020855Y-127141952D01*
X152020855Y-127141952D02*
X152116093Y-127332428D01*
X152116093Y-127332428D02*
X152211331Y-127713380D01*
X152211331Y-127713380D02*
X152211331Y-127999095D01*
X152211331Y-127999095D02*
X152116093Y-128380047D01*
X152116093Y-128380047D02*
X152020855Y-128570523D01*
X152020855Y-128570523D02*
X151830379Y-128761000D01*
X151830379Y-128761000D02*
X151544664Y-128856238D01*
X151544664Y-128856238D02*
X151068474Y-128856238D01*
X153830379Y-128761000D02*
X153639903Y-128856238D01*
X153639903Y-128856238D02*
X153258950Y-128856238D01*
X153258950Y-128856238D02*
X153068474Y-128761000D01*
X153068474Y-128761000D02*
X152973236Y-128570523D01*
X152973236Y-128570523D02*
X152973236Y-127808619D01*
X152973236Y-127808619D02*
X153068474Y-127618142D01*
X153068474Y-127618142D02*
X153258950Y-127522904D01*
X153258950Y-127522904D02*
X153639903Y-127522904D01*
X153639903Y-127522904D02*
X153830379Y-127618142D01*
X153830379Y-127618142D02*
X153925617Y-127808619D01*
X153925617Y-127808619D02*
X153925617Y-127999095D01*
X153925617Y-127999095D02*
X152973236Y-128189571D01*
X154687522Y-128761000D02*
X154877998Y-128856238D01*
X154877998Y-128856238D02*
X155258950Y-128856238D01*
X155258950Y-128856238D02*
X155449427Y-128761000D01*
X155449427Y-128761000D02*
X155544665Y-128570523D01*
X155544665Y-128570523D02*
X155544665Y-128475285D01*
X155544665Y-128475285D02*
X155449427Y-128284809D01*
X155449427Y-128284809D02*
X155258950Y-128189571D01*
X155258950Y-128189571D02*
X154973236Y-128189571D01*
X154973236Y-128189571D02*
X154782760Y-128094333D01*
X154782760Y-128094333D02*
X154687522Y-127903857D01*
X154687522Y-127903857D02*
X154687522Y-127808619D01*
X154687522Y-127808619D02*
X154782760Y-127618142D01*
X154782760Y-127618142D02*
X154973236Y-127522904D01*
X154973236Y-127522904D02*
X155258950Y-127522904D01*
X155258950Y-127522904D02*
X155449427Y-127618142D01*
X156401808Y-128856238D02*
X156401808Y-127522904D01*
X156401808Y-126856238D02*
X156306570Y-126951476D01*
X156306570Y-126951476D02*
X156401808Y-127046714D01*
X156401808Y-127046714D02*
X156497046Y-126951476D01*
X156497046Y-126951476D02*
X156401808Y-126856238D01*
X156401808Y-126856238D02*
X156401808Y-127046714D01*
X158211332Y-127522904D02*
X158211332Y-129141952D01*
X158211332Y-129141952D02*
X158116094Y-129332428D01*
X158116094Y-129332428D02*
X158020856Y-129427666D01*
X158020856Y-129427666D02*
X157830379Y-129522904D01*
X157830379Y-129522904D02*
X157544665Y-129522904D01*
X157544665Y-129522904D02*
X157354189Y-129427666D01*
X158211332Y-128761000D02*
X158020856Y-128856238D01*
X158020856Y-128856238D02*
X157639903Y-128856238D01*
X157639903Y-128856238D02*
X157449427Y-128761000D01*
X157449427Y-128761000D02*
X157354189Y-128665761D01*
X157354189Y-128665761D02*
X157258951Y-128475285D01*
X157258951Y-128475285D02*
X157258951Y-127903857D01*
X157258951Y-127903857D02*
X157354189Y-127713380D01*
X157354189Y-127713380D02*
X157449427Y-127618142D01*
X157449427Y-127618142D02*
X157639903Y-127522904D01*
X157639903Y-127522904D02*
X158020856Y-127522904D01*
X158020856Y-127522904D02*
X158211332Y-127618142D01*
X159163713Y-127522904D02*
X159163713Y-128856238D01*
X159163713Y-127713380D02*
X159258951Y-127618142D01*
X159258951Y-127618142D02*
X159449427Y-127522904D01*
X159449427Y-127522904D02*
X159735142Y-127522904D01*
X159735142Y-127522904D02*
X159925618Y-127618142D01*
X159925618Y-127618142D02*
X160020856Y-127808619D01*
X160020856Y-127808619D02*
X160020856Y-128856238D01*
X161735142Y-128761000D02*
X161544666Y-128856238D01*
X161544666Y-128856238D02*
X161163713Y-128856238D01*
X161163713Y-128856238D02*
X160973237Y-128761000D01*
X160973237Y-128761000D02*
X160877999Y-128570523D01*
X160877999Y-128570523D02*
X160877999Y-127808619D01*
X160877999Y-127808619D02*
X160973237Y-127618142D01*
X160973237Y-127618142D02*
X161163713Y-127522904D01*
X161163713Y-127522904D02*
X161544666Y-127522904D01*
X161544666Y-127522904D02*
X161735142Y-127618142D01*
X161735142Y-127618142D02*
X161830380Y-127808619D01*
X161830380Y-127808619D02*
X161830380Y-127999095D01*
X161830380Y-127999095D02*
X160877999Y-128189571D01*
X163544666Y-128856238D02*
X163544666Y-126856238D01*
X163544666Y-128761000D02*
X163354190Y-128856238D01*
X163354190Y-128856238D02*
X162973237Y-128856238D01*
X162973237Y-128856238D02*
X162782761Y-128761000D01*
X162782761Y-128761000D02*
X162687523Y-128665761D01*
X162687523Y-128665761D02*
X162592285Y-128475285D01*
X162592285Y-128475285D02*
X162592285Y-127903857D01*
X162592285Y-127903857D02*
X162687523Y-127713380D01*
X162687523Y-127713380D02*
X162782761Y-127618142D01*
X162782761Y-127618142D02*
X162973237Y-127522904D01*
X162973237Y-127522904D02*
X163354190Y-127522904D01*
X163354190Y-127522904D02*
X163544666Y-127618142D01*
X166020857Y-128856238D02*
X166020857Y-126856238D01*
X166020857Y-127618142D02*
X166211333Y-127522904D01*
X166211333Y-127522904D02*
X166592286Y-127522904D01*
X166592286Y-127522904D02*
X166782762Y-127618142D01*
X166782762Y-127618142D02*
X166878000Y-127713380D01*
X166878000Y-127713380D02*
X166973238Y-127903857D01*
X166973238Y-127903857D02*
X166973238Y-128475285D01*
X166973238Y-128475285D02*
X166878000Y-128665761D01*
X166878000Y-128665761D02*
X166782762Y-128761000D01*
X166782762Y-128761000D02*
X166592286Y-128856238D01*
X166592286Y-128856238D02*
X166211333Y-128856238D01*
X166211333Y-128856238D02*
X166020857Y-128761000D01*
X167639905Y-127522904D02*
X168116095Y-128856238D01*
X168592286Y-127522904D02*
X168116095Y-128856238D01*
X168116095Y-128856238D02*
X167925619Y-129332428D01*
X167925619Y-129332428D02*
X167830381Y-129427666D01*
X167830381Y-129427666D02*
X167639905Y-129522904D01*
X172020858Y-128665761D02*
X171925620Y-128761000D01*
X171925620Y-128761000D02*
X171639906Y-128856238D01*
X171639906Y-128856238D02*
X171449430Y-128856238D01*
X171449430Y-128856238D02*
X171163715Y-128761000D01*
X171163715Y-128761000D02*
X170973239Y-128570523D01*
X170973239Y-128570523D02*
X170878001Y-128380047D01*
X170878001Y-128380047D02*
X170782763Y-127999095D01*
X170782763Y-127999095D02*
X170782763Y-127713380D01*
X170782763Y-127713380D02*
X170878001Y-127332428D01*
X170878001Y-127332428D02*
X170973239Y-127141952D01*
X170973239Y-127141952D02*
X171163715Y-126951476D01*
X171163715Y-126951476D02*
X171449430Y-126856238D01*
X171449430Y-126856238D02*
X171639906Y-126856238D01*
X171639906Y-126856238D02*
X171925620Y-126951476D01*
X171925620Y-126951476D02*
X172020858Y-127046714D01*
X173639906Y-128761000D02*
X173449430Y-128856238D01*
X173449430Y-128856238D02*
X173068477Y-128856238D01*
X173068477Y-128856238D02*
X172878001Y-128761000D01*
X172878001Y-128761000D02*
X172782763Y-128570523D01*
X172782763Y-128570523D02*
X172782763Y-127808619D01*
X172782763Y-127808619D02*
X172878001Y-127618142D01*
X172878001Y-127618142D02*
X173068477Y-127522904D01*
X173068477Y-127522904D02*
X173449430Y-127522904D01*
X173449430Y-127522904D02*
X173639906Y-127618142D01*
X173639906Y-127618142D02*
X173735144Y-127808619D01*
X173735144Y-127808619D02*
X173735144Y-127999095D01*
X173735144Y-127999095D02*
X172782763Y-128189571D01*
X174878001Y-128856238D02*
X174687525Y-128761000D01*
X174687525Y-128761000D02*
X174592287Y-128570523D01*
X174592287Y-128570523D02*
X174592287Y-126856238D01*
X176497049Y-128761000D02*
X176306573Y-128856238D01*
X176306573Y-128856238D02*
X175925620Y-128856238D01*
X175925620Y-128856238D02*
X175735144Y-128761000D01*
X175735144Y-128761000D02*
X175639906Y-128665761D01*
X175639906Y-128665761D02*
X175544668Y-128475285D01*
X175544668Y-128475285D02*
X175544668Y-127903857D01*
X175544668Y-127903857D02*
X175639906Y-127713380D01*
X175639906Y-127713380D02*
X175735144Y-127618142D01*
X175735144Y-127618142D02*
X175925620Y-127522904D01*
X175925620Y-127522904D02*
X176306573Y-127522904D01*
X176306573Y-127522904D02*
X176497049Y-127618142D01*
X177354192Y-128856238D02*
X177354192Y-127522904D01*
X177354192Y-126856238D02*
X177258954Y-126951476D01*
X177258954Y-126951476D02*
X177354192Y-127046714D01*
X177354192Y-127046714D02*
X177449430Y-126951476D01*
X177449430Y-126951476D02*
X177354192Y-126856238D01*
X177354192Y-126856238D02*
X177354192Y-127046714D01*
X179163716Y-127522904D02*
X179163716Y-128856238D01*
X178306573Y-127522904D02*
X178306573Y-128570523D01*
X178306573Y-128570523D02*
X178401811Y-128761000D01*
X178401811Y-128761000D02*
X178592287Y-128856238D01*
X178592287Y-128856238D02*
X178878002Y-128856238D01*
X178878002Y-128856238D02*
X179068478Y-128761000D01*
X179068478Y-128761000D02*
X179163716Y-128665761D01*
X180020859Y-128761000D02*
X180211335Y-128856238D01*
X180211335Y-128856238D02*
X180592287Y-128856238D01*
X180592287Y-128856238D02*
X180782764Y-128761000D01*
X180782764Y-128761000D02*
X180878002Y-128570523D01*
X180878002Y-128570523D02*
X180878002Y-128475285D01*
X180878002Y-128475285D02*
X180782764Y-128284809D01*
X180782764Y-128284809D02*
X180592287Y-128189571D01*
X180592287Y-128189571D02*
X180306573Y-128189571D01*
X180306573Y-128189571D02*
X180116097Y-128094333D01*
X180116097Y-128094333D02*
X180020859Y-127903857D01*
X180020859Y-127903857D02*
X180020859Y-127808619D01*
X180020859Y-127808619D02*
X180116097Y-127618142D01*
X180116097Y-127618142D02*
X180306573Y-127522904D01*
X180306573Y-127522904D02*
X180592287Y-127522904D01*
X180592287Y-127522904D02*
X180782764Y-127618142D01*
X182782764Y-128856238D02*
X181639907Y-128856238D01*
X182211335Y-128856238D02*
X182211335Y-126856238D01*
X182211335Y-126856238D02*
X182020859Y-127141952D01*
X182020859Y-127141952D02*
X181830383Y-127332428D01*
X181830383Y-127332428D02*
X181639907Y-127427666D01*
X148020855Y-132076238D02*
X148020855Y-130076238D01*
X148020855Y-130076238D02*
X148782760Y-130076238D01*
X148782760Y-130076238D02*
X148973236Y-130171476D01*
X148973236Y-130171476D02*
X149068474Y-130266714D01*
X149068474Y-130266714D02*
X149163712Y-130457190D01*
X149163712Y-130457190D02*
X149163712Y-130742904D01*
X149163712Y-130742904D02*
X149068474Y-130933380D01*
X149068474Y-130933380D02*
X148973236Y-131028619D01*
X148973236Y-131028619D02*
X148782760Y-131123857D01*
X148782760Y-131123857D02*
X148020855Y-131123857D01*
X150877998Y-132076238D02*
X150877998Y-131028619D01*
X150877998Y-131028619D02*
X150782760Y-130838142D01*
X150782760Y-130838142D02*
X150592284Y-130742904D01*
X150592284Y-130742904D02*
X150211331Y-130742904D01*
X150211331Y-130742904D02*
X150020855Y-130838142D01*
X150877998Y-131981000D02*
X150687522Y-132076238D01*
X150687522Y-132076238D02*
X150211331Y-132076238D01*
X150211331Y-132076238D02*
X150020855Y-131981000D01*
X150020855Y-131981000D02*
X149925617Y-131790523D01*
X149925617Y-131790523D02*
X149925617Y-131600047D01*
X149925617Y-131600047D02*
X150020855Y-131409571D01*
X150020855Y-131409571D02*
X150211331Y-131314333D01*
X150211331Y-131314333D02*
X150687522Y-131314333D01*
X150687522Y-131314333D02*
X150877998Y-131219095D01*
X152687522Y-130742904D02*
X152687522Y-132076238D01*
X151830379Y-130742904D02*
X151830379Y-131790523D01*
X151830379Y-131790523D02*
X151925617Y-131981000D01*
X151925617Y-131981000D02*
X152116093Y-132076238D01*
X152116093Y-132076238D02*
X152401808Y-132076238D01*
X152401808Y-132076238D02*
X152592284Y-131981000D01*
X152592284Y-131981000D02*
X152687522Y-131885761D01*
X153925617Y-132076238D02*
X153735141Y-131981000D01*
X153735141Y-131981000D02*
X153639903Y-131790523D01*
X153639903Y-131790523D02*
X153639903Y-130076238D01*
X154782760Y-130076238D02*
X154592284Y-130457190D01*
X155544665Y-131981000D02*
X155735141Y-132076238D01*
X155735141Y-132076238D02*
X156116093Y-132076238D01*
X156116093Y-132076238D02*
X156306570Y-131981000D01*
X156306570Y-131981000D02*
X156401808Y-131790523D01*
X156401808Y-131790523D02*
X156401808Y-131695285D01*
X156401808Y-131695285D02*
X156306570Y-131504809D01*
X156306570Y-131504809D02*
X156116093Y-131409571D01*
X156116093Y-131409571D02*
X155830379Y-131409571D01*
X155830379Y-131409571D02*
X155639903Y-131314333D01*
X155639903Y-131314333D02*
X155544665Y-131123857D01*
X155544665Y-131123857D02*
X155544665Y-131028619D01*
X155544665Y-131028619D02*
X155639903Y-130838142D01*
X155639903Y-130838142D02*
X155830379Y-130742904D01*
X155830379Y-130742904D02*
X156116093Y-130742904D01*
X156116093Y-130742904D02*
X156306570Y-130838142D01*
X158782761Y-131028619D02*
X159449428Y-131028619D01*
X159735142Y-132076238D02*
X158782761Y-132076238D01*
X158782761Y-132076238D02*
X158782761Y-130076238D01*
X158782761Y-130076238D02*
X159735142Y-130076238D01*
X160592285Y-130742904D02*
X160592285Y-132076238D01*
X160592285Y-130933380D02*
X160687523Y-130838142D01*
X160687523Y-130838142D02*
X160877999Y-130742904D01*
X160877999Y-130742904D02*
X161163714Y-130742904D01*
X161163714Y-130742904D02*
X161354190Y-130838142D01*
X161354190Y-130838142D02*
X161449428Y-131028619D01*
X161449428Y-131028619D02*
X161449428Y-132076238D01*
X163258952Y-130742904D02*
X163258952Y-132361952D01*
X163258952Y-132361952D02*
X163163714Y-132552428D01*
X163163714Y-132552428D02*
X163068476Y-132647666D01*
X163068476Y-132647666D02*
X162877999Y-132742904D01*
X162877999Y-132742904D02*
X162592285Y-132742904D01*
X162592285Y-132742904D02*
X162401809Y-132647666D01*
X163258952Y-131981000D02*
X163068476Y-132076238D01*
X163068476Y-132076238D02*
X162687523Y-132076238D01*
X162687523Y-132076238D02*
X162497047Y-131981000D01*
X162497047Y-131981000D02*
X162401809Y-131885761D01*
X162401809Y-131885761D02*
X162306571Y-131695285D01*
X162306571Y-131695285D02*
X162306571Y-131123857D01*
X162306571Y-131123857D02*
X162401809Y-130933380D01*
X162401809Y-130933380D02*
X162497047Y-130838142D01*
X162497047Y-130838142D02*
X162687523Y-130742904D01*
X162687523Y-130742904D02*
X163068476Y-130742904D01*
X163068476Y-130742904D02*
X163258952Y-130838142D01*
X164211333Y-132076238D02*
X164211333Y-130742904D01*
X164211333Y-130076238D02*
X164116095Y-130171476D01*
X164116095Y-130171476D02*
X164211333Y-130266714D01*
X164211333Y-130266714D02*
X164306571Y-130171476D01*
X164306571Y-130171476D02*
X164211333Y-130076238D01*
X164211333Y-130076238D02*
X164211333Y-130266714D01*
X165163714Y-130742904D02*
X165163714Y-132076238D01*
X165163714Y-130933380D02*
X165258952Y-130838142D01*
X165258952Y-130838142D02*
X165449428Y-130742904D01*
X165449428Y-130742904D02*
X165735143Y-130742904D01*
X165735143Y-130742904D02*
X165925619Y-130838142D01*
X165925619Y-130838142D02*
X166020857Y-131028619D01*
X166020857Y-131028619D02*
X166020857Y-132076238D01*
X167735143Y-131981000D02*
X167544667Y-132076238D01*
X167544667Y-132076238D02*
X167163714Y-132076238D01*
X167163714Y-132076238D02*
X166973238Y-131981000D01*
X166973238Y-131981000D02*
X166878000Y-131790523D01*
X166878000Y-131790523D02*
X166878000Y-131028619D01*
X166878000Y-131028619D02*
X166973238Y-130838142D01*
X166973238Y-130838142D02*
X167163714Y-130742904D01*
X167163714Y-130742904D02*
X167544667Y-130742904D01*
X167544667Y-130742904D02*
X167735143Y-130838142D01*
X167735143Y-130838142D02*
X167830381Y-131028619D01*
X167830381Y-131028619D02*
X167830381Y-131219095D01*
X167830381Y-131219095D02*
X166878000Y-131409571D01*
X169449429Y-131981000D02*
X169258953Y-132076238D01*
X169258953Y-132076238D02*
X168878000Y-132076238D01*
X168878000Y-132076238D02*
X168687524Y-131981000D01*
X168687524Y-131981000D02*
X168592286Y-131790523D01*
X168592286Y-131790523D02*
X168592286Y-131028619D01*
X168592286Y-131028619D02*
X168687524Y-130838142D01*
X168687524Y-130838142D02*
X168878000Y-130742904D01*
X168878000Y-130742904D02*
X169258953Y-130742904D01*
X169258953Y-130742904D02*
X169449429Y-130838142D01*
X169449429Y-130838142D02*
X169544667Y-131028619D01*
X169544667Y-131028619D02*
X169544667Y-131219095D01*
X169544667Y-131219095D02*
X168592286Y-131409571D01*
X170401810Y-132076238D02*
X170401810Y-130742904D01*
X170401810Y-131123857D02*
X170497048Y-130933380D01*
X170497048Y-130933380D02*
X170592286Y-130838142D01*
X170592286Y-130838142D02*
X170782762Y-130742904D01*
X170782762Y-130742904D02*
X170973239Y-130742904D01*
X171639905Y-132076238D02*
X171639905Y-130742904D01*
X171639905Y-130076238D02*
X171544667Y-130171476D01*
X171544667Y-130171476D02*
X171639905Y-130266714D01*
X171639905Y-130266714D02*
X171735143Y-130171476D01*
X171735143Y-130171476D02*
X171639905Y-130076238D01*
X171639905Y-130076238D02*
X171639905Y-130266714D01*
X172592286Y-130742904D02*
X172592286Y-132076238D01*
X172592286Y-130933380D02*
X172687524Y-130838142D01*
X172687524Y-130838142D02*
X172878000Y-130742904D01*
X172878000Y-130742904D02*
X173163715Y-130742904D01*
X173163715Y-130742904D02*
X173354191Y-130838142D01*
X173354191Y-130838142D02*
X173449429Y-131028619D01*
X173449429Y-131028619D02*
X173449429Y-132076238D01*
X175258953Y-130742904D02*
X175258953Y-132361952D01*
X175258953Y-132361952D02*
X175163715Y-132552428D01*
X175163715Y-132552428D02*
X175068477Y-132647666D01*
X175068477Y-132647666D02*
X174878000Y-132742904D01*
X174878000Y-132742904D02*
X174592286Y-132742904D01*
X174592286Y-132742904D02*
X174401810Y-132647666D01*
X175258953Y-131981000D02*
X175068477Y-132076238D01*
X175068477Y-132076238D02*
X174687524Y-132076238D01*
X174687524Y-132076238D02*
X174497048Y-131981000D01*
X174497048Y-131981000D02*
X174401810Y-131885761D01*
X174401810Y-131885761D02*
X174306572Y-131695285D01*
X174306572Y-131695285D02*
X174306572Y-131123857D01*
X174306572Y-131123857D02*
X174401810Y-130933380D01*
X174401810Y-130933380D02*
X174497048Y-130838142D01*
X174497048Y-130838142D02*
X174687524Y-130742904D01*
X174687524Y-130742904D02*
X175068477Y-130742904D01*
X175068477Y-130742904D02*
X175258953Y-130838142D01*
X177639906Y-131981000D02*
X177925620Y-132076238D01*
X177925620Y-132076238D02*
X178401811Y-132076238D01*
X178401811Y-132076238D02*
X178592287Y-131981000D01*
X178592287Y-131981000D02*
X178687525Y-131885761D01*
X178687525Y-131885761D02*
X178782763Y-131695285D01*
X178782763Y-131695285D02*
X178782763Y-131504809D01*
X178782763Y-131504809D02*
X178687525Y-131314333D01*
X178687525Y-131314333D02*
X178592287Y-131219095D01*
X178592287Y-131219095D02*
X178401811Y-131123857D01*
X178401811Y-131123857D02*
X178020858Y-131028619D01*
X178020858Y-131028619D02*
X177830382Y-130933380D01*
X177830382Y-130933380D02*
X177735144Y-130838142D01*
X177735144Y-130838142D02*
X177639906Y-130647666D01*
X177639906Y-130647666D02*
X177639906Y-130457190D01*
X177639906Y-130457190D02*
X177735144Y-130266714D01*
X177735144Y-130266714D02*
X177830382Y-130171476D01*
X177830382Y-130171476D02*
X178020858Y-130076238D01*
X178020858Y-130076238D02*
X178497049Y-130076238D01*
X178497049Y-130076238D02*
X178782763Y-130171476D01*
X179639906Y-130742904D02*
X179639906Y-132742904D01*
X179639906Y-130838142D02*
X179830382Y-130742904D01*
X179830382Y-130742904D02*
X180211335Y-130742904D01*
X180211335Y-130742904D02*
X180401811Y-130838142D01*
X180401811Y-130838142D02*
X180497049Y-130933380D01*
X180497049Y-130933380D02*
X180592287Y-131123857D01*
X180592287Y-131123857D02*
X180592287Y-131695285D01*
X180592287Y-131695285D02*
X180497049Y-131885761D01*
X180497049Y-131885761D02*
X180401811Y-131981000D01*
X180401811Y-131981000D02*
X180211335Y-132076238D01*
X180211335Y-132076238D02*
X179830382Y-132076238D01*
X179830382Y-132076238D02*
X179639906Y-131981000D01*
X182306573Y-132076238D02*
X182306573Y-131028619D01*
X182306573Y-131028619D02*
X182211335Y-130838142D01*
X182211335Y-130838142D02*
X182020859Y-130742904D01*
X182020859Y-130742904D02*
X181639906Y-130742904D01*
X181639906Y-130742904D02*
X181449430Y-130838142D01*
X182306573Y-131981000D02*
X182116097Y-132076238D01*
X182116097Y-132076238D02*
X181639906Y-132076238D01*
X181639906Y-132076238D02*
X181449430Y-131981000D01*
X181449430Y-131981000D02*
X181354192Y-131790523D01*
X181354192Y-131790523D02*
X181354192Y-131600047D01*
X181354192Y-131600047D02*
X181449430Y-131409571D01*
X181449430Y-131409571D02*
X181639906Y-131314333D01*
X181639906Y-131314333D02*
X182116097Y-131314333D01*
X182116097Y-131314333D02*
X182306573Y-131219095D01*
X184116097Y-131981000D02*
X183925621Y-132076238D01*
X183925621Y-132076238D02*
X183544668Y-132076238D01*
X183544668Y-132076238D02*
X183354192Y-131981000D01*
X183354192Y-131981000D02*
X183258954Y-131885761D01*
X183258954Y-131885761D02*
X183163716Y-131695285D01*
X183163716Y-131695285D02*
X183163716Y-131123857D01*
X183163716Y-131123857D02*
X183258954Y-130933380D01*
X183258954Y-130933380D02*
X183354192Y-130838142D01*
X183354192Y-130838142D02*
X183544668Y-130742904D01*
X183544668Y-130742904D02*
X183925621Y-130742904D01*
X183925621Y-130742904D02*
X184116097Y-130838142D01*
X185735145Y-131981000D02*
X185544669Y-132076238D01*
X185544669Y-132076238D02*
X185163716Y-132076238D01*
X185163716Y-132076238D02*
X184973240Y-131981000D01*
X184973240Y-131981000D02*
X184878002Y-131790523D01*
X184878002Y-131790523D02*
X184878002Y-131028619D01*
X184878002Y-131028619D02*
X184973240Y-130838142D01*
X184973240Y-130838142D02*
X185163716Y-130742904D01*
X185163716Y-130742904D02*
X185544669Y-130742904D01*
X185544669Y-130742904D02*
X185735145Y-130838142D01*
X185735145Y-130838142D02*
X185830383Y-131028619D01*
X185830383Y-131028619D02*
X185830383Y-131219095D01*
X185830383Y-131219095D02*
X184878002Y-131409571D01*
D11*
X72171160Y-158334104D02*
X72647350Y-158334104D01*
X72075922Y-158619819D02*
X72409255Y-157619819D01*
X72409255Y-157619819D02*
X72742588Y-158619819D01*
X73647350Y-158524580D02*
X73599731Y-158572200D01*
X73599731Y-158572200D02*
X73456874Y-158619819D01*
X73456874Y-158619819D02*
X73361636Y-158619819D01*
X73361636Y-158619819D02*
X73218779Y-158572200D01*
X73218779Y-158572200D02*
X73123541Y-158476961D01*
X73123541Y-158476961D02*
X73075922Y-158381723D01*
X73075922Y-158381723D02*
X73028303Y-158191247D01*
X73028303Y-158191247D02*
X73028303Y-158048390D01*
X73028303Y-158048390D02*
X73075922Y-157857914D01*
X73075922Y-157857914D02*
X73123541Y-157762676D01*
X73123541Y-157762676D02*
X73218779Y-157667438D01*
X73218779Y-157667438D02*
X73361636Y-157619819D01*
X73361636Y-157619819D02*
X73456874Y-157619819D01*
X73456874Y-157619819D02*
X73599731Y-157667438D01*
X73599731Y-157667438D02*
X73647350Y-157715057D01*
X74837827Y-158619819D02*
X74837827Y-157619819D01*
X75314017Y-158619819D02*
X75314017Y-157619819D01*
X75314017Y-157619819D02*
X75885445Y-158619819D01*
X75885445Y-158619819D02*
X75885445Y-157619819D01*
X197440779Y-157619819D02*
X197440779Y-158429342D01*
X197440779Y-158429342D02*
X197488398Y-158524580D01*
X197488398Y-158524580D02*
X197536017Y-158572200D01*
X197536017Y-158572200D02*
X197631255Y-158619819D01*
X197631255Y-158619819D02*
X197821731Y-158619819D01*
X197821731Y-158619819D02*
X197916969Y-158572200D01*
X197916969Y-158572200D02*
X197964588Y-158524580D01*
X197964588Y-158524580D02*
X198012207Y-158429342D01*
X198012207Y-158429342D02*
X198012207Y-157619819D01*
X198678874Y-157619819D02*
X198869350Y-157619819D01*
X198869350Y-157619819D02*
X198964588Y-157667438D01*
X198964588Y-157667438D02*
X199059826Y-157762676D01*
X199059826Y-157762676D02*
X199107445Y-157953152D01*
X199107445Y-157953152D02*
X199107445Y-158286485D01*
X199107445Y-158286485D02*
X199059826Y-158476961D01*
X199059826Y-158476961D02*
X198964588Y-158572200D01*
X198964588Y-158572200D02*
X198869350Y-158619819D01*
X198869350Y-158619819D02*
X198678874Y-158619819D01*
X198678874Y-158619819D02*
X198583636Y-158572200D01*
X198583636Y-158572200D02*
X198488398Y-158476961D01*
X198488398Y-158476961D02*
X198440779Y-158286485D01*
X198440779Y-158286485D02*
X198440779Y-157953152D01*
X198440779Y-157953152D02*
X198488398Y-157762676D01*
X198488398Y-157762676D02*
X198583636Y-157667438D01*
X198583636Y-157667438D02*
X198678874Y-157619819D01*
X199964588Y-157953152D02*
X199964588Y-158619819D01*
X199726493Y-157572200D02*
X199488398Y-158286485D01*
X199488398Y-158286485D02*
X200107445Y-158286485D01*
X192106779Y-157619819D02*
X192106779Y-158429342D01*
X192106779Y-158429342D02*
X192154398Y-158524580D01*
X192154398Y-158524580D02*
X192202017Y-158572200D01*
X192202017Y-158572200D02*
X192297255Y-158619819D01*
X192297255Y-158619819D02*
X192487731Y-158619819D01*
X192487731Y-158619819D02*
X192582969Y-158572200D01*
X192582969Y-158572200D02*
X192630588Y-158524580D01*
X192630588Y-158524580D02*
X192678207Y-158429342D01*
X192678207Y-158429342D02*
X192678207Y-157619819D01*
X193344874Y-157619819D02*
X193535350Y-157619819D01*
X193535350Y-157619819D02*
X193630588Y-157667438D01*
X193630588Y-157667438D02*
X193725826Y-157762676D01*
X193725826Y-157762676D02*
X193773445Y-157953152D01*
X193773445Y-157953152D02*
X193773445Y-158286485D01*
X193773445Y-158286485D02*
X193725826Y-158476961D01*
X193725826Y-158476961D02*
X193630588Y-158572200D01*
X193630588Y-158572200D02*
X193535350Y-158619819D01*
X193535350Y-158619819D02*
X193344874Y-158619819D01*
X193344874Y-158619819D02*
X193249636Y-158572200D01*
X193249636Y-158572200D02*
X193154398Y-158476961D01*
X193154398Y-158476961D02*
X193106779Y-158286485D01*
X193106779Y-158286485D02*
X193106779Y-157953152D01*
X193106779Y-157953152D02*
X193154398Y-157762676D01*
X193154398Y-157762676D02*
X193249636Y-157667438D01*
X193249636Y-157667438D02*
X193344874Y-157619819D01*
X194106779Y-157619819D02*
X194725826Y-157619819D01*
X194725826Y-157619819D02*
X194392493Y-158000771D01*
X194392493Y-158000771D02*
X194535350Y-158000771D01*
X194535350Y-158000771D02*
X194630588Y-158048390D01*
X194630588Y-158048390D02*
X194678207Y-158096009D01*
X194678207Y-158096009D02*
X194725826Y-158191247D01*
X194725826Y-158191247D02*
X194725826Y-158429342D01*
X194725826Y-158429342D02*
X194678207Y-158524580D01*
X194678207Y-158524580D02*
X194630588Y-158572200D01*
X194630588Y-158572200D02*
X194535350Y-158619819D01*
X194535350Y-158619819D02*
X194249636Y-158619819D01*
X194249636Y-158619819D02*
X194154398Y-158572200D01*
X194154398Y-158572200D02*
X194106779Y-158524580D01*
X187280779Y-157619819D02*
X187280779Y-158429342D01*
X187280779Y-158429342D02*
X187328398Y-158524580D01*
X187328398Y-158524580D02*
X187376017Y-158572200D01*
X187376017Y-158572200D02*
X187471255Y-158619819D01*
X187471255Y-158619819D02*
X187661731Y-158619819D01*
X187661731Y-158619819D02*
X187756969Y-158572200D01*
X187756969Y-158572200D02*
X187804588Y-158524580D01*
X187804588Y-158524580D02*
X187852207Y-158429342D01*
X187852207Y-158429342D02*
X187852207Y-157619819D01*
X188518874Y-157619819D02*
X188709350Y-157619819D01*
X188709350Y-157619819D02*
X188804588Y-157667438D01*
X188804588Y-157667438D02*
X188899826Y-157762676D01*
X188899826Y-157762676D02*
X188947445Y-157953152D01*
X188947445Y-157953152D02*
X188947445Y-158286485D01*
X188947445Y-158286485D02*
X188899826Y-158476961D01*
X188899826Y-158476961D02*
X188804588Y-158572200D01*
X188804588Y-158572200D02*
X188709350Y-158619819D01*
X188709350Y-158619819D02*
X188518874Y-158619819D01*
X188518874Y-158619819D02*
X188423636Y-158572200D01*
X188423636Y-158572200D02*
X188328398Y-158476961D01*
X188328398Y-158476961D02*
X188280779Y-158286485D01*
X188280779Y-158286485D02*
X188280779Y-157953152D01*
X188280779Y-157953152D02*
X188328398Y-157762676D01*
X188328398Y-157762676D02*
X188423636Y-157667438D01*
X188423636Y-157667438D02*
X188518874Y-157619819D01*
X189328398Y-157715057D02*
X189376017Y-157667438D01*
X189376017Y-157667438D02*
X189471255Y-157619819D01*
X189471255Y-157619819D02*
X189709350Y-157619819D01*
X189709350Y-157619819D02*
X189804588Y-157667438D01*
X189804588Y-157667438D02*
X189852207Y-157715057D01*
X189852207Y-157715057D02*
X189899826Y-157810295D01*
X189899826Y-157810295D02*
X189899826Y-157905533D01*
X189899826Y-157905533D02*
X189852207Y-158048390D01*
X189852207Y-158048390D02*
X189280779Y-158619819D01*
X189280779Y-158619819D02*
X189899826Y-158619819D01*
X181946779Y-157619819D02*
X181946779Y-158429342D01*
X181946779Y-158429342D02*
X181994398Y-158524580D01*
X181994398Y-158524580D02*
X182042017Y-158572200D01*
X182042017Y-158572200D02*
X182137255Y-158619819D01*
X182137255Y-158619819D02*
X182327731Y-158619819D01*
X182327731Y-158619819D02*
X182422969Y-158572200D01*
X182422969Y-158572200D02*
X182470588Y-158524580D01*
X182470588Y-158524580D02*
X182518207Y-158429342D01*
X182518207Y-158429342D02*
X182518207Y-157619819D01*
X183184874Y-157619819D02*
X183375350Y-157619819D01*
X183375350Y-157619819D02*
X183470588Y-157667438D01*
X183470588Y-157667438D02*
X183565826Y-157762676D01*
X183565826Y-157762676D02*
X183613445Y-157953152D01*
X183613445Y-157953152D02*
X183613445Y-158286485D01*
X183613445Y-158286485D02*
X183565826Y-158476961D01*
X183565826Y-158476961D02*
X183470588Y-158572200D01*
X183470588Y-158572200D02*
X183375350Y-158619819D01*
X183375350Y-158619819D02*
X183184874Y-158619819D01*
X183184874Y-158619819D02*
X183089636Y-158572200D01*
X183089636Y-158572200D02*
X182994398Y-158476961D01*
X182994398Y-158476961D02*
X182946779Y-158286485D01*
X182946779Y-158286485D02*
X182946779Y-157953152D01*
X182946779Y-157953152D02*
X182994398Y-157762676D01*
X182994398Y-157762676D02*
X183089636Y-157667438D01*
X183089636Y-157667438D02*
X183184874Y-157619819D01*
X184565826Y-158619819D02*
X183994398Y-158619819D01*
X184280112Y-158619819D02*
X184280112Y-157619819D01*
X184280112Y-157619819D02*
X184184874Y-157762676D01*
X184184874Y-157762676D02*
X184089636Y-157857914D01*
X184089636Y-157857914D02*
X183994398Y-157905533D01*
X177898588Y-158619819D02*
X177327160Y-158619819D01*
X177612874Y-158619819D02*
X177612874Y-157619819D01*
X177612874Y-157619819D02*
X177517636Y-157762676D01*
X177517636Y-157762676D02*
X177422398Y-157857914D01*
X177422398Y-157857914D02*
X177327160Y-157905533D01*
X178279541Y-157715057D02*
X178327160Y-157667438D01*
X178327160Y-157667438D02*
X178422398Y-157619819D01*
X178422398Y-157619819D02*
X178660493Y-157619819D01*
X178660493Y-157619819D02*
X178755731Y-157667438D01*
X178755731Y-157667438D02*
X178803350Y-157715057D01*
X178803350Y-157715057D02*
X178850969Y-157810295D01*
X178850969Y-157810295D02*
X178850969Y-157905533D01*
X178850969Y-157905533D02*
X178803350Y-158048390D01*
X178803350Y-158048390D02*
X178231922Y-158619819D01*
X178231922Y-158619819D02*
X178850969Y-158619819D01*
X179184303Y-157953152D02*
X179422398Y-158619819D01*
X179422398Y-158619819D02*
X179660493Y-157953152D01*
X166659160Y-156962200D02*
X166802017Y-157009819D01*
X166802017Y-157009819D02*
X167040112Y-157009819D01*
X167040112Y-157009819D02*
X167135350Y-156962200D01*
X167135350Y-156962200D02*
X167182969Y-156914580D01*
X167182969Y-156914580D02*
X167230588Y-156819342D01*
X167230588Y-156819342D02*
X167230588Y-156724104D01*
X167230588Y-156724104D02*
X167182969Y-156628866D01*
X167182969Y-156628866D02*
X167135350Y-156581247D01*
X167135350Y-156581247D02*
X167040112Y-156533628D01*
X167040112Y-156533628D02*
X166849636Y-156486009D01*
X166849636Y-156486009D02*
X166754398Y-156438390D01*
X166754398Y-156438390D02*
X166706779Y-156390771D01*
X166706779Y-156390771D02*
X166659160Y-156295533D01*
X166659160Y-156295533D02*
X166659160Y-156200295D01*
X166659160Y-156200295D02*
X166706779Y-156105057D01*
X166706779Y-156105057D02*
X166754398Y-156057438D01*
X166754398Y-156057438D02*
X166849636Y-156009819D01*
X166849636Y-156009819D02*
X167087731Y-156009819D01*
X167087731Y-156009819D02*
X167230588Y-156057438D01*
X167659160Y-157009819D02*
X167659160Y-156009819D01*
X168706778Y-157009819D02*
X168373445Y-156533628D01*
X168135350Y-157009819D02*
X168135350Y-156009819D01*
X168135350Y-156009819D02*
X168516302Y-156009819D01*
X168516302Y-156009819D02*
X168611540Y-156057438D01*
X168611540Y-156057438D02*
X168659159Y-156105057D01*
X168659159Y-156105057D02*
X168706778Y-156200295D01*
X168706778Y-156200295D02*
X168706778Y-156343152D01*
X168706778Y-156343152D02*
X168659159Y-156438390D01*
X168659159Y-156438390D02*
X168611540Y-156486009D01*
X168611540Y-156486009D02*
X168516302Y-156533628D01*
X168516302Y-156533628D02*
X168135350Y-156533628D01*
X169135350Y-156486009D02*
X169468683Y-156486009D01*
X169611540Y-157009819D02*
X169135350Y-157009819D01*
X169135350Y-157009819D02*
X169135350Y-156009819D01*
X169135350Y-156009819D02*
X169611540Y-156009819D01*
X170040112Y-157009819D02*
X170040112Y-156009819D01*
X170040112Y-156009819D02*
X170611540Y-157009819D01*
X170611540Y-157009819D02*
X170611540Y-156009819D01*
X172040112Y-156009819D02*
X172230588Y-156009819D01*
X172230588Y-156009819D02*
X172325826Y-156057438D01*
X172325826Y-156057438D02*
X172421064Y-156152676D01*
X172421064Y-156152676D02*
X172468683Y-156343152D01*
X172468683Y-156343152D02*
X172468683Y-156676485D01*
X172468683Y-156676485D02*
X172421064Y-156866961D01*
X172421064Y-156866961D02*
X172325826Y-156962200D01*
X172325826Y-156962200D02*
X172230588Y-157009819D01*
X172230588Y-157009819D02*
X172040112Y-157009819D01*
X172040112Y-157009819D02*
X171944874Y-156962200D01*
X171944874Y-156962200D02*
X171849636Y-156866961D01*
X171849636Y-156866961D02*
X171802017Y-156676485D01*
X171802017Y-156676485D02*
X171802017Y-156343152D01*
X171802017Y-156343152D02*
X171849636Y-156152676D01*
X171849636Y-156152676D02*
X171944874Y-156057438D01*
X171944874Y-156057438D02*
X172040112Y-156009819D01*
X172897255Y-156009819D02*
X172897255Y-156819342D01*
X172897255Y-156819342D02*
X172944874Y-156914580D01*
X172944874Y-156914580D02*
X172992493Y-156962200D01*
X172992493Y-156962200D02*
X173087731Y-157009819D01*
X173087731Y-157009819D02*
X173278207Y-157009819D01*
X173278207Y-157009819D02*
X173373445Y-156962200D01*
X173373445Y-156962200D02*
X173421064Y-156914580D01*
X173421064Y-156914580D02*
X173468683Y-156819342D01*
X173468683Y-156819342D02*
X173468683Y-156009819D01*
X173802017Y-156009819D02*
X174373445Y-156009819D01*
X174087731Y-157009819D02*
X174087731Y-156009819D01*
X167468684Y-158238866D02*
X168230589Y-158238866D01*
X172516304Y-158238866D02*
X173278209Y-158238866D01*
X172897256Y-158619819D02*
X172897256Y-157857914D01*
X162293541Y-157619819D02*
X162960207Y-157619819D01*
X162960207Y-157619819D02*
X162293541Y-158619819D01*
X162293541Y-158619819D02*
X162960207Y-158619819D01*
X163484017Y-158048390D02*
X163388779Y-158000771D01*
X163388779Y-158000771D02*
X163341160Y-157953152D01*
X163341160Y-157953152D02*
X163293541Y-157857914D01*
X163293541Y-157857914D02*
X163293541Y-157810295D01*
X163293541Y-157810295D02*
X163341160Y-157715057D01*
X163341160Y-157715057D02*
X163388779Y-157667438D01*
X163388779Y-157667438D02*
X163484017Y-157619819D01*
X163484017Y-157619819D02*
X163674493Y-157619819D01*
X163674493Y-157619819D02*
X163769731Y-157667438D01*
X163769731Y-157667438D02*
X163817350Y-157715057D01*
X163817350Y-157715057D02*
X163864969Y-157810295D01*
X163864969Y-157810295D02*
X163864969Y-157857914D01*
X163864969Y-157857914D02*
X163817350Y-157953152D01*
X163817350Y-157953152D02*
X163769731Y-158000771D01*
X163769731Y-158000771D02*
X163674493Y-158048390D01*
X163674493Y-158048390D02*
X163484017Y-158048390D01*
X163484017Y-158048390D02*
X163388779Y-158096009D01*
X163388779Y-158096009D02*
X163341160Y-158143628D01*
X163341160Y-158143628D02*
X163293541Y-158238866D01*
X163293541Y-158238866D02*
X163293541Y-158429342D01*
X163293541Y-158429342D02*
X163341160Y-158524580D01*
X163341160Y-158524580D02*
X163388779Y-158572200D01*
X163388779Y-158572200D02*
X163484017Y-158619819D01*
X163484017Y-158619819D02*
X163674493Y-158619819D01*
X163674493Y-158619819D02*
X163769731Y-158572200D01*
X163769731Y-158572200D02*
X163817350Y-158524580D01*
X163817350Y-158524580D02*
X163864969Y-158429342D01*
X163864969Y-158429342D02*
X163864969Y-158238866D01*
X163864969Y-158238866D02*
X163817350Y-158143628D01*
X163817350Y-158143628D02*
X163769731Y-158096009D01*
X163769731Y-158096009D02*
X163674493Y-158048390D01*
X152133541Y-157619819D02*
X152800207Y-157619819D01*
X152800207Y-157619819D02*
X152133541Y-158619819D01*
X152133541Y-158619819D02*
X152800207Y-158619819D01*
X153085922Y-157619819D02*
X153752588Y-157619819D01*
X153752588Y-157619819D02*
X153324017Y-158619819D01*
X147053541Y-157619819D02*
X147720207Y-157619819D01*
X147720207Y-157619819D02*
X147053541Y-158619819D01*
X147053541Y-158619819D02*
X147720207Y-158619819D01*
X148529731Y-157619819D02*
X148339255Y-157619819D01*
X148339255Y-157619819D02*
X148244017Y-157667438D01*
X148244017Y-157667438D02*
X148196398Y-157715057D01*
X148196398Y-157715057D02*
X148101160Y-157857914D01*
X148101160Y-157857914D02*
X148053541Y-158048390D01*
X148053541Y-158048390D02*
X148053541Y-158429342D01*
X148053541Y-158429342D02*
X148101160Y-158524580D01*
X148101160Y-158524580D02*
X148148779Y-158572200D01*
X148148779Y-158572200D02*
X148244017Y-158619819D01*
X148244017Y-158619819D02*
X148434493Y-158619819D01*
X148434493Y-158619819D02*
X148529731Y-158572200D01*
X148529731Y-158572200D02*
X148577350Y-158524580D01*
X148577350Y-158524580D02*
X148624969Y-158429342D01*
X148624969Y-158429342D02*
X148624969Y-158191247D01*
X148624969Y-158191247D02*
X148577350Y-158096009D01*
X148577350Y-158096009D02*
X148529731Y-158048390D01*
X148529731Y-158048390D02*
X148434493Y-158000771D01*
X148434493Y-158000771D02*
X148244017Y-158000771D01*
X148244017Y-158000771D02*
X148148779Y-158048390D01*
X148148779Y-158048390D02*
X148101160Y-158096009D01*
X148101160Y-158096009D02*
X148053541Y-158191247D01*
X136893541Y-157619819D02*
X137560207Y-157619819D01*
X137560207Y-157619819D02*
X136893541Y-158619819D01*
X136893541Y-158619819D02*
X137560207Y-158619819D01*
X138417350Y-157619819D02*
X137941160Y-157619819D01*
X137941160Y-157619819D02*
X137893541Y-158096009D01*
X137893541Y-158096009D02*
X137941160Y-158048390D01*
X137941160Y-158048390D02*
X138036398Y-158000771D01*
X138036398Y-158000771D02*
X138274493Y-158000771D01*
X138274493Y-158000771D02*
X138369731Y-158048390D01*
X138369731Y-158048390D02*
X138417350Y-158096009D01*
X138417350Y-158096009D02*
X138464969Y-158191247D01*
X138464969Y-158191247D02*
X138464969Y-158429342D01*
X138464969Y-158429342D02*
X138417350Y-158524580D01*
X138417350Y-158524580D02*
X138369731Y-158572200D01*
X138369731Y-158572200D02*
X138274493Y-158619819D01*
X138274493Y-158619819D02*
X138036398Y-158619819D01*
X138036398Y-158619819D02*
X137941160Y-158572200D01*
X137941160Y-158572200D02*
X137893541Y-158524580D01*
X131813541Y-157619819D02*
X132480207Y-157619819D01*
X132480207Y-157619819D02*
X131813541Y-158619819D01*
X131813541Y-158619819D02*
X132480207Y-158619819D01*
X133289731Y-157953152D02*
X133289731Y-158619819D01*
X133051636Y-157572200D02*
X132813541Y-158286485D01*
X132813541Y-158286485D02*
X133432588Y-158286485D01*
X121653541Y-157619819D02*
X122320207Y-157619819D01*
X122320207Y-157619819D02*
X121653541Y-158619819D01*
X121653541Y-158619819D02*
X122320207Y-158619819D01*
X122605922Y-157619819D02*
X123224969Y-157619819D01*
X123224969Y-157619819D02*
X122891636Y-158000771D01*
X122891636Y-158000771D02*
X123034493Y-158000771D01*
X123034493Y-158000771D02*
X123129731Y-158048390D01*
X123129731Y-158048390D02*
X123177350Y-158096009D01*
X123177350Y-158096009D02*
X123224969Y-158191247D01*
X123224969Y-158191247D02*
X123224969Y-158429342D01*
X123224969Y-158429342D02*
X123177350Y-158524580D01*
X123177350Y-158524580D02*
X123129731Y-158572200D01*
X123129731Y-158572200D02*
X123034493Y-158619819D01*
X123034493Y-158619819D02*
X122748779Y-158619819D01*
X122748779Y-158619819D02*
X122653541Y-158572200D01*
X122653541Y-158572200D02*
X122605922Y-158524580D01*
X116573541Y-157619819D02*
X117240207Y-157619819D01*
X117240207Y-157619819D02*
X116573541Y-158619819D01*
X116573541Y-158619819D02*
X117240207Y-158619819D01*
X117573541Y-157715057D02*
X117621160Y-157667438D01*
X117621160Y-157667438D02*
X117716398Y-157619819D01*
X117716398Y-157619819D02*
X117954493Y-157619819D01*
X117954493Y-157619819D02*
X118049731Y-157667438D01*
X118049731Y-157667438D02*
X118097350Y-157715057D01*
X118097350Y-157715057D02*
X118144969Y-157810295D01*
X118144969Y-157810295D02*
X118144969Y-157905533D01*
X118144969Y-157905533D02*
X118097350Y-158048390D01*
X118097350Y-158048390D02*
X117525922Y-158619819D01*
X117525922Y-158619819D02*
X118144969Y-158619819D01*
X157118207Y-158524580D02*
X157070588Y-158572200D01*
X157070588Y-158572200D02*
X156927731Y-158619819D01*
X156927731Y-158619819D02*
X156832493Y-158619819D01*
X156832493Y-158619819D02*
X156689636Y-158572200D01*
X156689636Y-158572200D02*
X156594398Y-158476961D01*
X156594398Y-158476961D02*
X156546779Y-158381723D01*
X156546779Y-158381723D02*
X156499160Y-158191247D01*
X156499160Y-158191247D02*
X156499160Y-158048390D01*
X156499160Y-158048390D02*
X156546779Y-157857914D01*
X156546779Y-157857914D02*
X156594398Y-157762676D01*
X156594398Y-157762676D02*
X156689636Y-157667438D01*
X156689636Y-157667438D02*
X156832493Y-157619819D01*
X156832493Y-157619819D02*
X156927731Y-157619819D01*
X156927731Y-157619819D02*
X157070588Y-157667438D01*
X157070588Y-157667438D02*
X157118207Y-157715057D01*
X157737255Y-157619819D02*
X157927731Y-157619819D01*
X157927731Y-157619819D02*
X158022969Y-157667438D01*
X158022969Y-157667438D02*
X158118207Y-157762676D01*
X158118207Y-157762676D02*
X158165826Y-157953152D01*
X158165826Y-157953152D02*
X158165826Y-158286485D01*
X158165826Y-158286485D02*
X158118207Y-158476961D01*
X158118207Y-158476961D02*
X158022969Y-158572200D01*
X158022969Y-158572200D02*
X157927731Y-158619819D01*
X157927731Y-158619819D02*
X157737255Y-158619819D01*
X157737255Y-158619819D02*
X157642017Y-158572200D01*
X157642017Y-158572200D02*
X157546779Y-158476961D01*
X157546779Y-158476961D02*
X157499160Y-158286485D01*
X157499160Y-158286485D02*
X157499160Y-157953152D01*
X157499160Y-157953152D02*
X157546779Y-157762676D01*
X157546779Y-157762676D02*
X157642017Y-157667438D01*
X157642017Y-157667438D02*
X157737255Y-157619819D01*
X158594398Y-158619819D02*
X158594398Y-157619819D01*
X158594398Y-157619819D02*
X158927731Y-158334104D01*
X158927731Y-158334104D02*
X159261064Y-157619819D01*
X159261064Y-157619819D02*
X159261064Y-158619819D01*
X141878207Y-158524580D02*
X141830588Y-158572200D01*
X141830588Y-158572200D02*
X141687731Y-158619819D01*
X141687731Y-158619819D02*
X141592493Y-158619819D01*
X141592493Y-158619819D02*
X141449636Y-158572200D01*
X141449636Y-158572200D02*
X141354398Y-158476961D01*
X141354398Y-158476961D02*
X141306779Y-158381723D01*
X141306779Y-158381723D02*
X141259160Y-158191247D01*
X141259160Y-158191247D02*
X141259160Y-158048390D01*
X141259160Y-158048390D02*
X141306779Y-157857914D01*
X141306779Y-157857914D02*
X141354398Y-157762676D01*
X141354398Y-157762676D02*
X141449636Y-157667438D01*
X141449636Y-157667438D02*
X141592493Y-157619819D01*
X141592493Y-157619819D02*
X141687731Y-157619819D01*
X141687731Y-157619819D02*
X141830588Y-157667438D01*
X141830588Y-157667438D02*
X141878207Y-157715057D01*
X142497255Y-157619819D02*
X142687731Y-157619819D01*
X142687731Y-157619819D02*
X142782969Y-157667438D01*
X142782969Y-157667438D02*
X142878207Y-157762676D01*
X142878207Y-157762676D02*
X142925826Y-157953152D01*
X142925826Y-157953152D02*
X142925826Y-158286485D01*
X142925826Y-158286485D02*
X142878207Y-158476961D01*
X142878207Y-158476961D02*
X142782969Y-158572200D01*
X142782969Y-158572200D02*
X142687731Y-158619819D01*
X142687731Y-158619819D02*
X142497255Y-158619819D01*
X142497255Y-158619819D02*
X142402017Y-158572200D01*
X142402017Y-158572200D02*
X142306779Y-158476961D01*
X142306779Y-158476961D02*
X142259160Y-158286485D01*
X142259160Y-158286485D02*
X142259160Y-157953152D01*
X142259160Y-157953152D02*
X142306779Y-157762676D01*
X142306779Y-157762676D02*
X142402017Y-157667438D01*
X142402017Y-157667438D02*
X142497255Y-157619819D01*
X143354398Y-158619819D02*
X143354398Y-157619819D01*
X143354398Y-157619819D02*
X143687731Y-158334104D01*
X143687731Y-158334104D02*
X144021064Y-157619819D01*
X144021064Y-157619819D02*
X144021064Y-158619819D01*
X126638207Y-158524580D02*
X126590588Y-158572200D01*
X126590588Y-158572200D02*
X126447731Y-158619819D01*
X126447731Y-158619819D02*
X126352493Y-158619819D01*
X126352493Y-158619819D02*
X126209636Y-158572200D01*
X126209636Y-158572200D02*
X126114398Y-158476961D01*
X126114398Y-158476961D02*
X126066779Y-158381723D01*
X126066779Y-158381723D02*
X126019160Y-158191247D01*
X126019160Y-158191247D02*
X126019160Y-158048390D01*
X126019160Y-158048390D02*
X126066779Y-157857914D01*
X126066779Y-157857914D02*
X126114398Y-157762676D01*
X126114398Y-157762676D02*
X126209636Y-157667438D01*
X126209636Y-157667438D02*
X126352493Y-157619819D01*
X126352493Y-157619819D02*
X126447731Y-157619819D01*
X126447731Y-157619819D02*
X126590588Y-157667438D01*
X126590588Y-157667438D02*
X126638207Y-157715057D01*
X127257255Y-157619819D02*
X127447731Y-157619819D01*
X127447731Y-157619819D02*
X127542969Y-157667438D01*
X127542969Y-157667438D02*
X127638207Y-157762676D01*
X127638207Y-157762676D02*
X127685826Y-157953152D01*
X127685826Y-157953152D02*
X127685826Y-158286485D01*
X127685826Y-158286485D02*
X127638207Y-158476961D01*
X127638207Y-158476961D02*
X127542969Y-158572200D01*
X127542969Y-158572200D02*
X127447731Y-158619819D01*
X127447731Y-158619819D02*
X127257255Y-158619819D01*
X127257255Y-158619819D02*
X127162017Y-158572200D01*
X127162017Y-158572200D02*
X127066779Y-158476961D01*
X127066779Y-158476961D02*
X127019160Y-158286485D01*
X127019160Y-158286485D02*
X127019160Y-157953152D01*
X127019160Y-157953152D02*
X127066779Y-157762676D01*
X127066779Y-157762676D02*
X127162017Y-157667438D01*
X127162017Y-157667438D02*
X127257255Y-157619819D01*
X128114398Y-158619819D02*
X128114398Y-157619819D01*
X128114398Y-157619819D02*
X128447731Y-158334104D01*
X128447731Y-158334104D02*
X128781064Y-157619819D01*
X128781064Y-157619819D02*
X128781064Y-158619819D01*
X111652207Y-158524580D02*
X111604588Y-158572200D01*
X111604588Y-158572200D02*
X111461731Y-158619819D01*
X111461731Y-158619819D02*
X111366493Y-158619819D01*
X111366493Y-158619819D02*
X111223636Y-158572200D01*
X111223636Y-158572200D02*
X111128398Y-158476961D01*
X111128398Y-158476961D02*
X111080779Y-158381723D01*
X111080779Y-158381723D02*
X111033160Y-158191247D01*
X111033160Y-158191247D02*
X111033160Y-158048390D01*
X111033160Y-158048390D02*
X111080779Y-157857914D01*
X111080779Y-157857914D02*
X111128398Y-157762676D01*
X111128398Y-157762676D02*
X111223636Y-157667438D01*
X111223636Y-157667438D02*
X111366493Y-157619819D01*
X111366493Y-157619819D02*
X111461731Y-157619819D01*
X111461731Y-157619819D02*
X111604588Y-157667438D01*
X111604588Y-157667438D02*
X111652207Y-157715057D01*
X112271255Y-157619819D02*
X112461731Y-157619819D01*
X112461731Y-157619819D02*
X112556969Y-157667438D01*
X112556969Y-157667438D02*
X112652207Y-157762676D01*
X112652207Y-157762676D02*
X112699826Y-157953152D01*
X112699826Y-157953152D02*
X112699826Y-158286485D01*
X112699826Y-158286485D02*
X112652207Y-158476961D01*
X112652207Y-158476961D02*
X112556969Y-158572200D01*
X112556969Y-158572200D02*
X112461731Y-158619819D01*
X112461731Y-158619819D02*
X112271255Y-158619819D01*
X112271255Y-158619819D02*
X112176017Y-158572200D01*
X112176017Y-158572200D02*
X112080779Y-158476961D01*
X112080779Y-158476961D02*
X112033160Y-158286485D01*
X112033160Y-158286485D02*
X112033160Y-157953152D01*
X112033160Y-157953152D02*
X112080779Y-157762676D01*
X112080779Y-157762676D02*
X112176017Y-157667438D01*
X112176017Y-157667438D02*
X112271255Y-157619819D01*
X113128398Y-158619819D02*
X113128398Y-157619819D01*
X113128398Y-157619819D02*
X113461731Y-158334104D01*
X113461731Y-158334104D02*
X113795064Y-157619819D01*
X113795064Y-157619819D02*
X113795064Y-158619819D01*
X106413541Y-157619819D02*
X107080207Y-157619819D01*
X107080207Y-157619819D02*
X106413541Y-158619819D01*
X106413541Y-158619819D02*
X107080207Y-158619819D01*
X107984969Y-158619819D02*
X107413541Y-158619819D01*
X107699255Y-158619819D02*
X107699255Y-157619819D01*
X107699255Y-157619819D02*
X107604017Y-157762676D01*
X107604017Y-157762676D02*
X107508779Y-157857914D01*
X107508779Y-157857914D02*
X107413541Y-157905533D01*
X86204588Y-158619819D02*
X85633160Y-158619819D01*
X85918874Y-158619819D02*
X85918874Y-157619819D01*
X85918874Y-157619819D02*
X85823636Y-157762676D01*
X85823636Y-157762676D02*
X85728398Y-157857914D01*
X85728398Y-157857914D02*
X85633160Y-157905533D01*
X86585541Y-157715057D02*
X86633160Y-157667438D01*
X86633160Y-157667438D02*
X86728398Y-157619819D01*
X86728398Y-157619819D02*
X86966493Y-157619819D01*
X86966493Y-157619819D02*
X87061731Y-157667438D01*
X87061731Y-157667438D02*
X87109350Y-157715057D01*
X87109350Y-157715057D02*
X87156969Y-157810295D01*
X87156969Y-157810295D02*
X87156969Y-157905533D01*
X87156969Y-157905533D02*
X87109350Y-158048390D01*
X87109350Y-158048390D02*
X86537922Y-158619819D01*
X86537922Y-158619819D02*
X87156969Y-158619819D01*
X87490303Y-157953152D02*
X87728398Y-158619819D01*
X87728398Y-158619819D02*
X87966493Y-157953152D01*
X91156970Y-157667438D02*
X91061732Y-157619819D01*
X91061732Y-157619819D02*
X90918875Y-157619819D01*
X90918875Y-157619819D02*
X90776018Y-157667438D01*
X90776018Y-157667438D02*
X90680780Y-157762676D01*
X90680780Y-157762676D02*
X90633161Y-157857914D01*
X90633161Y-157857914D02*
X90585542Y-158048390D01*
X90585542Y-158048390D02*
X90585542Y-158191247D01*
X90585542Y-158191247D02*
X90633161Y-158381723D01*
X90633161Y-158381723D02*
X90680780Y-158476961D01*
X90680780Y-158476961D02*
X90776018Y-158572200D01*
X90776018Y-158572200D02*
X90918875Y-158619819D01*
X90918875Y-158619819D02*
X91014113Y-158619819D01*
X91014113Y-158619819D02*
X91156970Y-158572200D01*
X91156970Y-158572200D02*
X91204589Y-158524580D01*
X91204589Y-158524580D02*
X91204589Y-158191247D01*
X91204589Y-158191247D02*
X91014113Y-158191247D01*
X91633161Y-158619819D02*
X91633161Y-157619819D01*
X91633161Y-157619819D02*
X92204589Y-158619819D01*
X92204589Y-158619819D02*
X92204589Y-157619819D01*
X92680780Y-158619819D02*
X92680780Y-157619819D01*
X92680780Y-157619819D02*
X92918875Y-157619819D01*
X92918875Y-157619819D02*
X93061732Y-157667438D01*
X93061732Y-157667438D02*
X93156970Y-157762676D01*
X93156970Y-157762676D02*
X93204589Y-157857914D01*
X93204589Y-157857914D02*
X93252208Y-158048390D01*
X93252208Y-158048390D02*
X93252208Y-158191247D01*
X93252208Y-158191247D02*
X93204589Y-158381723D01*
X93204589Y-158381723D02*
X93156970Y-158476961D01*
X93156970Y-158476961D02*
X93061732Y-158572200D01*
X93061732Y-158572200D02*
X92918875Y-158619819D01*
X92918875Y-158619819D02*
X92680780Y-158619819D01*
X96680781Y-158334104D02*
X97156971Y-158334104D01*
X96585543Y-158619819D02*
X96918876Y-157619819D01*
X96918876Y-157619819D02*
X97252209Y-158619819D01*
X102490306Y-158096009D02*
X102633163Y-158143628D01*
X102633163Y-158143628D02*
X102680782Y-158191247D01*
X102680782Y-158191247D02*
X102728401Y-158286485D01*
X102728401Y-158286485D02*
X102728401Y-158429342D01*
X102728401Y-158429342D02*
X102680782Y-158524580D01*
X102680782Y-158524580D02*
X102633163Y-158572200D01*
X102633163Y-158572200D02*
X102537925Y-158619819D01*
X102537925Y-158619819D02*
X102156973Y-158619819D01*
X102156973Y-158619819D02*
X102156973Y-157619819D01*
X102156973Y-157619819D02*
X102490306Y-157619819D01*
X102490306Y-157619819D02*
X102585544Y-157667438D01*
X102585544Y-157667438D02*
X102633163Y-157715057D01*
X102633163Y-157715057D02*
X102680782Y-157810295D01*
X102680782Y-157810295D02*
X102680782Y-157905533D01*
X102680782Y-157905533D02*
X102633163Y-158000771D01*
X102633163Y-158000771D02*
X102585544Y-158048390D01*
X102585544Y-158048390D02*
X102490306Y-158096009D01*
X102490306Y-158096009D02*
X102156973Y-158096009D01*
D12*
X115382318Y-117825762D02*
X114112318Y-117825762D01*
X115261365Y-116495285D02*
X115321842Y-116555761D01*
X115321842Y-116555761D02*
X115382318Y-116737190D01*
X115382318Y-116737190D02*
X115382318Y-116858142D01*
X115382318Y-116858142D02*
X115321842Y-117039571D01*
X115321842Y-117039571D02*
X115200889Y-117160523D01*
X115200889Y-117160523D02*
X115079937Y-117221000D01*
X115079937Y-117221000D02*
X114838032Y-117281476D01*
X114838032Y-117281476D02*
X114656603Y-117281476D01*
X114656603Y-117281476D02*
X114414699Y-117221000D01*
X114414699Y-117221000D02*
X114293746Y-117160523D01*
X114293746Y-117160523D02*
X114172794Y-117039571D01*
X114172794Y-117039571D02*
X114112318Y-116858142D01*
X114112318Y-116858142D02*
X114112318Y-116737190D01*
X114112318Y-116737190D02*
X114172794Y-116555761D01*
X114172794Y-116555761D02*
X114233270Y-116495285D01*
X115382318Y-115285761D02*
X115382318Y-116011476D01*
X115382318Y-115648619D02*
X114112318Y-115648619D01*
X114112318Y-115648619D02*
X114293746Y-115769571D01*
X114293746Y-115769571D02*
X114414699Y-115890523D01*
X114414699Y-115890523D02*
X114475175Y-116011476D01*
D11*
X103578819Y-125356857D02*
X103102628Y-125690190D01*
X103578819Y-125928285D02*
X102578819Y-125928285D01*
X102578819Y-125928285D02*
X102578819Y-125547333D01*
X102578819Y-125547333D02*
X102626438Y-125452095D01*
X102626438Y-125452095D02*
X102674057Y-125404476D01*
X102674057Y-125404476D02*
X102769295Y-125356857D01*
X102769295Y-125356857D02*
X102912152Y-125356857D01*
X102912152Y-125356857D02*
X103007390Y-125404476D01*
X103007390Y-125404476D02*
X103055009Y-125452095D01*
X103055009Y-125452095D02*
X103102628Y-125547333D01*
X103102628Y-125547333D02*
X103102628Y-125928285D01*
X103578819Y-124404476D02*
X103578819Y-124975904D01*
X103578819Y-124690190D02*
X102578819Y-124690190D01*
X102578819Y-124690190D02*
X102721676Y-124785428D01*
X102721676Y-124785428D02*
X102816914Y-124880666D01*
X102816914Y-124880666D02*
X102864533Y-124975904D01*
X103007390Y-123833047D02*
X102959771Y-123928285D01*
X102959771Y-123928285D02*
X102912152Y-123975904D01*
X102912152Y-123975904D02*
X102816914Y-124023523D01*
X102816914Y-124023523D02*
X102769295Y-124023523D01*
X102769295Y-124023523D02*
X102674057Y-123975904D01*
X102674057Y-123975904D02*
X102626438Y-123928285D01*
X102626438Y-123928285D02*
X102578819Y-123833047D01*
X102578819Y-123833047D02*
X102578819Y-123642571D01*
X102578819Y-123642571D02*
X102626438Y-123547333D01*
X102626438Y-123547333D02*
X102674057Y-123499714D01*
X102674057Y-123499714D02*
X102769295Y-123452095D01*
X102769295Y-123452095D02*
X102816914Y-123452095D01*
X102816914Y-123452095D02*
X102912152Y-123499714D01*
X102912152Y-123499714D02*
X102959771Y-123547333D01*
X102959771Y-123547333D02*
X103007390Y-123642571D01*
X103007390Y-123642571D02*
X103007390Y-123833047D01*
X103007390Y-123833047D02*
X103055009Y-123928285D01*
X103055009Y-123928285D02*
X103102628Y-123975904D01*
X103102628Y-123975904D02*
X103197866Y-124023523D01*
X103197866Y-124023523D02*
X103388342Y-124023523D01*
X103388342Y-124023523D02*
X103483580Y-123975904D01*
X103483580Y-123975904D02*
X103531200Y-123928285D01*
X103531200Y-123928285D02*
X103578819Y-123833047D01*
X103578819Y-123833047D02*
X103578819Y-123642571D01*
X103578819Y-123642571D02*
X103531200Y-123547333D01*
X103531200Y-123547333D02*
X103483580Y-123499714D01*
X103483580Y-123499714D02*
X103388342Y-123452095D01*
X103388342Y-123452095D02*
X103197866Y-123452095D01*
X103197866Y-123452095D02*
X103102628Y-123499714D01*
X103102628Y-123499714D02*
X103055009Y-123547333D01*
X103055009Y-123547333D02*
X103007390Y-123642571D01*
D12*
X159899047Y-144865670D02*
X159778095Y-144805194D01*
X159778095Y-144805194D02*
X159657142Y-144684242D01*
X159657142Y-144684242D02*
X159475714Y-144502813D01*
X159475714Y-144502813D02*
X159354761Y-144442337D01*
X159354761Y-144442337D02*
X159233809Y-144442337D01*
X159294285Y-144744718D02*
X159173333Y-144684242D01*
X159173333Y-144684242D02*
X159052380Y-144563289D01*
X159052380Y-144563289D02*
X158991904Y-144321384D01*
X158991904Y-144321384D02*
X158991904Y-143898051D01*
X158991904Y-143898051D02*
X159052380Y-143656146D01*
X159052380Y-143656146D02*
X159173333Y-143535194D01*
X159173333Y-143535194D02*
X159294285Y-143474718D01*
X159294285Y-143474718D02*
X159536190Y-143474718D01*
X159536190Y-143474718D02*
X159657142Y-143535194D01*
X159657142Y-143535194D02*
X159778095Y-143656146D01*
X159778095Y-143656146D02*
X159838571Y-143898051D01*
X159838571Y-143898051D02*
X159838571Y-144321384D01*
X159838571Y-144321384D02*
X159778095Y-144563289D01*
X159778095Y-144563289D02*
X159657142Y-144684242D01*
X159657142Y-144684242D02*
X159536190Y-144744718D01*
X159536190Y-144744718D02*
X159294285Y-144744718D01*
X160443333Y-144744718D02*
X160685237Y-144744718D01*
X160685237Y-144744718D02*
X160806190Y-144684242D01*
X160806190Y-144684242D02*
X160866666Y-144623765D01*
X160866666Y-144623765D02*
X160987618Y-144442337D01*
X160987618Y-144442337D02*
X161048095Y-144200432D01*
X161048095Y-144200432D02*
X161048095Y-143716622D01*
X161048095Y-143716622D02*
X160987618Y-143595670D01*
X160987618Y-143595670D02*
X160927142Y-143535194D01*
X160927142Y-143535194D02*
X160806190Y-143474718D01*
X160806190Y-143474718D02*
X160564285Y-143474718D01*
X160564285Y-143474718D02*
X160443333Y-143535194D01*
X160443333Y-143535194D02*
X160382856Y-143595670D01*
X160382856Y-143595670D02*
X160322380Y-143716622D01*
X160322380Y-143716622D02*
X160322380Y-144019003D01*
X160322380Y-144019003D02*
X160382856Y-144139956D01*
X160382856Y-144139956D02*
X160443333Y-144200432D01*
X160443333Y-144200432D02*
X160564285Y-144260908D01*
X160564285Y-144260908D02*
X160806190Y-144260908D01*
X160806190Y-144260908D02*
X160927142Y-144200432D01*
X160927142Y-144200432D02*
X160987618Y-144139956D01*
X160987618Y-144139956D02*
X161048095Y-144019003D01*
D11*
X122261333Y-138758819D02*
X121928000Y-138282628D01*
X121689905Y-138758819D02*
X121689905Y-137758819D01*
X121689905Y-137758819D02*
X122070857Y-137758819D01*
X122070857Y-137758819D02*
X122166095Y-137806438D01*
X122166095Y-137806438D02*
X122213714Y-137854057D01*
X122213714Y-137854057D02*
X122261333Y-137949295D01*
X122261333Y-137949295D02*
X122261333Y-138092152D01*
X122261333Y-138092152D02*
X122213714Y-138187390D01*
X122213714Y-138187390D02*
X122166095Y-138235009D01*
X122166095Y-138235009D02*
X122070857Y-138282628D01*
X122070857Y-138282628D02*
X121689905Y-138282628D01*
X123166095Y-137758819D02*
X122689905Y-137758819D01*
X122689905Y-137758819D02*
X122642286Y-138235009D01*
X122642286Y-138235009D02*
X122689905Y-138187390D01*
X122689905Y-138187390D02*
X122785143Y-138139771D01*
X122785143Y-138139771D02*
X123023238Y-138139771D01*
X123023238Y-138139771D02*
X123118476Y-138187390D01*
X123118476Y-138187390D02*
X123166095Y-138235009D01*
X123166095Y-138235009D02*
X123213714Y-138330247D01*
X123213714Y-138330247D02*
X123213714Y-138568342D01*
X123213714Y-138568342D02*
X123166095Y-138663580D01*
X123166095Y-138663580D02*
X123118476Y-138711200D01*
X123118476Y-138711200D02*
X123023238Y-138758819D01*
X123023238Y-138758819D02*
X122785143Y-138758819D01*
X122785143Y-138758819D02*
X122689905Y-138711200D01*
X122689905Y-138711200D02*
X122642286Y-138663580D01*
D12*
X144557447Y-144865670D02*
X144436495Y-144805194D01*
X144436495Y-144805194D02*
X144315542Y-144684242D01*
X144315542Y-144684242D02*
X144134114Y-144502813D01*
X144134114Y-144502813D02*
X144013161Y-144442337D01*
X144013161Y-144442337D02*
X143892209Y-144442337D01*
X143952685Y-144744718D02*
X143831733Y-144684242D01*
X143831733Y-144684242D02*
X143710780Y-144563289D01*
X143710780Y-144563289D02*
X143650304Y-144321384D01*
X143650304Y-144321384D02*
X143650304Y-143898051D01*
X143650304Y-143898051D02*
X143710780Y-143656146D01*
X143710780Y-143656146D02*
X143831733Y-143535194D01*
X143831733Y-143535194D02*
X143952685Y-143474718D01*
X143952685Y-143474718D02*
X144194590Y-143474718D01*
X144194590Y-143474718D02*
X144315542Y-143535194D01*
X144315542Y-143535194D02*
X144436495Y-143656146D01*
X144436495Y-143656146D02*
X144496971Y-143898051D01*
X144496971Y-143898051D02*
X144496971Y-144321384D01*
X144496971Y-144321384D02*
X144436495Y-144563289D01*
X144436495Y-144563289D02*
X144315542Y-144684242D01*
X144315542Y-144684242D02*
X144194590Y-144744718D01*
X144194590Y-144744718D02*
X143952685Y-144744718D01*
X144920304Y-143474718D02*
X145766971Y-143474718D01*
X145766971Y-143474718D02*
X145222685Y-144744718D01*
D11*
X129485171Y-131578409D02*
X129008980Y-131578409D01*
X130008980Y-131245076D02*
X129485171Y-131578409D01*
X129485171Y-131578409D02*
X130008980Y-131911742D01*
X129008980Y-132768885D02*
X129008980Y-132197457D01*
X129008980Y-132483171D02*
X130008980Y-132483171D01*
X130008980Y-132483171D02*
X129866123Y-132387933D01*
X129866123Y-132387933D02*
X129770885Y-132292695D01*
X129770885Y-132292695D02*
X129723266Y-132197457D01*
X131318619Y-128422399D02*
X131556714Y-128422399D01*
X131461476Y-128660494D02*
X131556714Y-128422399D01*
X131556714Y-128422399D02*
X131461476Y-128184304D01*
X131747190Y-128565256D02*
X131556714Y-128422399D01*
X131556714Y-128422399D02*
X131747190Y-128279542D01*
X132408980Y-128422400D02*
X132170885Y-128422400D01*
X132266123Y-128184305D02*
X132170885Y-128422400D01*
X132170885Y-128422400D02*
X132266123Y-128660495D01*
X131980409Y-128279543D02*
X132170885Y-128422400D01*
X132170885Y-128422400D02*
X131980409Y-128565257D01*
X187825142Y-138884819D02*
X187491809Y-138408628D01*
X187253714Y-138884819D02*
X187253714Y-137884819D01*
X187253714Y-137884819D02*
X187634666Y-137884819D01*
X187634666Y-137884819D02*
X187729904Y-137932438D01*
X187729904Y-137932438D02*
X187777523Y-137980057D01*
X187777523Y-137980057D02*
X187825142Y-138075295D01*
X187825142Y-138075295D02*
X187825142Y-138218152D01*
X187825142Y-138218152D02*
X187777523Y-138313390D01*
X187777523Y-138313390D02*
X187729904Y-138361009D01*
X187729904Y-138361009D02*
X187634666Y-138408628D01*
X187634666Y-138408628D02*
X187253714Y-138408628D01*
X188777523Y-138884819D02*
X188206095Y-138884819D01*
X188491809Y-138884819D02*
X188491809Y-137884819D01*
X188491809Y-137884819D02*
X188396571Y-138027676D01*
X188396571Y-138027676D02*
X188301333Y-138122914D01*
X188301333Y-138122914D02*
X188206095Y-138170533D01*
X189110857Y-137884819D02*
X189729904Y-137884819D01*
X189729904Y-137884819D02*
X189396571Y-138265771D01*
X189396571Y-138265771D02*
X189539428Y-138265771D01*
X189539428Y-138265771D02*
X189634666Y-138313390D01*
X189634666Y-138313390D02*
X189682285Y-138361009D01*
X189682285Y-138361009D02*
X189729904Y-138456247D01*
X189729904Y-138456247D02*
X189729904Y-138694342D01*
X189729904Y-138694342D02*
X189682285Y-138789580D01*
X189682285Y-138789580D02*
X189634666Y-138837200D01*
X189634666Y-138837200D02*
X189539428Y-138884819D01*
X189539428Y-138884819D02*
X189253714Y-138884819D01*
X189253714Y-138884819D02*
X189158476Y-138837200D01*
X189158476Y-138837200D02*
X189110857Y-138789580D01*
D12*
X114204447Y-144916470D02*
X114083495Y-144855994D01*
X114083495Y-144855994D02*
X113962542Y-144735042D01*
X113962542Y-144735042D02*
X113781114Y-144553613D01*
X113781114Y-144553613D02*
X113660161Y-144493137D01*
X113660161Y-144493137D02*
X113539209Y-144493137D01*
X113599685Y-144795518D02*
X113478733Y-144735042D01*
X113478733Y-144735042D02*
X113357780Y-144614089D01*
X113357780Y-144614089D02*
X113297304Y-144372184D01*
X113297304Y-144372184D02*
X113297304Y-143948851D01*
X113297304Y-143948851D02*
X113357780Y-143706946D01*
X113357780Y-143706946D02*
X113478733Y-143585994D01*
X113478733Y-143585994D02*
X113599685Y-143525518D01*
X113599685Y-143525518D02*
X113841590Y-143525518D01*
X113841590Y-143525518D02*
X113962542Y-143585994D01*
X113962542Y-143585994D02*
X114083495Y-143706946D01*
X114083495Y-143706946D02*
X114143971Y-143948851D01*
X114143971Y-143948851D02*
X114143971Y-144372184D01*
X114143971Y-144372184D02*
X114083495Y-144614089D01*
X114083495Y-144614089D02*
X113962542Y-144735042D01*
X113962542Y-144735042D02*
X113841590Y-144795518D01*
X113841590Y-144795518D02*
X113599685Y-144795518D01*
X114567304Y-143525518D02*
X115353495Y-143525518D01*
X115353495Y-143525518D02*
X114930161Y-144009327D01*
X114930161Y-144009327D02*
X115111590Y-144009327D01*
X115111590Y-144009327D02*
X115232542Y-144069803D01*
X115232542Y-144069803D02*
X115293018Y-144130280D01*
X115293018Y-144130280D02*
X115353495Y-144251232D01*
X115353495Y-144251232D02*
X115353495Y-144553613D01*
X115353495Y-144553613D02*
X115293018Y-144674565D01*
X115293018Y-144674565D02*
X115232542Y-144735042D01*
X115232542Y-144735042D02*
X115111590Y-144795518D01*
X115111590Y-144795518D02*
X114748733Y-144795518D01*
X114748733Y-144795518D02*
X114627780Y-144735042D01*
X114627780Y-144735042D02*
X114567304Y-144674565D01*
D11*
X147661333Y-138758819D02*
X147328000Y-138282628D01*
X147089905Y-138758819D02*
X147089905Y-137758819D01*
X147089905Y-137758819D02*
X147470857Y-137758819D01*
X147470857Y-137758819D02*
X147566095Y-137806438D01*
X147566095Y-137806438D02*
X147613714Y-137854057D01*
X147613714Y-137854057D02*
X147661333Y-137949295D01*
X147661333Y-137949295D02*
X147661333Y-138092152D01*
X147661333Y-138092152D02*
X147613714Y-138187390D01*
X147613714Y-138187390D02*
X147566095Y-138235009D01*
X147566095Y-138235009D02*
X147470857Y-138282628D01*
X147470857Y-138282628D02*
X147089905Y-138282628D01*
X148232762Y-138187390D02*
X148137524Y-138139771D01*
X148137524Y-138139771D02*
X148089905Y-138092152D01*
X148089905Y-138092152D02*
X148042286Y-137996914D01*
X148042286Y-137996914D02*
X148042286Y-137949295D01*
X148042286Y-137949295D02*
X148089905Y-137854057D01*
X148089905Y-137854057D02*
X148137524Y-137806438D01*
X148137524Y-137806438D02*
X148232762Y-137758819D01*
X148232762Y-137758819D02*
X148423238Y-137758819D01*
X148423238Y-137758819D02*
X148518476Y-137806438D01*
X148518476Y-137806438D02*
X148566095Y-137854057D01*
X148566095Y-137854057D02*
X148613714Y-137949295D01*
X148613714Y-137949295D02*
X148613714Y-137996914D01*
X148613714Y-137996914D02*
X148566095Y-138092152D01*
X148566095Y-138092152D02*
X148518476Y-138139771D01*
X148518476Y-138139771D02*
X148423238Y-138187390D01*
X148423238Y-138187390D02*
X148232762Y-138187390D01*
X148232762Y-138187390D02*
X148137524Y-138235009D01*
X148137524Y-138235009D02*
X148089905Y-138282628D01*
X148089905Y-138282628D02*
X148042286Y-138377866D01*
X148042286Y-138377866D02*
X148042286Y-138568342D01*
X148042286Y-138568342D02*
X148089905Y-138663580D01*
X148089905Y-138663580D02*
X148137524Y-138711200D01*
X148137524Y-138711200D02*
X148232762Y-138758819D01*
X148232762Y-138758819D02*
X148423238Y-138758819D01*
X148423238Y-138758819D02*
X148518476Y-138711200D01*
X148518476Y-138711200D02*
X148566095Y-138663580D01*
X148566095Y-138663580D02*
X148613714Y-138568342D01*
X148613714Y-138568342D02*
X148613714Y-138377866D01*
X148613714Y-138377866D02*
X148566095Y-138282628D01*
X148566095Y-138282628D02*
X148518476Y-138235009D01*
X148518476Y-138235009D02*
X148423238Y-138187390D01*
X107388819Y-136532857D02*
X106912628Y-136866190D01*
X107388819Y-137104285D02*
X106388819Y-137104285D01*
X106388819Y-137104285D02*
X106388819Y-136723333D01*
X106388819Y-136723333D02*
X106436438Y-136628095D01*
X106436438Y-136628095D02*
X106484057Y-136580476D01*
X106484057Y-136580476D02*
X106579295Y-136532857D01*
X106579295Y-136532857D02*
X106722152Y-136532857D01*
X106722152Y-136532857D02*
X106817390Y-136580476D01*
X106817390Y-136580476D02*
X106865009Y-136628095D01*
X106865009Y-136628095D02*
X106912628Y-136723333D01*
X106912628Y-136723333D02*
X106912628Y-137104285D01*
X107388819Y-135580476D02*
X107388819Y-136151904D01*
X107388819Y-135866190D02*
X106388819Y-135866190D01*
X106388819Y-135866190D02*
X106531676Y-135961428D01*
X106531676Y-135961428D02*
X106626914Y-136056666D01*
X106626914Y-136056666D02*
X106674533Y-136151904D01*
X106388819Y-135247142D02*
X106388819Y-134580476D01*
X106388819Y-134580476D02*
X107388819Y-135009047D01*
D12*
X75734333Y-126691365D02*
X75673857Y-126751842D01*
X75673857Y-126751842D02*
X75492428Y-126812318D01*
X75492428Y-126812318D02*
X75371476Y-126812318D01*
X75371476Y-126812318D02*
X75190047Y-126751842D01*
X75190047Y-126751842D02*
X75069095Y-126630889D01*
X75069095Y-126630889D02*
X75008618Y-126509937D01*
X75008618Y-126509937D02*
X74948142Y-126268032D01*
X74948142Y-126268032D02*
X74948142Y-126086603D01*
X74948142Y-126086603D02*
X75008618Y-125844699D01*
X75008618Y-125844699D02*
X75069095Y-125723746D01*
X75069095Y-125723746D02*
X75190047Y-125602794D01*
X75190047Y-125602794D02*
X75371476Y-125542318D01*
X75371476Y-125542318D02*
X75492428Y-125542318D01*
X75492428Y-125542318D02*
X75673857Y-125602794D01*
X75673857Y-125602794D02*
X75734333Y-125663270D01*
X76157666Y-125542318D02*
X76943857Y-125542318D01*
X76943857Y-125542318D02*
X76520523Y-126026127D01*
X76520523Y-126026127D02*
X76701952Y-126026127D01*
X76701952Y-126026127D02*
X76822904Y-126086603D01*
X76822904Y-126086603D02*
X76883380Y-126147080D01*
X76883380Y-126147080D02*
X76943857Y-126268032D01*
X76943857Y-126268032D02*
X76943857Y-126570413D01*
X76943857Y-126570413D02*
X76883380Y-126691365D01*
X76883380Y-126691365D02*
X76822904Y-126751842D01*
X76822904Y-126751842D02*
X76701952Y-126812318D01*
X76701952Y-126812318D02*
X76339095Y-126812318D01*
X76339095Y-126812318D02*
X76218142Y-126751842D01*
X76218142Y-126751842D02*
X76157666Y-126691365D01*
X128220409Y-120767118D02*
X127615647Y-120767118D01*
X127615647Y-120767118D02*
X127615647Y-119497118D01*
X128643742Y-120101880D02*
X129067076Y-120101880D01*
X129248504Y-120767118D02*
X128643742Y-120767118D01*
X128643742Y-120767118D02*
X128643742Y-119497118D01*
X128643742Y-119497118D02*
X129248504Y-119497118D01*
X129792790Y-120767118D02*
X129792790Y-119497118D01*
X129792790Y-119497118D02*
X130095171Y-119497118D01*
X130095171Y-119497118D02*
X130276600Y-119557594D01*
X130276600Y-119557594D02*
X130397552Y-119678546D01*
X130397552Y-119678546D02*
X130458029Y-119799499D01*
X130458029Y-119799499D02*
X130518505Y-120041403D01*
X130518505Y-120041403D02*
X130518505Y-120222832D01*
X130518505Y-120222832D02*
X130458029Y-120464737D01*
X130458029Y-120464737D02*
X130397552Y-120585689D01*
X130397552Y-120585689D02*
X130276600Y-120706642D01*
X130276600Y-120706642D02*
X130095171Y-120767118D01*
X130095171Y-120767118D02*
X129792790Y-120767118D01*
X131728029Y-120767118D02*
X131002314Y-120767118D01*
X131365171Y-120767118D02*
X131365171Y-119497118D01*
X131365171Y-119497118D02*
X131244219Y-119678546D01*
X131244219Y-119678546D02*
X131123267Y-119799499D01*
X131123267Y-119799499D02*
X131002314Y-119859975D01*
D11*
X101568094Y-133895180D02*
X101568094Y-133085657D01*
X101568094Y-133085657D02*
X101520475Y-132990419D01*
X101520475Y-132990419D02*
X101472856Y-132942800D01*
X101472856Y-132942800D02*
X101377618Y-132895180D01*
X101377618Y-132895180D02*
X101187142Y-132895180D01*
X101187142Y-132895180D02*
X101091904Y-132942800D01*
X101091904Y-132942800D02*
X101044285Y-132990419D01*
X101044285Y-132990419D02*
X100996666Y-133085657D01*
X100996666Y-133085657D02*
X100996666Y-133895180D01*
X99996666Y-132895180D02*
X100568094Y-132895180D01*
X100282380Y-132895180D02*
X100282380Y-133895180D01*
X100282380Y-133895180D02*
X100377618Y-133752323D01*
X100377618Y-133752323D02*
X100472856Y-133657085D01*
X100472856Y-133657085D02*
X100568094Y-133609466D01*
X99044285Y-132895180D02*
X99615713Y-132895180D01*
X99329999Y-132895180D02*
X99329999Y-133895180D01*
X99329999Y-133895180D02*
X99425237Y-133752323D01*
X99425237Y-133752323D02*
X99520475Y-133657085D01*
X99520475Y-133657085D02*
X99615713Y-133609466D01*
X103305349Y-137475780D02*
X103305349Y-137237685D01*
X103543444Y-137332923D02*
X103305349Y-137237685D01*
X103305349Y-137237685D02*
X103067254Y-137332923D01*
X103448206Y-137047209D02*
X103305349Y-137237685D01*
X103305349Y-137237685D02*
X103162492Y-137047209D01*
X103305350Y-136385419D02*
X103305350Y-136623514D01*
X103067255Y-136528276D02*
X103305350Y-136623514D01*
X103305350Y-136623514D02*
X103543445Y-136528276D01*
X103162493Y-136813990D02*
X103305350Y-136623514D01*
X103305350Y-136623514D02*
X103448207Y-136813990D01*
D12*
X103166333Y-71186318D02*
X102561571Y-71186318D01*
X102561571Y-71186318D02*
X102561571Y-69916318D01*
X104254905Y-71186318D02*
X103529190Y-71186318D01*
X103892047Y-71186318D02*
X103892047Y-69916318D01*
X103892047Y-69916318D02*
X103771095Y-70097746D01*
X103771095Y-70097746D02*
X103650143Y-70218699D01*
X103650143Y-70218699D02*
X103529190Y-70279175D01*
D11*
X107021333Y-138758819D02*
X106688000Y-138282628D01*
X106449905Y-138758819D02*
X106449905Y-137758819D01*
X106449905Y-137758819D02*
X106830857Y-137758819D01*
X106830857Y-137758819D02*
X106926095Y-137806438D01*
X106926095Y-137806438D02*
X106973714Y-137854057D01*
X106973714Y-137854057D02*
X107021333Y-137949295D01*
X107021333Y-137949295D02*
X107021333Y-138092152D01*
X107021333Y-138092152D02*
X106973714Y-138187390D01*
X106973714Y-138187390D02*
X106926095Y-138235009D01*
X106926095Y-138235009D02*
X106830857Y-138282628D01*
X106830857Y-138282628D02*
X106449905Y-138282628D01*
X107402286Y-137854057D02*
X107449905Y-137806438D01*
X107449905Y-137806438D02*
X107545143Y-137758819D01*
X107545143Y-137758819D02*
X107783238Y-137758819D01*
X107783238Y-137758819D02*
X107878476Y-137806438D01*
X107878476Y-137806438D02*
X107926095Y-137854057D01*
X107926095Y-137854057D02*
X107973714Y-137949295D01*
X107973714Y-137949295D02*
X107973714Y-138044533D01*
X107973714Y-138044533D02*
X107926095Y-138187390D01*
X107926095Y-138187390D02*
X107354667Y-138758819D01*
X107354667Y-138758819D02*
X107973714Y-138758819D01*
X122861666Y-133849819D02*
X122861666Y-134564104D01*
X122861666Y-134564104D02*
X122814047Y-134706961D01*
X122814047Y-134706961D02*
X122718809Y-134802200D01*
X122718809Y-134802200D02*
X122575952Y-134849819D01*
X122575952Y-134849819D02*
X122480714Y-134849819D01*
X123385476Y-134849819D02*
X123575952Y-134849819D01*
X123575952Y-134849819D02*
X123671190Y-134802200D01*
X123671190Y-134802200D02*
X123718809Y-134754580D01*
X123718809Y-134754580D02*
X123814047Y-134611723D01*
X123814047Y-134611723D02*
X123861666Y-134421247D01*
X123861666Y-134421247D02*
X123861666Y-134040295D01*
X123861666Y-134040295D02*
X123814047Y-133945057D01*
X123814047Y-133945057D02*
X123766428Y-133897438D01*
X123766428Y-133897438D02*
X123671190Y-133849819D01*
X123671190Y-133849819D02*
X123480714Y-133849819D01*
X123480714Y-133849819D02*
X123385476Y-133897438D01*
X123385476Y-133897438D02*
X123337857Y-133945057D01*
X123337857Y-133945057D02*
X123290238Y-134040295D01*
X123290238Y-134040295D02*
X123290238Y-134278390D01*
X123290238Y-134278390D02*
X123337857Y-134373628D01*
X123337857Y-134373628D02*
X123385476Y-134421247D01*
X123385476Y-134421247D02*
X123480714Y-134468866D01*
X123480714Y-134468866D02*
X123671190Y-134468866D01*
X123671190Y-134468866D02*
X123766428Y-134421247D01*
X123766428Y-134421247D02*
X123814047Y-134373628D01*
X123814047Y-134373628D02*
X123861666Y-134278390D01*
D12*
X140569647Y-144840270D02*
X140448695Y-144779794D01*
X140448695Y-144779794D02*
X140327742Y-144658842D01*
X140327742Y-144658842D02*
X140146314Y-144477413D01*
X140146314Y-144477413D02*
X140025361Y-144416937D01*
X140025361Y-144416937D02*
X139904409Y-144416937D01*
X139964885Y-144719318D02*
X139843933Y-144658842D01*
X139843933Y-144658842D02*
X139722980Y-144537889D01*
X139722980Y-144537889D02*
X139662504Y-144295984D01*
X139662504Y-144295984D02*
X139662504Y-143872651D01*
X139662504Y-143872651D02*
X139722980Y-143630746D01*
X139722980Y-143630746D02*
X139843933Y-143509794D01*
X139843933Y-143509794D02*
X139964885Y-143449318D01*
X139964885Y-143449318D02*
X140206790Y-143449318D01*
X140206790Y-143449318D02*
X140327742Y-143509794D01*
X140327742Y-143509794D02*
X140448695Y-143630746D01*
X140448695Y-143630746D02*
X140509171Y-143872651D01*
X140509171Y-143872651D02*
X140509171Y-144295984D01*
X140509171Y-144295984D02*
X140448695Y-144537889D01*
X140448695Y-144537889D02*
X140327742Y-144658842D01*
X140327742Y-144658842D02*
X140206790Y-144719318D01*
X140206790Y-144719318D02*
X139964885Y-144719318D01*
X141597742Y-143449318D02*
X141355837Y-143449318D01*
X141355837Y-143449318D02*
X141234885Y-143509794D01*
X141234885Y-143509794D02*
X141174409Y-143570270D01*
X141174409Y-143570270D02*
X141053456Y-143751699D01*
X141053456Y-143751699D02*
X140992980Y-143993603D01*
X140992980Y-143993603D02*
X140992980Y-144477413D01*
X140992980Y-144477413D02*
X141053456Y-144598365D01*
X141053456Y-144598365D02*
X141113933Y-144658842D01*
X141113933Y-144658842D02*
X141234885Y-144719318D01*
X141234885Y-144719318D02*
X141476790Y-144719318D01*
X141476790Y-144719318D02*
X141597742Y-144658842D01*
X141597742Y-144658842D02*
X141658218Y-144598365D01*
X141658218Y-144598365D02*
X141718695Y-144477413D01*
X141718695Y-144477413D02*
X141718695Y-144175032D01*
X141718695Y-144175032D02*
X141658218Y-144054080D01*
X141658218Y-144054080D02*
X141597742Y-143993603D01*
X141597742Y-143993603D02*
X141476790Y-143933127D01*
X141476790Y-143933127D02*
X141234885Y-143933127D01*
X141234885Y-143933127D02*
X141113933Y-143993603D01*
X141113933Y-143993603D02*
X141053456Y-144054080D01*
X141053456Y-144054080D02*
X140992980Y-144175032D01*
D11*
X106488819Y-131063904D02*
X107298342Y-131063904D01*
X107298342Y-131063904D02*
X107393580Y-131016285D01*
X107393580Y-131016285D02*
X107441200Y-130968666D01*
X107441200Y-130968666D02*
X107488819Y-130873428D01*
X107488819Y-130873428D02*
X107488819Y-130682952D01*
X107488819Y-130682952D02*
X107441200Y-130587714D01*
X107441200Y-130587714D02*
X107393580Y-130540095D01*
X107393580Y-130540095D02*
X107298342Y-130492476D01*
X107298342Y-130492476D02*
X106488819Y-130492476D01*
X107488819Y-129492476D02*
X107488819Y-130063904D01*
X107488819Y-129778190D02*
X106488819Y-129778190D01*
X106488819Y-129778190D02*
X106631676Y-129873428D01*
X106631676Y-129873428D02*
X106726914Y-129968666D01*
X106726914Y-129968666D02*
X106774533Y-130063904D01*
X100312819Y-92432094D02*
X99312819Y-92432094D01*
X99312819Y-92432094D02*
X99312819Y-92193999D01*
X99312819Y-92193999D02*
X99360438Y-92051142D01*
X99360438Y-92051142D02*
X99455676Y-91955904D01*
X99455676Y-91955904D02*
X99550914Y-91908285D01*
X99550914Y-91908285D02*
X99741390Y-91860666D01*
X99741390Y-91860666D02*
X99884247Y-91860666D01*
X99884247Y-91860666D02*
X100074723Y-91908285D01*
X100074723Y-91908285D02*
X100169961Y-91955904D01*
X100169961Y-91955904D02*
X100265200Y-92051142D01*
X100265200Y-92051142D02*
X100312819Y-92193999D01*
X100312819Y-92193999D02*
X100312819Y-92432094D01*
X100312819Y-90908285D02*
X100312819Y-91479713D01*
X100312819Y-91193999D02*
X99312819Y-91193999D01*
X99312819Y-91193999D02*
X99455676Y-91289237D01*
X99455676Y-91289237D02*
X99550914Y-91384475D01*
X99550914Y-91384475D02*
X99598533Y-91479713D01*
X152741333Y-138758819D02*
X152408000Y-138282628D01*
X152169905Y-138758819D02*
X152169905Y-137758819D01*
X152169905Y-137758819D02*
X152550857Y-137758819D01*
X152550857Y-137758819D02*
X152646095Y-137806438D01*
X152646095Y-137806438D02*
X152693714Y-137854057D01*
X152693714Y-137854057D02*
X152741333Y-137949295D01*
X152741333Y-137949295D02*
X152741333Y-138092152D01*
X152741333Y-138092152D02*
X152693714Y-138187390D01*
X152693714Y-138187390D02*
X152646095Y-138235009D01*
X152646095Y-138235009D02*
X152550857Y-138282628D01*
X152550857Y-138282628D02*
X152169905Y-138282628D01*
X153074667Y-137758819D02*
X153741333Y-137758819D01*
X153741333Y-137758819D02*
X153312762Y-138758819D01*
X73860066Y-150230118D02*
X73860066Y-150944403D01*
X73860066Y-150944403D02*
X73812447Y-151087260D01*
X73812447Y-151087260D02*
X73717209Y-151182499D01*
X73717209Y-151182499D02*
X73574352Y-151230118D01*
X73574352Y-151230118D02*
X73479114Y-151230118D01*
X74479114Y-150658689D02*
X74383876Y-150611070D01*
X74383876Y-150611070D02*
X74336257Y-150563451D01*
X74336257Y-150563451D02*
X74288638Y-150468213D01*
X74288638Y-150468213D02*
X74288638Y-150420594D01*
X74288638Y-150420594D02*
X74336257Y-150325356D01*
X74336257Y-150325356D02*
X74383876Y-150277737D01*
X74383876Y-150277737D02*
X74479114Y-150230118D01*
X74479114Y-150230118D02*
X74669590Y-150230118D01*
X74669590Y-150230118D02*
X74764828Y-150277737D01*
X74764828Y-150277737D02*
X74812447Y-150325356D01*
X74812447Y-150325356D02*
X74860066Y-150420594D01*
X74860066Y-150420594D02*
X74860066Y-150468213D01*
X74860066Y-150468213D02*
X74812447Y-150563451D01*
X74812447Y-150563451D02*
X74764828Y-150611070D01*
X74764828Y-150611070D02*
X74669590Y-150658689D01*
X74669590Y-150658689D02*
X74479114Y-150658689D01*
X74479114Y-150658689D02*
X74383876Y-150706308D01*
X74383876Y-150706308D02*
X74336257Y-150753927D01*
X74336257Y-150753927D02*
X74288638Y-150849165D01*
X74288638Y-150849165D02*
X74288638Y-151039641D01*
X74288638Y-151039641D02*
X74336257Y-151134879D01*
X74336257Y-151134879D02*
X74383876Y-151182499D01*
X74383876Y-151182499D02*
X74479114Y-151230118D01*
X74479114Y-151230118D02*
X74669590Y-151230118D01*
X74669590Y-151230118D02*
X74764828Y-151182499D01*
X74764828Y-151182499D02*
X74812447Y-151134879D01*
X74812447Y-151134879D02*
X74860066Y-151039641D01*
X74860066Y-151039641D02*
X74860066Y-150849165D01*
X74860066Y-150849165D02*
X74812447Y-150753927D01*
X74812447Y-150753927D02*
X74764828Y-150706308D01*
X74764828Y-150706308D02*
X74669590Y-150658689D01*
X119616819Y-92432094D02*
X118616819Y-92432094D01*
X118616819Y-92432094D02*
X118616819Y-92193999D01*
X118616819Y-92193999D02*
X118664438Y-92051142D01*
X118664438Y-92051142D02*
X118759676Y-91955904D01*
X118759676Y-91955904D02*
X118854914Y-91908285D01*
X118854914Y-91908285D02*
X119045390Y-91860666D01*
X119045390Y-91860666D02*
X119188247Y-91860666D01*
X119188247Y-91860666D02*
X119378723Y-91908285D01*
X119378723Y-91908285D02*
X119473961Y-91955904D01*
X119473961Y-91955904D02*
X119569200Y-92051142D01*
X119569200Y-92051142D02*
X119616819Y-92193999D01*
X119616819Y-92193999D02*
X119616819Y-92432094D01*
X118712057Y-91479713D02*
X118664438Y-91432094D01*
X118664438Y-91432094D02*
X118616819Y-91336856D01*
X118616819Y-91336856D02*
X118616819Y-91098761D01*
X118616819Y-91098761D02*
X118664438Y-91003523D01*
X118664438Y-91003523D02*
X118712057Y-90955904D01*
X118712057Y-90955904D02*
X118807295Y-90908285D01*
X118807295Y-90908285D02*
X118902533Y-90908285D01*
X118902533Y-90908285D02*
X119045390Y-90955904D01*
X119045390Y-90955904D02*
X119616819Y-91527332D01*
X119616819Y-91527332D02*
X119616819Y-90908285D01*
X99179142Y-141170819D02*
X98845809Y-140694628D01*
X98607714Y-141170819D02*
X98607714Y-140170819D01*
X98607714Y-140170819D02*
X98988666Y-140170819D01*
X98988666Y-140170819D02*
X99083904Y-140218438D01*
X99083904Y-140218438D02*
X99131523Y-140266057D01*
X99131523Y-140266057D02*
X99179142Y-140361295D01*
X99179142Y-140361295D02*
X99179142Y-140504152D01*
X99179142Y-140504152D02*
X99131523Y-140599390D01*
X99131523Y-140599390D02*
X99083904Y-140647009D01*
X99083904Y-140647009D02*
X98988666Y-140694628D01*
X98988666Y-140694628D02*
X98607714Y-140694628D01*
X99560095Y-140266057D02*
X99607714Y-140218438D01*
X99607714Y-140218438D02*
X99702952Y-140170819D01*
X99702952Y-140170819D02*
X99941047Y-140170819D01*
X99941047Y-140170819D02*
X100036285Y-140218438D01*
X100036285Y-140218438D02*
X100083904Y-140266057D01*
X100083904Y-140266057D02*
X100131523Y-140361295D01*
X100131523Y-140361295D02*
X100131523Y-140456533D01*
X100131523Y-140456533D02*
X100083904Y-140599390D01*
X100083904Y-140599390D02*
X99512476Y-141170819D01*
X99512476Y-141170819D02*
X100131523Y-141170819D01*
X100464857Y-140170819D02*
X101083904Y-140170819D01*
X101083904Y-140170819D02*
X100750571Y-140551771D01*
X100750571Y-140551771D02*
X100893428Y-140551771D01*
X100893428Y-140551771D02*
X100988666Y-140599390D01*
X100988666Y-140599390D02*
X101036285Y-140647009D01*
X101036285Y-140647009D02*
X101083904Y-140742247D01*
X101083904Y-140742247D02*
X101083904Y-140980342D01*
X101083904Y-140980342D02*
X101036285Y-141075580D01*
X101036285Y-141075580D02*
X100988666Y-141123200D01*
X100988666Y-141123200D02*
X100893428Y-141170819D01*
X100893428Y-141170819D02*
X100607714Y-141170819D01*
X100607714Y-141170819D02*
X100512476Y-141123200D01*
X100512476Y-141123200D02*
X100464857Y-141075580D01*
X105610819Y-127642857D02*
X105134628Y-127976190D01*
X105610819Y-128214285D02*
X104610819Y-128214285D01*
X104610819Y-128214285D02*
X104610819Y-127833333D01*
X104610819Y-127833333D02*
X104658438Y-127738095D01*
X104658438Y-127738095D02*
X104706057Y-127690476D01*
X104706057Y-127690476D02*
X104801295Y-127642857D01*
X104801295Y-127642857D02*
X104944152Y-127642857D01*
X104944152Y-127642857D02*
X105039390Y-127690476D01*
X105039390Y-127690476D02*
X105087009Y-127738095D01*
X105087009Y-127738095D02*
X105134628Y-127833333D01*
X105134628Y-127833333D02*
X105134628Y-128214285D01*
X104706057Y-127261904D02*
X104658438Y-127214285D01*
X104658438Y-127214285D02*
X104610819Y-127119047D01*
X104610819Y-127119047D02*
X104610819Y-126880952D01*
X104610819Y-126880952D02*
X104658438Y-126785714D01*
X104658438Y-126785714D02*
X104706057Y-126738095D01*
X104706057Y-126738095D02*
X104801295Y-126690476D01*
X104801295Y-126690476D02*
X104896533Y-126690476D01*
X104896533Y-126690476D02*
X105039390Y-126738095D01*
X105039390Y-126738095D02*
X105610819Y-127309523D01*
X105610819Y-127309523D02*
X105610819Y-126690476D01*
X104610819Y-126071428D02*
X104610819Y-125976190D01*
X104610819Y-125976190D02*
X104658438Y-125880952D01*
X104658438Y-125880952D02*
X104706057Y-125833333D01*
X104706057Y-125833333D02*
X104801295Y-125785714D01*
X104801295Y-125785714D02*
X104991771Y-125738095D01*
X104991771Y-125738095D02*
X105229866Y-125738095D01*
X105229866Y-125738095D02*
X105420342Y-125785714D01*
X105420342Y-125785714D02*
X105515580Y-125833333D01*
X105515580Y-125833333D02*
X105563200Y-125880952D01*
X105563200Y-125880952D02*
X105610819Y-125976190D01*
X105610819Y-125976190D02*
X105610819Y-126071428D01*
X105610819Y-126071428D02*
X105563200Y-126166666D01*
X105563200Y-126166666D02*
X105515580Y-126214285D01*
X105515580Y-126214285D02*
X105420342Y-126261904D01*
X105420342Y-126261904D02*
X105229866Y-126309523D01*
X105229866Y-126309523D02*
X104991771Y-126309523D01*
X104991771Y-126309523D02*
X104801295Y-126261904D01*
X104801295Y-126261904D02*
X104706057Y-126214285D01*
X104706057Y-126214285D02*
X104658438Y-126166666D01*
X104658438Y-126166666D02*
X104610819Y-126071428D01*
X192905142Y-138758819D02*
X192571809Y-138282628D01*
X192333714Y-138758819D02*
X192333714Y-137758819D01*
X192333714Y-137758819D02*
X192714666Y-137758819D01*
X192714666Y-137758819D02*
X192809904Y-137806438D01*
X192809904Y-137806438D02*
X192857523Y-137854057D01*
X192857523Y-137854057D02*
X192905142Y-137949295D01*
X192905142Y-137949295D02*
X192905142Y-138092152D01*
X192905142Y-138092152D02*
X192857523Y-138187390D01*
X192857523Y-138187390D02*
X192809904Y-138235009D01*
X192809904Y-138235009D02*
X192714666Y-138282628D01*
X192714666Y-138282628D02*
X192333714Y-138282628D01*
X193857523Y-138758819D02*
X193286095Y-138758819D01*
X193571809Y-138758819D02*
X193571809Y-137758819D01*
X193571809Y-137758819D02*
X193476571Y-137901676D01*
X193476571Y-137901676D02*
X193381333Y-137996914D01*
X193381333Y-137996914D02*
X193286095Y-138044533D01*
X194476571Y-137758819D02*
X194571809Y-137758819D01*
X194571809Y-137758819D02*
X194667047Y-137806438D01*
X194667047Y-137806438D02*
X194714666Y-137854057D01*
X194714666Y-137854057D02*
X194762285Y-137949295D01*
X194762285Y-137949295D02*
X194809904Y-138139771D01*
X194809904Y-138139771D02*
X194809904Y-138377866D01*
X194809904Y-138377866D02*
X194762285Y-138568342D01*
X194762285Y-138568342D02*
X194714666Y-138663580D01*
X194714666Y-138663580D02*
X194667047Y-138711200D01*
X194667047Y-138711200D02*
X194571809Y-138758819D01*
X194571809Y-138758819D02*
X194476571Y-138758819D01*
X194476571Y-138758819D02*
X194381333Y-138711200D01*
X194381333Y-138711200D02*
X194333714Y-138663580D01*
X194333714Y-138663580D02*
X194286095Y-138568342D01*
X194286095Y-138568342D02*
X194238476Y-138377866D01*
X194238476Y-138377866D02*
X194238476Y-138139771D01*
X194238476Y-138139771D02*
X194286095Y-137949295D01*
X194286095Y-137949295D02*
X194333714Y-137854057D01*
X194333714Y-137854057D02*
X194381333Y-137806438D01*
X194381333Y-137806438D02*
X194476571Y-137758819D01*
X117181333Y-138758819D02*
X116848000Y-138282628D01*
X116609905Y-138758819D02*
X116609905Y-137758819D01*
X116609905Y-137758819D02*
X116990857Y-137758819D01*
X116990857Y-137758819D02*
X117086095Y-137806438D01*
X117086095Y-137806438D02*
X117133714Y-137854057D01*
X117133714Y-137854057D02*
X117181333Y-137949295D01*
X117181333Y-137949295D02*
X117181333Y-138092152D01*
X117181333Y-138092152D02*
X117133714Y-138187390D01*
X117133714Y-138187390D02*
X117086095Y-138235009D01*
X117086095Y-138235009D02*
X116990857Y-138282628D01*
X116990857Y-138282628D02*
X116609905Y-138282628D01*
X117514667Y-137758819D02*
X118133714Y-137758819D01*
X118133714Y-137758819D02*
X117800381Y-138139771D01*
X117800381Y-138139771D02*
X117943238Y-138139771D01*
X117943238Y-138139771D02*
X118038476Y-138187390D01*
X118038476Y-138187390D02*
X118086095Y-138235009D01*
X118086095Y-138235009D02*
X118133714Y-138330247D01*
X118133714Y-138330247D02*
X118133714Y-138568342D01*
X118133714Y-138568342D02*
X118086095Y-138663580D01*
X118086095Y-138663580D02*
X118038476Y-138711200D01*
X118038476Y-138711200D02*
X117943238Y-138758819D01*
X117943238Y-138758819D02*
X117657524Y-138758819D01*
X117657524Y-138758819D02*
X117562286Y-138711200D01*
X117562286Y-138711200D02*
X117514667Y-138663580D01*
D12*
X105355365Y-104422666D02*
X105415842Y-104483142D01*
X105415842Y-104483142D02*
X105476318Y-104664571D01*
X105476318Y-104664571D02*
X105476318Y-104785523D01*
X105476318Y-104785523D02*
X105415842Y-104966952D01*
X105415842Y-104966952D02*
X105294889Y-105087904D01*
X105294889Y-105087904D02*
X105173937Y-105148381D01*
X105173937Y-105148381D02*
X104932032Y-105208857D01*
X104932032Y-105208857D02*
X104750603Y-105208857D01*
X104750603Y-105208857D02*
X104508699Y-105148381D01*
X104508699Y-105148381D02*
X104387746Y-105087904D01*
X104387746Y-105087904D02*
X104266794Y-104966952D01*
X104266794Y-104966952D02*
X104206318Y-104785523D01*
X104206318Y-104785523D02*
X104206318Y-104664571D01*
X104206318Y-104664571D02*
X104266794Y-104483142D01*
X104266794Y-104483142D02*
X104327270Y-104422666D01*
X104750603Y-103696952D02*
X104690127Y-103817904D01*
X104690127Y-103817904D02*
X104629651Y-103878381D01*
X104629651Y-103878381D02*
X104508699Y-103938857D01*
X104508699Y-103938857D02*
X104448222Y-103938857D01*
X104448222Y-103938857D02*
X104327270Y-103878381D01*
X104327270Y-103878381D02*
X104266794Y-103817904D01*
X104266794Y-103817904D02*
X104206318Y-103696952D01*
X104206318Y-103696952D02*
X104206318Y-103455047D01*
X104206318Y-103455047D02*
X104266794Y-103334095D01*
X104266794Y-103334095D02*
X104327270Y-103273619D01*
X104327270Y-103273619D02*
X104448222Y-103213142D01*
X104448222Y-103213142D02*
X104508699Y-103213142D01*
X104508699Y-103213142D02*
X104629651Y-103273619D01*
X104629651Y-103273619D02*
X104690127Y-103334095D01*
X104690127Y-103334095D02*
X104750603Y-103455047D01*
X104750603Y-103455047D02*
X104750603Y-103696952D01*
X104750603Y-103696952D02*
X104811080Y-103817904D01*
X104811080Y-103817904D02*
X104871556Y-103878381D01*
X104871556Y-103878381D02*
X104992508Y-103938857D01*
X104992508Y-103938857D02*
X105234413Y-103938857D01*
X105234413Y-103938857D02*
X105355365Y-103878381D01*
X105355365Y-103878381D02*
X105415842Y-103817904D01*
X105415842Y-103817904D02*
X105476318Y-103696952D01*
X105476318Y-103696952D02*
X105476318Y-103455047D01*
X105476318Y-103455047D02*
X105415842Y-103334095D01*
X105415842Y-103334095D02*
X105355365Y-103273619D01*
X105355365Y-103273619D02*
X105234413Y-103213142D01*
X105234413Y-103213142D02*
X104992508Y-103213142D01*
X104992508Y-103213142D02*
X104871556Y-103273619D01*
X104871556Y-103273619D02*
X104811080Y-103334095D01*
X104811080Y-103334095D02*
X104750603Y-103455047D01*
D11*
X132421333Y-138758819D02*
X132088000Y-138282628D01*
X131849905Y-138758819D02*
X131849905Y-137758819D01*
X131849905Y-137758819D02*
X132230857Y-137758819D01*
X132230857Y-137758819D02*
X132326095Y-137806438D01*
X132326095Y-137806438D02*
X132373714Y-137854057D01*
X132373714Y-137854057D02*
X132421333Y-137949295D01*
X132421333Y-137949295D02*
X132421333Y-138092152D01*
X132421333Y-138092152D02*
X132373714Y-138187390D01*
X132373714Y-138187390D02*
X132326095Y-138235009D01*
X132326095Y-138235009D02*
X132230857Y-138282628D01*
X132230857Y-138282628D02*
X131849905Y-138282628D01*
X133278476Y-138092152D02*
X133278476Y-138758819D01*
X133040381Y-137711200D02*
X132802286Y-138425485D01*
X132802286Y-138425485D02*
X133421333Y-138425485D01*
D12*
X125329647Y-144891070D02*
X125208695Y-144830594D01*
X125208695Y-144830594D02*
X125087742Y-144709642D01*
X125087742Y-144709642D02*
X124906314Y-144528213D01*
X124906314Y-144528213D02*
X124785361Y-144467737D01*
X124785361Y-144467737D02*
X124664409Y-144467737D01*
X124724885Y-144770118D02*
X124603933Y-144709642D01*
X124603933Y-144709642D02*
X124482980Y-144588689D01*
X124482980Y-144588689D02*
X124422504Y-144346784D01*
X124422504Y-144346784D02*
X124422504Y-143923451D01*
X124422504Y-143923451D02*
X124482980Y-143681546D01*
X124482980Y-143681546D02*
X124603933Y-143560594D01*
X124603933Y-143560594D02*
X124724885Y-143500118D01*
X124724885Y-143500118D02*
X124966790Y-143500118D01*
X124966790Y-143500118D02*
X125087742Y-143560594D01*
X125087742Y-143560594D02*
X125208695Y-143681546D01*
X125208695Y-143681546D02*
X125269171Y-143923451D01*
X125269171Y-143923451D02*
X125269171Y-144346784D01*
X125269171Y-144346784D02*
X125208695Y-144588689D01*
X125208695Y-144588689D02*
X125087742Y-144709642D01*
X125087742Y-144709642D02*
X124966790Y-144770118D01*
X124966790Y-144770118D02*
X124724885Y-144770118D01*
X126357742Y-143923451D02*
X126357742Y-144770118D01*
X126055361Y-143439642D02*
X125752980Y-144346784D01*
X125752980Y-144346784D02*
X126539171Y-144346784D01*
X110064247Y-144891070D02*
X109943295Y-144830594D01*
X109943295Y-144830594D02*
X109822342Y-144709642D01*
X109822342Y-144709642D02*
X109640914Y-144528213D01*
X109640914Y-144528213D02*
X109519961Y-144467737D01*
X109519961Y-144467737D02*
X109399009Y-144467737D01*
X109459485Y-144770118D02*
X109338533Y-144709642D01*
X109338533Y-144709642D02*
X109217580Y-144588689D01*
X109217580Y-144588689D02*
X109157104Y-144346784D01*
X109157104Y-144346784D02*
X109157104Y-143923451D01*
X109157104Y-143923451D02*
X109217580Y-143681546D01*
X109217580Y-143681546D02*
X109338533Y-143560594D01*
X109338533Y-143560594D02*
X109459485Y-143500118D01*
X109459485Y-143500118D02*
X109701390Y-143500118D01*
X109701390Y-143500118D02*
X109822342Y-143560594D01*
X109822342Y-143560594D02*
X109943295Y-143681546D01*
X109943295Y-143681546D02*
X110003771Y-143923451D01*
X110003771Y-143923451D02*
X110003771Y-144346784D01*
X110003771Y-144346784D02*
X109943295Y-144588689D01*
X109943295Y-144588689D02*
X109822342Y-144709642D01*
X109822342Y-144709642D02*
X109701390Y-144770118D01*
X109701390Y-144770118D02*
X109459485Y-144770118D01*
X110487580Y-143621070D02*
X110548056Y-143560594D01*
X110548056Y-143560594D02*
X110669009Y-143500118D01*
X110669009Y-143500118D02*
X110971390Y-143500118D01*
X110971390Y-143500118D02*
X111092342Y-143560594D01*
X111092342Y-143560594D02*
X111152818Y-143621070D01*
X111152818Y-143621070D02*
X111213295Y-143742022D01*
X111213295Y-143742022D02*
X111213295Y-143862975D01*
X111213295Y-143862975D02*
X111152818Y-144044403D01*
X111152818Y-144044403D02*
X110427104Y-144770118D01*
X110427104Y-144770118D02*
X111213295Y-144770118D01*
D11*
X137501333Y-138758819D02*
X137168000Y-138282628D01*
X136929905Y-138758819D02*
X136929905Y-137758819D01*
X136929905Y-137758819D02*
X137310857Y-137758819D01*
X137310857Y-137758819D02*
X137406095Y-137806438D01*
X137406095Y-137806438D02*
X137453714Y-137854057D01*
X137453714Y-137854057D02*
X137501333Y-137949295D01*
X137501333Y-137949295D02*
X137501333Y-138092152D01*
X137501333Y-138092152D02*
X137453714Y-138187390D01*
X137453714Y-138187390D02*
X137406095Y-138235009D01*
X137406095Y-138235009D02*
X137310857Y-138282628D01*
X137310857Y-138282628D02*
X136929905Y-138282628D01*
X137977524Y-138758819D02*
X138168000Y-138758819D01*
X138168000Y-138758819D02*
X138263238Y-138711200D01*
X138263238Y-138711200D02*
X138310857Y-138663580D01*
X138310857Y-138663580D02*
X138406095Y-138520723D01*
X138406095Y-138520723D02*
X138453714Y-138330247D01*
X138453714Y-138330247D02*
X138453714Y-137949295D01*
X138453714Y-137949295D02*
X138406095Y-137854057D01*
X138406095Y-137854057D02*
X138358476Y-137806438D01*
X138358476Y-137806438D02*
X138263238Y-137758819D01*
X138263238Y-137758819D02*
X138072762Y-137758819D01*
X138072762Y-137758819D02*
X137977524Y-137806438D01*
X137977524Y-137806438D02*
X137929905Y-137854057D01*
X137929905Y-137854057D02*
X137882286Y-137949295D01*
X137882286Y-137949295D02*
X137882286Y-138187390D01*
X137882286Y-138187390D02*
X137929905Y-138282628D01*
X137929905Y-138282628D02*
X137977524Y-138330247D01*
X137977524Y-138330247D02*
X138072762Y-138377866D01*
X138072762Y-138377866D02*
X138263238Y-138377866D01*
X138263238Y-138377866D02*
X138358476Y-138330247D01*
X138358476Y-138330247D02*
X138406095Y-138282628D01*
X138406095Y-138282628D02*
X138453714Y-138187390D01*
X100195142Y-143456819D02*
X99861809Y-142980628D01*
X99623714Y-143456819D02*
X99623714Y-142456819D01*
X99623714Y-142456819D02*
X100004666Y-142456819D01*
X100004666Y-142456819D02*
X100099904Y-142504438D01*
X100099904Y-142504438D02*
X100147523Y-142552057D01*
X100147523Y-142552057D02*
X100195142Y-142647295D01*
X100195142Y-142647295D02*
X100195142Y-142790152D01*
X100195142Y-142790152D02*
X100147523Y-142885390D01*
X100147523Y-142885390D02*
X100099904Y-142933009D01*
X100099904Y-142933009D02*
X100004666Y-142980628D01*
X100004666Y-142980628D02*
X99623714Y-142980628D01*
X100576095Y-142552057D02*
X100623714Y-142504438D01*
X100623714Y-142504438D02*
X100718952Y-142456819D01*
X100718952Y-142456819D02*
X100957047Y-142456819D01*
X100957047Y-142456819D02*
X101052285Y-142504438D01*
X101052285Y-142504438D02*
X101099904Y-142552057D01*
X101099904Y-142552057D02*
X101147523Y-142647295D01*
X101147523Y-142647295D02*
X101147523Y-142742533D01*
X101147523Y-142742533D02*
X101099904Y-142885390D01*
X101099904Y-142885390D02*
X100528476Y-143456819D01*
X100528476Y-143456819D02*
X101147523Y-143456819D01*
X102099904Y-143456819D02*
X101528476Y-143456819D01*
X101814190Y-143456819D02*
X101814190Y-142456819D01*
X101814190Y-142456819D02*
X101718952Y-142599676D01*
X101718952Y-142599676D02*
X101623714Y-142694914D01*
X101623714Y-142694914D02*
X101528476Y-142742533D01*
X101546819Y-125356857D02*
X101070628Y-125690190D01*
X101546819Y-125928285D02*
X100546819Y-125928285D01*
X100546819Y-125928285D02*
X100546819Y-125547333D01*
X100546819Y-125547333D02*
X100594438Y-125452095D01*
X100594438Y-125452095D02*
X100642057Y-125404476D01*
X100642057Y-125404476D02*
X100737295Y-125356857D01*
X100737295Y-125356857D02*
X100880152Y-125356857D01*
X100880152Y-125356857D02*
X100975390Y-125404476D01*
X100975390Y-125404476D02*
X101023009Y-125452095D01*
X101023009Y-125452095D02*
X101070628Y-125547333D01*
X101070628Y-125547333D02*
X101070628Y-125928285D01*
X101546819Y-124404476D02*
X101546819Y-124975904D01*
X101546819Y-124690190D02*
X100546819Y-124690190D01*
X100546819Y-124690190D02*
X100689676Y-124785428D01*
X100689676Y-124785428D02*
X100784914Y-124880666D01*
X100784914Y-124880666D02*
X100832533Y-124975904D01*
X101546819Y-123928285D02*
X101546819Y-123737809D01*
X101546819Y-123737809D02*
X101499200Y-123642571D01*
X101499200Y-123642571D02*
X101451580Y-123594952D01*
X101451580Y-123594952D02*
X101308723Y-123499714D01*
X101308723Y-123499714D02*
X101118247Y-123452095D01*
X101118247Y-123452095D02*
X100737295Y-123452095D01*
X100737295Y-123452095D02*
X100642057Y-123499714D01*
X100642057Y-123499714D02*
X100594438Y-123547333D01*
X100594438Y-123547333D02*
X100546819Y-123642571D01*
X100546819Y-123642571D02*
X100546819Y-123833047D01*
X100546819Y-123833047D02*
X100594438Y-123928285D01*
X100594438Y-123928285D02*
X100642057Y-123975904D01*
X100642057Y-123975904D02*
X100737295Y-124023523D01*
X100737295Y-124023523D02*
X100975390Y-124023523D01*
X100975390Y-124023523D02*
X101070628Y-123975904D01*
X101070628Y-123975904D02*
X101118247Y-123928285D01*
X101118247Y-123928285D02*
X101165866Y-123833047D01*
X101165866Y-123833047D02*
X101165866Y-123642571D01*
X101165866Y-123642571D02*
X101118247Y-123547333D01*
X101118247Y-123547333D02*
X101070628Y-123499714D01*
X101070628Y-123499714D02*
X100975390Y-123452095D01*
X109270895Y-92952219D02*
X109270895Y-93761742D01*
X109270895Y-93761742D02*
X109318514Y-93856980D01*
X109318514Y-93856980D02*
X109366133Y-93904600D01*
X109366133Y-93904600D02*
X109461371Y-93952219D01*
X109461371Y-93952219D02*
X109651847Y-93952219D01*
X109651847Y-93952219D02*
X109747085Y-93904600D01*
X109747085Y-93904600D02*
X109794704Y-93856980D01*
X109794704Y-93856980D02*
X109842323Y-93761742D01*
X109842323Y-93761742D02*
X109842323Y-92952219D01*
X110270895Y-93047457D02*
X110318514Y-92999838D01*
X110318514Y-92999838D02*
X110413752Y-92952219D01*
X110413752Y-92952219D02*
X110651847Y-92952219D01*
X110651847Y-92952219D02*
X110747085Y-92999838D01*
X110747085Y-92999838D02*
X110794704Y-93047457D01*
X110794704Y-93047457D02*
X110842323Y-93142695D01*
X110842323Y-93142695D02*
X110842323Y-93237933D01*
X110842323Y-93237933D02*
X110794704Y-93380790D01*
X110794704Y-93380790D02*
X110223276Y-93952219D01*
X110223276Y-93952219D02*
X110842323Y-93952219D01*
X100012500Y-92926819D02*
X100012500Y-93164914D01*
X99774405Y-93069676D02*
X100012500Y-93164914D01*
X100012500Y-93164914D02*
X100250595Y-93069676D01*
X99869643Y-93355390D02*
X100012500Y-93164914D01*
X100012500Y-93164914D02*
X100155357Y-93355390D01*
X100012500Y-92926819D02*
X100012500Y-93164914D01*
X99774405Y-93069676D02*
X100012500Y-93164914D01*
X100012500Y-93164914D02*
X100250595Y-93069676D01*
X99869643Y-93355390D02*
X100012500Y-93164914D01*
X100012500Y-93164914D02*
X100155357Y-93355390D01*
X122293142Y-114246819D02*
X121959809Y-113770628D01*
X121721714Y-114246819D02*
X121721714Y-113246819D01*
X121721714Y-113246819D02*
X122102666Y-113246819D01*
X122102666Y-113246819D02*
X122197904Y-113294438D01*
X122197904Y-113294438D02*
X122245523Y-113342057D01*
X122245523Y-113342057D02*
X122293142Y-113437295D01*
X122293142Y-113437295D02*
X122293142Y-113580152D01*
X122293142Y-113580152D02*
X122245523Y-113675390D01*
X122245523Y-113675390D02*
X122197904Y-113723009D01*
X122197904Y-113723009D02*
X122102666Y-113770628D01*
X122102666Y-113770628D02*
X121721714Y-113770628D01*
X123245523Y-114246819D02*
X122674095Y-114246819D01*
X122959809Y-114246819D02*
X122959809Y-113246819D01*
X122959809Y-113246819D02*
X122864571Y-113389676D01*
X122864571Y-113389676D02*
X122769333Y-113484914D01*
X122769333Y-113484914D02*
X122674095Y-113532533D01*
X124150285Y-113246819D02*
X123674095Y-113246819D01*
X123674095Y-113246819D02*
X123626476Y-113723009D01*
X123626476Y-113723009D02*
X123674095Y-113675390D01*
X123674095Y-113675390D02*
X123769333Y-113627771D01*
X123769333Y-113627771D02*
X124007428Y-113627771D01*
X124007428Y-113627771D02*
X124102666Y-113675390D01*
X124102666Y-113675390D02*
X124150285Y-113723009D01*
X124150285Y-113723009D02*
X124197904Y-113818247D01*
X124197904Y-113818247D02*
X124197904Y-114056342D01*
X124197904Y-114056342D02*
X124150285Y-114151580D01*
X124150285Y-114151580D02*
X124102666Y-114199200D01*
X124102666Y-114199200D02*
X124007428Y-114246819D01*
X124007428Y-114246819D02*
X123769333Y-114246819D01*
X123769333Y-114246819D02*
X123674095Y-114199200D01*
X123674095Y-114199200D02*
X123626476Y-114151580D01*
X182745142Y-138630819D02*
X182411809Y-138154628D01*
X182173714Y-138630819D02*
X182173714Y-137630819D01*
X182173714Y-137630819D02*
X182554666Y-137630819D01*
X182554666Y-137630819D02*
X182649904Y-137678438D01*
X182649904Y-137678438D02*
X182697523Y-137726057D01*
X182697523Y-137726057D02*
X182745142Y-137821295D01*
X182745142Y-137821295D02*
X182745142Y-137964152D01*
X182745142Y-137964152D02*
X182697523Y-138059390D01*
X182697523Y-138059390D02*
X182649904Y-138107009D01*
X182649904Y-138107009D02*
X182554666Y-138154628D01*
X182554666Y-138154628D02*
X182173714Y-138154628D01*
X183697523Y-138630819D02*
X183126095Y-138630819D01*
X183411809Y-138630819D02*
X183411809Y-137630819D01*
X183411809Y-137630819D02*
X183316571Y-137773676D01*
X183316571Y-137773676D02*
X183221333Y-137868914D01*
X183221333Y-137868914D02*
X183126095Y-137916533D01*
X184554666Y-137964152D02*
X184554666Y-138630819D01*
X184316571Y-137583200D02*
X184078476Y-138297485D01*
X184078476Y-138297485D02*
X184697523Y-138297485D01*
D12*
X125772333Y-71186318D02*
X125167571Y-71186318D01*
X125167571Y-71186318D02*
X125167571Y-69916318D01*
X126135190Y-70037270D02*
X126195666Y-69976794D01*
X126195666Y-69976794D02*
X126316619Y-69916318D01*
X126316619Y-69916318D02*
X126619000Y-69916318D01*
X126619000Y-69916318D02*
X126739952Y-69976794D01*
X126739952Y-69976794D02*
X126800428Y-70037270D01*
X126800428Y-70037270D02*
X126860905Y-70158222D01*
X126860905Y-70158222D02*
X126860905Y-70279175D01*
X126860905Y-70279175D02*
X126800428Y-70460603D01*
X126800428Y-70460603D02*
X126074714Y-71186318D01*
X126074714Y-71186318D02*
X126860905Y-71186318D01*
X182662285Y-146567470D02*
X182541333Y-146506994D01*
X182541333Y-146506994D02*
X182420380Y-146386042D01*
X182420380Y-146386042D02*
X182238952Y-146204613D01*
X182238952Y-146204613D02*
X182117999Y-146144137D01*
X182117999Y-146144137D02*
X181997047Y-146144137D01*
X182057523Y-146446518D02*
X181936571Y-146386042D01*
X181936571Y-146386042D02*
X181815618Y-146265089D01*
X181815618Y-146265089D02*
X181755142Y-146023184D01*
X181755142Y-146023184D02*
X181755142Y-145599851D01*
X181755142Y-145599851D02*
X181815618Y-145357946D01*
X181815618Y-145357946D02*
X181936571Y-145236994D01*
X181936571Y-145236994D02*
X182057523Y-145176518D01*
X182057523Y-145176518D02*
X182299428Y-145176518D01*
X182299428Y-145176518D02*
X182420380Y-145236994D01*
X182420380Y-145236994D02*
X182541333Y-145357946D01*
X182541333Y-145357946D02*
X182601809Y-145599851D01*
X182601809Y-145599851D02*
X182601809Y-146023184D01*
X182601809Y-146023184D02*
X182541333Y-146265089D01*
X182541333Y-146265089D02*
X182420380Y-146386042D01*
X182420380Y-146386042D02*
X182299428Y-146446518D01*
X182299428Y-146446518D02*
X182057523Y-146446518D01*
X183811333Y-146446518D02*
X183085618Y-146446518D01*
X183448475Y-146446518D02*
X183448475Y-145176518D01*
X183448475Y-145176518D02*
X183327523Y-145357946D01*
X183327523Y-145357946D02*
X183206571Y-145478899D01*
X183206571Y-145478899D02*
X183085618Y-145539375D01*
X184597523Y-145176518D02*
X184718476Y-145176518D01*
X184718476Y-145176518D02*
X184839428Y-145236994D01*
X184839428Y-145236994D02*
X184899904Y-145297470D01*
X184899904Y-145297470D02*
X184960380Y-145418422D01*
X184960380Y-145418422D02*
X185020857Y-145660327D01*
X185020857Y-145660327D02*
X185020857Y-145962708D01*
X185020857Y-145962708D02*
X184960380Y-146204613D01*
X184960380Y-146204613D02*
X184899904Y-146325565D01*
X184899904Y-146325565D02*
X184839428Y-146386042D01*
X184839428Y-146386042D02*
X184718476Y-146446518D01*
X184718476Y-146446518D02*
X184597523Y-146446518D01*
X184597523Y-146446518D02*
X184476571Y-146386042D01*
X184476571Y-146386042D02*
X184416095Y-146325565D01*
X184416095Y-146325565D02*
X184355618Y-146204613D01*
X184355618Y-146204613D02*
X184295142Y-145962708D01*
X184295142Y-145962708D02*
X184295142Y-145660327D01*
X184295142Y-145660327D02*
X184355618Y-145418422D01*
X184355618Y-145418422D02*
X184416095Y-145297470D01*
X184416095Y-145297470D02*
X184476571Y-145236994D01*
X184476571Y-145236994D02*
X184597523Y-145176518D01*
D11*
X136741819Y-132308504D02*
X137551342Y-132308504D01*
X137551342Y-132308504D02*
X137646580Y-132260885D01*
X137646580Y-132260885D02*
X137694200Y-132213266D01*
X137694200Y-132213266D02*
X137741819Y-132118028D01*
X137741819Y-132118028D02*
X137741819Y-131927552D01*
X137741819Y-131927552D02*
X137694200Y-131832314D01*
X137694200Y-131832314D02*
X137646580Y-131784695D01*
X137646580Y-131784695D02*
X137551342Y-131737076D01*
X137551342Y-131737076D02*
X136741819Y-131737076D01*
X136741819Y-130784695D02*
X136741819Y-131260885D01*
X136741819Y-131260885D02*
X137218009Y-131308504D01*
X137218009Y-131308504D02*
X137170390Y-131260885D01*
X137170390Y-131260885D02*
X137122771Y-131165647D01*
X137122771Y-131165647D02*
X137122771Y-130927552D01*
X137122771Y-130927552D02*
X137170390Y-130832314D01*
X137170390Y-130832314D02*
X137218009Y-130784695D01*
X137218009Y-130784695D02*
X137313247Y-130737076D01*
X137313247Y-130737076D02*
X137551342Y-130737076D01*
X137551342Y-130737076D02*
X137646580Y-130784695D01*
X137646580Y-130784695D02*
X137694200Y-130832314D01*
X137694200Y-130832314D02*
X137741819Y-130927552D01*
X137741819Y-130927552D02*
X137741819Y-131165647D01*
X137741819Y-131165647D02*
X137694200Y-131260885D01*
X137694200Y-131260885D02*
X137646580Y-131308504D01*
X132500019Y-134035799D02*
X132738114Y-134035799D01*
X132642876Y-134273894D02*
X132738114Y-134035799D01*
X132738114Y-134035799D02*
X132642876Y-133797704D01*
X132928590Y-134178656D02*
X132738114Y-134035799D01*
X132738114Y-134035799D02*
X132928590Y-133892942D01*
X132525419Y-134797799D02*
X132763514Y-134797799D01*
X132668276Y-135035894D02*
X132763514Y-134797799D01*
X132763514Y-134797799D02*
X132668276Y-134559704D01*
X132953990Y-134940656D02*
X132763514Y-134797799D01*
X132763514Y-134797799D02*
X132953990Y-134654942D01*
D12*
X192796885Y-146567470D02*
X192675933Y-146506994D01*
X192675933Y-146506994D02*
X192554980Y-146386042D01*
X192554980Y-146386042D02*
X192373552Y-146204613D01*
X192373552Y-146204613D02*
X192252599Y-146144137D01*
X192252599Y-146144137D02*
X192131647Y-146144137D01*
X192192123Y-146446518D02*
X192071171Y-146386042D01*
X192071171Y-146386042D02*
X191950218Y-146265089D01*
X191950218Y-146265089D02*
X191889742Y-146023184D01*
X191889742Y-146023184D02*
X191889742Y-145599851D01*
X191889742Y-145599851D02*
X191950218Y-145357946D01*
X191950218Y-145357946D02*
X192071171Y-145236994D01*
X192071171Y-145236994D02*
X192192123Y-145176518D01*
X192192123Y-145176518D02*
X192434028Y-145176518D01*
X192434028Y-145176518D02*
X192554980Y-145236994D01*
X192554980Y-145236994D02*
X192675933Y-145357946D01*
X192675933Y-145357946D02*
X192736409Y-145599851D01*
X192736409Y-145599851D02*
X192736409Y-146023184D01*
X192736409Y-146023184D02*
X192675933Y-146265089D01*
X192675933Y-146265089D02*
X192554980Y-146386042D01*
X192554980Y-146386042D02*
X192434028Y-146446518D01*
X192434028Y-146446518D02*
X192192123Y-146446518D01*
X193945933Y-146446518D02*
X193220218Y-146446518D01*
X193583075Y-146446518D02*
X193583075Y-145176518D01*
X193583075Y-145176518D02*
X193462123Y-145357946D01*
X193462123Y-145357946D02*
X193341171Y-145478899D01*
X193341171Y-145478899D02*
X193220218Y-145539375D01*
X194429742Y-145297470D02*
X194490218Y-145236994D01*
X194490218Y-145236994D02*
X194611171Y-145176518D01*
X194611171Y-145176518D02*
X194913552Y-145176518D01*
X194913552Y-145176518D02*
X195034504Y-145236994D01*
X195034504Y-145236994D02*
X195094980Y-145297470D01*
X195094980Y-145297470D02*
X195155457Y-145418422D01*
X195155457Y-145418422D02*
X195155457Y-145539375D01*
X195155457Y-145539375D02*
X195094980Y-145720803D01*
X195094980Y-145720803D02*
X194369266Y-146446518D01*
X194369266Y-146446518D02*
X195155457Y-146446518D01*
X155784247Y-144891070D02*
X155663295Y-144830594D01*
X155663295Y-144830594D02*
X155542342Y-144709642D01*
X155542342Y-144709642D02*
X155360914Y-144528213D01*
X155360914Y-144528213D02*
X155239961Y-144467737D01*
X155239961Y-144467737D02*
X155119009Y-144467737D01*
X155179485Y-144770118D02*
X155058533Y-144709642D01*
X155058533Y-144709642D02*
X154937580Y-144588689D01*
X154937580Y-144588689D02*
X154877104Y-144346784D01*
X154877104Y-144346784D02*
X154877104Y-143923451D01*
X154877104Y-143923451D02*
X154937580Y-143681546D01*
X154937580Y-143681546D02*
X155058533Y-143560594D01*
X155058533Y-143560594D02*
X155179485Y-143500118D01*
X155179485Y-143500118D02*
X155421390Y-143500118D01*
X155421390Y-143500118D02*
X155542342Y-143560594D01*
X155542342Y-143560594D02*
X155663295Y-143681546D01*
X155663295Y-143681546D02*
X155723771Y-143923451D01*
X155723771Y-143923451D02*
X155723771Y-144346784D01*
X155723771Y-144346784D02*
X155663295Y-144588689D01*
X155663295Y-144588689D02*
X155542342Y-144709642D01*
X155542342Y-144709642D02*
X155421390Y-144770118D01*
X155421390Y-144770118D02*
X155179485Y-144770118D01*
X156449485Y-144044403D02*
X156328533Y-143983927D01*
X156328533Y-143983927D02*
X156268056Y-143923451D01*
X156268056Y-143923451D02*
X156207580Y-143802499D01*
X156207580Y-143802499D02*
X156207580Y-143742022D01*
X156207580Y-143742022D02*
X156268056Y-143621070D01*
X156268056Y-143621070D02*
X156328533Y-143560594D01*
X156328533Y-143560594D02*
X156449485Y-143500118D01*
X156449485Y-143500118D02*
X156691390Y-143500118D01*
X156691390Y-143500118D02*
X156812342Y-143560594D01*
X156812342Y-143560594D02*
X156872818Y-143621070D01*
X156872818Y-143621070D02*
X156933295Y-143742022D01*
X156933295Y-143742022D02*
X156933295Y-143802499D01*
X156933295Y-143802499D02*
X156872818Y-143923451D01*
X156872818Y-143923451D02*
X156812342Y-143983927D01*
X156812342Y-143983927D02*
X156691390Y-144044403D01*
X156691390Y-144044403D02*
X156449485Y-144044403D01*
X156449485Y-144044403D02*
X156328533Y-144104880D01*
X156328533Y-144104880D02*
X156268056Y-144165356D01*
X156268056Y-144165356D02*
X156207580Y-144286308D01*
X156207580Y-144286308D02*
X156207580Y-144528213D01*
X156207580Y-144528213D02*
X156268056Y-144649165D01*
X156268056Y-144649165D02*
X156328533Y-144709642D01*
X156328533Y-144709642D02*
X156449485Y-144770118D01*
X156449485Y-144770118D02*
X156691390Y-144770118D01*
X156691390Y-144770118D02*
X156812342Y-144709642D01*
X156812342Y-144709642D02*
X156872818Y-144649165D01*
X156872818Y-144649165D02*
X156933295Y-144528213D01*
X156933295Y-144528213D02*
X156933295Y-144286308D01*
X156933295Y-144286308D02*
X156872818Y-144165356D01*
X156872818Y-144165356D02*
X156812342Y-144104880D01*
X156812342Y-144104880D02*
X156691390Y-144044403D01*
D11*
X122326495Y-87567419D02*
X122326495Y-88376942D01*
X122326495Y-88376942D02*
X122374114Y-88472180D01*
X122374114Y-88472180D02*
X122421733Y-88519800D01*
X122421733Y-88519800D02*
X122516971Y-88567419D01*
X122516971Y-88567419D02*
X122707447Y-88567419D01*
X122707447Y-88567419D02*
X122802685Y-88519800D01*
X122802685Y-88519800D02*
X122850304Y-88472180D01*
X122850304Y-88472180D02*
X122897923Y-88376942D01*
X122897923Y-88376942D02*
X122897923Y-87567419D01*
X123278876Y-87567419D02*
X123897923Y-87567419D01*
X123897923Y-87567419D02*
X123564590Y-87948371D01*
X123564590Y-87948371D02*
X123707447Y-87948371D01*
X123707447Y-87948371D02*
X123802685Y-87995990D01*
X123802685Y-87995990D02*
X123850304Y-88043609D01*
X123850304Y-88043609D02*
X123897923Y-88138847D01*
X123897923Y-88138847D02*
X123897923Y-88376942D01*
X123897923Y-88376942D02*
X123850304Y-88472180D01*
X123850304Y-88472180D02*
X123802685Y-88519800D01*
X123802685Y-88519800D02*
X123707447Y-88567419D01*
X123707447Y-88567419D02*
X123421733Y-88567419D01*
X123421733Y-88567419D02*
X123326495Y-88519800D01*
X123326495Y-88519800D02*
X123278876Y-88472180D01*
X119570500Y-92955019D02*
X119570500Y-93193114D01*
X119332405Y-93097876D02*
X119570500Y-93193114D01*
X119570500Y-93193114D02*
X119808595Y-93097876D01*
X119427643Y-93383590D02*
X119570500Y-93193114D01*
X119570500Y-93193114D02*
X119713357Y-93383590D01*
X119570500Y-92955019D02*
X119570500Y-93193114D01*
X119332405Y-93097876D02*
X119570500Y-93193114D01*
X119570500Y-93193114D02*
X119808595Y-93097876D01*
X119427643Y-93383590D02*
X119570500Y-93193114D01*
X119570500Y-93193114D02*
X119713357Y-93383590D01*
D12*
X197876885Y-146542070D02*
X197755933Y-146481594D01*
X197755933Y-146481594D02*
X197634980Y-146360642D01*
X197634980Y-146360642D02*
X197453552Y-146179213D01*
X197453552Y-146179213D02*
X197332599Y-146118737D01*
X197332599Y-146118737D02*
X197211647Y-146118737D01*
X197272123Y-146421118D02*
X197151171Y-146360642D01*
X197151171Y-146360642D02*
X197030218Y-146239689D01*
X197030218Y-146239689D02*
X196969742Y-145997784D01*
X196969742Y-145997784D02*
X196969742Y-145574451D01*
X196969742Y-145574451D02*
X197030218Y-145332546D01*
X197030218Y-145332546D02*
X197151171Y-145211594D01*
X197151171Y-145211594D02*
X197272123Y-145151118D01*
X197272123Y-145151118D02*
X197514028Y-145151118D01*
X197514028Y-145151118D02*
X197634980Y-145211594D01*
X197634980Y-145211594D02*
X197755933Y-145332546D01*
X197755933Y-145332546D02*
X197816409Y-145574451D01*
X197816409Y-145574451D02*
X197816409Y-145997784D01*
X197816409Y-145997784D02*
X197755933Y-146239689D01*
X197755933Y-146239689D02*
X197634980Y-146360642D01*
X197634980Y-146360642D02*
X197514028Y-146421118D01*
X197514028Y-146421118D02*
X197272123Y-146421118D01*
X199025933Y-146421118D02*
X198300218Y-146421118D01*
X198663075Y-146421118D02*
X198663075Y-145151118D01*
X198663075Y-145151118D02*
X198542123Y-145332546D01*
X198542123Y-145332546D02*
X198421171Y-145453499D01*
X198421171Y-145453499D02*
X198300218Y-145513975D01*
X199449266Y-145151118D02*
X200235457Y-145151118D01*
X200235457Y-145151118D02*
X199812123Y-145634927D01*
X199812123Y-145634927D02*
X199993552Y-145634927D01*
X199993552Y-145634927D02*
X200114504Y-145695403D01*
X200114504Y-145695403D02*
X200174980Y-145755880D01*
X200174980Y-145755880D02*
X200235457Y-145876832D01*
X200235457Y-145876832D02*
X200235457Y-146179213D01*
X200235457Y-146179213D02*
X200174980Y-146300165D01*
X200174980Y-146300165D02*
X200114504Y-146360642D01*
X200114504Y-146360642D02*
X199993552Y-146421118D01*
X199993552Y-146421118D02*
X199630695Y-146421118D01*
X199630695Y-146421118D02*
X199509742Y-146360642D01*
X199509742Y-146360642D02*
X199449266Y-146300165D01*
D11*
X129449533Y-138615380D02*
X129401914Y-138663000D01*
X129401914Y-138663000D02*
X129259057Y-138710619D01*
X129259057Y-138710619D02*
X129163819Y-138710619D01*
X129163819Y-138710619D02*
X129020962Y-138663000D01*
X129020962Y-138663000D02*
X128925724Y-138567761D01*
X128925724Y-138567761D02*
X128878105Y-138472523D01*
X128878105Y-138472523D02*
X128830486Y-138282047D01*
X128830486Y-138282047D02*
X128830486Y-138139190D01*
X128830486Y-138139190D02*
X128878105Y-137948714D01*
X128878105Y-137948714D02*
X128925724Y-137853476D01*
X128925724Y-137853476D02*
X129020962Y-137758238D01*
X129020962Y-137758238D02*
X129163819Y-137710619D01*
X129163819Y-137710619D02*
X129259057Y-137710619D01*
X129259057Y-137710619D02*
X129401914Y-137758238D01*
X129401914Y-137758238D02*
X129449533Y-137805857D01*
X130401914Y-138710619D02*
X129830486Y-138710619D01*
X130116200Y-138710619D02*
X130116200Y-137710619D01*
X130116200Y-137710619D02*
X130020962Y-137853476D01*
X130020962Y-137853476D02*
X129925724Y-137948714D01*
X129925724Y-137948714D02*
X129830486Y-137996333D01*
X128103333Y-127105580D02*
X128055714Y-127153200D01*
X128055714Y-127153200D02*
X127912857Y-127200819D01*
X127912857Y-127200819D02*
X127817619Y-127200819D01*
X127817619Y-127200819D02*
X127674762Y-127153200D01*
X127674762Y-127153200D02*
X127579524Y-127057961D01*
X127579524Y-127057961D02*
X127531905Y-126962723D01*
X127531905Y-126962723D02*
X127484286Y-126772247D01*
X127484286Y-126772247D02*
X127484286Y-126629390D01*
X127484286Y-126629390D02*
X127531905Y-126438914D01*
X127531905Y-126438914D02*
X127579524Y-126343676D01*
X127579524Y-126343676D02*
X127674762Y-126248438D01*
X127674762Y-126248438D02*
X127817619Y-126200819D01*
X127817619Y-126200819D02*
X127912857Y-126200819D01*
X127912857Y-126200819D02*
X128055714Y-126248438D01*
X128055714Y-126248438D02*
X128103333Y-126296057D01*
X128484286Y-126296057D02*
X128531905Y-126248438D01*
X128531905Y-126248438D02*
X128627143Y-126200819D01*
X128627143Y-126200819D02*
X128865238Y-126200819D01*
X128865238Y-126200819D02*
X128960476Y-126248438D01*
X128960476Y-126248438D02*
X129008095Y-126296057D01*
X129008095Y-126296057D02*
X129055714Y-126391295D01*
X129055714Y-126391295D02*
X129055714Y-126486533D01*
X129055714Y-126486533D02*
X129008095Y-126629390D01*
X129008095Y-126629390D02*
X128436667Y-127200819D01*
X128436667Y-127200819D02*
X129055714Y-127200819D01*
X197985142Y-138630819D02*
X197651809Y-138154628D01*
X197413714Y-138630819D02*
X197413714Y-137630819D01*
X197413714Y-137630819D02*
X197794666Y-137630819D01*
X197794666Y-137630819D02*
X197889904Y-137678438D01*
X197889904Y-137678438D02*
X197937523Y-137726057D01*
X197937523Y-137726057D02*
X197985142Y-137821295D01*
X197985142Y-137821295D02*
X197985142Y-137964152D01*
X197985142Y-137964152D02*
X197937523Y-138059390D01*
X197937523Y-138059390D02*
X197889904Y-138107009D01*
X197889904Y-138107009D02*
X197794666Y-138154628D01*
X197794666Y-138154628D02*
X197413714Y-138154628D01*
X198937523Y-138630819D02*
X198366095Y-138630819D01*
X198651809Y-138630819D02*
X198651809Y-137630819D01*
X198651809Y-137630819D02*
X198556571Y-137773676D01*
X198556571Y-137773676D02*
X198461333Y-137868914D01*
X198461333Y-137868914D02*
X198366095Y-137916533D01*
X199889904Y-138630819D02*
X199318476Y-138630819D01*
X199604190Y-138630819D02*
X199604190Y-137630819D01*
X199604190Y-137630819D02*
X199508952Y-137773676D01*
X199508952Y-137773676D02*
X199413714Y-137868914D01*
X199413714Y-137868914D02*
X199318476Y-137916533D01*
X167505142Y-138758819D02*
X167171809Y-138282628D01*
X166933714Y-138758819D02*
X166933714Y-137758819D01*
X166933714Y-137758819D02*
X167314666Y-137758819D01*
X167314666Y-137758819D02*
X167409904Y-137806438D01*
X167409904Y-137806438D02*
X167457523Y-137854057D01*
X167457523Y-137854057D02*
X167505142Y-137949295D01*
X167505142Y-137949295D02*
X167505142Y-138092152D01*
X167505142Y-138092152D02*
X167457523Y-138187390D01*
X167457523Y-138187390D02*
X167409904Y-138235009D01*
X167409904Y-138235009D02*
X167314666Y-138282628D01*
X167314666Y-138282628D02*
X166933714Y-138282628D01*
X168457523Y-138758819D02*
X167886095Y-138758819D01*
X168171809Y-138758819D02*
X168171809Y-137758819D01*
X168171809Y-137758819D02*
X168076571Y-137901676D01*
X168076571Y-137901676D02*
X167981333Y-137996914D01*
X167981333Y-137996914D02*
X167886095Y-138044533D01*
X168838476Y-137854057D02*
X168886095Y-137806438D01*
X168886095Y-137806438D02*
X168981333Y-137758819D01*
X168981333Y-137758819D02*
X169219428Y-137758819D01*
X169219428Y-137758819D02*
X169314666Y-137806438D01*
X169314666Y-137806438D02*
X169362285Y-137854057D01*
X169362285Y-137854057D02*
X169409904Y-137949295D01*
X169409904Y-137949295D02*
X169409904Y-138044533D01*
X169409904Y-138044533D02*
X169362285Y-138187390D01*
X169362285Y-138187390D02*
X168790857Y-138758819D01*
X168790857Y-138758819D02*
X169409904Y-138758819D01*
X118991142Y-117928819D02*
X118657809Y-117452628D01*
X118419714Y-117928819D02*
X118419714Y-116928819D01*
X118419714Y-116928819D02*
X118800666Y-116928819D01*
X118800666Y-116928819D02*
X118895904Y-116976438D01*
X118895904Y-116976438D02*
X118943523Y-117024057D01*
X118943523Y-117024057D02*
X118991142Y-117119295D01*
X118991142Y-117119295D02*
X118991142Y-117262152D01*
X118991142Y-117262152D02*
X118943523Y-117357390D01*
X118943523Y-117357390D02*
X118895904Y-117405009D01*
X118895904Y-117405009D02*
X118800666Y-117452628D01*
X118800666Y-117452628D02*
X118419714Y-117452628D01*
X119943523Y-117928819D02*
X119372095Y-117928819D01*
X119657809Y-117928819D02*
X119657809Y-116928819D01*
X119657809Y-116928819D02*
X119562571Y-117071676D01*
X119562571Y-117071676D02*
X119467333Y-117166914D01*
X119467333Y-117166914D02*
X119372095Y-117214533D01*
X120800666Y-116928819D02*
X120610190Y-116928819D01*
X120610190Y-116928819D02*
X120514952Y-116976438D01*
X120514952Y-116976438D02*
X120467333Y-117024057D01*
X120467333Y-117024057D02*
X120372095Y-117166914D01*
X120372095Y-117166914D02*
X120324476Y-117357390D01*
X120324476Y-117357390D02*
X120324476Y-117738342D01*
X120324476Y-117738342D02*
X120372095Y-117833580D01*
X120372095Y-117833580D02*
X120419714Y-117881200D01*
X120419714Y-117881200D02*
X120514952Y-117928819D01*
X120514952Y-117928819D02*
X120705428Y-117928819D01*
X120705428Y-117928819D02*
X120800666Y-117881200D01*
X120800666Y-117881200D02*
X120848285Y-117833580D01*
X120848285Y-117833580D02*
X120895904Y-117738342D01*
X120895904Y-117738342D02*
X120895904Y-117500247D01*
X120895904Y-117500247D02*
X120848285Y-117405009D01*
X120848285Y-117405009D02*
X120800666Y-117357390D01*
X120800666Y-117357390D02*
X120705428Y-117309771D01*
X120705428Y-117309771D02*
X120514952Y-117309771D01*
X120514952Y-117309771D02*
X120419714Y-117357390D01*
X120419714Y-117357390D02*
X120372095Y-117405009D01*
X120372095Y-117405009D02*
X120324476Y-117500247D01*
X73114819Y-138683904D02*
X73924342Y-138683904D01*
X73924342Y-138683904D02*
X74019580Y-138636285D01*
X74019580Y-138636285D02*
X74067200Y-138588666D01*
X74067200Y-138588666D02*
X74114819Y-138493428D01*
X74114819Y-138493428D02*
X74114819Y-138302952D01*
X74114819Y-138302952D02*
X74067200Y-138207714D01*
X74067200Y-138207714D02*
X74019580Y-138160095D01*
X74019580Y-138160095D02*
X73924342Y-138112476D01*
X73924342Y-138112476D02*
X73114819Y-138112476D01*
X73448152Y-137207714D02*
X74114819Y-137207714D01*
X73067200Y-137445809D02*
X73781485Y-137683904D01*
X73781485Y-137683904D02*
X73781485Y-137064857D01*
X69210619Y-141202149D02*
X69448714Y-141202149D01*
X69353476Y-141440244D02*
X69448714Y-141202149D01*
X69448714Y-141202149D02*
X69353476Y-140964054D01*
X69639190Y-141345006D02*
X69448714Y-141202149D01*
X69448714Y-141202149D02*
X69639190Y-141059292D01*
X69210619Y-141202149D02*
X69448714Y-141202149D01*
X69353476Y-141440244D02*
X69448714Y-141202149D01*
X69448714Y-141202149D02*
X69353476Y-140964054D01*
X69639190Y-141345006D02*
X69448714Y-141202149D01*
X69448714Y-141202149D02*
X69639190Y-141059292D01*
X162901333Y-138758819D02*
X162568000Y-138282628D01*
X162329905Y-138758819D02*
X162329905Y-137758819D01*
X162329905Y-137758819D02*
X162710857Y-137758819D01*
X162710857Y-137758819D02*
X162806095Y-137806438D01*
X162806095Y-137806438D02*
X162853714Y-137854057D01*
X162853714Y-137854057D02*
X162901333Y-137949295D01*
X162901333Y-137949295D02*
X162901333Y-138092152D01*
X162901333Y-138092152D02*
X162853714Y-138187390D01*
X162853714Y-138187390D02*
X162806095Y-138235009D01*
X162806095Y-138235009D02*
X162710857Y-138282628D01*
X162710857Y-138282628D02*
X162329905Y-138282628D01*
X163758476Y-137758819D02*
X163568000Y-137758819D01*
X163568000Y-137758819D02*
X163472762Y-137806438D01*
X163472762Y-137806438D02*
X163425143Y-137854057D01*
X163425143Y-137854057D02*
X163329905Y-137996914D01*
X163329905Y-137996914D02*
X163282286Y-138187390D01*
X163282286Y-138187390D02*
X163282286Y-138568342D01*
X163282286Y-138568342D02*
X163329905Y-138663580D01*
X163329905Y-138663580D02*
X163377524Y-138711200D01*
X163377524Y-138711200D02*
X163472762Y-138758819D01*
X163472762Y-138758819D02*
X163663238Y-138758819D01*
X163663238Y-138758819D02*
X163758476Y-138711200D01*
X163758476Y-138711200D02*
X163806095Y-138663580D01*
X163806095Y-138663580D02*
X163853714Y-138568342D01*
X163853714Y-138568342D02*
X163853714Y-138330247D01*
X163853714Y-138330247D02*
X163806095Y-138235009D01*
X163806095Y-138235009D02*
X163758476Y-138187390D01*
X163758476Y-138187390D02*
X163663238Y-138139771D01*
X163663238Y-138139771D02*
X163472762Y-138139771D01*
X163472762Y-138139771D02*
X163377524Y-138187390D01*
X163377524Y-138187390D02*
X163329905Y-138235009D01*
X163329905Y-138235009D02*
X163282286Y-138330247D01*
D12*
X75734333Y-114753365D02*
X75673857Y-114813842D01*
X75673857Y-114813842D02*
X75492428Y-114874318D01*
X75492428Y-114874318D02*
X75371476Y-114874318D01*
X75371476Y-114874318D02*
X75190047Y-114813842D01*
X75190047Y-114813842D02*
X75069095Y-114692889D01*
X75069095Y-114692889D02*
X75008618Y-114571937D01*
X75008618Y-114571937D02*
X74948142Y-114330032D01*
X74948142Y-114330032D02*
X74948142Y-114148603D01*
X74948142Y-114148603D02*
X75008618Y-113906699D01*
X75008618Y-113906699D02*
X75069095Y-113785746D01*
X75069095Y-113785746D02*
X75190047Y-113664794D01*
X75190047Y-113664794D02*
X75371476Y-113604318D01*
X75371476Y-113604318D02*
X75492428Y-113604318D01*
X75492428Y-113604318D02*
X75673857Y-113664794D01*
X75673857Y-113664794D02*
X75734333Y-113725270D01*
X76822904Y-114027651D02*
X76822904Y-114874318D01*
X76520523Y-113543842D02*
X76218142Y-114450984D01*
X76218142Y-114450984D02*
X77004333Y-114450984D01*
D11*
X124166333Y-125040819D02*
X123833000Y-124564628D01*
X123594905Y-125040819D02*
X123594905Y-124040819D01*
X123594905Y-124040819D02*
X123975857Y-124040819D01*
X123975857Y-124040819D02*
X124071095Y-124088438D01*
X124071095Y-124088438D02*
X124118714Y-124136057D01*
X124118714Y-124136057D02*
X124166333Y-124231295D01*
X124166333Y-124231295D02*
X124166333Y-124374152D01*
X124166333Y-124374152D02*
X124118714Y-124469390D01*
X124118714Y-124469390D02*
X124071095Y-124517009D01*
X124071095Y-124517009D02*
X123975857Y-124564628D01*
X123975857Y-124564628D02*
X123594905Y-124564628D01*
X125118714Y-125040819D02*
X124547286Y-125040819D01*
X124833000Y-125040819D02*
X124833000Y-124040819D01*
X124833000Y-124040819D02*
X124737762Y-124183676D01*
X124737762Y-124183676D02*
X124642524Y-124278914D01*
X124642524Y-124278914D02*
X124547286Y-124326533D01*
X99179142Y-138630819D02*
X98845809Y-138154628D01*
X98607714Y-138630819D02*
X98607714Y-137630819D01*
X98607714Y-137630819D02*
X98988666Y-137630819D01*
X98988666Y-137630819D02*
X99083904Y-137678438D01*
X99083904Y-137678438D02*
X99131523Y-137726057D01*
X99131523Y-137726057D02*
X99179142Y-137821295D01*
X99179142Y-137821295D02*
X99179142Y-137964152D01*
X99179142Y-137964152D02*
X99131523Y-138059390D01*
X99131523Y-138059390D02*
X99083904Y-138107009D01*
X99083904Y-138107009D02*
X98988666Y-138154628D01*
X98988666Y-138154628D02*
X98607714Y-138154628D01*
X99560095Y-137726057D02*
X99607714Y-137678438D01*
X99607714Y-137678438D02*
X99702952Y-137630819D01*
X99702952Y-137630819D02*
X99941047Y-137630819D01*
X99941047Y-137630819D02*
X100036285Y-137678438D01*
X100036285Y-137678438D02*
X100083904Y-137726057D01*
X100083904Y-137726057D02*
X100131523Y-137821295D01*
X100131523Y-137821295D02*
X100131523Y-137916533D01*
X100131523Y-137916533D02*
X100083904Y-138059390D01*
X100083904Y-138059390D02*
X99512476Y-138630819D01*
X99512476Y-138630819D02*
X100131523Y-138630819D01*
X100512476Y-137726057D02*
X100560095Y-137678438D01*
X100560095Y-137678438D02*
X100655333Y-137630819D01*
X100655333Y-137630819D02*
X100893428Y-137630819D01*
X100893428Y-137630819D02*
X100988666Y-137678438D01*
X100988666Y-137678438D02*
X101036285Y-137726057D01*
X101036285Y-137726057D02*
X101083904Y-137821295D01*
X101083904Y-137821295D02*
X101083904Y-137916533D01*
X101083904Y-137916533D02*
X101036285Y-138059390D01*
X101036285Y-138059390D02*
X100464857Y-138630819D01*
X100464857Y-138630819D02*
X101083904Y-138630819D01*
D12*
X75734333Y-102815365D02*
X75673857Y-102875842D01*
X75673857Y-102875842D02*
X75492428Y-102936318D01*
X75492428Y-102936318D02*
X75371476Y-102936318D01*
X75371476Y-102936318D02*
X75190047Y-102875842D01*
X75190047Y-102875842D02*
X75069095Y-102754889D01*
X75069095Y-102754889D02*
X75008618Y-102633937D01*
X75008618Y-102633937D02*
X74948142Y-102392032D01*
X74948142Y-102392032D02*
X74948142Y-102210603D01*
X74948142Y-102210603D02*
X75008618Y-101968699D01*
X75008618Y-101968699D02*
X75069095Y-101847746D01*
X75069095Y-101847746D02*
X75190047Y-101726794D01*
X75190047Y-101726794D02*
X75371476Y-101666318D01*
X75371476Y-101666318D02*
X75492428Y-101666318D01*
X75492428Y-101666318D02*
X75673857Y-101726794D01*
X75673857Y-101726794D02*
X75734333Y-101787270D01*
X76339095Y-102936318D02*
X76580999Y-102936318D01*
X76580999Y-102936318D02*
X76701952Y-102875842D01*
X76701952Y-102875842D02*
X76762428Y-102815365D01*
X76762428Y-102815365D02*
X76883380Y-102633937D01*
X76883380Y-102633937D02*
X76943857Y-102392032D01*
X76943857Y-102392032D02*
X76943857Y-101908222D01*
X76943857Y-101908222D02*
X76883380Y-101787270D01*
X76883380Y-101787270D02*
X76822904Y-101726794D01*
X76822904Y-101726794D02*
X76701952Y-101666318D01*
X76701952Y-101666318D02*
X76460047Y-101666318D01*
X76460047Y-101666318D02*
X76339095Y-101726794D01*
X76339095Y-101726794D02*
X76278618Y-101787270D01*
X76278618Y-101787270D02*
X76218142Y-101908222D01*
X76218142Y-101908222D02*
X76218142Y-102210603D01*
X76218142Y-102210603D02*
X76278618Y-102331556D01*
X76278618Y-102331556D02*
X76339095Y-102392032D01*
X76339095Y-102392032D02*
X76460047Y-102452508D01*
X76460047Y-102452508D02*
X76701952Y-102452508D01*
X76701952Y-102452508D02*
X76822904Y-102392032D01*
X76822904Y-102392032D02*
X76883380Y-102331556D01*
X76883380Y-102331556D02*
X76943857Y-102210603D01*
X124405365Y-104422666D02*
X124465842Y-104483142D01*
X124465842Y-104483142D02*
X124526318Y-104664571D01*
X124526318Y-104664571D02*
X124526318Y-104785523D01*
X124526318Y-104785523D02*
X124465842Y-104966952D01*
X124465842Y-104966952D02*
X124344889Y-105087904D01*
X124344889Y-105087904D02*
X124223937Y-105148381D01*
X124223937Y-105148381D02*
X123982032Y-105208857D01*
X123982032Y-105208857D02*
X123800603Y-105208857D01*
X123800603Y-105208857D02*
X123558699Y-105148381D01*
X123558699Y-105148381D02*
X123437746Y-105087904D01*
X123437746Y-105087904D02*
X123316794Y-104966952D01*
X123316794Y-104966952D02*
X123256318Y-104785523D01*
X123256318Y-104785523D02*
X123256318Y-104664571D01*
X123256318Y-104664571D02*
X123316794Y-104483142D01*
X123316794Y-104483142D02*
X123377270Y-104422666D01*
X123256318Y-103999333D02*
X123256318Y-103152666D01*
X123256318Y-103152666D02*
X124526318Y-103696952D01*
X171100447Y-144840270D02*
X170979495Y-144779794D01*
X170979495Y-144779794D02*
X170858542Y-144658842D01*
X170858542Y-144658842D02*
X170677114Y-144477413D01*
X170677114Y-144477413D02*
X170556161Y-144416937D01*
X170556161Y-144416937D02*
X170435209Y-144416937D01*
X170495685Y-144719318D02*
X170374733Y-144658842D01*
X170374733Y-144658842D02*
X170253780Y-144537889D01*
X170253780Y-144537889D02*
X170193304Y-144295984D01*
X170193304Y-144295984D02*
X170193304Y-143872651D01*
X170193304Y-143872651D02*
X170253780Y-143630746D01*
X170253780Y-143630746D02*
X170374733Y-143509794D01*
X170374733Y-143509794D02*
X170495685Y-143449318D01*
X170495685Y-143449318D02*
X170737590Y-143449318D01*
X170737590Y-143449318D02*
X170858542Y-143509794D01*
X170858542Y-143509794D02*
X170979495Y-143630746D01*
X170979495Y-143630746D02*
X171039971Y-143872651D01*
X171039971Y-143872651D02*
X171039971Y-144295984D01*
X171039971Y-144295984D02*
X170979495Y-144537889D01*
X170979495Y-144537889D02*
X170858542Y-144658842D01*
X170858542Y-144658842D02*
X170737590Y-144719318D01*
X170737590Y-144719318D02*
X170495685Y-144719318D01*
X172249495Y-144719318D02*
X171523780Y-144719318D01*
X171886637Y-144719318D02*
X171886637Y-143449318D01*
X171886637Y-143449318D02*
X171765685Y-143630746D01*
X171765685Y-143630746D02*
X171644733Y-143751699D01*
X171644733Y-143751699D02*
X171523780Y-143812175D01*
X90115571Y-102815365D02*
X90055095Y-102875842D01*
X90055095Y-102875842D02*
X89873666Y-102936318D01*
X89873666Y-102936318D02*
X89752714Y-102936318D01*
X89752714Y-102936318D02*
X89571285Y-102875842D01*
X89571285Y-102875842D02*
X89450333Y-102754889D01*
X89450333Y-102754889D02*
X89389856Y-102633937D01*
X89389856Y-102633937D02*
X89329380Y-102392032D01*
X89329380Y-102392032D02*
X89329380Y-102210603D01*
X89329380Y-102210603D02*
X89389856Y-101968699D01*
X89389856Y-101968699D02*
X89450333Y-101847746D01*
X89450333Y-101847746D02*
X89571285Y-101726794D01*
X89571285Y-101726794D02*
X89752714Y-101666318D01*
X89752714Y-101666318D02*
X89873666Y-101666318D01*
X89873666Y-101666318D02*
X90055095Y-101726794D01*
X90055095Y-101726794D02*
X90115571Y-101787270D01*
X91325095Y-102936318D02*
X90599380Y-102936318D01*
X90962237Y-102936318D02*
X90962237Y-101666318D01*
X90962237Y-101666318D02*
X90841285Y-101847746D01*
X90841285Y-101847746D02*
X90720333Y-101968699D01*
X90720333Y-101968699D02*
X90599380Y-102029175D01*
X92111285Y-101666318D02*
X92232238Y-101666318D01*
X92232238Y-101666318D02*
X92353190Y-101726794D01*
X92353190Y-101726794D02*
X92413666Y-101787270D01*
X92413666Y-101787270D02*
X92474142Y-101908222D01*
X92474142Y-101908222D02*
X92534619Y-102150127D01*
X92534619Y-102150127D02*
X92534619Y-102452508D01*
X92534619Y-102452508D02*
X92474142Y-102694413D01*
X92474142Y-102694413D02*
X92413666Y-102815365D01*
X92413666Y-102815365D02*
X92353190Y-102875842D01*
X92353190Y-102875842D02*
X92232238Y-102936318D01*
X92232238Y-102936318D02*
X92111285Y-102936318D01*
X92111285Y-102936318D02*
X91990333Y-102875842D01*
X91990333Y-102875842D02*
X91929857Y-102815365D01*
X91929857Y-102815365D02*
X91869380Y-102694413D01*
X91869380Y-102694413D02*
X91808904Y-102452508D01*
X91808904Y-102452508D02*
X91808904Y-102150127D01*
X91808904Y-102150127D02*
X91869380Y-101908222D01*
X91869380Y-101908222D02*
X91929857Y-101787270D01*
X91929857Y-101787270D02*
X91990333Y-101726794D01*
X91990333Y-101726794D02*
X92111285Y-101666318D01*
X129469847Y-144865670D02*
X129348895Y-144805194D01*
X129348895Y-144805194D02*
X129227942Y-144684242D01*
X129227942Y-144684242D02*
X129046514Y-144502813D01*
X129046514Y-144502813D02*
X128925561Y-144442337D01*
X128925561Y-144442337D02*
X128804609Y-144442337D01*
X128865085Y-144744718D02*
X128744133Y-144684242D01*
X128744133Y-144684242D02*
X128623180Y-144563289D01*
X128623180Y-144563289D02*
X128562704Y-144321384D01*
X128562704Y-144321384D02*
X128562704Y-143898051D01*
X128562704Y-143898051D02*
X128623180Y-143656146D01*
X128623180Y-143656146D02*
X128744133Y-143535194D01*
X128744133Y-143535194D02*
X128865085Y-143474718D01*
X128865085Y-143474718D02*
X129106990Y-143474718D01*
X129106990Y-143474718D02*
X129227942Y-143535194D01*
X129227942Y-143535194D02*
X129348895Y-143656146D01*
X129348895Y-143656146D02*
X129409371Y-143898051D01*
X129409371Y-143898051D02*
X129409371Y-144321384D01*
X129409371Y-144321384D02*
X129348895Y-144563289D01*
X129348895Y-144563289D02*
X129227942Y-144684242D01*
X129227942Y-144684242D02*
X129106990Y-144744718D01*
X129106990Y-144744718D02*
X128865085Y-144744718D01*
X130558418Y-143474718D02*
X129953656Y-143474718D01*
X129953656Y-143474718D02*
X129893180Y-144079480D01*
X129893180Y-144079480D02*
X129953656Y-144019003D01*
X129953656Y-144019003D02*
X130074609Y-143958527D01*
X130074609Y-143958527D02*
X130376990Y-143958527D01*
X130376990Y-143958527D02*
X130497942Y-144019003D01*
X130497942Y-144019003D02*
X130558418Y-144079480D01*
X130558418Y-144079480D02*
X130618895Y-144200432D01*
X130618895Y-144200432D02*
X130618895Y-144502813D01*
X130618895Y-144502813D02*
X130558418Y-144623765D01*
X130558418Y-144623765D02*
X130497942Y-144684242D01*
X130497942Y-144684242D02*
X130376990Y-144744718D01*
X130376990Y-144744718D02*
X130074609Y-144744718D01*
X130074609Y-144744718D02*
X129953656Y-144684242D01*
X129953656Y-144684242D02*
X129893180Y-144623765D01*
X187716885Y-146542070D02*
X187595933Y-146481594D01*
X187595933Y-146481594D02*
X187474980Y-146360642D01*
X187474980Y-146360642D02*
X187293552Y-146179213D01*
X187293552Y-146179213D02*
X187172599Y-146118737D01*
X187172599Y-146118737D02*
X187051647Y-146118737D01*
X187112123Y-146421118D02*
X186991171Y-146360642D01*
X186991171Y-146360642D02*
X186870218Y-146239689D01*
X186870218Y-146239689D02*
X186809742Y-145997784D01*
X186809742Y-145997784D02*
X186809742Y-145574451D01*
X186809742Y-145574451D02*
X186870218Y-145332546D01*
X186870218Y-145332546D02*
X186991171Y-145211594D01*
X186991171Y-145211594D02*
X187112123Y-145151118D01*
X187112123Y-145151118D02*
X187354028Y-145151118D01*
X187354028Y-145151118D02*
X187474980Y-145211594D01*
X187474980Y-145211594D02*
X187595933Y-145332546D01*
X187595933Y-145332546D02*
X187656409Y-145574451D01*
X187656409Y-145574451D02*
X187656409Y-145997784D01*
X187656409Y-145997784D02*
X187595933Y-146239689D01*
X187595933Y-146239689D02*
X187474980Y-146360642D01*
X187474980Y-146360642D02*
X187354028Y-146421118D01*
X187354028Y-146421118D02*
X187112123Y-146421118D01*
X188865933Y-146421118D02*
X188140218Y-146421118D01*
X188503075Y-146421118D02*
X188503075Y-145151118D01*
X188503075Y-145151118D02*
X188382123Y-145332546D01*
X188382123Y-145332546D02*
X188261171Y-145453499D01*
X188261171Y-145453499D02*
X188140218Y-145513975D01*
X190075457Y-146421118D02*
X189349742Y-146421118D01*
X189712599Y-146421118D02*
X189712599Y-145151118D01*
X189712599Y-145151118D02*
X189591647Y-145332546D01*
X189591647Y-145332546D02*
X189470695Y-145453499D01*
X189470695Y-145453499D02*
X189349742Y-145513975D01*
D13*
%TO.C,IC1*%
X117258000Y-114986000D02*
X117258000Y-118186000D01*
X117258000Y-118186000D02*
X112358000Y-118186000D01*
X112358000Y-118186000D02*
X112358000Y-114986000D01*
X112358000Y-114986000D02*
X117258000Y-114986000D01*
X117388000Y-113111000D02*
X117388000Y-114636000D01*
D14*
%TO.C,R18*%
X102389000Y-128497064D02*
X102389000Y-128042936D01*
X103859000Y-128497064D02*
X103859000Y-128042936D01*
D13*
%TO.C,Q9*%
X164568000Y-141268000D02*
X164568000Y-142568000D01*
X164528000Y-142918000D02*
X164528000Y-143018000D01*
X161608000Y-142918000D02*
X164528000Y-142918000D01*
X164528000Y-143018000D02*
X161608000Y-143018000D01*
X161608000Y-143018000D02*
X161608000Y-142918000D01*
D14*
%TO.C,R5*%
X122200936Y-139219000D02*
X122655064Y-139219000D01*
X122200936Y-140689000D02*
X122655064Y-140689000D01*
D13*
%TO.C,Q7*%
X149328000Y-141268000D02*
X149328000Y-142568000D01*
X149288000Y-142918000D02*
X149288000Y-143018000D01*
X146368000Y-142918000D02*
X149288000Y-142918000D01*
X149288000Y-143018000D02*
X146368000Y-143018000D01*
X146368000Y-143018000D02*
X146368000Y-142918000D01*
D15*
%TO.C,Y1*%
X129051681Y-135280400D02*
X129875919Y-135280400D01*
X131546600Y-135280400D02*
X131546600Y-128828800D01*
X127381000Y-128828800D02*
X127381000Y-135280400D01*
X129875919Y-128828800D02*
X129051681Y-128828800D01*
D14*
%TO.C,R13*%
X188695064Y-140689000D02*
X188240936Y-140689000D01*
X188695064Y-139219000D02*
X188240936Y-139219000D01*
D13*
%TO.C,Q3*%
X118848000Y-141268000D02*
X118848000Y-142568000D01*
X118808000Y-142918000D02*
X118808000Y-143018000D01*
X115888000Y-142918000D02*
X118808000Y-142918000D01*
X118808000Y-143018000D02*
X115888000Y-143018000D01*
X115888000Y-143018000D02*
X115888000Y-142918000D01*
D14*
%TO.C,R8*%
X147600936Y-139219000D02*
X148055064Y-139219000D01*
X147600936Y-140689000D02*
X148055064Y-140689000D01*
%TO.C,R17*%
X105891000Y-135662936D02*
X105891000Y-136117064D01*
X104421000Y-135662936D02*
X104421000Y-136117064D01*
D16*
%TO.C,J5*%
X186288000Y-150876000D02*
X186288000Y-150876000D01*
X186188000Y-150876000D02*
X186188000Y-150876000D01*
D13*
X185928000Y-154926000D02*
X170688000Y-154926000D01*
X185928000Y-146826000D02*
X185928000Y-154926000D01*
X170688000Y-154926000D02*
X170688000Y-146826000D01*
X170688000Y-146826000D02*
X185928000Y-146826000D01*
D16*
X186188000Y-150876000D02*
G75*
G03*
X186288000Y-150876000I50000J0D01*
G01*
X186288000Y-150876000D02*
G75*
G03*
X186188000Y-150876000I-50000J0D01*
G01*
D13*
%TO.C,C3*%
X82796000Y-131488000D02*
X70696000Y-131488000D01*
X78571000Y-120988000D02*
X70696000Y-120988000D01*
D16*
%TO.C,LED1*%
X132343000Y-122936000D02*
X132343000Y-122936000D01*
X132243000Y-122936000D02*
X132243000Y-122936000D01*
D13*
X130143000Y-123736000D02*
X129143000Y-123736000D01*
X130143000Y-122136000D02*
X129143000Y-122136000D01*
D16*
X132243000Y-122936000D02*
G75*
G03*
X132343000Y-122936000I50000J0D01*
G01*
X132343000Y-122936000D02*
G75*
G03*
X132243000Y-122936000I-50000J0D01*
G01*
D15*
%TO.C,U11*%
X102450900Y-130721100D02*
X98209100Y-130721100D01*
X98209100Y-135978900D02*
X102450900Y-135978900D01*
D13*
%TO.C,L1*%
X97228000Y-76762000D02*
X109528000Y-76762000D01*
X109528000Y-64462000D02*
X97228000Y-64462000D01*
D14*
%TO.C,R2*%
X106960936Y-139219000D02*
X107415064Y-139219000D01*
X106960936Y-140689000D02*
X107415064Y-140689000D01*
%TO.C,J9*%
X125795000Y-133395000D02*
X124465000Y-133395000D01*
X125795000Y-132065000D02*
X125795000Y-133395000D01*
X125795000Y-130795000D02*
X125795000Y-125655000D01*
X125795000Y-130795000D02*
X123195000Y-130795000D01*
X125795000Y-125655000D02*
X120595000Y-125655000D01*
X123195000Y-133395000D02*
X120595000Y-133395000D01*
X123195000Y-130795000D02*
X123195000Y-133395000D01*
X120595000Y-133395000D02*
X120595000Y-125655000D01*
D13*
%TO.C,Q6*%
X139168000Y-141268000D02*
X139168000Y-142568000D01*
X139128000Y-142918000D02*
X139128000Y-143018000D01*
X136208000Y-142918000D02*
X139128000Y-142918000D01*
X139128000Y-143018000D02*
X136208000Y-143018000D01*
X136208000Y-143018000D02*
X136208000Y-142918000D01*
D16*
%TO.C,U1*%
X110034000Y-133902000D02*
X110134000Y-133902000D01*
X110134000Y-133902000D02*
X110134000Y-135202000D01*
X116884000Y-133902000D02*
X116434000Y-133902000D01*
X116884000Y-133902000D02*
X116884000Y-133452000D01*
X109684000Y-133552000D02*
X110034000Y-133902000D01*
X109684000Y-133452000D02*
X109684000Y-133552000D01*
X109684000Y-126702000D02*
X109684000Y-127152000D01*
X109684000Y-126702000D02*
X110134000Y-126702000D01*
X116884000Y-126702000D02*
X116884000Y-127152000D01*
X116884000Y-126702000D02*
X116434000Y-126702000D01*
D14*
%TO.C,D1*%
X99008000Y-86784000D02*
X99008000Y-95294000D01*
X92508000Y-86784000D02*
X99008000Y-86784000D01*
X92508000Y-86784000D02*
X92508000Y-95294000D01*
%TO.C,R7*%
X152680936Y-139219000D02*
X153135064Y-139219000D01*
X152680936Y-140689000D02*
X153135064Y-140689000D01*
D15*
%TO.C,J8*%
X68986400Y-145148300D02*
X68986400Y-156603700D01*
X68986400Y-156603700D02*
X79400400Y-156603700D01*
X79400400Y-145148300D02*
X68986400Y-145148300D01*
X79400400Y-156603700D02*
X79400400Y-145148300D01*
D17*
X68732400Y-150775299D02*
G75*
G03*
X68732400Y-150775299I-381000J0D01*
G01*
D14*
%TO.C,D2*%
X118312000Y-86784000D02*
X118312000Y-95294000D01*
X111812000Y-86784000D02*
X118312000Y-86784000D01*
X111812000Y-86784000D02*
X111812000Y-95294000D01*
D16*
%TO.C,J3*%
X155808000Y-150876000D02*
X155808000Y-150876000D01*
X155708000Y-150876000D02*
X155708000Y-150876000D01*
D13*
X155448000Y-154926000D02*
X140208000Y-154926000D01*
X155448000Y-146826000D02*
X155448000Y-154926000D01*
X140208000Y-154926000D02*
X140208000Y-146826000D01*
X140208000Y-146826000D02*
X155448000Y-146826000D01*
D16*
X155708000Y-150876000D02*
G75*
G03*
X155808000Y-150876000I50000J0D01*
G01*
X155808000Y-150876000D02*
G75*
G03*
X155708000Y-150876000I-50000J0D01*
G01*
D14*
%TO.C,R23*%
X96747064Y-141451000D02*
X96292936Y-141451000D01*
X96747064Y-139981000D02*
X96292936Y-139981000D01*
D16*
%TO.C,J2*%
X140568000Y-150876000D02*
X140568000Y-150876000D01*
X140468000Y-150876000D02*
X140468000Y-150876000D01*
D13*
X140208000Y-154926000D02*
X124968000Y-154926000D01*
X140208000Y-146826000D02*
X140208000Y-154926000D01*
X124968000Y-154926000D02*
X124968000Y-146826000D01*
X124968000Y-146826000D02*
X140208000Y-146826000D01*
D16*
X140468000Y-150876000D02*
G75*
G03*
X140568000Y-150876000I50000J0D01*
G01*
X140568000Y-150876000D02*
G75*
G03*
X140468000Y-150876000I-50000J0D01*
G01*
D14*
%TO.C,R20*%
X105891000Y-130074936D02*
X105891000Y-130529064D01*
X104421000Y-130074936D02*
X104421000Y-130529064D01*
%TO.C,R10*%
X193320936Y-139219000D02*
X193775064Y-139219000D01*
X193320936Y-140689000D02*
X193775064Y-140689000D01*
%TO.C,R3*%
X117120936Y-139219000D02*
X117575064Y-139219000D01*
X117120936Y-140689000D02*
X117575064Y-140689000D01*
D18*
%TO.C,C8*%
X104902000Y-110861000D02*
X104902000Y-110861000D01*
X104902000Y-110811000D02*
X104902000Y-110811000D01*
D13*
X102402000Y-109036000D02*
X99752000Y-106386000D01*
X107402000Y-109036000D02*
X110052000Y-106386000D01*
X99752000Y-106386000D02*
X99752000Y-98736000D01*
X110052000Y-106386000D02*
X110052000Y-98736000D01*
X99752000Y-98736000D02*
X102402000Y-98736000D01*
X110052000Y-98736000D02*
X107402000Y-98736000D01*
D18*
X104902000Y-110811000D02*
G75*
G03*
X104902000Y-110861000I0J-25000D01*
G01*
X104902000Y-110861000D02*
G75*
G03*
X104902000Y-110811000I0J25000D01*
G01*
D14*
%TO.C,R4*%
X132360936Y-139219000D02*
X132815064Y-139219000D01*
X132360936Y-140689000D02*
X132815064Y-140689000D01*
D13*
%TO.C,Q4*%
X123928000Y-141268000D02*
X123928000Y-142568000D01*
X123888000Y-142918000D02*
X123888000Y-143018000D01*
X120968000Y-142918000D02*
X123888000Y-142918000D01*
X123888000Y-143018000D02*
X120968000Y-143018000D01*
X120968000Y-143018000D02*
X120968000Y-142918000D01*
%TO.C,Q2*%
X108654000Y-141268000D02*
X108654000Y-142568000D01*
X108614000Y-142918000D02*
X108614000Y-143018000D01*
X105694000Y-142918000D02*
X108614000Y-142918000D01*
X108614000Y-143018000D02*
X105694000Y-143018000D01*
X105694000Y-143018000D02*
X105694000Y-142918000D01*
D14*
%TO.C,R9*%
X137440936Y-139219000D02*
X137895064Y-139219000D01*
X137440936Y-140689000D02*
X137895064Y-140689000D01*
%TO.C,R21*%
X97308936Y-142267000D02*
X97763064Y-142267000D01*
X97308936Y-143737000D02*
X97763064Y-143737000D01*
%TO.C,R19*%
X101827000Y-128042936D02*
X101827000Y-128497064D01*
X100357000Y-128042936D02*
X100357000Y-128497064D01*
D15*
%TO.C,U2*%
X101053900Y-90350340D02*
X101053900Y-91369401D01*
X101942900Y-90350340D02*
X101942900Y-91369401D01*
X102755700Y-90350340D02*
X102755700Y-91369401D01*
X103644700Y-90350340D02*
X103644700Y-91369401D01*
X104457500Y-90350340D02*
X104457500Y-91369401D01*
X105346500Y-90350340D02*
X105346500Y-91369401D01*
X106159300Y-90350340D02*
X106159300Y-91369401D01*
X107048300Y-90350340D02*
X107048300Y-91369401D01*
X107861100Y-90350340D02*
X107861100Y-91369401D01*
X108750100Y-90350340D02*
X108750100Y-91369401D01*
D16*
%TO.C,J1*%
X125328000Y-150876000D02*
X125328000Y-150876000D01*
X125228000Y-150876000D02*
X125228000Y-150876000D01*
D13*
X124968000Y-154926000D02*
X109728000Y-154926000D01*
X124968000Y-146826000D02*
X124968000Y-154926000D01*
X109728000Y-154926000D02*
X109728000Y-146826000D01*
X109728000Y-146826000D02*
X124968000Y-146826000D01*
D16*
X125228000Y-150876000D02*
G75*
G03*
X125328000Y-150876000I50000J0D01*
G01*
X125328000Y-150876000D02*
G75*
G03*
X125228000Y-150876000I-50000J0D01*
G01*
D14*
%TO.C,R15*%
X119861064Y-114527000D02*
X119406936Y-114527000D01*
X119861064Y-113057000D02*
X119406936Y-113057000D01*
%TO.C,R14*%
X183615064Y-140689000D02*
X183160936Y-140689000D01*
X183615064Y-139219000D02*
X183160936Y-139219000D01*
D16*
%TO.C,J4*%
X171048000Y-150876000D02*
X171048000Y-150876000D01*
X170948000Y-150876000D02*
X170948000Y-150876000D01*
D13*
X170688000Y-154926000D02*
X155448000Y-154926000D01*
X170688000Y-146826000D02*
X170688000Y-154926000D01*
X155448000Y-154926000D02*
X155448000Y-146826000D01*
X155448000Y-146826000D02*
X170688000Y-146826000D01*
D16*
X170948000Y-150876000D02*
G75*
G03*
X171048000Y-150876000I50000J0D01*
G01*
X171048000Y-150876000D02*
G75*
G03*
X170948000Y-150876000I-50000J0D01*
G01*
D13*
%TO.C,L2*%
X119834000Y-76762000D02*
X132134000Y-76762000D01*
X132134000Y-64462000D02*
X119834000Y-64462000D01*
%TO.C,Q10*%
X184888000Y-141268000D02*
X184888000Y-142568000D01*
X184848000Y-142918000D02*
X184848000Y-143018000D01*
X181928000Y-142918000D02*
X184848000Y-142918000D01*
X184848000Y-143018000D02*
X181928000Y-143018000D01*
X181928000Y-143018000D02*
X181928000Y-142918000D01*
D15*
%TO.C,U5*%
X138595100Y-133538796D02*
X138595100Y-129529004D01*
X133235700Y-129529004D02*
X133235700Y-133538796D01*
G36*
X137730901Y-127629902D02*
G01*
X137349901Y-127629902D01*
X137349901Y-127375902D01*
X137730901Y-127375902D01*
X137730901Y-127629902D01*
G37*
D13*
%TO.C,Q12*%
X195048000Y-141268000D02*
X195048000Y-142568000D01*
X195008000Y-142918000D02*
X195008000Y-143018000D01*
X192088000Y-142918000D02*
X195008000Y-142918000D01*
X195008000Y-143018000D02*
X192088000Y-143018000D01*
X192088000Y-143018000D02*
X192088000Y-142918000D01*
%TO.C,Q8*%
X154408000Y-141268000D02*
X154408000Y-142568000D01*
X154368000Y-142918000D02*
X154368000Y-143018000D01*
X151448000Y-142918000D02*
X154368000Y-142918000D01*
X154368000Y-143018000D02*
X151448000Y-143018000D01*
X151448000Y-143018000D02*
X151448000Y-142918000D01*
D15*
%TO.C,U3*%
X118999000Y-87263849D02*
X118999000Y-89995000D01*
X118999000Y-89995000D02*
X129921000Y-89995000D01*
X120599200Y-90477600D02*
X120599200Y-91397601D01*
X121513600Y-90477600D02*
X121513600Y-91397601D01*
X122301000Y-90477600D02*
X122301000Y-91397601D01*
X123215400Y-90477600D02*
X123215400Y-91397601D01*
X124002800Y-90477600D02*
X124002800Y-91397601D01*
X124917200Y-90477600D02*
X124917200Y-91397601D01*
X125704600Y-90477600D02*
X125704600Y-91397601D01*
X126619000Y-90477600D02*
X126619000Y-91397601D01*
X127406400Y-90477600D02*
X127406400Y-91397601D01*
X128320800Y-90477600D02*
X128320800Y-91397601D01*
X129921000Y-89995000D02*
X129921000Y-87263849D01*
D13*
%TO.C,Q13*%
X200128000Y-141268000D02*
X200128000Y-142568000D01*
X200088000Y-142918000D02*
X200088000Y-143018000D01*
X197168000Y-142918000D02*
X200088000Y-142918000D01*
X200088000Y-143018000D02*
X197168000Y-143018000D01*
X197168000Y-143018000D02*
X197168000Y-142918000D01*
D14*
%TO.C,C1*%
X129877452Y-137310800D02*
X129354948Y-137310800D01*
X129877452Y-135840800D02*
X129354948Y-135840800D01*
%TO.C,C2*%
X131579252Y-127481000D02*
X131056748Y-127481000D01*
X131579252Y-126011000D02*
X131056748Y-126011000D01*
%TO.C,R11*%
X198855064Y-140689000D02*
X198400936Y-140689000D01*
X198855064Y-139219000D02*
X198400936Y-139219000D01*
D16*
%TO.C,J6*%
X201528000Y-150876000D02*
X201528000Y-150876000D01*
X201428000Y-150876000D02*
X201428000Y-150876000D01*
D13*
X201168000Y-154926000D02*
X185928000Y-154926000D01*
X201168000Y-146826000D02*
X201168000Y-154926000D01*
X185928000Y-154926000D02*
X185928000Y-146826000D01*
X185928000Y-146826000D02*
X201168000Y-146826000D01*
D16*
X201428000Y-150876000D02*
G75*
G03*
X201528000Y-150876000I50000J0D01*
G01*
X201528000Y-150876000D02*
G75*
G03*
X201428000Y-150876000I-50000J0D01*
G01*
D14*
%TO.C,R12*%
X167920936Y-139219000D02*
X168375064Y-139219000D01*
X167920936Y-140689000D02*
X168375064Y-140689000D01*
%TO.C,R16*%
X119861064Y-116559000D02*
X119406936Y-116559000D01*
X119861064Y-115089000D02*
X119406936Y-115089000D01*
D16*
%TO.C,J7*%
X110388000Y-150876000D02*
X110388000Y-150876000D01*
X110288000Y-150876000D02*
X110288000Y-150876000D01*
D13*
X109728000Y-154926000D02*
X84328000Y-154926000D01*
X109728000Y-146826000D02*
X109728000Y-154926000D01*
X84328000Y-154926000D02*
X84328000Y-146826000D01*
X84328000Y-146826000D02*
X109728000Y-146826000D01*
D16*
X110288000Y-150876000D02*
G75*
G03*
X110388000Y-150876000I50000J0D01*
G01*
X110388000Y-150876000D02*
G75*
G03*
X110288000Y-150876000I-50000J0D01*
G01*
D15*
%TO.C,U4*%
X72373339Y-140347700D02*
X74946661Y-140347700D01*
X76441300Y-140347700D02*
X76441300Y-135496300D01*
X70878700Y-135496300D02*
X70878700Y-140347700D01*
X74946661Y-135496300D02*
X72373339Y-135496300D01*
D14*
%TO.C,R6*%
X162840936Y-139219000D02*
X163295064Y-139219000D01*
X162840936Y-140689000D02*
X163295064Y-140689000D01*
D13*
%TO.C,C4*%
X82796000Y-119550000D02*
X70696000Y-119550000D01*
X78571000Y-109050000D02*
X70696000Y-109050000D01*
D14*
%TO.C,R1*%
X124560064Y-123671000D02*
X124105936Y-123671000D01*
X124560064Y-122201000D02*
X124105936Y-122201000D01*
%TO.C,R22*%
X96747064Y-138911000D02*
X96292936Y-138911000D01*
X96747064Y-137441000D02*
X96292936Y-137441000D01*
D13*
%TO.C,C9*%
X82796000Y-107612000D02*
X70696000Y-107612000D01*
X78571000Y-97112000D02*
X70696000Y-97112000D01*
D18*
%TO.C,C7*%
X123952000Y-110861000D02*
X123952000Y-110861000D01*
X123952000Y-110811000D02*
X123952000Y-110811000D01*
D13*
X121452000Y-109036000D02*
X118802000Y-106386000D01*
X126452000Y-109036000D02*
X129102000Y-106386000D01*
X118802000Y-106386000D02*
X118802000Y-98736000D01*
X129102000Y-106386000D02*
X129102000Y-98736000D01*
X118802000Y-98736000D02*
X121452000Y-98736000D01*
X129102000Y-98736000D02*
X126452000Y-98736000D01*
D18*
X123952000Y-110811000D02*
G75*
G03*
X123952000Y-110861000I0J-25000D01*
G01*
X123952000Y-110861000D02*
G75*
G03*
X123952000Y-110811000I0J25000D01*
G01*
D13*
%TO.C,Q1*%
X169648000Y-141268000D02*
X169648000Y-142568000D01*
X169608000Y-142918000D02*
X169608000Y-143018000D01*
X166688000Y-142918000D02*
X169608000Y-142918000D01*
X169608000Y-143018000D02*
X166688000Y-143018000D01*
X166688000Y-143018000D02*
X166688000Y-142918000D01*
%TO.C,C10*%
X84082000Y-97112000D02*
X96182000Y-97112000D01*
X88307000Y-107612000D02*
X96182000Y-107612000D01*
%TO.C,Q5*%
X134088000Y-141268000D02*
X134088000Y-142568000D01*
X134048000Y-142918000D02*
X134048000Y-143018000D01*
X131128000Y-142918000D02*
X134048000Y-142918000D01*
X134048000Y-143018000D02*
X131128000Y-143018000D01*
X131128000Y-143018000D02*
X131128000Y-142918000D01*
%TO.C,Q11*%
X189968000Y-141268000D02*
X189968000Y-142568000D01*
X189928000Y-142918000D02*
X189928000Y-143018000D01*
X187008000Y-142918000D02*
X189928000Y-142918000D01*
X189928000Y-143018000D02*
X187008000Y-143018000D01*
X187008000Y-143018000D02*
X187008000Y-142918000D01*
%TD*%
%LPC*%
D19*
%TO.C,IC1*%
X116713000Y-113874000D03*
X115443000Y-113874000D03*
X114173000Y-113874000D03*
X112903000Y-113874000D03*
X112903000Y-119298000D03*
X114173000Y-119298000D03*
X115443000Y-119298000D03*
X116713000Y-119298000D03*
%TD*%
D20*
%TO.C,R18*%
X103124000Y-129270000D03*
X103124000Y-127270000D03*
%TD*%
D21*
%TO.C,Q9*%
X164018000Y-141918000D03*
X162118000Y-141918000D03*
X163068000Y-144018000D03*
%TD*%
D22*
%TO.C,R5*%
X121428000Y-139954000D03*
X123428000Y-139954000D03*
%TD*%
D21*
%TO.C,Q7*%
X148778000Y-141918000D03*
X146878000Y-141918000D03*
X147828000Y-144018000D03*
%TD*%
D23*
%TO.C,Y1*%
X130663800Y-134454900D03*
X128263800Y-134454900D03*
X128263800Y-129654300D03*
X130663800Y-129654300D03*
%TD*%
D24*
%TO.C,R13*%
X189468000Y-139954000D03*
X187468000Y-139954000D03*
%TD*%
D21*
%TO.C,Q3*%
X118298000Y-141918000D03*
X116398000Y-141918000D03*
X117348000Y-144018000D03*
%TD*%
D22*
%TO.C,R8*%
X146828000Y-139954000D03*
X148828000Y-139954000D03*
%TD*%
D25*
%TO.C,R17*%
X105156000Y-134890000D03*
X105156000Y-136890000D03*
%TD*%
D26*
%TO.C,J5*%
X183388000Y-150876000D03*
D27*
X178308000Y-150876000D03*
X173228000Y-150876000D03*
%TD*%
D28*
%TO.C,C3*%
X80246000Y-126238000D03*
X71646000Y-126238000D03*
%TD*%
D29*
%TO.C,LED1*%
X131143000Y-122936000D03*
X128143000Y-122936000D03*
%TD*%
D30*
%TO.C,U11*%
X103051348Y-135255000D03*
X103051348Y-133985000D03*
X103051348Y-132715000D03*
X103051348Y-131445000D03*
X97608652Y-131445000D03*
X97608652Y-132715000D03*
X97608652Y-133985000D03*
X97608652Y-135255000D03*
%TD*%
D31*
%TO.C,L1*%
X98278000Y-70612000D03*
X108478000Y-70612000D03*
%TD*%
D22*
%TO.C,R2*%
X106188000Y-139954000D03*
X108188000Y-139954000D03*
%TD*%
D32*
%TO.C,J9*%
X124465000Y-132065000D03*
D33*
X121925000Y-132065000D03*
X124465000Y-129525000D03*
X121925000Y-129525000D03*
X124465000Y-126985000D03*
X121925000Y-126985000D03*
%TD*%
D21*
%TO.C,Q6*%
X138618000Y-141918000D03*
X136718000Y-141918000D03*
X137668000Y-144018000D03*
%TD*%
D34*
%TO.C,U1*%
X110484000Y-134502000D03*
X111284000Y-134502000D03*
X112084000Y-134502000D03*
X112884000Y-134502000D03*
X113684000Y-134502000D03*
X114484000Y-134502000D03*
X115284000Y-134502000D03*
X116084000Y-134502000D03*
D35*
X117484000Y-133102000D03*
X117484000Y-132302000D03*
X117484000Y-131502000D03*
X117484000Y-130702000D03*
X117484000Y-129902000D03*
X117484000Y-129102000D03*
X117484000Y-128302000D03*
X117484000Y-127502000D03*
D34*
X116084000Y-126102000D03*
X115284000Y-126102000D03*
X114484000Y-126102000D03*
X113684000Y-126102000D03*
X112884000Y-126102000D03*
X112084000Y-126102000D03*
X111284000Y-126102000D03*
X110484000Y-126102000D03*
D35*
X109084000Y-127502000D03*
X109084000Y-128302000D03*
X109084000Y-129102000D03*
X109084000Y-129902000D03*
X109084000Y-130702000D03*
X109084000Y-131502000D03*
X109084000Y-132302000D03*
X109084000Y-133102000D03*
%TD*%
D36*
%TO.C,D1*%
X95758000Y-88294000D03*
X95758000Y-95094000D03*
%TD*%
D22*
%TO.C,R7*%
X151908000Y-139954000D03*
X153908000Y-139954000D03*
%TD*%
D37*
%TO.C,J8*%
X71653400Y-150775299D03*
X76733400Y-150775299D03*
%TD*%
D36*
%TO.C,D2*%
X115062000Y-88294000D03*
X115062000Y-95094000D03*
%TD*%
D26*
%TO.C,J3*%
X152908000Y-150876000D03*
D27*
X147828000Y-150876000D03*
X142748000Y-150876000D03*
%TD*%
D24*
%TO.C,R23*%
X97520000Y-140716000D03*
X95520000Y-140716000D03*
%TD*%
D26*
%TO.C,J2*%
X137668000Y-150876000D03*
D27*
X132588000Y-150876000D03*
X127508000Y-150876000D03*
%TD*%
D25*
%TO.C,R20*%
X105156000Y-129302000D03*
X105156000Y-131302000D03*
%TD*%
D22*
%TO.C,R10*%
X192548000Y-139954000D03*
X194548000Y-139954000D03*
%TD*%
%TO.C,R3*%
X116348000Y-139954000D03*
X118348000Y-139954000D03*
%TD*%
D38*
%TO.C,C8*%
X104902000Y-108236000D03*
X104902000Y-99536000D03*
%TD*%
D22*
%TO.C,R4*%
X131588000Y-139954000D03*
X133588000Y-139954000D03*
%TD*%
D21*
%TO.C,Q4*%
X123378000Y-141918000D03*
X121478000Y-141918000D03*
X122428000Y-144018000D03*
%TD*%
%TO.C,Q2*%
X108104000Y-141918000D03*
X106204000Y-141918000D03*
X107154000Y-144018000D03*
%TD*%
D22*
%TO.C,R9*%
X136668000Y-139954000D03*
X138668000Y-139954000D03*
%TD*%
%TO.C,R21*%
X96536000Y-143002000D03*
X98536000Y-143002000D03*
%TD*%
D25*
%TO.C,R19*%
X101092000Y-127270000D03*
X101092000Y-129270000D03*
%TD*%
D39*
%TO.C,U2*%
X101498400Y-93472000D03*
X103200200Y-93472000D03*
X104902000Y-93472000D03*
X106603800Y-93472000D03*
X108305600Y-93472000D03*
D40*
X104902000Y-84328000D03*
%TD*%
D26*
%TO.C,J1*%
X122428000Y-150876000D03*
D27*
X117348000Y-150876000D03*
X112268000Y-150876000D03*
%TD*%
D24*
%TO.C,R15*%
X120634000Y-113792000D03*
X118634000Y-113792000D03*
%TD*%
%TO.C,R14*%
X184388000Y-139954000D03*
X182388000Y-139954000D03*
%TD*%
D26*
%TO.C,J4*%
X168148000Y-150876000D03*
D27*
X163068000Y-150876000D03*
X157988000Y-150876000D03*
%TD*%
D31*
%TO.C,L2*%
X120884000Y-70612000D03*
X131084000Y-70612000D03*
%TD*%
D21*
%TO.C,Q10*%
X184338000Y-141918000D03*
X182438000Y-141918000D03*
X183388000Y-144018000D03*
%TD*%
D41*
%TO.C,U5*%
X133640401Y-134482848D03*
X134290399Y-134482848D03*
X134940401Y-134482848D03*
X135590399Y-134482848D03*
X136240398Y-134482848D03*
X136890399Y-134482848D03*
X137540398Y-134482848D03*
X138190399Y-134482848D03*
X138190399Y-128584952D03*
X137540401Y-128584952D03*
X136890399Y-128584952D03*
X136240401Y-128584952D03*
X135590402Y-128584952D03*
X134940401Y-128584952D03*
X134290402Y-128584952D03*
X133640401Y-128584952D03*
%TD*%
D21*
%TO.C,Q12*%
X194498000Y-141918000D03*
X192598000Y-141918000D03*
X193548000Y-144018000D03*
%TD*%
%TO.C,Q8*%
X153858000Y-141918000D03*
X151958000Y-141918000D03*
X152908000Y-144018000D03*
%TD*%
D42*
%TO.C,U3*%
X121056400Y-93500200D03*
X122758200Y-93500200D03*
X124460000Y-93500200D03*
X126161800Y-93500200D03*
X127863600Y-93500200D03*
D43*
X124460000Y-82717900D03*
%TD*%
D21*
%TO.C,Q13*%
X199578000Y-141918000D03*
X197678000Y-141918000D03*
X198628000Y-144018000D03*
%TD*%
D44*
%TO.C,C1*%
X130653700Y-136575800D03*
X128578700Y-136575800D03*
%TD*%
%TO.C,C2*%
X132355500Y-126746000D03*
X130280500Y-126746000D03*
%TD*%
D24*
%TO.C,R11*%
X199628000Y-139954000D03*
X197628000Y-139954000D03*
%TD*%
D26*
%TO.C,J6*%
X198628000Y-150876000D03*
D27*
X193548000Y-150876000D03*
X188468000Y-150876000D03*
%TD*%
D22*
%TO.C,R12*%
X167148000Y-139954000D03*
X169148000Y-139954000D03*
%TD*%
D24*
%TO.C,R16*%
X120634000Y-115824000D03*
X118634000Y-115824000D03*
%TD*%
D45*
%TO.C,J7*%
X107188000Y-150876000D03*
X102108000Y-150876000D03*
X97028000Y-150876000D03*
X91948000Y-150876000D03*
X86868000Y-150876000D03*
%TD*%
D46*
%TO.C,U4*%
X75660001Y-134895852D03*
X75660001Y-140948148D03*
X71659999Y-134895852D03*
X71659999Y-140948148D03*
%TD*%
D22*
%TO.C,R6*%
X162068000Y-139954000D03*
X164068000Y-139954000D03*
%TD*%
D28*
%TO.C,C4*%
X80246000Y-114300000D03*
X71646000Y-114300000D03*
%TD*%
D24*
%TO.C,R1*%
X125333000Y-122936000D03*
X123333000Y-122936000D03*
%TD*%
%TO.C,R22*%
X97520000Y-138176000D03*
X95520000Y-138176000D03*
%TD*%
D28*
%TO.C,C9*%
X80246000Y-102362000D03*
X71646000Y-102362000D03*
%TD*%
D38*
%TO.C,C7*%
X123952000Y-108236000D03*
X123952000Y-99536000D03*
%TD*%
D21*
%TO.C,Q1*%
X169098000Y-141918000D03*
X167198000Y-141918000D03*
X168148000Y-144018000D03*
%TD*%
D28*
%TO.C,C10*%
X86632000Y-102362000D03*
X95232000Y-102362000D03*
%TD*%
D21*
%TO.C,Q5*%
X133538000Y-141918000D03*
X131638000Y-141918000D03*
X132588000Y-144018000D03*
%TD*%
%TO.C,Q11*%
X189418000Y-141918000D03*
X187518000Y-141918000D03*
X188468000Y-144018000D03*
%TD*%
%LPD*%
M02*
