%TF.GenerationSoftware,KiCad,Pcbnew,7.0.6*%
%TF.CreationDate,2025-01-03T16:41:25+10:30*%
%TF.ProjectId,Security Panel Mainboard,53656375-7269-4747-9920-50616e656c20,rev?*%
%TF.SameCoordinates,Original*%
%TF.FileFunction,Copper,L3,Inr*%
%TF.FilePolarity,Positive*%
%FSLAX46Y46*%
G04 Gerber Fmt 4.6, Leading zero omitted, Abs format (unit mm)*
G04 Created by KiCad (PCBNEW 7.0.6) date 2025-01-03 16:41:25*
%MOMM*%
%LPD*%
G01*
G04 APERTURE LIST*
%TA.AperFunction,ComponentPad*%
%ADD10R,1.980000X1.980000*%
%TD*%
%TA.AperFunction,ComponentPad*%
%ADD11C,1.980000*%
%TD*%
%TA.AperFunction,ComponentPad*%
%ADD12R,1.700000X1.700000*%
%TD*%
%TA.AperFunction,ComponentPad*%
%ADD13O,1.700000X1.700000*%
%TD*%
%TA.AperFunction,ComponentPad*%
%ADD14C,1.524000*%
%TD*%
%TA.AperFunction,ComponentPad*%
%ADD15C,1.950000*%
%TD*%
%TA.AperFunction,ViaPad*%
%ADD16C,0.400000*%
%TD*%
%TA.AperFunction,ViaPad*%
%ADD17C,1.000000*%
%TD*%
%TA.AperFunction,ViaPad*%
%ADD18C,0.750000*%
%TD*%
%TA.AperFunction,ViaPad*%
%ADD19C,0.500000*%
%TD*%
%TA.AperFunction,Conductor*%
%ADD20C,0.250000*%
%TD*%
G04 APERTURE END LIST*
D10*
%TO.N,O1H*%
%TO.C,J5*%
X183388000Y-150876000D03*
D11*
%TO.N,+12V*%
X178308000Y-150876000D03*
X173228000Y-150876000D03*
%TD*%
D12*
%TO.N,GND*%
%TO.C,J9*%
X124465000Y-132065000D03*
D13*
%TO.N,RESET*%
X121925000Y-132065000D03*
%TO.N,MOSI*%
X124465000Y-129525000D03*
%TO.N,SCK*%
X121925000Y-129525000D03*
%TO.N,+5V*%
X124465000Y-126985000D03*
%TO.N,MISO*%
X121925000Y-126985000D03*
%TD*%
D14*
%TO.N,+24V AC2*%
%TO.C,J8*%
X71653400Y-150775299D03*
%TO.N,+24V AC*%
X76733400Y-150775299D03*
%TD*%
D10*
%TO.N,Z7H*%
%TO.C,J3*%
X152908000Y-150876000D03*
D11*
%TO.N,Z6H*%
X147828000Y-150876000D03*
%TO.N,+12V*%
X142748000Y-150876000D03*
%TD*%
D10*
%TO.N,Z5H*%
%TO.C,J2*%
X137668000Y-150876000D03*
D11*
%TO.N,Z4H*%
X132588000Y-150876000D03*
%TO.N,+12V*%
X127508000Y-150876000D03*
%TD*%
D10*
%TO.N,Z3H*%
%TO.C,J1*%
X122428000Y-150876000D03*
D11*
%TO.N,Z2H*%
X117348000Y-150876000D03*
%TO.N,+12V*%
X112268000Y-150876000D03*
%TD*%
D10*
%TO.N,SIREN H*%
%TO.C,J4*%
X168148000Y-150876000D03*
D11*
%TO.N,Z8H*%
X163068000Y-150876000D03*
%TO.N,+12V*%
X157988000Y-150876000D03*
%TD*%
D10*
%TO.N,O4H*%
%TO.C,J6*%
X198628000Y-150876000D03*
D11*
%TO.N,O3H*%
X193548000Y-150876000D03*
%TO.N,O2H*%
X188468000Y-150876000D03*
%TD*%
D15*
%TO.N,Z1H*%
%TO.C,J7*%
X107188000Y-150876000D03*
%TO.N,B*%
X102108000Y-150876000D03*
%TO.N,A*%
X97028000Y-150876000D03*
%TO.N,GND*%
X91948000Y-150876000D03*
%TO.N,+12V*%
X86868000Y-150876000D03*
%TD*%
D16*
%TO.N,GND*%
X112877600Y-126085600D03*
D17*
X111252000Y-130302000D03*
X116840000Y-122428000D03*
X119380000Y-124968000D03*
X134874000Y-123444000D03*
X132334000Y-129286000D03*
X135636000Y-131318000D03*
X130556000Y-132080000D03*
X128524000Y-127000000D03*
D16*
%TO.N,ZONE 8*%
X137541000Y-134162800D03*
%TO.N,ZONE 7*%
X136880600Y-134162800D03*
%TO.N,ZONE 6*%
X136245600Y-134162800D03*
%TO.N,ZONE 5*%
X135585200Y-134162800D03*
%TO.N,ZONE 4*%
X134924800Y-134162800D03*
%TO.N,ZONE 3*%
X134289800Y-134162800D03*
%TO.N,ZONE 2*%
X133629400Y-134162800D03*
%TO.N,ZONE 1*%
X134289800Y-128270000D03*
D18*
%TO.N,ZONE 8*%
X161975800Y-139979400D03*
%TO.N,ZONE 7*%
X151917400Y-139954000D03*
%TO.N,ZONE 6*%
X146812000Y-139979400D03*
%TO.N,ZONE 5*%
X136652000Y-139954000D03*
%TO.N,ZONE 4*%
X131572000Y-139979400D03*
%TO.N,ZONE 3*%
X121462800Y-139954000D03*
%TO.N,ZONE 2*%
X116382800Y-139979400D03*
%TO.N,ZONE 1*%
X106146600Y-139979400D03*
D16*
%TO.N,CLOCK*%
X136880600Y-129082800D03*
%TO.N,LATCH*%
X136245600Y-129082800D03*
%TO.N,DATA*%
X134924800Y-129082800D03*
D19*
%TO.N,CLOCK*%
X108559600Y-127508000D03*
%TO.N,LATCH*%
X108610400Y-128295400D03*
%TO.N,DATA*%
X108585000Y-129108200D03*
%TO.N,OUTPUT 3*%
X116992400Y-130708400D03*
%TO.N,OUTPUT 4*%
X116992400Y-129895600D03*
%TO.N,OUTPUT 2*%
X116992400Y-131495800D03*
%TO.N,OUTPUT 1*%
X116992400Y-132308600D03*
%TO.N,SIREN OUT*%
X116967000Y-133096000D03*
%TO.N,OUTPUT 4*%
X197612000Y-140335000D03*
%TO.N,OUTPUT 3*%
X192532000Y-140335000D03*
%TO.N,OUTPUT 2*%
X187452000Y-140335000D03*
%TO.N,OUTPUT 1*%
X182372000Y-140335000D03*
%TO.N,SIREN OUT*%
X167132000Y-140335000D03*
%TO.N,RESET*%
X108585000Y-130683000D03*
%TO.N,SCK*%
X116078000Y-126111000D03*
%TO.N,+12V*%
X116713000Y-118745000D03*
X116713000Y-119253000D03*
X116713000Y-119761000D03*
%TO.N,ADC IN B*%
X162128200Y-141909800D03*
X151968200Y-141935200D03*
X146888200Y-141935200D03*
X136728200Y-141935200D03*
X131648200Y-141935200D03*
X121488200Y-141935200D03*
X116408200Y-141935200D03*
X106197400Y-141935200D03*
X114173000Y-114427000D03*
X114173000Y-113919000D03*
X114173000Y-113411000D03*
D17*
%TO.N,+12V*%
X123444000Y-109728000D03*
X124460000Y-109728000D03*
X124460000Y-108712000D03*
X123444000Y-108712000D03*
X123444000Y-107696000D03*
X124460000Y-107696000D03*
X124460000Y-106680000D03*
X123444000Y-106680000D03*
%TD*%
D20*
%TO.N,ZONE 1*%
X132029200Y-136728200D02*
X132029200Y-131368800D01*
X132334000Y-131038600D02*
X134289800Y-129082800D01*
X131622800Y-137134600D02*
X132029200Y-136728200D01*
X132029200Y-131368800D02*
X132334000Y-131064000D01*
X106807000Y-137134600D02*
X131622800Y-137134600D01*
X106146600Y-137795000D02*
X106807000Y-137134600D01*
X106146600Y-139979400D02*
X106146600Y-137795000D01*
X132334000Y-131064000D02*
X132334000Y-131038600D01*
%TO.N,ZONE 8*%
X161239200Y-137896600D02*
X161975800Y-138633200D01*
X161975800Y-138633200D02*
X161975800Y-139979400D01*
X137972800Y-137896600D02*
X161239200Y-137896600D01*
X137541000Y-137464800D02*
X137972800Y-137896600D01*
X137541000Y-134162800D02*
X137541000Y-137464800D01*
%TO.N,ZONE 7*%
X137243400Y-138386400D02*
X150349800Y-138386400D01*
X136880600Y-138023600D02*
X137243400Y-138386400D01*
X150349800Y-138386400D02*
X151917400Y-139954000D01*
X136880600Y-134162800D02*
X136880600Y-138023600D01*
%TO.N,ZONE 6*%
X145669000Y-138836400D02*
X146812000Y-139979400D01*
X136245600Y-138506200D02*
X136575800Y-138836400D01*
X136245600Y-134162800D02*
X136245600Y-138506200D01*
X136575800Y-138836400D02*
X145669000Y-138836400D01*
%TO.N,ZONE 5*%
X135585200Y-134162800D02*
X135585200Y-138887200D01*
X135585200Y-138887200D02*
X136652000Y-139954000D01*
%TO.N,ZONE 4*%
X131676392Y-139979400D02*
X134924800Y-136730992D01*
X131572000Y-139979400D02*
X131676392Y-139979400D01*
X134924800Y-136730992D02*
X134924800Y-134162800D01*
%TO.N,ZONE 3*%
X134213600Y-134239000D02*
X134289800Y-134162800D01*
X134213600Y-136805796D02*
X134213600Y-134239000D01*
X132984796Y-138034600D02*
X134213600Y-136805796D01*
X122721800Y-138034600D02*
X132984796Y-138034600D01*
X121462800Y-139293600D02*
X122721800Y-138034600D01*
X121462800Y-139954000D02*
X121462800Y-139293600D01*
%TO.N,ZONE 2*%
X132798400Y-137584600D02*
X133629400Y-136753600D01*
X116974200Y-137584600D02*
X132798400Y-137584600D01*
X116382800Y-138176000D02*
X116974200Y-137584600D01*
X133629400Y-136753600D02*
X133629400Y-134162800D01*
X116382800Y-139979400D02*
X116382800Y-138176000D01*
%TO.N,ZONE 1*%
X134289800Y-129082800D02*
X134289800Y-128270000D01*
%TO.N,CLOCK*%
X134137400Y-127083400D02*
X132864000Y-125810000D01*
X119608600Y-127533400D02*
X108585000Y-127533400D01*
X108585000Y-127533400D02*
X108559600Y-127508000D01*
X136880600Y-128162537D02*
X135801463Y-127083400D01*
X135801463Y-127083400D02*
X134137400Y-127083400D01*
X121332000Y-125810000D02*
X119608600Y-127533400D01*
X132864000Y-125810000D02*
X121332000Y-125810000D01*
X136880600Y-128270000D02*
X136880600Y-128162537D01*
X136880600Y-129082800D02*
X136880600Y-128270000D01*
%TO.N,LATCH*%
X136245600Y-128270000D02*
X136245600Y-129082800D01*
X136245600Y-128168400D02*
X136245600Y-128270000D01*
X132892800Y-127533400D02*
X135610600Y-127533400D01*
X132130800Y-128295400D02*
X132892800Y-127533400D01*
X135610600Y-127533400D02*
X136245600Y-128168400D01*
X108610400Y-128295400D02*
X132130800Y-128295400D01*
%TO.N,RESET*%
X120309800Y-133680200D02*
X121925000Y-132065000D01*
X112852200Y-133680200D02*
X120309800Y-133680200D01*
X109855000Y-130683000D02*
X112852200Y-133680200D01*
X108585000Y-130683000D02*
X109855000Y-130683000D01*
%TD*%
M02*
